<svg xmlns="http://www.w3.org/2000/svg" xmlns:xlink="http://www.w3.org/1999/xlink" version="1.1" x="0" y="0" width="200" height="200" viewBox="0 0 200 200" enable-background="new 0 0 200 200" xml:space="preserve"><g id="Layer_1"><path d="M112.3 160.3c-0.1 0.1-0.3 0.1-0.4 0.2C112 160.4 112.2 160.4 112.3 160.3L112.3 160.3z"/><path d="M100 0C44.8 0 0 44.8 0 100s44.8 100 100 100 100-44.8 100-100S155.2 0 100 0zM153.2 126.9c0 0 0.1 1.4 1.4 2 0 0-0.7 0.7-1.9 0.1 0 0 2.3 12.8 1.9 20.2 0 0-0.7-0.6-1.6-0.7 0 0 0.4 4.9-3.3 9.8 0 0 0-1.3-0.7-1.9 0 0-1.2 4.4-9.8 4.7 0.2 1.1 0.4 2.2 0.7 3.3 0 0.1 0.2 0.2 0.3 0.1 0.3-0.2 0.7-0.4 1-0.6 0.9-0.3 1.5 0.1 1.5 0.1 -0.9 0.2-2.1 2.1-2.3 2.8 0.8-0.1 1.3 0.1 2.1 0.6 -0.7 0.1-1.5 0.5-1.5 0.5 4.3 1.8 4.9 4.4 6.3 6.3 -0.4-0.2-1.8-0.8-1.8-0.8 1.3 1.2 1.9 4 2 5 0.1 1.2 0.1 1.2 0.2 2.2 -0.5-0.2-0.9-0.3-1.3-0.4 0 0 0 0 0 0 0 0-0.1 0-0.1 0 -0.4-0.1-0.7-0.1-1.2-0.2 -0.8-0.1-2.4-0.3-4-0.5 -0.4 0-1.4-0.1-1.5-0.1 0 0.9 0 1.8 0 3 -0.9-0.1-1.8-0.2-2.7-0.4 -0.2 0-0.3 0-0.5 0 0 0 0 0 0 0 -1.7-0.3-3.4-0.6-5.1-0.7 -0.8 0-1.4 0-2.4 0 0 0 0 0 0 0 -1 0-2.8 0.1-4.3 0.3 -0.1-0.2-0.3-1.4-0.3-1.9 0 0-4.3-0.4-7.3 0 0 0 0-0.5-0.1-1.3 0-0.6-0.1-1.4-0.2-2.3 -0.7-4.2-2.2-8.5-2.9-10 -0.4-0.9-1.8-4-2.6-5.3 -10.2 3.6-20.9 0.8-23.4 0 -0.2 0.3-5.5 9.3-6.2 18.8 0 0 0.1 0 0.1 0H82c0 0 0 0 0 0v0c0 0-3.1-0.3-5.4-0.3 -0.4 0-1.2 0.1-1.8 0.1 -0.4 0-1.8 0.2-1.8 0.2v0l0 0c0 0.2 0.1 0.3 0.1 0.4 -0.1 0.7-0.1 0.8-0.2 1.3 -0.7 0.4-1.4 0.5-2.1 0.6 -3.9 0.3-6.2-0.2-9.5 0 0 0.1 0 0.4 0 0.4C60.5 182.4 59.9 182 59.2 183c0 0-0.1 0-0.1 0L59 179.6v0c-1-0.2-5.2 0.2-6.6 0.4 -0.4 0.1-0.7 0.2-1.1 0.2 0 0-0.1 0-0.1 0 0 0 0 0 0 0 -0.4 0.1-0.8 0.2-1.3 0.4 0.1-1 0.1-0.9 0.2-2.2 0.1-0.9 0.8-3.8 2-5 0 0-1.4 0.6-1.8 0.8 1.4-1.8 2-4.5 6.3-6.3 0 0-0.8-0.4-1.5-0.5 0.7-0.5 1.3-0.6 2.1-0.6 -0.3-0.7-1.4-2.6-2.3-2.8 0 0 0.6-0.4 1.5-0.1 0.4 0.2 0.7 0.4 1 0.6 0.1 0.1 0.1 0 0.1-0.1 0.3-1 0.4-1.9 0.4-2.9 0 0 0 0 0 0 0 0-0.4 0-0.9 0 0 0 0.1 0 0.1 0 -2.9-0.4-7.1-2.6-9.1-5.3 -2.2-2.9-3.7-6.6-3.7-6.6 -1.1 0.4-2.6 1.9-2.6 1.9 0.4-4.4 2.3-12.2 2.3-12.2l-2.4-1.7 3.2-1.9c0.1-6.3 3-12.3 3-12.3 -1-0.6-3.3 0.6-3.3 0.6 1.6-9.5 6.3-15.2 6.3-15.2 -2.2-0.6-5.2 1.3-5.2 1.3 3.4-5.6 10.2-12.5 10.2-12.5 -0.4-1.1-2.7-2.4-2.7-2.4 1.4-0.4 4.2-0.6 4.2-0.6 1.7-2.2 4.9-4.3 4.9-4.3 -0.3-4.2-3-6.6-3-6.6 1.7-0.4 2.7 0.4 2.7 0.4 0-6.5-2.6-9.3-2.6-9.3 2.4 0.3 3.6 1.7 3.6 1.7s-0.8-8.1-1.3-16.5c-3.4-1-8-2.9-10.9-6.4 -5.1-6.3-4.4-13.4-4.4-13.4s6.1 6.4 15.1 8c0.1-1.5 0.2-2.9 0.3-4 1.3-8.3 8.5-20.3 8.5-20.3s0.1 6.2 1.3 8.9c0 0 4.6-16.2 22-23.5v0c0 0 0 0 0 0 0 0-1.6 5-0.9 10.8 0 0 0 0 0 0 0.6-0.8 10.7-13.3 28.1-13.3 0 0 0 0.2 0 0.2 0 0 0 0 0 0 0 0-1.1 1.2-2.1 3.3 0 0 0-0.1 0-0.1 -0.8 1.9-1.4 4.6-1.4 8.5 0 0 4.9-1.7 10.8-0.5 0 0-5.1 3.6-3.8 9.8 0 0 6.4-6.8 17.9-3.7 0 0-3.1 3-4.1 13.2 0 0 1.4-1 3.6-0.9 0 0-4.1 3.6-6 11.5 8.6-1.8 14.4-7.9 14.4-7.9s1 7.2-4.1 13.4c-2.9 3.6-7.8 5.5-10.8 6.4 0 10.3 0 10.4 0 10.4s1.4-2.6 4.2-2.6c0 0-4.2 5.2-4.2 11.8s0 9.8 0 9.8 -0.1 0.1 0 0.2c0-0.2-0.1-0.3-0.1-0.3 2 1.7 6 5.7 6 5.7 0 0 0 0.1 0 0.1 0.7 0.7 1.4 1.5 1.9 2.1 2.3 3 5.7 5.5 7.3 6.2 0 0-1.3 1-3.6 1 0 0 2.2 6.7 3.6 13.3 1.4 6.6 3.4 7.5 5.3 7.5C155.4 125.4 155.1 127.1 153.2 126.9z"/></g><g id="Layer_2"/></svg>