<svg xmlns="http://www.w3.org/2000/svg" xmlns:xlink="http://www.w3.org/1999/xlink" version="1.1" id="Layer1" x="0" y="0" width="200" height="200" viewBox="0 0 200 200" enable-background="new 0 0 200 200" xml:space="preserve"><path d="M100 0C44.8 0 0 44.8 0 100s44.8 100 100 100 100-44.8 100-100S155.2 0 100 0zM155.5 126.5c0-0.1 0-0.2 0-0.2 0 0 0 0 0.1 0.1 0-0.2 0.1-0.4 0.1-0.6 0 0 10.2 7.8 7.2 24.6 -1.8 10.3-8.1 16-16.3 19 -3.1 6.6-10.2 15.9-23.4 17.3 -5 4.1-12.1 6.8-22.1 6.8v0c0 0 0 0 0 0 0 0 0 0 0 0v0c-10 0-17.1-2.7-22.2-6.8 -13.2-1.4-20.4-10.6-23.4-17.3 -8.3-3-14.5-8.8-16.3-19 -3-16.8 7.2-24.6 7.2-24.6 0 0.2 0.1 0.4 0.1 0.6 0 0 0 0 0-0.1 0 0 0 0.1 0 0.2 1 5.9 4.6 11.2 8.4 14.5 1.1-7.9 1.3-19.3 1.3-21.7 0-5.1-3.3-8.5-4.2-9.1 -0.9-0.5-1.9-1-2.9-1.6 -6.3-3.4-14.1-7.5-14.1-15.2 0-5.6 3.2-8.1 5.4-9.7 0.3-0.2 0.5-0.4 0.7-0.6 0.7-0.6 1.3-1 1.5-1.5 1.5-3.4 1.2-11.9 0.6-13.1 -0.2-0.2-5.8-7.3-4.1-13.6 0.7-2.6 2.4-4.6 4.9-5.9 1.8-0.9 4.1-1.4 6.8-1.5 0-0.7 0.2-1.4 0.3-2.1 0.2-0.9 0.4-1.8 0.3-2.8 -0.1-1.6-0.3-3.1-0.8-3.9 -2.9-4.6-10-6.1-10.1-6.1l-4.3-0.8 2.8-3.3c0.1-0.1 6-6.1 16.1-6.1 2.8 0 5.6 0.5 8.4 1.4 8.4 2.7 14.9 10.6 17.2 13.7 0.7-0.2 1.3-0.4 2-0.6 -0.3-9.2 7.2-16.5 9.8-16.8 0.1 1.6-0.1 7.7 2.5 9.6 0.8-5 3.4-10.5 13.6-14.2 -2.2 5.8-0.3 10.7 0.6 13 7-6.3 11.7-5.3 11.7-5.3s-4.6 7.9-3.1 13.4c1.1 0.3 2.2 0.6 3.3 0.9 2.2-3 8.7-11 17.2-13.7 2.8-0.9 5.6-1.4 8.4-1.4 10.1 0 16.1 6 16.1 6.1l2.8 3.3 -4.3 0.8c-0.1 0-7.2 1.5-10.1 6.1 -0.5 0.8-0.6 2.3-0.8 3.9 -0.1 1 0.1 1.9 0.3 2.8 0.1 0.7 0.3 1.4 0.3 2.1 2.7 0.1 4.9 0.6 6.8 1.5 2.5 1.3 4.2 3.3 4.9 5.9 1.7 6.3-3.9 13.4-4.1 13.6 -0.7 1.2-0.9 9.7 0.6 13.1 0.2 0.5 0.8 0.9 1.5 1.5 0.2 0.2 0.5 0.4 0.8 0.6 2.1 1.6 5.4 4.1 5.4 9.7 0 7.7-7.8 11.9-14.1 15.2 -1 0.6-2 1.1-2.9 1.6 -0.9 0.5-4.2 4-4.2 9.1 0 2.4 0.2 13.8 1.3 21.7C150.9 137.7 154.5 132.4 155.5 126.5z"/></svg>