<svg xmlns="http://www.w3.org/2000/svg" xmlns:xlink="http://www.w3.org/1999/xlink" version="1.1" x="0" y="0" width="200" height="200" viewBox="0 0 200 200" enable-background="new 0 0 200 200" xml:space="preserve"><g id="Layer_1"><path d="M100-1C44.8-1 0 43.8 0 99s44.8 100 100 100 100-44.8 100-100S155.2-1 100-1zM109.9 35.8l4-5.6c-7.4 13.5-0.4 30 11.1 38.6 2 1.5 4.2 2.8 6.4 3.9 1.2 0.6 2.4 1.1 3.7 1.5 1 0.3 2.1 0.7 3.1 1 12.8 3.1 23.2 1 29.3-8 -1.9 2.7-8.9 21.1-35 16.1 -0.6-0.1-1.1-0.3-1.7-0.5 -0.2-0.1-0.3-0.1-0.5-0.2 -0.4-0.1-0.8-0.3-1.2-0.4 -9.4-3.5-17.5-10.7-21.4-20C104 53.6 104.5 43.8 109.9 35.8zM89.1 166c-1-0.2-1.9-0.5-2.8-0.8 -0.2-0.1-0.4-0.1-0.7-0.2 -0.9-0.3-1.8-0.6-2.7-0.9 -0.1 0-0.2-0.1-0.3-0.1 -0.8-0.3-1.6-0.6-2.4-0.9 -0.2-0.1-0.4-0.2-0.6-0.2 -0.9-0.3-1.7-0.7-2.6-1.1 -0.2-0.1-0.3-0.1-0.5-0.2 -0.7-0.3-1.5-0.7-2.2-1 -0.2-0.1-0.4-0.2-0.6-0.3 -0.1-0.1-0.2-0.1-0.3-0.2 -0.5-0.2-0.9-0.5-1.4-0.7 -0.4-0.2-0.7-0.4-1.1-0.6 -0.7-0.4-1.3-0.7-2-1.1 -0.2-0.1-0.5-0.3-0.7-0.4 -0.9-0.5-1.8-1.1-2.6-1.6 -0.2-0.2-0.5-0.3-0.7-0.5 -0.6-0.4-1.1-0.7-1.7-1.1 -0.1 0-0.1-0.1-0.2-0.1 -0.2-0.1-0.4-0.3-0.6-0.4 -0.6-0.4-1.1-0.8-1.7-1.2 -0.3-0.2-0.5-0.4-0.8-0.6 -0.5-0.4-1-0.8-1.5-1.2 -0.3-0.2-0.5-0.4-0.8-0.6 -0.6-0.5-1.2-1-1.8-1.5 -0.1-0.1-0.2-0.2-0.4-0.3 0 0 0 0 0 0 -0.7-0.6-1.4-1.2-2-1.8 -0.2-0.2-0.4-0.4-0.6-0.6 -0.5-0.5-1-1-1.5-1.4 -0.2-0.2-0.4-0.4-0.6-0.6 -0.6-0.6-1.2-1.3-1.8-1.9 0 0 0 0-0.1-0.1 0 0 0 0 0 0 -0.6-0.7-1.2-1.4-1.8-2.1 -0.2-0.2-0.3-0.4-0.5-0.6 -0.4-0.5-0.9-1.1-1.3-1.6 -0.2-0.2-0.4-0.5-0.5-0.7 -0.5-0.6-1-1.2-1.4-1.9 -0.1-0.1-0.2-0.2-0.3-0.4 0 0 0 0 0-0.1 -0.5-0.7-1-1.5-1.5-2.2 -0.2-0.2-0.3-0.5-0.5-0.7 -0.4-0.6-0.7-1.1-1.1-1.7 -0.2-0.3-0.4-0.6-0.5-0.9 -0.3-0.5-0.6-1.1-0.9-1.6 -0.2-0.3-0.3-0.6-0.5-0.9 -0.1-0.2-0.2-0.3-0.3-0.5 -0.2-0.3-0.3-0.6-0.5-0.9 -0.2-0.5-0.5-0.9-0.7-1.4 -9.6-19.3-11.2-42.9 1.4-61.1l9.9-12.5c-11.1 21.5-6.1 47.7 7.8 66.7 0.5 0.7 1 1.4 1.5 2.1 0.2 0.2 0.3 0.4 0.5 0.6 0.4 0.6 0.9 1.1 1.3 1.7 0.2 0.2 0.3 0.4 0.5 0.6 0.6 0.7 1.2 1.4 1.9 2.1 0 0 0.1 0.1 0.1 0.1 0.6 0.7 1.2 1.3 1.8 1.9 0.2 0.2 0.4 0.4 0.6 0.6 0.5 0.5 1 1 1.5 1.5 0.2 0.2 0.4 0.4 0.6 0.6 0.7 0.6 1.4 1.3 2.1 1.9 0.1 0.1 0.1 0.1 0.2 0.2 0.7 0.6 1.3 1.1 2 1.7 0.2 0.2 0.5 0.4 0.7 0.6 0.5 0.4 1.1 0.8 1.6 1.2 0.3 0.2 0.5 0.4 0.8 0.6 0.6 0.4 1.2 0.9 1.8 1.3 0.2 0.1 0.4 0.3 0.6 0.4 0.6 0.4 1.2 0.8 1.9 1.2 0.2 0.2 0.5 0.3 0.7 0.5 0.9 0.5 1.7 1.1 2.6 1.6 0.2 0.1 0.5 0.3 0.7 0.4 0.7 0.4 1.3 0.8 2 1.1 0.4 0.2 0.7 0.4 1.1 0.6 0.6 0.3 1.1 0.6 1.7 0.9 0.2 0.1 0.4 0.2 0.6 0.3 0.7 0.3 1.4 0.7 2.2 1 0.2 0.1 0.3 0.2 0.5 0.2 0.8 0.4 1.7 0.7 2.6 1.1 0.2 0.1 0.4 0.2 0.7 0.3 0.8 0.3 1.6 0.6 2.4 0.9 0.1 0 0.2 0.1 0.4 0.1 0.9 0.3 1.8 0.6 2.7 0.9 0.2 0.1 0.5 0.1 0.7 0.2 0.9 0.3 1.8 0.6 2.8 0.8 25.1 5.7 51.5 0.6 66.4-18.8C167.9 129.3 150.1 177.2 89.1 166zM113.3 122.2c-0.9-0.2-1.8-0.5-2.7-0.8 -0.3-0.1-0.6-0.2-0.8-0.3 -0.6-0.2-1.2-0.4-1.8-0.6 -0.3-0.1-0.6-0.2-0.9-0.3 -0.7-0.3-1.3-0.5-2-0.8 -0.2-0.1-0.4-0.1-0.5-0.2 -0.8-0.4-1.6-0.7-2.4-1.1 -0.1 0-0.1-0.1-0.2-0.1 -0.4-0.2-0.8-0.4-1.2-0.6 -0.2-0.1-0.4-0.2-0.6-0.3 -0.6-0.3-1.1-0.6-1.7-0.9 -0.1-0.1-0.2-0.1-0.3-0.2 -0.6-0.4-1.3-0.8-1.9-1.2 -0.2-0.1-0.4-0.2-0.6-0.4 -0.4-0.3-0.8-0.5-1.2-0.8 0 0 0 0-0.1-0.1 -0.9-0.6-1.7-1.2-2.6-1.9 -0.2-0.1-0.4-0.3-0.6-0.4 -0.8-0.7-1.7-1.3-2.4-2 0 0 0 0 0 0 0 0-0.1-0.1-0.1-0.1 -0.7-0.6-1.4-1.3-2.1-1.9 -0.2-0.2-0.4-0.4-0.5-0.5 -0.7-0.7-1.4-1.4-2-2.1 -1.8-1.6-3.3-3.9-4.7-5.9 -1.5-2.2-2.8-4.4-4-6.7 -7.1-13.9-7.6-31.5 1.5-44.6L84.4 36.7c-6.1 10.3-6.8 22.9-3.3 34.2 3.3 10.9 10.4 20.4 19.3 27.5 0.2 0.2 0.4 0.3 0.6 0.5 0.8 0.6 1.7 1.3 2.5 1.9 0.4 0.3 0.8 0.5 1.2 0.8 0.2 0.1 0.4 0.3 0.6 0.4 0.6 0.4 1.3 0.8 1.9 1.2 0.1 0.1 0.3 0.1 0.4 0.2 0.5 0.3 1 0.6 1.6 0.9 0.2 0.1 0.5 0.2 0.7 0.4 0.4 0.2 0.8 0.4 1.2 0.6 0.8 0.4 1.6 0.8 2.5 1.1 0.2 0.1 0.4 0.2 0.5 0.2 0.7 0.3 1.3 0.6 2 0.8 0.3 0.1 0.6 0.2 0.8 0.3 0.6 0.2 1.2 0.4 1.9 0.6 0.3 0.1 0.5 0.2 0.8 0.3 0.9 0.3 1.8 0.5 2.7 0.8 20.3 5.3 39.3-1.5 49.1-15.6C171.3 93.7 160.4 130 113.3 122.2z"/></g><g id="Layer_2"/></svg>