<svg xmlns="http://www.w3.org/2000/svg" xmlns:xlink="http://www.w3.org/1999/xlink" version="1.1" id="Layer_2" x="0" y="0" width="200" height="200" viewBox="0 0 200 200" enable-background="new 0 0 200 200" xml:space="preserve"><path d="M153.3 88h-8.8l-4.8 24h7.8c5.2 0 9-0.8 11.6-2.8 2.5-1.9 4.2-5.1 5.1-9.7 0.8-4.4 0.5-7.3-1.2-9.1C161.4 88.7 158.2 88 153.3 88z"/><path d="M53.2 88h-8.8l-4.8 24h7.8c5.2 0 9-0.8 11.6-2.8 2.5-1.9 4.2-5.1 5.1-9.7 0.8-4.4 0.5-7.3-1.2-9.1C61.3 88.7 58.1 88 53.2 88z"/><path d="M100 0C44.8 0 0 44.8 0 100s44.8 100 100 100 100-44.8 100-100S155.2 0 100 0zM69.3 115c-2.6 2.4-5.4 4.3-8.5 5.3C57.6 121.3 53.6 122 48.8 122H37.8l-3 15H21.9l11.4-59h24.7c7.4 0 12.8 2.1 16.2 6 3.4 3.9 4.4 9.4 3.1 16.4 -0.6 2.9-1.5 5.6-2.8 7.9C73.2 110.8 71.5 113 69.3 115zM106.7 122l5.1-26.2c0.6-3 0.4-5-0.6-6.1 -1-1.1-3.1-1.7-6.4-1.7H94.6l-6.6 34H75.3l11.4-59h12.7l-3 15h11.3c7.1 0 12.1 1.4 14.8 3.9 2.7 2.5 3.5 6.8 2.4 12.4L119.7 122H106.7zM174.6 108.4c-1.3 2.4-3.1 4.6-5.2 6.5 -2.6 2.4-5.4 4.3-8.5 5.3 -3.1 1-7.1 1.7-12 1.7h-11l-3 15h-12.8l11.4-59h24.7c7.4 0 12.8 2.1 16.2 6 3.4 3.9 4.4 9.4 3.1 16.4C176.9 103.3 176 106 174.6 108.4z"/></svg>