<svg xmlns="http://www.w3.org/2000/svg" xmlns:xlink="http://www.w3.org/1999/xlink" version="1.1" x="0" y="0" width="200" height="200" viewBox="0 0 200 200" enable-background="new 0 0 200 200" xml:space="preserve"><g id="Layer_1"/><g id="Layer_2"><path d="M82 158c2 0 4 0 6 0 0-3 0-5 0-7 -2 0-4 0-6 0C82 153 82 156 82 158z"/><path d="M58 156c1 0 3 0 5 0 0-2 0-3 0-4 -2 0-4 0-5 0C58 153 58 154 58 156z"/><path d="M100 0C44.8 0 0 44.8 0 100s44.8 100 100 100 100-44.8 100-100S155.2 0 100 0zM142.1 35.3c2.3 1.7 4.4 3.2 6.6 4.8 -0.4 0.6-0.7 1.2-1.2 1.9 -1.8-0.9-3.5-1.8-5.1-2.8 -0.4-0.2-0.5-1-0.5-1.6C141.9 36.9 142 36.3 142.1 35.3zM121.9 29.4c0.3 0 0.7 0.6 0.8 0.9 0.3 1.3 0.4 2.7 0.7 4.5 -2.6 0-5 0-7.4 0 -0.4 0-1-0.5-1-0.8 -0.4-1.6-0.7-3.2-1-5C116.7 29.1 119.3 29.2 121.9 29.4zM96.8 32.2c1.7 1.9 3.2 3.6 4.9 5.5 -2.2 1.3-4.4 2.6-6.7 3.9 -1.6-1.9-3.2-3.9-4.9-5.9C92.4 34.5 94.6 33.4 96.8 32.2zM74.2 49.7c2.4 1.6 4.7 3.1 7.1 4.7 -1.9 2.2-3.6 4.3-5.5 6.5 -2.4-1.6-4.8-3.2-7.3-4.9C70.4 53.9 72.2 51.9 74.2 49.7zM56.1 76.7c3.1 1.2 6.1 2.4 9.3 3.7 -0.9 2.6-1.8 5.2-2.8 7.9 -0.4-0.1-0.7-0.1-0.9-0.2 -2.8-0.9-5.6-1.8-8.6-2.8C54.1 82.4 55.1 79.6 56.1 76.7zM46 110.8c3.5 0.3 6.9 0.5 10.5 0.8 -0.6 3.5-1.2 7-1.8 10.6 -3.3-0.4-6.5-0.8-9.9-1.2C45.2 117.6 45.6 114.3 46 110.8zM71.6 168.4c-1.5 0-3.1-0.2-4.6 0 -3.1 0.4-5.5-0.5-7.3-3.1 -0.6-0.8-1.5-1.5-2.2-2.3 -0.1 0.1-0.4 0.1-0.4 0.2 0 1.9 0 3.7 0 5.7 -2 0-4 0-6 0 0-8 0-15.9 0-24.1 5 0.2 9.5-0.5 14.1 0.7 4.1 1.1 6 4.5 5.1 9.2 -0.6 3-2 5.4-5.8 6.2 1.5 1.3 2.7 2.4 3.9 3.5 1.2 1.1 2.3 2.2 3.5 3.3C71.7 168.1 71.7 168.2 71.6 168.4zM94.5 166.8c0 0.4-0.1 1.2-0.1 1.2 -2 0-4.4 0-6.4 0 0-1 0-2 0-4 -2 0-4 0-6 0 0 2 0 3 0 4 -2 0-3.9 0-6 0 -0.1 0-0.1-0.4-0.1-0.7 0-5.2-0.1-10.4 0-15.6 0.1-4.5 2.1-6.5 6.6-6.6 2.4 0 4.8 0 7.2 0.4 3.4 0.6 4.8 2.4 4.9 5.8C94.6 156.5 94.5 161.6 94.5 166.8zM107 168c-2 0-4 0-6 0 0-8 0-15 0-23 2 0 4 0 6 0C107 153 107 160 107 168zM112.4 81.1c0.2 0.2 0.3 0.8 0.2 1.1 -0.4 1.9-0.9 3.7-1.4 5.9 -2.4-2.1-4.6-4-6.9-5.9 0.9-1.8 1.7-3.4 2.6-5.3C108.9 78.3 110.7 79.7 112.4 81.1zM110.8 63.8c1.4-1.3 2.7-2.5 4.2-3.9 1.3 2 2.5 3.8 3.7 5.7 0.2 0.2 0.1 0.7 0 1 -0.6 1.2-1.3 2.3-2.1 3.7C114.7 68.1 112.8 66.1 110.8 63.8zM111.4 99.3c0.3 0.2 0.5 0.7 0.5 1 0.1 1.9 0.2 3.7 0.3 5.9 -2.8-1.2-5.4-2.3-8-3.5 -0.2-0.1-0.5-0.5-0.5-0.7 0.1-2.1 0.2-4.2 0.4-6.6C106.7 96.8 109.1 98.1 111.4 99.3zM114.7 120.8c0.4 0 0.9 0.3 1.1 0.6 1.2 2.3 2.3 4.7 3.5 7.3 -2.7-0.2-5.2-0.3-7.6-0.4 -3.1-0.2-3.1-0.3-3.9-3.3 -0.4-1.3-0.7-2.7-1.2-4.2C109.5 120.8 112.1 120.8 114.7 120.8zM130 168c-6 0-11 0-16 0 0-7 0-15 0-23 2 0 4 0 6 0 0 6 0 12 0 17 4 0 7 0 10 0C130 164 130 166 130 168zM126 58.4c-0.9-1.6-1.7-3.1-2.6-4.7 1.9-0.5 3.6-0.9 5.4-1.4C130.4 55 130 55.8 126 58.4zM151.2 164.3c-0.3 2.2-1.9 3.7-4.1 3.9 -3 0.3-6.2 0.3-9.2 0.4 -1.5 0-2.8 0-4.8 0 0-1.9 0-3.7 0-5.6 3 0 6 0 8.9 0 0.8 0 1.7 0 2.4-0.3 0.5-0.2 0.9-0.8 1.3-1.2 -0.4-0.4-0.7-1-1.2-1.2 -0.7-0.2-1.6-0.2-2.4-0.3 -0.9-0.1-1.8-0.1-2.7-0.2 -5.7-0.9-8.4-6.7-5.4-11.7 1.2-2.1 3.2-2.9 5.4-3 3.6-0.1 7.7 0 10.7 0 0 2.1 0 3.8 0 5.8 -3 0-7 0-10 0 0 1 0 1.8 0 2.7 1 0 2.1 0 3.1 0 1.1 0 2.1 0 3.2 0.1 2.8 0.3 4.5 1.7 4.9 4.4C151.5 160.2 151.4 162.3 151.2 164.3zM141 54c0-1 0-1.8 0-3 2 0.4 3 0.8 5 1.2 0 0.9 0 1.6 0 2.4C144 54.4 143 54.2 141 54zM152.8 53.6c-2.8-2.6-5.9-4.3-9.5-5.2 -5.5-1.3-10.7-0.5-15.8 1.8 -13.8 6.2-22 16.9-25.1 31.5 -2.3 11-1.2 22 1.1 32.9 1.6 7.7 3.8 15.2 6.7 22.5 0.1 0.2 0.2 0.9 0.3 0.9 -18 0-35.8 0-53.9 0 0-4-0.2-7.5 0-11.2 1.5-20.5 8.2-39.3 18-57.3 4.4-8.1 9.4-15.8 16.4-21.9 8.6-7.5 18.5-11.7 29.9-12.2 5.7-0.3 11.3 1 16.6 3.1 6 2.5 11.5 5.9 16.4 10.2 0.4 0.4 0.8 0.8 1.3 1.2C154.4 51.2 153.6 52.3 152.8 53.6z"/></g></svg>