<svg xmlns="http://www.w3.org/2000/svg" xmlns:xlink="http://www.w3.org/1999/xlink" version="1.1" x="0" y="0" width="200" height="200" viewBox="0 0 200 200" enable-background="new 0 0 200 200" xml:space="preserve"><g id="Layer_1"/><g id="Layer_2"><path d="M85.1 108c-1.5 1.7-4.1 6-5.3 9.6 -2.4 7.2-1.4 14.5 0.3 15 2 0.5 5.2-9.1 6.7-12.9 1-2.3 4.7-12.8 3.9-14.2C90.2 104.4 87.5 105.3 85.1 108z"/><path d="M58.5 123.2c0 0-0.1 0.1-0.3 0.2 -1.1 0.7-2.1 1.3-2.7 1.7 -2.8 1.8-7.1 4.7-10.4 7.8 -5.4 5.1-6.5 12.3-3.7 13.9 2.6 1.6 8.9-0.3 13.3-5.1 4.7-5.1 6.6-11.5 4.6-18.8C58.9 123 58.7 123.1 58.5 123.2z"/><path d="M112.3 132.3c0 0-0.5 0.5-0.3 0.6 0.3 0.2 1.1-0.1 1.8-0.4 1.9-1.2 6.2-4.1 6.2-8.4v-0.4c-1 1.3-2.1 2.4-2.8 3.3C115.8 128.7 112.3 132.3 112.3 132.3z"/><path d="M135.3 122.8c-1.6 3.5-1.7 4.6-1.2 5 2.3-0.8 6.2-2.9 6.2-8.3 0-0.8-0.2-1.7-0.4-2.6C137.4 119.1 135.9 121.4 135.3 122.8z"/><path d="M100 0C44.8 0 0 44.8 0 100s44.8 100 100 100 100-44.8 100-100S155.2 0 100 0zM171.8 133.4c-0.8 0.1-1.2 0.1-1.4-0.5 -0.1-0.4 0.2-0.6 1.1-1.2 0.9-0.6 3.7-2.5 4.2-6 0.5-3.5-2.1-11.8-15.5-13.4 -6.2-0.8-11.1 0.1-14.9 1.7 0.7 1.8 1.2 3.7 1.3 5.6 0.1 4.2-2.7 7.3-5.7 9.5 -1.7 1.3-3.6 2.2-5.2 2.7 -1.3 0.5-2.9 1.1-4.1 0.8 -2.6-0.5-4-2.9-2.2-8 1-2.8 3.8-7 8.2-10.6 -1-2.1-2.2-4.2-2.7-6.2 -1.1-3.8-1.5-6.2-1.5-6.2s-3.7 7.6-8.4 14.6c-0.3 0.4-0.5 0.8-0.8 1.2 0.9 2.2 1.7 4.4 1.8 6.8 0.2 4.2-1.7 7.4-4.7 9.6 -1.7 1.2-3.4 2-4.9 2.6 -1 0.4-2.9 1.1-5.6 1.3 -1.5 0.1-3 0-3.8-0.6 -1.1-0.8-1.2-1.9-0.7-3.3 0.5-1.2 4.1-5.4 7.2-9 0.8-1 1.7-2 2.4-3l0 0c0 0 0.5-0.7 1.4-2 -1.1-2.4-2.6-4.9-3.2-7.2 -1.1-3.8-1.5-6.2-1.5-6.2s-3.8 9.6-7.7 17.2c-3 5.9-5 9.5-6 11.1v0.1c0 0 0.1 0.2-0.1 0.6 -0.1 0.2 0.1 0.3 0.1 0.3v0c-1 1.5-3.5 4.4-5.7 4.4 -6.2 0-4-12.5-4-12.5s-1.8 4.6-3.9 8.6c-1.7 3.3-3.2 6-6.5 6 -0.9 0-2.4 0-3.7-1.2 -2.9-2.7-5-9.5-4.6-14.8 0.4-4.5 1-7.6 2-10.2 -1.7 0.9-3.7 2-5.6 3.2l-3.1 1.8 0.1 0.2c2.6 4.9 3.2 15.6-2.3 23.9 -5.6 8.3-15.8 13.3-25.9 10.5 -3.2-0.9-8.1-7.6-3.9-16.9 3.7-8.2 18.6-16 22.5-17.9 0.3-0.2 0.7-0.4 1.1-0.6 -7.8-6.8-27.3-16-30-30.2 -0.8-4 1.1-13.5 12.8-24.4 9.9-9.2 23.5-16.2 36.2-20.8 21.2-7.5 43.7-3.1 47.2 10.5 3.4 13.3-8.2 29.2-23 35 -13.2 5.1-24.1 4.3-28.6 2.8 -5.1-1.7-8.1-5-8.8-6.9 -0.3-0.8-0.8-2 0-2.4 0.5-0.3 0.7-0.2 2 1.2 1.2 1.4 6.1 5 15.4 3.9 24.4-2.7 39.2-21.7 34.5-31.9 -3.3-7.1-22.1-10.4-45.6 1.4C38.8 72.1 37.2 83.9 36.9 88.3c-0.7 12.3 15.2 18.8 23.8 28l0.3 0.4c1.6-0.9 3.3-1.8 5-2.7 4.3-2.4 8.4-4.6 10.3-5.6 3-4.4 9.2-9.3 13.6-9.3 7.1 0 4.7 10.2 4.7 10.2s0.2-0.5 0.3-0.5c0.2 0 1-1.4 3.2-0.5 2.3 0.8 1.7 2.4 1.7 2.6 0 0.3-2.7 9.4-3.8 15.2 -0.5 2.8-0.3 4.8-0.1 4.8 0.2 0 1-0.7 1-1.5v0c0 0 0.4-0.6 0.9-1.6 0.1-0.1-0.5 1 0.1-0.2s1.5-3 2.5-5.2c2-4.4 9.5-21.1 10.1-22.9 0.7-1.9 1-3.8 1.3-4.6 0.3-0.8 3-1.4 6.1-1.4s3.4 1.4 3.4 1.6c0 0.3-1.5 4-1.8 6.5 -0.3 2.6 0 3.9 0.3 6.1 0.2 1.4 1.1 3.2 2.1 5.3 3.2-5.3 8.9-15.3 9.4-18.1 0.4-1.9 1-3.8 1.3-4.6 0.3-0.8 3-1.4 6.1-1.4 3.1 0 3.4 1.4 3.4 1.6 0 0.3-1.5 4-1.8 6.5 -0.3 2.6 0 3.9 0.3 6.1 0.2 1.9 1.7 4.4 3.1 7.2 3.9-1.9 8.6-3.2 13.9-3.2h0c13.9-0.1 21.7 8.9 21.4 17.2C178.8 130.5 172.9 133.2 171.8 133.4z"/></g></svg>