<?xml version="1.0" encoding="utf-8"?>
<!-- Generator: Adobe Illustrator 16.0.0, SVG Export Plug-In . SVG Version: 6.00 Build 0)  -->
<!DOCTYPE svg PUBLIC "-//W3C//DTD SVG 1.1//EN" "http://www.w3.org/Graphics/SVG/1.1/DTD/svg11.dtd">
<svg version="1.1" id="Layer_1" xmlns="http://www.w3.org/2000/svg" xmlns:xlink="http://www.w3.org/1999/xlink" x="0px" y="0px"
	 width="200px" height="200px" viewBox="0 0 200 200" enable-background="new 0 0 200 200" xml:space="preserve">
<path fill="#63CCF0" d="M100,0C44.771,0,0,44.771,0,100c0,55.229,44.771,100,100,100c55.229,0,100-44.771,100-100
	C200,44.771,155.229,0,100,0z M159.706,68.491c-2.299,1.847-3.302,3.74-3.269,6.723c0.406,36.597-26.342,77.269-72.77,82.379
	c-18.914,2.08-36.752-1.358-53.164-11.899c14.434,0.158,27.801-2.866,40.517-12.418c-12.663-2.192-21.4-8.028-26.241-19.896
	c3.761-0.248,6.79-0.446,9.819-0.647C42.4,106.693,35.181,97.649,34.17,83.737c4.191,0.367,7.331,3.048,11.627,2.079
	C34.459,74.989,31.16,62.746,38.35,47.548c16.064,18.649,35.497,28.603,58.982,30.45c1.688-2.227,0.713-4.449,0.757-6.514
	c0.251-11.695,5.388-20.599,15.665-25.991c10.479-5.498,21.158-4.873,30.578,2.318c4.109,3.138,7.502,3.369,11.758,1.526
	c3.166-1.372,6.395-2.612,10.148-4.136c-1.113,6.554-5.906,10.094-9.891,14.68c4.705,0.046,8.475-2.017,13.146-2.679
	C167.059,62.359,163.409,65.517,159.706,68.491z"/>
</svg>
