<svg xmlns="http://www.w3.org/2000/svg" xmlns:xlink="http://www.w3.org/1999/xlink" version="1.1" id="contact" x="0" y="0" width="545" height="410.6" viewBox="-217.7 -164 545 410.6" enable-background="new -217.695 -164 545 410.576" xml:space="preserve">
  <symbol id="email" viewBox="-217.7 -164 545 410.6">
    <path id="_x3C_Path_x3E_" d="M327.3 246.6c-181.1 0-362.1 0-545 0 0-136.7 0-272.8 0-410.6 181.3 0 362.2 0 545 0C327.3-27.3 327.3 108.8 327.3 246.6zM-156.5-127.4C-91.2-62.2-30.5-1.4 30.5 59.1c21.7 21.5 26.7 21.5 48.6-0.2C137.2 1.1 195.1-56.9 252.9-114.9c3.1-3.1 5.2-7.1 9-12.5C122.7-127.4-13.5-127.4-156.5-127.4zM-150.3 208.5c137 0 273.9 0 404.8 0 -44.1-44.2-90-90-131.9-132 -22.3 11.2-45.9 32.4-69.2 32.1 -23.3-0.3-46.3-22.3-69.3-34.7C-58.9 116.9-104.3 162.5-150.3 208.5zM157 38c45.6 45.7 91.2 91.4 134.2 134.4 0-86.2 0-177.7 0-268.7C244.6-49.7 198.7-3.8 157 38zM-182.6 173.7c45.5-44.5 92.2-90.2 134.6-131.7 -44.5-44.5-90.3-90.2-134.6-134.5C-182.6-5-182.6 86.3-182.6 173.7z"/>
  </symbol>
  <symbol id="phone" viewBox="-217.7 -164 545 410.6">
    <path d="M158.6 243.4c-16.9 0-32.9-4.5-48.6-10.3 -22.6-8.4-45.6-15.8-66.7-27.9 -32.2-18.4-60.1-42.3-86.1-68.6 -23.2-23.4-44.3-48.4-61.5-76.5 -15-24.6-23.8-52-33.5-78.9 -5.7-15.9-9.3-32.3-7.9-49.4 2.3-28.9 14.6-53.4 34.2-74.2 3.8-4.1 9.4-7.3 14.7-8.9 10.3-3.2 21-5.1 31.5-7.2 7.6-1.5 13.3 1.4 17 8.3 6.4 11.7 12.8 23.3 19.5 34.9 7.3 12.7 15 25.2 22.5 37.7 0.9 1.6 2 3.1 2.9 4.7 5.4 9.7 5.3 14.5-2.2 22.5 -6.7 7.1-14.3 13.4-21.6 19.9 -5.3 4.8-11 9.1-16.2 14.1C-53-7.2-53.9-2.5-47.3 9c7.8 13.6 15.8 27.1 24.5 40 24.1 35.7 55.5 63.6 92.8 84.9 7.9 4.5 15.9 8.9 24 13.2 6.4 3.4 12.1 1.7 16.8-3.3 6.5-6.9 12.6-14.2 18.9-21.2 6.1-6.8 12.1-13.8 18.7-20 7.2-6.8 12.7-7.1 21.3-2.1 20.3 11.7 40.5 23.6 60.8 35.5 6.5 3.8 13 7.4 19.4 11.2 4.8 2.8 6.7 7.2 6.3 12.7 -1.1 13.7-3.7 27.1-9.5 39.6 -2.3 4.8-6 9.3-10.1 12.8 -21.7 18.2-46.2 30.1-75.1 31.2C160.6 243.5 159.6 243.4 158.6 243.4z"/>
  </symbol>
</svg>