<?xml version="1.0" encoding="utf-8"?>
<!-- Generator: Adobe Illustrator 16.0.0, SVG Export Plug-In . SVG Version: 6.00 Build 0)  -->
<!DOCTYPE svg PUBLIC "-//W3C//DTD SVG 1.1//EN" "http://www.w3.org/Graphics/SVG/1.1/DTD/svg11.dtd">
<svg version="1.1" id="Layer_1" xmlns="http://www.w3.org/2000/svg" xmlns:xlink="http://www.w3.org/1999/xlink" x="0px" y="0px"
	 width="109.61px" height="82.574px" viewBox="0 0 109.61 82.574" enable-background="new 0 0 109.61 82.574" xml:space="preserve">
<style>
	.graphic-path {
	    <!-- fill: white; -->
	}
</style>
<g>
	<path class="graphic-path" fill-rule="evenodd" clip-rule="evenodd" d="M109.61,82.574c-36.432,0-72.831,0-109.61,0C0,55.078,0,27.706,0,0
		c36.455,0,72.845,0,109.61,0C109.61,27.489,109.61,54.868,109.61,82.574z M12.309,7.351c13.137,13.116,25.347,25.349,37.608,37.527
		c4.357,4.327,5.379,4.325,9.782-0.05C71.386,33.21,83.021,21.539,94.655,9.868c0.619-0.621,1.046-1.435,1.817-2.518
		C68.464,7.351,41.06,7.351,12.309,7.351z M13.551,74.925c27.557,0,55.076,0,81.414,0c-8.877-8.883-18.097-18.107-26.537-26.553
		c-4.486,2.25-9.238,6.521-13.927,6.454c-4.683-0.067-9.303-4.479-13.933-6.975C31.936,56.5,22.798,65.658,13.551,74.925z
		 M75.351,40.622c9.171,9.188,18.341,18.373,26.988,27.036c0-17.332,0-35.738,0-54.036C92.973,22.992,83.746,32.223,75.351,40.622z
		 M7.051,67.922c9.142-8.946,18.538-18.142,27.075-26.496c-8.956-8.95-18.162-18.148-27.075-27.055
		C7.051,31.974,7.051,50.339,7.051,67.922z"/>
</g>
</svg>
