<?xml version="1.0" encoding="utf-8"?>
<!-- Generator: Adobe Illustrator 16.0.0, SVG Export Plug-In . SVG Version: 6.00 Build 0)  -->
<!DOCTYPE svg PUBLIC "-//W3C//DTD SVG 1.1//EN" "http://www.w3.org/Graphics/SVG/1.1/DTD/svg11.dtd">
<svg version="1.1" id="Shape_1_xA0_Image_1_" xmlns="http://www.w3.org/2000/svg" xmlns:xlink="http://www.w3.org/1999/xlink"
	 x="0px" y="0px" width="160.695px" height="160.502px" viewBox="0 0 160.695 160.502" enable-background="new 0 0 160.695 160.502"
	 xml:space="preserve">
<g>
	<path fill-rule="evenodd" clip-rule="evenodd" d="M80.142,160.502c-3.084-7.994-6.003-14.529-8.028-21.33
		c-0.772-2.594,0.351-5.824,0.875-8.718c0.877-4.841,1.968-9.643,2.961-14.428c-3.99-1.701-5.131-0.89-6.212,2.624
		c-1.922,6.246-4.333,12.511-7.683,18.08c-1.777,2.954-5.715,5.022-9.109,6.491c-4.833,2.091-9.483,0.236-11.716-3.708
		c-2.516-4.443-1.491-10.331,2.378-13.666c4.056-3.495,8.583-2.542,10.993,2.332c0.505,1.022,0.937,2.081,2.855,3.499
		c1.952-5.202,3.904-10.404,5.856-15.607c-0.473-0.419-0.945-0.839-1.417-1.259c-3.055,0.954-6.109,1.908-9.126,2.851
		c-0.01-4.711,0.235-4.945,9.427-8.896c-0.902-8.062-7.206-13.976-16.089-14.799c-7.28-0.675-14.395-0.101-20.378,4.755
		c-6.042,4.902-6.978,12.087-7.624,19.399C4.858,111.241-3.341,91.058,1.316,77.867c4.63-13.113,16.941-19.251,32.96-16.432
		c19.382,3.41,34.04,20.188,36.613,41.589c0.263,2.188-1.435,5.866,2.826,6.014c0.281,0.01,1.602-4.709,0.928-6.724
		c-3.149-9.417-5.448-19.521-10.614-27.773c-9.834-15.713-9.158-29.97,0.606-45.165C70.546,20.18,75.061,10.086,80.411,0
		c7.447,14.576,15.07,28.872,22.066,43.468c3.338,6.964,2.259,14.227-1.178,21.207c-4.475,9.094-8.887,18.233-12.854,27.554
		c-1.599,3.755-2.171,8.01-2.763,12.103c-0.227,1.58,0.791,3.34,1.24,5.018c0.908-1.627,2.445-3.187,2.624-4.89
		c1.386-13.146,6.688-24.22,16.416-33.256c9.976-9.266,21.997-11.663,34.82-9.809c11.849,1.713,20.792,13.88,19.843,26.34
		c-0.972,12.756-6.908,22.905-17.983,30.98c-0.993-8.426-1.6-16.803-9.155-20.69c-5.078-2.614-11.317-3.847-17.092-4.034
		c-9.726-0.315-16.33,5.511-18.336,14.876c4.376,1.54,9.642,2.49,10.389,9.009c-3.406-1.099-6.465-2.085-10.055-3.243
		c-0.492,6.957,1.853,12.073,5.734,16.88c0.498-0.577,0.803-0.79,0.912-1.078c1.568-4.13,3.433-7.884,8.959-6.279
		c4.324,1.255,7.392,6.759,6.615,11.641c-0.79,4.967-4.491,8.867-9.143,8.001c-4.021-0.749-8.295-2.648-11.396-5.286
		c-5.777-4.911-8.41-11.9-9.305-19.37c-0.399-3.338-1.428-5.025-5.877-3.366c0.65,4.153,0.6,8.794,2.186,12.784
		c2.284,5.746,2.046,10.945-0.367,16.385C84.637,149.619,82.724,154.368,80.142,160.502z M80.278,21.325
		c-4.535,8.829-8.888,16.509-12.406,24.553c-1.362,3.114-2.123,7.575-0.931,10.522c3.806,9.417,8.656,18.412,13.242,27.857
		c4.188-8.222,8.029-15.963,12.059-23.605c2.596-4.922,3.02-9.894,0.58-14.852C88.942,37.912,84.815,30.145,80.278,21.325z
		 M13.022,98.266c10.357-14.377,24.46-15.86,40.25-13.388c-7.938-11.739-18.811-15.393-31.518-13.611
		c-3.174,0.444-6.657,3.183-8.764,5.844C7.805,83.658,9.396,90.741,13.022,98.266z M148.023,98.896
		c1.075-4.593,2.395-8.175,2.671-11.836c0.55-7.265-4.582-14.241-11.086-15.896c-11.547-2.938-25.52,2.973-31.961,13.725
		C123.216,82.288,137.292,83.982,148.023,98.896z"/>
</g>
</svg>
