<svg xmlns="http://www.w3.org/2000/svg">
	<symbol viewBox="0 0 394.71 394.528" id="graph1">
		<title>graph1</title>
		<path d="M211.534,394.528c-9,0-18,0-27,0c-2.129-0.34-4.25-0.746-6.387-1.011c-74.539-9.233-128.99-47.53-160.311-115.525C-22.912,189.533,8.335,85.87,89.391,32.37C167.243-19.016,274.24-9.022,340.404,61.604c44.43,47.426,61.479,103.896,51.583,167.92c-11.926,77.161-70.617,140.354-146.607,158.982C234.273,391.228,222.825,392.556,211.534,394.528z M192.01,91.961c0,55.692,0,110.796,0,166.046c17.502,0,34.725,0,51.96,0c0-55.545,0-110.766,0-166.046C226.498,91.961,209.393,91.961,192.01,91.961z M301.06,258.097c0-40.692,0-80.796,0-121.048c-17.503,0-34.725,0-51.962,0c0,40.546,0,80.767,0,121.048C266.569,258.097,283.674,258.097,301.06,258.097z M188.059,258.097c0-33.026,0-65.463,0-98.048c-17.835,0-35.391,0-52.96,0c0,32.88,0,65.434,0,98.048C152.903,258.097,170.341,258.097,188.059,258.097z M78.01,185.961c0,24.36,0,48.131,0,72.047c17.836,0,35.392,0,52.959,0c0-24.215,0-48.103,0-72.047C113.164,185.961,95.726,185.961,78.01,185.961z"/>
	</symbol>

	<symbol viewBox="0 0 394.71 394.528" id="graph2">
		<title>graph2</title>
		<path d="M210.542,394.528c-8.666,0-17.334,0-26,0c-1.467-0.269-2.924-0.649-4.403-0.79c-41.866-3.958-79.06-19.195-110.83-46.814C25.213,308.592,1.62,259.933,0.583,201.591c-1.178-66.278,25.288-120.41,77.537-161.124c78.719-61.34,194.386-51.824,262.19,20.926c41.605,44.639,59.229,97.475,53.12,158.075c-7.87,78.079-65.613,146.503-141.261,167.165C238.588,390.343,224.432,391.95,210.542,394.528z M288.065,262.095c0-43.694,0-86.798,0-130.044c-14.172,0-28.061,0-41.958,0c0,43.548,0,86.769,0,130.044C260.248,262.095,274.019,262.095,288.065,262.095z M237.079,262.109c0-30.351,0-60.118,0-90.073c-14.156,0-28.045,0-41.986,0c0,30.2,0,60.088,0,90.073C209.217,262.109,222.988,262.109,237.079,262.109z M186.065,262.096c0-19.694,0-38.798,0-58.047c-14.17,0-28.058,0-41.959,0c0,19.549,0,38.771,0,58.047C158.246,262.096,172.016,262.096,186.065,262.096z M135.098,220.016c-14.376,0-28.146,0-42.025,0c0,14.182,0,28.069,0,41.937c14.228,0,28.117,0,42.025,0C135.098,247.802,135.098,234.031,135.098,220.016z M288.359,125.169c0.32-0.366,0.642-0.732,0.963-1.098c-7.375-6.726-14.75-13.45-22.048-20.104c-6.436,6.623-13.5,13.893-20.602,21.202C260.517,125.169,274.438,125.169,288.359,125.169z M217.799,144.39c-6.441,6.509-13.637,13.779-20.365,20.579c13.281,0,27.275,0,42.945,0C231.977,157.311,224.643,150.627,217.799,144.39z M165.971,176.2c-6.807,6.802-13.971,13.961-20.803,20.789c13.496,0,27.504,0,41.512,0c0.245-0.358,0.49-0.716,0.734-1.074C180.139,189.227,172.864,182.537,165.971,176.2z M114.7,192.304c-6.561,6.67-13.66,13.89-20.355,20.696c13.315,0,27.318,0,41.321,0c0.309-0.419,0.618-0.838,0.927-1.257C129.194,205.174,121.795,198.604,114.7,192.304z"/>
	</symbol>

	<symbol viewBox="0 0 394.71 394.528" id="graph3">
		<title>graph3</title> <g id="graph3-Layer_3_xA0_Image_1_">
		<path d="M209.534,394.528c-8,0-16,0-24,0c-6.727-0.939-13.473-1.757-20.176-2.837C75.02,377.143,5.041,300.058,0.83,208.932C-2.348,140.175,23.348,83.653,77.672,41.109c77.547-60.731,190.247-53.36,259.317,16.975c42.933,43.718,61.926,96.634,56.672,157.812c-7.254,84.48-70.545,155.96-153.666,173.771C229.955,391.817,219.693,392.933,209.534,394.528z M167.336,140.532c-16.676,16.339-32.321,31.667-48.076,47.104c0-7.865,0-15.923,0-23.54c-18.53,18.522-37.059,37.043-55.801,55.778c0.921,0.85,2.202,2.03,4.498,4.148c15.368-15.392,30.458-30.506,45.707-45.777c0,7.971,0,16.033,0,24.352c16.077-15.64,31.812-30.946,48.021-46.714c0,22.983,0,45.521,0,68.06c0.483,0.33,0.966,0.66,1.448,0.99c5.758-6.218,11.516-12.435,17.273-18.652c0.45,0.247,0.899,0.494,1.348,0.741c0,5.483,0,10.968,0,16.451c0.548,0.327,1.096,0.655,1.645,0.982c24.03-24.033,48.06-48.067,72.336-72.346c0,16.806,0,33.529,0,50.253c0.452,0.315,0.905,0.632,1.357,0.947c15.326-15.462,30.653-30.924,46.632-47.043c0,23.542,0,46.143,0,68.791c2.1,0,3.79,0,5.383,0c0-27.59,0-54.803,0-83.331c-16.143,16.201-31.462,31.578-47.777,47.953c0-18.121,0-34.924,0-51.726c-0.552-0.323-1.104-0.646-1.656-0.969c-23.71,24.189-47.419,48.38-71.129,72.569c-0.411-0.189-0.821-0.38-1.232-0.569c0-5.478,0-10.955,0-16.433c-0.702-0.475-1.403-0.949-2.105-1.423c-5.615,6.399-11.23,12.799-16.845,19.198c-0.342-0.194-0.684-0.389-1.025-0.583C167.336,187.198,167.336,164.65,167.336,140.532z"/>
	</symbol>

	<symbol viewBox="0 0 394.71 394.528" id="graph4">
		<title>graph4</title>
		<path d="M209.578,394.528c-8,0-16,0-24,0c-6.891-0.97-13.793-1.86-20.67-2.92C75.671,377.855,4.582,298.743,0.748,208.428C-1.877,146.622,19.247,94.047,64.66,51.973c35.15-32.567,77.193-49.808,125.182-51.488c57.449-2.013,107.192,17.205,147.428,58.04c45.366,46.042,63.6,102.061,55.411,166.294c-10.165,79.743-72.874,147.779-151.653,164.686C230.662,391.729,220.066,392.88,209.578,394.528z M209.655,31.905c0,2.449,0,4.091,0,5.731c0,49.459-0.003,98.918,0.003,148.377c0.001,6.314,0.123,6.434,6.492,6.435c43.797,0.006,87.594,0.003,131.391,0.003c1.601,0,3.201,0,5.205,0c-1.623-40.981-14.93-76.589-42.954-105.846C282.457,58.066,248.512,41.106,209.655,31.905z M107.816,327.564c28.748-40.701,57.298-81.119,86.51-122.476c-51.328,0-101.349,0-151.371,0C42.691,248.549,65.404,297.117,107.816,327.564z M205.635,210.212c-0.375-0.183-0.752-0.364-1.127-0.546c-26.904,41.501-53.809,83.002-80.996,124.94c25.264,17.948,53.35,17.375,82.123,15.306C205.635,302.783,205.635,256.497,205.635,210.212z"/>
	</symbol>
</svg>