<svg xmlns="http://www.w3.org/2000/svg" xmlns:xlink="http://www.w3.org/1999/xlink" version="1.1" x="0" y="0" width="535.9" height="195.3" viewBox="0 0 535.9 195.3" enable-background="new 0 0 535.925 195.329" xml:space="preserve">
  <symbol id="graph" viewBox="0 0 535.9 195.3">
    <path id="line" fill-rule="evenodd" clip-rule="evenodd" d="M333.2 122.9c1.6-7 3.5-13.9 4.7-20.9 3.2-18.9 6-37.8 9.1-56.7 0.9-5.3 3-9.4 9.4-10.4 3-0.5 5.8-3 8.5-4.8 8.9-5.8 13.5-4.5 15.9 5.6 2.6 11.1 4.2 22.5 6.2 33.7 1.6 9.1 3.2 18.2 5 27.3 0.6 2.8 2 5.5 3 8.3 0.5 0.1 1 0.2 1.5 0.3 1.2-2.3 2.8-4.6 3.4-7 2.8-11.7 5.3-23.5 8-35.2 1-4.2 1.9-8.4 3.7-12.3 1-2.3 3.5-3.9 5.4-5.8 1.6 2 4.3 3.8 4.8 6.1 1.8 8.2 3.2 16.6 4.1 24.9 1.9 17.3 3.2 34.7 5 52 1.5 14.8 3.3 29.6 5.1 44.4 0.3 2.7 1.4 5.4 2.1 8.1 0.5 0.1 0.9 0.1 1.4 0.2 1.1-4 2.7-7.9 3.2-11.9 2-15.6 3.4-31.3 5.3-47 2.1-17.2 4.4-34.5 7.1-51.6 0.4-2.6 3.2-4.8 4.9-7.2 1.8 2.3 4.7 4.4 5.2 7 2.3 11.5 4 23.1 5.7 34.7 2.7 19 5.3 38.1 8 57.1 0.2 1.7 1 3.4 2.9 5.3 0.7-2.5 1.8-4.9 2.1-7.5 1.8-15.8 3.5-31.6 5-47.4 1.8-18.7 3.2-37.4 5-56 1.1-11.4 2.4-22.7 4.2-34 0.5-3 2.9-7.9 4.7-8 4.4-0.4 5.3 4.5 5.9 7.9 2.6 15.3 4.7 30.7 7.2 46.1 2 12.3 2.2 25.1 7.7 36.7 0.4 0.8 0 1.9 0 2.9 -0.5 0.2-0.9 0.4-1.4 0.6 -1.4-3.1-3.6-6-4.2-9.3 -2.3-12.8-4.2-25.8-6.2-38.7 -2-12.4-3.9-24.9-6-37.3 -0.3-2-1.4-4-2.1-5.9 -0.5 0-1-0.1-1.5-0.1 -1.1 5.3-2.8 10.6-3.3 16 -1.9 19.6-3.3 39.3-5.2 59 -2.2 22.6-4.6 45.2-7 67.7 -0.3 2.4-0.9 4.9-2 7.1 -0.8 1.6-2.4 2.8-3.7 4.1 -1.3-1.4-3.3-2.5-3.8-4.2 -1.4-4-2.7-8.2-3.2-12.5 -2.2-17.1-3.9-34.2-6.3-51.3 -1.6-11.3-3.9-22.4-5.9-33.6 -0.2-1.1-0.9-2.1-1.3-3.1 -0.5-0.1-1-0.1-1.5-0.2 -1.4 6.3-3.3 12.5-4.1 18.9 -2.6 21.4-4.6 42.9-7.1 64.3 -1 9-2.7 18-4 27 -0.1 0.7-0.1 1.5-0.4 1.9 -1.6 2-3.4 4-5.1 5.9 -1.5-2-3.9-3.9-4.3-6.1 -2-11.7-3.8-23.5-5.2-35.3 -1.6-13.8-2.6-27.7-3.9-41.6 -1.3-13.2-2.6-26.4-4.2-39.6 -0.5-4.5-1.9-8.9-2.9-13.4 -0.6-0.1-1.1-0.2-1.7-0.3 -1.1 2.6-2.7 5-3.3 7.7 -3.2 13.5-6 27.1-9.1 40.6 -0.6 2.7-1.5 5.5-3 7.8 -1.1 1.8-3.3 4-5 3.9 -1.6 0-4-2.4-4.7-4.2 -1.8-5.1-3.2-10.4-4.2-15.8 -2.9-16-5.1-32.1-8.2-48 -2.3-11.8-5-12.5-14.7-5.4 -2.1 1.5-4.5 3.2-6.9 3.6 -4.5 0.8-6.6 3.3-7.3 7.5 -2.3 14.4-4.6 28.7-7 43.1 -1.7 9.9-3.5 19.8-5.4 29.7 -0.3 1.7-1.2 3.4-2.2 5 -2.2 3.7-5.3 4.2-7.3 0.5 -2.7-4.8-4.6-10.2-6-15.6 -2.7-10.1-4.6-20.3-7.2-30.4 -0.7-2.7-2.5-5.2-4-8.4 -5.7 6.4-6.3 13.7-7.9 20.4 -2.5 10.9-4.6 22-7.5 32.7 -0.9 3.1-4.3 5.4-6.3 8.3 -1.6 2.2-3.5 4.6-4.1 7.1 -2.9 12.9-5.3 25.8-8.2 38.7 -1.1 4.8-2.6 9.5-4.2 14.2 -1.2 3.5-3.8 5.2-7.8 4.6 -5.1-0.7-10.2-1.6-15.3-1.7 -5.6-0.1-8.7-2.8-10-7.8 -2.3-9.1-4.5-18.3-6.7-27.4 -1.1-4.7-1.9-9.4-3.2-14 -1.2-4.2-2.2-8.3-7.1-10.5 -2.3-1-4-4.9-4.7-7.7 -3.2-12.6-6-25.3-9.1-38 -0.7-2.7-1.6-5.4-2.8-7.9 -1.8-4-4.2-4.5-7.3-1.6 -3.2 3.1-5.8 6.7-8.9 9.9 -6 6.1-11.5 5-13.3-3.3 -2.8-12.4-4.5-25-6.6-37.5 -2.1-12.6-4-25.2-6.1-37.8 -0.4-2.1-1.5-4.2-2.3-6.2 -0.5 0-0.9 0-1.4 0 -1 4.7-2.5 9.4-3 14.2 -1.3 11.9-2.2 23.8-3.2 35.7 -1.3 16.2-2.6 32.4-3.8 48.7 -0.8 10.6-1.1 21.2-2.3 31.8 -1.3 12-3.1 23.9-5 35.9 -0.3 1.8-2.5 3.4-3.8 5.1 -1.4-1.6-3.8-3.1-4.2-5 -1.9-9.1-3.7-18.2-4.9-27.4 -2.2-17.6-3.8-35.3-5.9-52.9 -1-8.7-2.7-17.3-4.1-25.9 -0.3-1.5-1.1-3-1.6-4.5 -0.5 0-1.1-0.1-1.6-0.1 -1.2 5.6-2.9 11.1-3.6 16.8 -2.6 20.9-4.7 41.8-7.2 62.7 -1 8.1-2.6 16-4 24 -0.3 1.4-0.7 3-1.6 4.1 -1.1 1.5-2.7 2.6-4.1 3.8 -1.4-1.5-3.5-2.9-4-4.6 -1.7-6.9-3.3-13.8-4.1-20.8 -2.2-17.9-3.9-35.9-6-53.9 -1.4-11.3-3.2-22.6-4.9-33.9 -0.2-1.6-0.9-3.1-2.5-4.8 -0.6 1.6-1.4 3.1-1.6 4.7 -1.7 11.1-3.6 22.2-4.9 33.4 -1.6 14-2.6 28.1-4.1 42.1 -1.5 13.3-3.2 26.6-5.1 39.8 -0.7 4.8-1.9 9.4-8.5 9.6 -2.3 0.1-4.8 2.2-6.8 3.9 -5.9 5.1-12.5 5.4-19.7 3.9 -3.4-0.7-6.9-0.8-10.3-1.4 -1-0.2-1.9-0.8-2.9-1.2 0.1-0.6 0.3-1.3 0.4-1.9 4.3 0.5 8.6 0.5 12.8 1.5 7.1 1.7 13.3 0.7 19.1-4 2-1.6 4.5-3.5 6.9-3.7 4.5-0.4 5.5-3.2 6-6.5 1.8-12.8 3.6-25.5 5-38.3 1.8-15.8 3.1-31.7 4.9-47.5 1.1-10 2.5-20 4.2-30 0.5-3 2.5-5.7 3.8-8.6 0.8 0 1.6-0.1 2.4-0.1 1.5 3.4 3.8 6.7 4.4 10.3 2.1 13.2 3.6 26.5 5.3 39.8 2.7 21 5.3 42 8.1 63 0.2 1.9 1.3 3.7 2 5.5 0.6 0.1 1.2 0.1 1.8 0.2 1.4-7.3 3.1-14.6 4.1-22 3.5-26.5 6.6-53 10.2-79.5 0.5-3.7 0.6-9.2 5.4-9.5 5.2-0.3 5.2 5.5 5.9 9 1.9 10.1 3.3 20.2 4.6 30.4 3 23.5 5.9 47 8.9 70.5 0.2 1.7 1 3.3 1.5 4.9 0.5 0 1 0 1.5 0 1-5.4 2.5-10.7 3-16.1 1.9-21.7 3.5-43.3 5.2-65 1.6-20.9 3.1-41.7 5.1-62.5 0.7-7.7 2.4-15.3 4-22.9 0.3-1.7 2.1-3 3.3-4.5 1.5 1.3 4 2.4 4.5 4.1 2 7.3 3.8 14.7 5.1 22.2 3.2 18.7 5.9 37.5 9.1 56.3 0.4 2.3 2.4 4.3 3.6 6.5 2.3-1.4 4.9-2.5 6.9-4.3 2.4-2.2 4.1-5.2 6.5-7.6 5.5-5.4 11-4.5 13.3 2.7 3.2 10.2 5.2 20.7 7.8 31.1 1 4.2 1.8 8.4 3.1 12.5 1.2 3.9 2.3 7.7 6.9 9.6 1.8 0.7 3.4 3.7 4 5.9 3.2 12.5 6 25 9 37.6 0.3 1.1 0.6 2.2 1 3.3 2.9 10.1 2.9 10.1 13.2 11.1 3.1 0.3 6.3 0.5 9.3 1.3 4.3 1.1 6.5-0.9 7.3-4.5 2.5-10.9 4.8-21.9 7.2-32.8 1.3-6 2.6-11.9 4.1-17.8 1.1-4.2 2.9-7.9 7.3-10.1 1.8-1 3.1-3.9 3.6-6.2 2.8-11.9 5.3-23.9 8.1-35.8 1.1-4.8 2.6-9.6 4.6-14 2.4-5.3 7.3-5.5 9.4-0.1 3 7.5 4.8 15.4 6.9 23.2 2.1 7.8 3.9 15.7 6 23.5 0.5 2 1.9 3.7 3 5.5C331.7 123 332.4 122.9 333.2 122.9z"/>
    <line id="axis" fill="none" stroke-width="2" stroke-miterlimit="10" x1="1.2" y1="111.5" x2="533.7" y2="111.5"/>
  </symbol>
</svg>