<?xml version="1.0" encoding="utf-8"?>
<!-- Generator: Adobe Illustrator 16.0.0, SVG Export Plug-In . SVG Version: 6.00 Build 0)  -->
<!DOCTYPE svg PUBLIC "-//W3C//DTD SVG 1.1//EN" "http://www.w3.org/Graphics/SVG/1.1/DTD/svg11.dtd">
<svg version="1.1" id="Layer_1" xmlns="http://www.w3.org/2000/svg" xmlns:xlink="http://www.w3.org/1999/xlink" x="0px" y="0px"
	 width="1024px" height="1024px" viewBox="0 0 1024 1024" enable-background="new 0 0 1024 1024" xml:space="preserve">
<g>
	<path fill-rule="evenodd" clip-rule="evenodd" d="M912,1024c-17.604-17.72-35.161-35.484-52.817-53.151
		c-64.069-64.111-128.174-128.188-192.261-192.282c-16.194-16.195-17.123-36.352-2.518-54.145c0.299-0.363,0.498-0.809,0.544-0.884
		c-28.743-28.708-57.355-57.285-85.972-85.866c-10.545,7.23-21.385,15.238-32.773,22.369
		c-46.303,28.993-96.678,46.396-151.038,52.146C216.028,731.133,51.822,615.59,9.651,440.47
		c-4.268-17.723-5.895-36.081-8.764-54.142C0.657,384.875,0.299,383.442,0,382c0-16.667,0-33.333,0-50
		c0.306-1.596,0.706-3.18,0.902-4.789c1.149-9.415,1.824-18.909,3.436-28.243C19.38,211.884,60.499,139.545,128.117,82.637
		c50.59-42.578,108.885-68.656,174.259-78.754C312.216,2.362,322.124,1.283,332,0c16.667,0,33.333,0,50,0
		c9.879,1.294,19.785,2.413,29.633,3.912c56.824,8.651,108.699,29.696,154.975,63.72c71.765,52.764,119.201,122.376,138.38,209.496
		c24.605,111.771,0.751,213.283-69.501,303.766c-0.611,0.788-1.234,1.566-1.841,2.358c-0.095,0.123-0.127,0.294,0.029-0.086
		c28.624,28.627,57.095,57.099,84.998,85.004c6.281-2.877,12.704-7.068,19.73-8.772c13.869-3.365,25.813,1.397,35.841,11.442
		c37.552,37.616,75.167,75.169,112.755,112.75c44.304,44.297,88.601,88.6,132.917,132.884c1.269,1.268,2.719,2.354,4.084,3.526
		c0,3.667,0,7.333,0,11c-31,31-62,62-93,93C924.667,1024,918.333,1024,912,1024z M74.919,356.921
		c0.005,155.402,126.007,282.014,280.755,282.114c157.242,0.103,283.312-125.597,283.362-282.53
		c0.05-155.062-126.324-281.571-281.279-281.582C201.071,74.913,74.914,200.695,74.919,356.921z"/>
</g>
</svg>
