<?xml version="1.0" encoding="utf-8"?>
<!-- Generator: Adobe Illustrator 16.0.0, SVG Export Plug-In . SVG Version: 6.00 Build 0)  -->
<!DOCTYPE svg PUBLIC "-//W3C//DTD SVG 1.1//EN" "http://www.w3.org/Graphics/SVG/1.1/DTD/svg11.dtd">
<svg version="1.1" id="Bottom_50_x25__xA0_Image_1_"
	 xmlns="http://www.w3.org/2000/svg" xmlns:xlink="http://www.w3.org/1999/xlink" x="0px" y="0px" width="2999.887px"
	 height="1071.887px" viewBox="0 0 2999.887 1071.887" enable-background="new 0 0 2999.887 1071.887" xml:space="preserve">
<style>
	path {
		fill: rgba(252,252,252,0.5);
	}
</style>
<path fill="#FFFFFF" d="M0,0c0,357.239,0,714.535,0,1071.887c999.907,0,1999.869,0,2999.887,0c0-357.239,0-714.535,0-1071.887
	C1999.981,0,1000.019,0,0,0z M993.814,416.821c-4.936,25.534-12.849,50.054-25.255,73.107
	c-14.397,26.752-32.543,50.328-55.396,70.447c-17.812,15.682-37.26,28.56-58.649,38.818c-23.465,11.254-47.971,18.555-73.75,21.786
	c-3.96,0.496-7.881,1.301-11.82,1.963c-14.667,0-29.333,0-44,0c-6.199-0.993-12.389-2.051-18.599-2.969
	c-26.842-3.97-52.109-12.602-76.073-25.274c-26.98-14.269-50.633-32.612-70.831-55.608c-15.649-17.818-28.526-37.25-38.777-58.626
	c-11.246-23.451-18.533-47.946-21.758-73.71c-0.496-3.957-1.301-7.876-1.963-11.812c0-14.667,0-29.333,0-44
	c0.993-6.199,2.051-12.389,2.969-18.599c3.969-26.841,12.603-52.107,25.273-76.071c14.266-26.982,32.612-50.632,55.605-70.831
	c17.318-15.214,36.176-27.791,56.868-37.922c23.959-11.731,49.042-19.309,75.473-22.614c3.958-0.495,7.876-1.301,11.812-1.963
	c14.667,0,29.333,0,44,0c0.508,0.323,0.986,0.863,1.528,0.937c7.784,1.055,15.613,1.829,23.361,3.094
	c23.521,3.839,45.847,11.64,66.907,22.515c28.079,14.5,52.881,33.391,73.807,57.382c15.93,18.263,29.016,38.161,39.457,59.994
	c13.133,27.457,20.565,56.478,22.668,86.602C998.144,374.553,997.861,395.888,993.814,416.821z M1746.815,416.821
	c-4.937,25.533-12.85,50.054-25.256,73.106c-14.397,26.753-32.543,50.328-55.396,70.448c-17.812,15.682-37.26,28.56-58.649,38.818
	c-23.465,11.254-47.971,18.555-73.75,21.786c-3.96,0.496-7.881,1.301-11.82,1.963c-14.667,0-29.333,0-44,0
	c-1.008-0.333-1.994-0.847-3.026-0.97c-6.354-0.751-12.813-0.94-19.063-2.19c-25.663-5.132-50.315-13.061-73.508-25.593
	c-26.445-14.291-49.69-32.291-69.639-54.822c-15.848-17.898-28.693-37.556-39.14-59.033c-13.543-27.846-21.219-57.276-23.353-87.907
	c-1.469-21.086-1.184-42.419,2.853-63.356c4.924-25.541,12.877-50.05,25.263-73.105c14.377-26.763,32.535-50.332,55.388-70.452
	c17.313-15.243,36.188-27.819,56.89-37.965c23.973-11.748,49.07-19.324,75.516-22.643c3.96-0.496,7.881-1.301,11.82-1.963
	c14.667,0,29.333,0,44,0c0.508,0.323,0.986,0.863,1.527,0.937c7.784,1.055,15.613,1.829,23.362,3.094
	c23.521,3.839,45.847,11.639,66.907,22.515c28.078,14.499,52.881,33.391,73.807,57.382c15.93,18.263,29.015,38.161,39.457,59.993
	c13.133,27.458,20.565,56.478,22.668,86.603C1751.144,374.553,1750.861,395.887,1746.815,416.821z M2499.944,394.943
	c-0.993,6.199-2.041,12.39-2.971,18.599c-4.016,26.825-12.556,52.119-25.264,76.078c-14.301,26.963-32.621,50.628-55.616,70.825
	c-17.819,15.65-37.251,28.526-58.627,38.777c-23.451,11.246-47.946,18.532-73.71,21.758c-3.957,0.495-7.876,1.301-11.812,1.963
	c-14.667,0-29.333,0-44,0c-1.008-0.333-1.994-0.847-3.026-0.97c-6.354-0.751-12.813-0.94-19.063-2.19
	c-25.663-5.133-50.315-13.061-73.508-25.593c-26.445-14.291-49.69-32.292-69.639-54.822c-15.847-17.899-28.693-37.556-39.14-59.033
	c-13.544-27.846-21.219-57.276-23.353-87.907c-1.47-21.086-1.183-42.419,2.853-63.356c4.923-25.541,12.877-50.05,25.263-73.105
	c14.377-26.763,32.535-50.332,55.389-70.452c17.312-15.243,36.187-27.819,56.89-37.965c23.972-11.748,49.069-19.324,75.515-22.643
	c3.96-0.496,7.881-1.301,11.82-1.963c14.667,0,29.333,0,44,0c0.84,0.332,1.668,0.914,2.522,0.959
	c16.082,0.838,31.643,4.446,47.022,8.913c27.337,7.94,52.407,20.524,75.502,37.129c18.727,13.463,35.285,29.251,49.54,47.313
	c12.657,16.038,23.227,33.418,31.632,52.137c10.088,22.468,17.036,45.738,19.82,70.236c0.432,3.796,1.297,7.543,1.961,11.312
	C2499.944,365.61,2499.944,380.276,2499.944,394.943z"/>
</svg>
