<?xml version="1.0" encoding="utf-8"?>
<!-- Generator: Adobe Illustrator 16.0.0, SVG Export Plug-In . SVG Version: 6.00 Build 0)  -->
<!DOCTYPE svg PUBLIC "-//W3C//DTD SVG 1.1//EN" "http://www.w3.org/Graphics/SVG/1.1/DTD/svg11.dtd">
<svg version="1.1" id="Layer_1" xmlns="http://www.w3.org/2000/svg" xmlns:xlink="http://www.w3.org/1999/xlink" x="0px" y="0px"
	 width="402.348px" height="402.434px" viewBox="0 0 402.348 402.434" enable-background="new 0 0 402.348 402.434"
	 xml:space="preserve">
<style>
	.graphic-path {
	    <!-- fill: white; -->
	}
</style>
<g>
	<path class="graphic-path" fill-rule="evenodd" clip-rule="evenodd" d="M304.566,402.421c-16.927,0.044-32.876-4.546-48.563-10.341
		c-22.61-8.353-45.597-15.807-66.66-27.863c-32.221-18.443-60.103-42.349-86.129-68.562c-23.188-23.356-44.34-48.362-61.534-76.549
		c-15.035-24.646-23.817-51.952-33.487-78.864c-5.728-15.941-9.28-32.35-7.892-49.45C2.645,61.905,14.873,37.401,34.47,16.544
		c3.812-4.057,9.359-7.279,14.709-8.928c10.284-3.169,20.965-5.103,31.546-7.226c7.576-1.521,13.282,1.429,17.049,8.251
		c6.436,11.655,12.827,23.338,19.497,34.858c7.334,12.667,14.961,25.164,22.466,37.732c0.938,1.571,1.968,3.09,2.861,4.687
		c5.407,9.656,5.332,14.549-2.222,22.506c-6.734,7.094-14.338,13.369-21.645,19.908c-5.333,4.773-11.044,9.145-16.164,14.128
		c-9.607,9.352-10.462,14.022-3.827,25.544c7.806,13.552,15.783,27.05,24.511,40.016c24.055,35.736,55.49,63.586,92.792,84.923
		c7.931,4.537,15.939,8.945,24.014,13.22c6.349,3.359,12.109,1.665,16.753-3.273c6.493-6.905,12.567-14.201,18.932-21.231
		c6.137-6.779,12.068-13.802,18.723-20.043c7.237-6.788,12.66-7.103,21.318-2.104c20.311,11.726,40.511,23.644,60.766,35.466
		c6.463,3.772,12.998,7.424,19.429,11.249c4.758,2.83,6.741,7.158,6.314,12.655c-1.064,13.707-3.686,27.131-9.523,39.581
		c-2.256,4.809-6.035,9.33-10.135,12.776c-21.692,18.234-46.189,30.08-75.069,31.178
		C306.566,402.454,305.565,402.421,304.566,402.421z"/>
</g>
</svg>
