<?xml version="1.0" encoding="utf-8"?>
<!-- Generator: Adobe Illustrator 16.0.0, SVG Export Plug-In . SVG Version: 6.00 Build 0)  -->
<!DOCTYPE svg PUBLIC "-//W3C//DTD SVG 1.1//EN" "http://www.w3.org/Graphics/SVG/1.1/DTD/svg11.dtd">
<svg version="1.1" id="Layer_1" xmlns="http://www.w3.org/2000/svg" xmlns:xlink="http://www.w3.org/1999/xlink" x="0px" y="0px"
	 width="104.814px" height="99.896px" viewBox="0 0 104.814 99.896" enable-background="new 0 0 104.814 99.896"
	 xml:space="preserve">
<g>
	<path d="M49.242,0c3.278,0,6.568,0,9.849,0c1.37,3.184,4.179,3.706,7.171,3.839c0.562,0.028,1.426-0.355,1.64-0.097
		c1.77,2.037,3.666,4.049,5.012,6.373c0.917,1.572,1.224,3.613,1.397,5.48c0.203,2.049-0.605,4.3-0.04,6.171
		c1.276,4.171,1.015,8.075-0.861,11.87c-0.961,1.951-2.824,3.536-3.438,5.548c-1.14,3.803-1.693,7.792-2.438,11.72
		c-0.076,0.412,0.049,1.042,0.34,1.314c2.421,2.356,5.007,4.562,7.334,7.011c1.993,2.085,4.459,2.069,6.996,2.676
		c3.464,0.824,6.491,3.669,9.95,4.299c4.729,0.857,6.681,3.641,8.002,7.626c1.136,3.431,2.886,6.753,3.37,10.261
		c0.243,1.705,2.057,3.827,0.041,5.815c-0.279,0.279,0.614,1.604,0.698,2.47c0.251,2.498,0.376,5.007,0.55,7.52
		c-34.938,0-69.879,0-104.814,0c0-2.344,0-4.688,0-7.031c0.855-2.307,2.437-4.595,2.412-6.882
		c-0.053-6.62,3.052-12.375,4.479-18.569c0.29-1.257,2.113-2.745,3.479-3.06c4.001-0.913,8.171-1.071,12.188-1.961
		c2.19-0.48,4.163-1.919,6.288-2.775c1.686-0.68,3.715,0.161,5.004-2.36c0.816-1.597,3.508-2.275,5.415-3.266
		c2.514-1.309,2.514-3.274,1.649-5.553c-0.224-0.59-0.344-1.217-0.533-1.819c-0.793-2.634-0.793-6.139-2.538-7.743
		c-5.027-4.623-3.476-10.669-4.409-16.104c-0.359-2.074,1.502-4.45,1.361-6.62c-0.242-3.399,0.954-6.01,3.087-8.269
		c1.157-1.228,3.477-1.701,4.074-3.043c1.177-2.639,3.378-2.724,5.496-3.415C48.127,1.2,48.648,0.493,49.242,0z"/>
</g>
</svg>
