<?xml version="1.0" encoding="utf-8"?>
<!-- Generator: Adobe Illustrator 16.0.0, SVG Export Plug-In . SVG Version: 6.00 Build 0)  -->
<!DOCTYPE svg PUBLIC "-//W3C//DTD SVG 1.1//EN" "http://www.w3.org/Graphics/SVG/1.1/DTD/svg11.dtd">
<svg version="1.1" id="Layer_1" xmlns="http://www.w3.org/2000/svg" xmlns:xlink="http://www.w3.org/1999/xlink" x="0px" y="0px"
	 width="49.652px" height="49.652px" viewBox="7.174 7.174 49.652 49.652" enable-background="new 7.174 7.174 49.652 49.652"
	 xml:space="preserve">
<g>
	<path fill="#454545" d="M28.068,27.86c0-1.9-1.293-1.9-1.293-1.9H26.09h-4.634h-0.002v4.078h4.991
		C27.308,30.038,28.068,29.763,28.068,27.86z"/>
	<path fill="#454545" d="M40.395,30.038c-2.822,0-3.215,2.815-3.215,2.815h6.002C43.182,32.854,43.219,30.038,40.395,30.038z"/>
	<path fill="#454545" d="M26.775,32.854h-5.318v4.885h4.711c0.08,0,0.198,0.004,0.339,0c0.757-0.018,2.196-0.235,2.196-2.374
		C28.703,32.83,26.775,32.854,26.775,32.854z"/>
	<path fill="#454545" d="M32,7.174C18.311,7.174,7.174,18.311,7.174,32c0,13.689,11.137,24.826,24.826,24.826
		c13.689,0,24.826-11.137,24.826-24.826C56.826,18.311,45.689,7.174,32,7.174z M36.393,23.789h7.539v2.251h-7.539V23.789z
		 M32.581,35.593c0,5.577-5.806,5.394-5.806,5.394h-5.318h-0.156h-4.034V22.712h4.034h0.156h5.318c2.891,0,5.172,1.597,5.172,4.867
		c0,3.269-2.788,3.477-2.788,3.477C32.834,31.056,32.581,35.593,32.581,35.593z M46.686,35.293h-9.471
		c0,3.396,3.217,3.182,3.217,3.182c3.036,0,2.93-1.966,2.93-1.966h3.218c0,5.218-6.254,4.859-6.254,4.859
		c-7.503,0-7.021-6.985-7.021-6.985s-0.007-7.022,7.021-7.022C47.723,27.361,46.684,35.293,46.686,35.293z"/>
</g>
</svg>
