<svg xmlns="http://www.w3.org/2000/svg" xmlns:xlink="http://www.w3.org/1999/xlink" version="1.1" id="Layer_1" x="0" y="0" width="209.1" height="185.1" viewBox="0 0 209.1 185.1" enable-background="new 0 0 209.137 185.07" xml:space="preserve"><path stroke="#000000" stroke-miterlimit="10" d="M208.6 92.6c0 13.8-11.7 25-26.1 25 -0.6 0-1.3 0-2-0.1H28.4c-0.6 0.1-1.2 0.1-1.9 0.1 -14.3 0-26-11.2-26-25 0-13.8 11.8-25 26.2-25 0.1 0 0.5 0 0.5 0V67.5h156v0.1C196.1 67.7 208.6 78.9 208.6 92.6z"/><path stroke="#000000" stroke-miterlimit="10" d="M208.6 159.6c0 13.8-11.7 25-26.1 25 -0.6 0-1.3 0-2-0.1H28.4c-0.6 0.1-1.2 0.1-1.9 0.1 -14.3 0-26-11.2-26-25 0-13.8 11.8-25 26.2-25 0.1 0 0.5 0 0.5 0v-0.1h156v0.1C196.1 134.7 208.6 145.9 208.6 159.6z"/><path stroke="#000000" stroke-miterlimit="10" d="M208.6 25.6c0 13.8-11.7 25-26.1 25 -0.6 0-1.3 0-2-0.1H28.4c-0.6 0.1-1.2 0.1-1.9 0.1 -14.3 0-26-11.2-26-25 0-13.8 11.8-25 26.2-25 0.1 0 0.5 0 0.5 0V0.5h156v0.1C196.1 0.7 208.6 11.9 208.6 25.6z"/></svg>