<svg xmlns="http://www.w3.org/2000/svg" xmlns:xlink="http://www.w3.org/1999/xlink" version="1.1" id="Layer_1" x="0" y="0" width="98.8" height="66" viewBox="0 0 98.8 66" enable-background="new 0 0 98.82 66" xml:space="preserve"><path d="M4.8 38c29.7 0 59.4 0 89.1 0 6.4 0 6.4-10 0-10 -29.7 0-59.4 0-89.1 0C-1.6 28-1.6 38 4.8 38L4.8 38z"/><path d="M4.8 10c29.7 0 59.4 0 89.1 0 6.4 0 6.4-10 0-10C64.3 0 34.6 0 4.8 0 -1.6 0-1.6 10 4.8 10L4.8 10z"/><path d="M4.8 66c29.7 0 59.4 0 89.1 0 6.4 0 6.4-10 0-10 -29.7 0-59.4 0-89.1 0C-1.6 56-1.6 66 4.8 66L4.8 66z"/></svg>