<?xml version="1.0" encoding="utf-8"?>
<!-- Generator: Adobe Illustrator 16.0.0, SVG Export Plug-In . SVG Version: 6.00 Build 0)  -->
<!DOCTYPE svg PUBLIC "-//W3C//DTD SVG 1.1//EN" "http://www.w3.org/Graphics/SVG/1.1/DTD/svg11.dtd">
<svg version="1.1" id="Layer_1" xmlns="http://www.w3.org/2000/svg" xmlns:xlink="http://www.w3.org/1999/xlink" x="0px" y="0px"
	 width="72.325px" height="41.4px" viewBox="0 0 72.325 41.4" enable-background="new 0 0 72.325 41.4" xml:space="preserve">
<g id="side">
	<path d="M9.4,0h0.2c0.7,0,1.2,0.3,1.4,0.8c0.1,0.301,0.1,0.4,0.1,0.5c0,0.9-0.8,2.101-2.4,3.7C8.4,5.2,8.2,5.3,8.2,5.3
		C7.9,5.3,7.6,5.2,7.5,5V4.9c0-0.2,0.2-0.3,0.5-0.3C8.9,3.8,9.6,2.9,10,2.1C10.1,1.8,10.2,1.5,10.2,1.3c0-0.199-0.1-0.399-0.4-0.6
		C9.2,0.8,8.5,1.2,7.6,1.9C6.9,2.6,5.9,3.7,4.7,5.4c-2,3.2-3,5.7-3,7.6c0.1,0.3,0.3,0.5,0.5,0.5c0.7,0,1.8-0.8,3.4-2.399
		c1.1-1,1.9-1.801,2.3-2.2C8.1,8.8,8.2,8.7,8.2,8.7h0.1c0,0,0.1,0,0.1,0.1c0,0.4-0.3,0.9-1,1.5c0,0.101-0.9,0.9-2.5,2.5
		C3.9,13.6,3.2,14,2.6,14H2.3c-0.7,0-1.2-0.3-1.4-0.899V12.8c0-1.699,0.8-4.1,2.5-7.1c0.8-1.2,1.9-2.6,3.4-4.2C8,0.5,8.8,0,9.4,0z"
		/>
	<path d="M11.6,4.9c0.3,0,0.4,0.1,0.5,0.3v0.1C11.8,6,11.3,6.9,10.6,8.1l-1,2c-0.2,0.5-0.5,1.1-0.7,1.699V12.1
		c0.3,0,1.3-0.5,2.7-1.601c0.6-0.399,0.9-0.5,1-0.5h0.1c0.1,0,0.1,0,0.1,0.101v0.1c0,0.3-0.3,0.7-1,1.1C10.4,12.4,9.4,12.9,8.8,12.9
		c-0.6-0.101-0.9-0.4-0.9-0.8c0-0.4,0.4-1.301,1-2.801l1.4-2.6c0.6-1,0.9-1.6,0.9-1.7C11.5,4.9,11.5,4.9,11.6,4.9z"/>
	<path d="M13.3,9.3c0.4,0,0.6,0.101,0.6,0.4c0,0-0.1,0.3-0.5,0.7c-0.5,0.8-0.8,1.3-0.9,1.5l0,0c0.2,0,1-0.5,2.5-1.601
		c0.3-0.199,0.5-0.3,0.7-0.3c0.1,0.101,0.1,0.2,0.1,0.3l0,0c0,0.5-1,1.301-3,2.4c-0.2,0.1-0.5,0.1-0.6,0.1
		c-0.5-0.1-0.7-0.199-0.7-0.6l0,0c0-0.5,0.4-1.3,1.2-2.3C13,9.5,13.2,9.3,13.3,9.3z M15,5.6h0.1c0.2,0.199,0.3,0.3,0.3,0.5
		c0,0.3-0.1,0.699-0.4,1.1c-0.4,0.7-0.8,1-1.1,1h-0.1c-0.4,0-0.6-0.2-0.6-0.6c0.2-0.4,0.4-0.7,0.6-0.9c0-0.1,0.1-0.2,0.3-0.2h0.1
		h0.3c0.2-0.2,0.3-0.6,0.4-0.899H15z"/>
	<path d="M17.6,8.9c0.6,0,1,0.2,1.3,0.5v0.2c0,0.1-0.1,0.1-0.3,0.199c-0.1,0-0.3-0.1-0.7-0.199c-0.5,0-1.1,0.399-1.7,1.3
		c-0.1,0.3-0.2,0.6-0.2,0.8v0.1c0.1,0.5,0.4,0.7,0.9,0.7h0.5c0.5,0,1.4-0.6,2.8-1.6c0.2-0.101,0.4-0.101,0.5-0.101V10.9V11
		c0,0.2-0.2,0.5-0.6,0.9c-0.9,0.899-1.8,1.3-2.5,1.3h-0.2c-1,0-1.6-0.3-1.9-0.8c-0.1-0.101-0.1-0.4-0.2-0.7c0-0.8,0.5-1.5,1.5-2.3
		C17.1,9,17.3,8.9,17.6,8.9z"/>
	<path d="M22.3,3.5h0.1c0.2,0,0.4,0.101,0.6,0.3C23,4.6,22.7,5.9,22.1,7.5c0,0-0.1,0.4-0.3,1C22.6,7.9,23,7.6,23,7.6s0.1,0,0.2,0
		h0.1c0.1,0,0.1,0,0.1,0.1v0.4C22.8,8.8,22.2,9.3,21.7,9.6h-0.1c0.1,1.1,0.3,1.899,0.5,2.3c0.2,0.2,0.2,0.3,0.3,0.399
		c0.5,0,1.2-0.6,2.2-1.899c0,0,0.1-0.101,0.3-0.3C25.2,9.7,25.5,9.5,25.7,9.5h0.1c0.1,0,0.1,0.101,0.1,0.2c0,0.3-0.4,1-1.3,2.1
		c-0.5,0.7-1.1,1.101-1.8,1.101c-0.6,0-1.1-0.2-1.4-0.7c-0.1-0.3-0.3-0.8-0.4-1.5l0,0L20.2,12c0,0.101-0.1,0.2-0.2,0.4
		c-0.5,0.899-1,1.3-1.5,1.3v-0.1V13.5c0.9-1.2,1.6-2.5,2.2-3.899c0,0,0-0.101,0-0.2C20.7,9.3,20.8,9.2,21,9c1-2.399,1.4-4.1,1.4-5.2
		V3.7C22.1,3.6,22.1,3.6,22.3,3.5z"/>
	<path d="M31.2,4.1h0.1c0.2,0,0.3,0.1,0.3,0.399C31.1,5.6,30.3,7.1,29.2,9.1c0.1,0.1,0.1,0.1,0.1,0.199c0.7-0.699,1.4-1,1.9-1
		c0.3,0,0.5,0.2,0.7,0.5V9.1c0,0.3-0.2,0.699-0.7,1.399s-0.9,1.2-1.1,1.601l0,0c0,0.1,0.1,0.1,0.3,0.1c0.5,0,1.2-0.6,2.2-1.7
		l0.5-0.399L33.5,9.8h0.1c0,0,0.1,0.101,0.1,0.2c0,0.4-0.5,1.101-1.6,2.101C31.5,12.6,31,12.8,30.7,12.8l0,0
		c-0.7,0-1.1-0.199-1.2-0.699V12c0-0.399,0.4-1.1,1.2-2c0.4-0.6,0.6-1,0.6-1.2l0,0c-0.3,0-0.8,0.301-1.4,0.9
		c-1.1,1.1-1.7,1.8-1.8,2.1c-0.1,0-0.2,0.101-0.3,0.101c-0.2,0-0.3-0.101-0.5-0.3V11.3c0.4-0.6,0.8-1.3,1.2-2.1s0.8-1.6,1.2-2.4
		C30.5,5.3,31,4.4,31.3,3.9C31.2,4.1,31.2,4.1,31.2,4.1z"/>
	<path d="M35.799,9C36.4,9.1,36.6,9.3,36.6,9.6c0,0.399-0.2,0.8-0.7,1.1C35.5,11.1,35,11.3,34.5,11.3H34.4
		c-0.3-0.1-0.6-0.1-0.6-0.199l0,0v0.3v0.2c0,0.3,0.201,0.5,0.6,0.6c0.5,0,1.8-0.5,3.7-1.5c0.199-0.1,0.4-0.2,0.6-0.2
		c0.1,0,0.2,0.101,0.2,0.101v0.3c-0.3,0.399-0.7,0.7-1.101,0.899C36.299,12.5,35.1,12.9,34.4,12.9c-0.6,0-1.1-0.3-1.3-0.9
		C33,11.9,33,11.7,33,11.4c0-0.8,0.5-1.5,1.6-2.101C35.1,9.1,35.6,9,35.799,9z M34,10.7L34,10.7c0.699,0,1.199-0.3,1.699-0.9V9.7
		l0,0c-0.5,0-1.1,0.3-1.699,0.9V10.7z"/>
	<path d="M39.2,8.7c0.1,0.1,0.2,0.2,0.2,0.5C39.7,9.1,39.9,9,39.9,9h0.2c0.4,0,0.699,0.2,0.8,0.5S41,10,41.1,10
		C41.6,9.7,42,9.6,42.1,9.6l0,0c0.1,0,0.1,0,0.1,0.1V10c-0.3,0.4-0.6,0.7-1,0.8h-0.1c-0.6-0.1-1-0.3-1-0.899c0-0.101,0-0.2-0.1-0.2
		c-0.4,0.2-0.801,0.6-1.201,1.1c-0.5,0.801-0.899,1.301-1,1.601C37.7,12.6,37.6,12.8,37.6,12.8h-0.4c-0.199-0.1-0.4-0.199-0.4-0.399
		l0,0C36.9,12.1,37.1,11.6,37.5,11l1.1-2.3H39.2z"/>
	<path d="M44.7,9C45.299,9.1,45.5,9.3,45.5,9.6c0,0.399-0.201,0.8-0.701,1.1C44.4,11.1,43.9,11.3,43.4,11.3h-0.2
		c-0.3-0.1-0.6-0.1-0.6-0.199l0,0v0.3v0.2c0,0.3,0.199,0.5,0.6,0.6c0.5,0,1.801-0.5,3.7-1.5c0.2-0.1,0.399-0.2,0.601-0.2
		c0.1,0,0.199,0.101,0.199,0.101v0.3C47.4,11.3,47,11.6,46.6,11.8c-1.5,0.7-2.7,1.101-3.4,1.101c-0.6,0-1.1-0.3-1.3-0.9
		c-0.101-0.1-0.101-0.3-0.101-0.6c0-0.8,0.5-1.5,1.601-2.101C44,9.1,44.4,9,44.7,9z M42.9,10.7L42.9,10.7c0.7,0,1.2-0.3,1.7-0.9V9.7
		l0,0c-0.5,0-1.1,0.3-1.7,0.9V10.7z"/>
	<path d="M6.6,18.9c0.6,0,1,0.2,1.3,0.7C8,19.9,8,20.1,8,20.2c-0.1,0.7-0.3,1-0.7,1H7.1c0,0-0.1-0.1-0.1-0.2
		c0.1-0.399,0.1-0.7,0.1-1v-0.1c0-0.101-0.1-0.3-0.2-0.4c-1.1,0-2.4,0.8-3.8,2.5c-0.6,0.8-0.9,1.4-1,1.7h0.2c0.1,0,0.2,0,0.4,0l0,0
		l1.1-0.2h0.7c0.2,0,0.3,0.101,0.3,0.4S4.1,24.3,2.7,24.5H1.9C1.3,26.1,0.9,27,0.6,27.1H0.5C0.2,27.1,0.1,27,0.1,26.8
		c0.6-1.699,1-2.6,1-2.6c-0.5,0-0.8-0.3-1.1-0.6V23.5c0-0.2,0.1-0.2,0.2-0.3h0.1c0.2,0,0.5,0.2,1,0.5c1-2.2,2.3-3.6,4.1-4.5
		C5.7,19,6.1,18.9,6.6,18.9z"/>
	<path d="M6.3,23.4h0.3c0.3,0.2,0.5,0.399,0.5,0.5C7.4,24.1,7.7,24.3,8.2,24.3c0.3,0,0.6,0,1-0.1c0.3,0,0.4,0.1,0.4,0.3
		C9.4,24.8,9,25,8.3,25c-0.4,0-0.8-0.1-1-0.2c0,0.5-0.4,1.101-1.1,1.9c-0.4,0.4-0.8,0.6-1.4,0.6H4.7C4.2,27.2,4,27,4,26.7
		c0,0,0-0.1,0-0.2v-0.1c0-0.5,0.4-1.2,1.2-2.101C5.7,23.7,6.1,23.4,6.3,23.4z M4.7,26.5L4.8,26.6C5.2,26.5,5.7,26,6.3,25.1
		C6.4,25,6.4,24.8,6.5,24.6c-0.1-0.2-0.2-0.4-0.2-0.4C5.2,25.1,4.7,25.8,4.7,26.5z"/>
	<path d="M9.8,23.1C9.9,23.2,10,23.3,10,23.6c0.3-0.101,0.5-0.2,0.5-0.2h0.2c0.4,0,0.7,0.2,0.8,0.5s0.1,0.5,0.2,0.5
		c0.5-0.3,0.9-0.4,1-0.4l0,0c0.1,0,0.1,0,0.1,0.101v0.3c-0.3,0.399-0.6,0.7-1,0.8h-0.1c-0.6-0.1-1-0.3-1-0.9
		c0-0.1,0-0.199-0.1-0.199c-0.4,0.199-0.8,0.6-1.2,1.1c-0.5,0.8-0.9,1.3-1,1.6c-0.1,0.2-0.2,0.4-0.2,0.4H7.8
		c-0.2-0.1-0.4-0.2-0.4-0.4l0,0C7.5,26.5,7.7,26,8.1,25.4l1.1-2.3H9.8z"/>
	<path d="M16.5,22.8h0.2c0.1,0.101,0.2,0.2,0.2,0.4c0,0.1-0.2,0.5-0.5,1.3L16.2,25c0.8-0.7,1.4-1,1.8-1h0.3c0.3,0,0.4,0.2,0.5,0.7
		v0.1l0,0c0.6-0.5,1.1-0.699,1.6-0.699h0.1C20.8,24.2,21,24.3,21,24.5v0.2c0,0.3-0.3,1-0.8,2.1c-0.1,0.2-0.1,0.301-0.1,0.5
		c0,0.101,0.1,0.101,0.1,0.101c0.4,0,1.3-0.8,2.8-2.3c0,0,0-0.101,0.1-0.101h0.2c0,0,0.1,0,0.1,0.101c0,0.3-0.1,0.699-0.4,1
		c-0.9,1-1.6,1.6-2.1,1.8c-0.2,0.1-0.4,0.2-0.7,0.2c-0.3,0-0.6-0.2-0.8-0.601v-0.2c0-0.3,0.2-0.8,0.6-1.699l0.3-0.9
		c-0.5,0.1-1.1,0.5-1.7,1.2c-0.3,0.3-0.4,0.7-0.5,0.899L17.9,26.9h-0.2c-0.1,0-0.2-0.101-0.4-0.3V26.5c0-0.1,0.1-0.3,0.3-0.8
		c0.1-0.2,0.2-0.6,0.3-1.1V24.5c-0.4,0.101-1.1,0.601-2,1.4c0,0-0.1,0.3-0.4,0.7C15.5,26.8,15.4,27,15.3,27h-0.4
		c-0.2-0.1-0.3-0.3-0.3-0.399c0.3-0.9,0.5-1.4,0.5-1.601c0.5-1.3,0.8-2,0.8-2.3C16.3,22.8,16.4,22.8,16.5,22.8z"/>
	<path d="M24.1,23.5c0.2,0,0.3,0.101,0.3,0.4l0,0c-0.7,0.899-1.1,1.6-1.2,2.1l0,0V26.1V26.3c0,0.101,0.1,0.2,0.2,0.2
		c0.7-0.2,1.7-1.1,2.9-2.6l0.2-0.101c0.4,0,0.6,0.101,0.7,0.301V24.3c-0.4,0.5-0.6,0.801-0.6,0.801l0,0c0.1,0,0.4-0.2,1.1-0.601
		c0.4-0.2,0.7-0.3,0.8-0.3l0,0c0.1,0.1,0.2,0.2,0.2,0.3l0,0c-0.1,0.3-0.4,0.601-1,0.8c-0.8,0.5-1.5,0.9-2.3,1.301
		C25.2,26.7,25,27,24.6,27.4c-1,1-1.8,1.6-2.3,1.899c-0.2,0.2-0.9,0.5-2.1,1h-0.1c-0.3-0.1-0.4-0.199-0.5-0.3v-0.2
		c0-0.1,0.2-0.3,0.7-0.6c1.6-1.2,2.5-1.9,2.8-2.1c-0.6-0.2-0.9-0.5-0.9-0.9v-0.1c0-0.801,0.5-1.7,1.5-2.7h0.4V23.5z"/>
	<path d="M37.4,22.8c0.2-1.199,0.2-2.1,0-2.6c-0.101-0.2-0.2-0.3-0.3-0.3s-0.2,0-0.4,0c-0.4,0.2-0.8,0.5-1.3,1.2
		C35,21.7,34.7,22.5,34.5,23.3c-0.201,0.9-0.201,1.7,0.1,2.2c0.199,0.601,0.6,0.9,1,1c0.5,0.101,1,0.101,1.5-0.3
		c0.6-0.3,1.1-0.8,1.6-1.6c0-0.101,0.1-0.101,0.2-0.101s0.2,0,0.2,0s0.1,0.101,0.1,0.2s0,0.2,0,0.2C38.7,25.8,38,26.4,37.299,26.8
		c-0.699,0.4-1.399,0.5-2,0.301c-0.6-0.2-1.1-0.7-1.399-1.4s-0.3-1.6-0.1-2.6c0.201-0.9,0.5-1.7,1-2.5c0.5-0.7,1-1.2,1.5-1.4
		c0.301-0.1,0.601-0.1,0.801,0c0.3,0.1,0.5,0.3,0.6,0.6C38,20.4,38,21.4,37.799,22.7c0,0.1-0.1,0.2-0.1,0.2C37.6,23,37.5,23,37.5,23
		l-0.201-0.1C37.5,23,37.4,22.9,37.4,22.8z"/>
	<path d="M39,22.1C39.2,21.6,39.4,21,39.7,20.6c0.2-0.4,0.4-0.601,0.7-0.7c0.399-0.2,0.7-0.101,1,0.2c0.2,0.199,0.3,0.5,0.5,0.899
		c0.101,0.3,0.2,0.8,0.3,1.3c0.1,0.601,0.301,1.4,0.4,2.301c0.1,0.399,0.1,0.8,0.1,1.1l0.2-0.5C43,25,43,24.9,43.1,24.8
		c0-0.1,0.1-0.199,0.1-0.199c0.4-1.101,0.9-2.101,1.4-2.9s1-1.7,1.699-2.6C46.4,19,46.4,19,46.5,19c0.1,0,0.199,0,0.199,0.101
		c0,0.1,0.1,0.1,0.1,0.199c0,0.101,0,0.2-0.1,0.2C46,20.3,45.5,21.2,45,22c-0.4,0.8-0.9,1.8-1.301,2.9c0,0-0.1,0.2-0.199,0.399
		L43.2,26l-0.3,0.7c0,0.1-0.101,0.2-0.101,0.3c0,0,0,0.101-0.1,0.101c0,0.1-0.1,0.1-0.1,0.1c-0.1,0.1-0.2,0.1-0.4,0l-0.1-0.1V27
		c0-0.1,0-0.1,0-0.2c0-0.1,0-0.3,0-0.6c0-0.4-0.1-0.8-0.2-1.4c-0.2-1-0.3-1.8-0.399-2.3C41.4,22,41.299,21.6,41.2,21.2
		S41,20.6,40.9,20.5c-0.101-0.1-0.101-0.1-0.2-0.1c-0.1,0.1-0.3,0.3-0.4,0.5C40,21.3,39.799,21.8,39.7,22.3
		c0,0.101-0.1,0.2-0.199,0.2c-0.101,0-0.201,0-0.301,0S39,22.4,39,22.3C38.9,22.3,38.9,22.2,39,22.1z"/>
	<path d="M47.6,27.2c0.3,0.1,0.5,0.2,0.5,0.5v0.2c0,0.3-0.2,0.5-0.5,0.6h-0.2C47.2,28.5,47,28.3,47,27.9c0-0.101,0-0.101,0-0.101
		v-0.1C47,27.4,47.2,27.2,47.6,27.2z M50.4,14.4h0.5c0,0,0.101,0,0.101,0.1v0.4c0,0.5-0.5,2.5-1.5,6.1c-0.4,1.7-0.801,3.2-1,4.601
		C48.4,25.7,48.4,25.8,48.299,25.8H47.9c-0.101,0-0.101,0-0.101-0.1c0-1.4,0.801-4.9,2.4-10.6C50.299,14.6,50.299,14.4,50.4,14.4z"
		/>
	<path id="side-arrow" d="M50,37.2c3.1-0.6,6.199-0.8,9.1-1.7c4-1.3,5.699-4.399,5.1-8.5C63.2,19.6,58.6,15.1,52.1,12.1
		c-1-0.4-2.9,0-2.5-2c0-0.2,2.4-0.301,3.5,0.1c5.3,2.3,9.5,5.9,12,11.2c3.9,8.399,0.199,15.5-8.9,17.1C54,38.9,51.7,38.8,49.6,39
		c-0.1,0.7-0.1,1.601-0.2,2.4c-0.7-0.3-1.601-0.5-2.2-1c-4-3.5-4.3-3.2,0.5-5.8c0.6-0.301,1.301-0.301,1.9-0.5
		c0.1,0.8,0.199,1.5,0.199,2.3C50,36.7,50,36.9,50,37.2z"/>
</g>
<g id="up">
	<path d="M9.4,0h0.2c0.7,0,1.2,0.3,1.4,0.8c0.1,0.301,0.1,0.4,0.1,0.5c0,0.9-0.8,2.101-2.4,3.7C8.4,5.2,8.2,5.3,8.2,5.3
		C7.9,5.3,7.6,5.2,7.5,5V4.9c0-0.2,0.2-0.3,0.5-0.3C8.9,3.8,9.6,2.9,10,2.1C10.1,1.8,10.2,1.5,10.2,1.3c0-0.199-0.1-0.399-0.4-0.6
		C9.2,0.8,8.5,1.2,7.6,1.9C6.9,2.6,5.9,3.7,4.7,5.4c-2,3.2-3,5.7-3,7.6c0.1,0.3,0.3,0.5,0.5,0.5c0.7,0,1.8-0.8,3.4-2.399
		c1.1-1,1.9-1.801,2.3-2.2C8.1,8.8,8.2,8.7,8.2,8.7h0.1c0,0,0.1,0,0.1,0.1c0,0.4-0.3,0.9-1,1.5c0,0.101-0.9,0.9-2.5,2.5
		C3.9,13.6,3.2,14,2.6,14H2.3c-0.7,0-1.2-0.3-1.4-0.899V12.8c0-1.699,0.8-4.1,2.5-7.1c0.8-1.2,1.9-2.6,3.4-4.2C8,0.5,8.8,0,9.4,0z"
		/>
	<path d="M11.6,4.9c0.3,0,0.4,0.1,0.5,0.3v0.1C11.8,6,11.3,6.9,10.6,8.1l-1,2c-0.2,0.5-0.5,1.1-0.7,1.699V12.1
		c0.3,0,1.3-0.5,2.7-1.601c0.6-0.399,0.9-0.5,1-0.5h0.1c0.1,0,0.1,0,0.1,0.101v0.1c0,0.3-0.3,0.7-1,1.1C10.4,12.4,9.4,12.9,8.8,12.9
		c-0.6-0.101-0.9-0.4-0.9-0.8c0-0.4,0.4-1.301,1-2.801l1.4-2.6c0.6-1,0.9-1.6,0.9-1.7C11.5,4.9,11.5,4.9,11.6,4.9z"/>
	<path d="M13.3,9.3c0.4,0,0.6,0.101,0.6,0.4c0,0-0.1,0.3-0.5,0.7c-0.5,0.8-0.8,1.3-0.9,1.5l0,0c0.2,0,1-0.5,2.5-1.601
		c0.3-0.199,0.5-0.3,0.7-0.3c0.1,0.101,0.1,0.2,0.1,0.3l0,0c0,0.5-1,1.301-3,2.4c-0.2,0.1-0.5,0.1-0.6,0.1
		c-0.5-0.1-0.7-0.199-0.7-0.6l0,0c0-0.5,0.4-1.3,1.2-2.3C13,9.5,13.2,9.3,13.3,9.3z M15,5.6h0.1c0.2,0.199,0.3,0.3,0.3,0.5
		c0,0.3-0.1,0.699-0.4,1.1c-0.4,0.7-0.8,1-1.1,1h-0.1c-0.4,0-0.6-0.2-0.6-0.6c0.2-0.4,0.4-0.7,0.6-0.9c0-0.1,0.1-0.2,0.3-0.2h0.1
		h0.3c0.2-0.2,0.3-0.6,0.4-0.899H15z"/>
	<path d="M17.6,8.9c0.6,0,1,0.2,1.3,0.5v0.2c0,0.1-0.1,0.1-0.3,0.199c-0.1,0-0.3-0.1-0.7-0.199c-0.5,0-1.1,0.399-1.7,1.3
		c-0.1,0.3-0.2,0.6-0.2,0.8v0.1c0.1,0.5,0.4,0.7,0.9,0.7h0.5c0.5,0,1.4-0.6,2.8-1.6c0.2-0.101,0.4-0.101,0.5-0.101V10.9V11
		c0,0.2-0.2,0.5-0.6,0.9c-0.9,0.899-1.8,1.3-2.5,1.3h-0.2c-1,0-1.6-0.3-1.9-0.8c-0.1-0.101-0.1-0.4-0.2-0.7c0-0.8,0.5-1.5,1.5-2.3
		C17.1,9,17.3,8.9,17.6,8.9z"/>
	<path d="M22.3,3.5h0.1c0.2,0,0.4,0.101,0.6,0.3C23,4.6,22.7,5.9,22.1,7.5c0,0-0.1,0.4-0.3,1C22.6,7.9,23,7.6,23,7.6s0.1,0,0.2,0
		h0.1c0.1,0,0.1,0,0.1,0.1v0.4C22.8,8.8,22.2,9.3,21.7,9.6h-0.1c0.1,1.1,0.3,1.899,0.5,2.3c0.2,0.2,0.2,0.3,0.3,0.399
		c0.5,0,1.2-0.6,2.2-1.899c0,0,0.1-0.101,0.3-0.3C25.2,9.7,25.5,9.5,25.7,9.5h0.1c0.1,0,0.1,0.101,0.1,0.2c0,0.3-0.4,1-1.3,2.1
		c-0.5,0.7-1.1,1.101-1.8,1.101c-0.6,0-1.1-0.2-1.4-0.7c-0.1-0.3-0.3-0.8-0.4-1.5l0,0L20.2,12c0,0.101-0.1,0.2-0.2,0.4
		c-0.5,0.899-1,1.3-1.5,1.3v-0.1V13.5c0.9-1.2,1.6-2.5,2.2-3.899c0,0,0-0.101,0-0.2C20.7,9.3,20.8,9.2,21,9c1-2.399,1.4-4.1,1.4-5.2
		V3.7C22.1,3.6,22.1,3.6,22.3,3.5z"/>
	<path d="M31.2,4.1h0.1c0.2,0,0.3,0.1,0.3,0.399C31.1,5.6,30.3,7.1,29.2,9.1c0.1,0.1,0.1,0.1,0.1,0.199c0.7-0.699,1.4-1,1.9-1
		c0.3,0,0.5,0.2,0.7,0.5V9.1c0,0.3-0.2,0.699-0.7,1.399s-0.9,1.2-1.1,1.601l0,0c0,0.1,0.1,0.1,0.3,0.1c0.5,0,1.2-0.6,2.2-1.7
		l0.5-0.399L33.5,9.8h0.1c0,0,0.1,0.101,0.1,0.2c0,0.4-0.5,1.101-1.6,2.101C31.5,12.6,31,12.8,30.7,12.8l0,0
		c-0.7,0-1.1-0.199-1.2-0.699V12c0-0.399,0.4-1.1,1.2-2c0.4-0.6,0.6-1,0.6-1.2l0,0c-0.3,0-0.8,0.301-1.4,0.9
		c-1.1,1.1-1.7,1.8-1.8,2.1c-0.1,0-0.2,0.101-0.3,0.101c-0.2,0-0.3-0.101-0.5-0.3V11.3c0.4-0.6,0.8-1.3,1.2-2.1s0.8-1.6,1.2-2.4
		C30.5,5.3,31,4.4,31.3,3.9C31.2,4.1,31.2,4.1,31.2,4.1z"/>
	<path d="M35.799,9C36.4,9.1,36.6,9.3,36.6,9.6c0,0.399-0.2,0.8-0.7,1.1C35.5,11.1,35,11.3,34.5,11.3H34.4
		c-0.3-0.1-0.6-0.1-0.6-0.199l0,0v0.3v0.2c0,0.3,0.201,0.5,0.6,0.6c0.5,0,1.8-0.5,3.7-1.5c0.199-0.1,0.4-0.2,0.6-0.2
		c0.1,0,0.2,0.101,0.2,0.101v0.3c-0.3,0.399-0.7,0.7-1.101,0.899C36.299,12.5,35.1,12.9,34.4,12.9c-0.6,0-1.1-0.3-1.3-0.9
		C33,11.9,33,11.7,33,11.4c0-0.8,0.5-1.5,1.6-2.101C35.1,9.1,35.6,9,35.799,9z M34,10.7L34,10.7c0.699,0,1.199-0.3,1.699-0.9V9.7
		l0,0c-0.5,0-1.1,0.3-1.699,0.9V10.7z"/>
	<path d="M39.2,8.7c0.1,0.1,0.2,0.2,0.2,0.5C39.7,9.1,39.9,9,39.9,9h0.2c0.4,0,0.699,0.2,0.8,0.5S41,10,41.1,10
		C41.6,9.7,42,9.6,42.1,9.6l0,0c0.1,0,0.1,0,0.1,0.1V10c-0.3,0.4-0.6,0.7-1,0.8h-0.1c-0.6-0.1-1-0.3-1-0.899c0-0.101,0-0.2-0.1-0.2
		c-0.4,0.2-0.801,0.6-1.201,1.1c-0.5,0.801-0.899,1.301-1,1.601C37.7,12.6,37.6,12.8,37.6,12.8h-0.4c-0.199-0.1-0.4-0.199-0.4-0.399
		l0,0C36.9,12.1,37.1,11.6,37.5,11l1.1-2.3H39.2z"/>
	<path d="M44.7,9C45.299,9.1,45.5,9.3,45.5,9.6c0,0.399-0.201,0.8-0.701,1.1C44.4,11.1,43.9,11.3,43.4,11.3h-0.2
		c-0.3-0.1-0.6-0.1-0.6-0.199l0,0v0.3v0.2c0,0.3,0.199,0.5,0.6,0.6c0.5,0,1.801-0.5,3.7-1.5c0.2-0.1,0.399-0.2,0.601-0.2
		c0.1,0,0.199,0.101,0.199,0.101v0.3C47.4,11.3,47,11.6,46.6,11.8c-1.5,0.7-2.7,1.101-3.4,1.101c-0.6,0-1.1-0.3-1.3-0.9
		c-0.101-0.1-0.101-0.3-0.101-0.6c0-0.8,0.5-1.5,1.601-2.101C44,9.1,44.4,9,44.7,9z M42.9,10.7L42.9,10.7c0.7,0,1.2-0.3,1.7-0.9V9.7
		l0,0c-0.5,0-1.1,0.3-1.7,0.9V10.7z"/>
	<path d="M6.6,18.9c0.6,0,1,0.2,1.3,0.7C8,19.9,8,20.1,8,20.2c-0.1,0.7-0.3,1-0.7,1H7.1c0,0-0.1-0.1-0.1-0.2
		c0.1-0.399,0.1-0.7,0.1-1v-0.1c0-0.101-0.1-0.3-0.2-0.4c-1.1,0-2.4,0.8-3.8,2.5c-0.6,0.8-0.9,1.4-1,1.7h0.2c0.1,0,0.2,0,0.4,0l0,0
		l1.1-0.2h0.7c0.2,0,0.3,0.101,0.3,0.4S4.1,24.3,2.7,24.5H1.9C1.3,26.1,0.9,27,0.6,27.1H0.5C0.2,27.1,0.1,27,0.1,26.8
		c0.6-1.699,1-2.6,1-2.6c-0.5,0-0.8-0.3-1.1-0.6V23.5c0-0.2,0.1-0.2,0.2-0.3h0.1c0.2,0,0.5,0.2,1,0.5c1-2.2,2.3-3.6,4.1-4.5
		C5.7,19,6.1,18.9,6.6,18.9z"/>
	<path d="M6.3,23.4h0.3c0.3,0.2,0.5,0.399,0.5,0.5C7.4,24.1,7.7,24.3,8.2,24.3c0.3,0,0.6,0,1-0.1c0.3,0,0.4,0.1,0.4,0.3
		C9.4,24.8,9,25,8.3,25c-0.4,0-0.8-0.1-1-0.2c0,0.5-0.4,1.101-1.1,1.9c-0.4,0.4-0.8,0.6-1.4,0.6H4.7C4.2,27.2,4,27,4,26.7
		c0,0,0-0.1,0-0.2v-0.1c0-0.5,0.4-1.2,1.2-2.101C5.7,23.7,6.1,23.4,6.3,23.4z M4.7,26.5L4.8,26.6C5.2,26.5,5.7,26,6.3,25.1
		C6.4,25,6.4,24.8,6.5,24.6c-0.1-0.2-0.2-0.4-0.2-0.4C5.2,25.1,4.7,25.8,4.7,26.5z"/>
	<path d="M9.8,23.1C9.9,23.2,10,23.3,10,23.6c0.3-0.101,0.5-0.2,0.5-0.2h0.2c0.4,0,0.7,0.2,0.8,0.5s0.1,0.5,0.2,0.5
		c0.5-0.3,0.9-0.4,1-0.4l0,0c0.1,0,0.1,0,0.1,0.101v0.3c-0.3,0.399-0.6,0.7-1,0.8h-0.1c-0.6-0.1-1-0.3-1-0.9
		c0-0.1,0-0.199-0.1-0.199c-0.4,0.199-0.8,0.6-1.2,1.1c-0.5,0.8-0.9,1.3-1,1.6c-0.1,0.2-0.2,0.4-0.2,0.4H7.8
		c-0.2-0.1-0.4-0.2-0.4-0.4l0,0C7.5,26.5,7.7,26,8.1,25.4l1.1-2.3H9.8z"/>
	<path d="M16.5,22.8h0.2c0.1,0.101,0.2,0.2,0.2,0.4c0,0.1-0.2,0.5-0.5,1.3L16.2,25c0.8-0.7,1.4-1,1.8-1h0.3c0.3,0,0.4,0.2,0.5,0.7
		v0.1l0,0c0.6-0.5,1.1-0.699,1.6-0.699h0.1C20.8,24.2,21,24.3,21,24.5v0.2c0,0.3-0.3,1-0.8,2.1c-0.1,0.2-0.1,0.301-0.1,0.5
		c0,0.101,0.1,0.101,0.1,0.101c0.4,0,1.3-0.8,2.8-2.3c0,0,0-0.101,0.1-0.101h0.2c0,0,0.1,0,0.1,0.101c0,0.3-0.1,0.699-0.4,1
		c-0.9,1-1.6,1.6-2.1,1.8c-0.2,0.1-0.4,0.2-0.7,0.2c-0.3,0-0.6-0.2-0.8-0.601v-0.2c0-0.3,0.2-0.8,0.6-1.699l0.3-0.9
		c-0.5,0.1-1.1,0.5-1.7,1.2c-0.3,0.3-0.4,0.7-0.5,0.899L17.9,26.9h-0.2c-0.1,0-0.2-0.101-0.4-0.3V26.5c0-0.1,0.1-0.3,0.3-0.8
		c0.1-0.2,0.2-0.6,0.3-1.1V24.5c-0.4,0.101-1.1,0.601-2,1.4c0,0-0.1,0.3-0.4,0.7C15.5,26.8,15.4,27,15.3,27h-0.4
		c-0.2-0.1-0.3-0.3-0.3-0.399c0.3-0.9,0.5-1.4,0.5-1.601c0.5-1.3,0.8-2,0.8-2.3C16.3,22.8,16.4,22.8,16.5,22.8z"/>
	<path d="M24.1,23.5c0.2,0,0.3,0.101,0.3,0.4l0,0c-0.7,0.899-1.1,1.6-1.2,2.1l0,0V26.1V26.3c0,0.101,0.1,0.2,0.2,0.2
		c0.7-0.2,1.7-1.1,2.9-2.6l0.2-0.101c0.4,0,0.6,0.101,0.7,0.301V24.3c-0.4,0.5-0.6,0.801-0.6,0.801l0,0c0.1,0,0.4-0.2,1.1-0.601
		c0.4-0.2,0.7-0.3,0.8-0.3l0,0c0.1,0.1,0.2,0.2,0.2,0.3l0,0c-0.1,0.3-0.4,0.601-1,0.8c-0.8,0.5-1.5,0.9-2.3,1.301
		C25.2,26.7,25,27,24.6,27.4c-1,1-1.8,1.6-2.3,1.899c-0.2,0.2-0.9,0.5-2.1,1h-0.1c-0.3-0.1-0.4-0.199-0.5-0.3v-0.2
		c0-0.1,0.2-0.3,0.7-0.6c1.6-1.2,2.5-1.9,2.8-2.1c-0.6-0.2-0.9-0.5-0.9-0.9v-0.1c0-0.801,0.5-1.7,1.5-2.7h0.4V23.5z"/>
	<path d="M37.4,22.8c0.2-1.199,0.2-2.1,0-2.6c-0.101-0.2-0.2-0.3-0.3-0.3s-0.2,0-0.4,0c-0.4,0.2-0.8,0.5-1.3,1.2
		C35,21.7,34.7,22.5,34.5,23.3c-0.201,0.9-0.201,1.7,0.1,2.2c0.199,0.601,0.6,0.9,1,1c0.5,0.101,1,0.101,1.5-0.3
		c0.6-0.3,1.1-0.8,1.6-1.6c0-0.101,0.1-0.101,0.2-0.101s0.2,0,0.2,0s0.1,0.101,0.1,0.2s0,0.2,0,0.2C38.7,25.8,38,26.4,37.299,26.8
		c-0.699,0.4-1.399,0.5-2,0.301c-0.6-0.2-1.1-0.7-1.399-1.4s-0.3-1.6-0.1-2.6c0.201-0.9,0.5-1.7,1-2.5c0.5-0.7,1-1.2,1.5-1.4
		c0.301-0.1,0.601-0.1,0.801,0c0.3,0.1,0.5,0.3,0.6,0.6C38,20.4,38,21.4,37.799,22.7c0,0.1-0.1,0.2-0.1,0.2C37.6,23,37.5,23,37.5,23
		l-0.201-0.1C37.5,23,37.4,22.9,37.4,22.8z"/>
	<path d="M39,22.1C39.2,21.6,39.4,21,39.7,20.6c0.2-0.4,0.4-0.601,0.7-0.7c0.399-0.2,0.7-0.101,1,0.2c0.2,0.199,0.3,0.5,0.5,0.899
		c0.101,0.3,0.2,0.8,0.3,1.3c0.1,0.601,0.301,1.4,0.4,2.301c0.1,0.399,0.1,0.8,0.1,1.1l0.2-0.5C43,25,43,24.9,43.1,24.8
		c0-0.1,0.1-0.199,0.1-0.199c0.4-1.101,0.9-2.101,1.4-2.9s1-1.7,1.699-2.6C46.4,19,46.4,19,46.5,19c0.1,0,0.199,0,0.199,0.101
		c0,0.1,0.1,0.1,0.1,0.199c0,0.101,0,0.2-0.1,0.2C46,20.3,45.5,21.2,45,22c-0.4,0.8-0.9,1.8-1.301,2.9c0,0-0.1,0.2-0.199,0.399
		L43.2,26l-0.3,0.7c0,0.1-0.101,0.2-0.101,0.3c0,0,0,0.101-0.1,0.101c0,0.1-0.1,0.1-0.1,0.1c-0.1,0.1-0.2,0.1-0.4,0l-0.1-0.1V27
		c0-0.1,0-0.1,0-0.2c0-0.1,0-0.3,0-0.6c0-0.4-0.1-0.8-0.2-1.4c-0.2-1-0.3-1.8-0.399-2.3C41.4,22,41.299,21.6,41.2,21.2
		S41,20.6,40.9,20.5c-0.101-0.1-0.101-0.1-0.2-0.1c-0.1,0.1-0.3,0.3-0.4,0.5C40,21.3,39.799,21.8,39.7,22.3
		c0,0.101-0.1,0.2-0.199,0.2c-0.101,0-0.201,0-0.301,0S39,22.4,39,22.3C38.9,22.3,38.9,22.2,39,22.1z"/>
	<path d="M47.6,27.2c0.3,0.1,0.5,0.2,0.5,0.5v0.2c0,0.3-0.2,0.5-0.5,0.6h-0.2C47.2,28.5,47,28.3,47,27.9c0-0.101,0-0.101,0-0.101
		v-0.1C47,27.4,47.2,27.2,47.6,27.2z M50.4,14.4h0.5c0,0,0.101,0,0.101,0.1v0.4c0,0.5-0.5,2.5-1.5,6.1c-0.4,1.7-0.801,3.2-1,4.601
		C48.4,25.7,48.4,25.8,48.299,25.8H47.9c-0.101,0-0.101,0-0.101-0.1c0-1.4,0.801-4.9,2.4-10.6C50.299,14.6,50.299,14.4,50.4,14.4z"
		/>
	<path fill-rule="evenodd" clip-rule="evenodd" d="M65.719,16.587c-0.091,5.119-2.056,9.303-6.165,12.446
		c-0.799,0.609-1.351,0.625-2.174-0.038c-0.79-0.634-1.798-1.041-2.768-1.395c-2.599-0.953-3.524-4.695-1.76-6.909
		c0.928-1.164,1.762-2.452,2.369-3.805c0.423-0.941,0.31-1.895-1.246-2.001c-1.633-0.112-3.19-1.903-3.26-3.478
		c-0.013-0.286,0.231-0.764,0.468-0.852c2.738-1.02,4.193-3.331,5.765-5.552c1.493-2.111,4.29-2.399,6.261-0.681
		c2.712,2.366,5.422,4.734,8.102,7.135c0.42,0.376,0.681,0.93,1.014,1.401c-0.522,0.363-1.003,0.91-1.579,1.05
		c-1.615,0.392-3.271,0.612-5.055,0.926C65.704,15.553,65.728,16.071,65.719,16.587z M56.578,18.142
		c-0.908,1.52-2.252,2.85-2.092,4.826c0.009,0.111,0.216,0.207,0.498,0.461c1.03-1.594,2.346-2.966,1.94-5.073
		c0.098,0.111,0.267,0.332,0.285,0.32c0.721-0.48,0.785-2.886-0.12-3.793c-0.062,1.322-0.114,2.425-0.167,3.527
		C56.806,18.322,56.693,18.233,56.578,18.142z M55.224,13.534c0.903-0.127,1.974-0.225,3.02-0.445
		c1.057-0.224,1.615-0.227,1.286,1.175c-0.415,1.771-0.297,3.718-0.955,5.373c-0.885,2.229-2.289,4.254-3.533,6.477
		c0.877,0.458,2.025,1.13,3.242,1.642c0.278,0.118,0.864-0.231,1.184-0.507c3.479-3.011,5.064-6.869,4.783-11.418
		c-0.102-1.645,0.612-2.276,2.029-2.543c1.197-0.227,2.388-0.488,3.854-0.791c-2.861-2.584-5.438-4.914-8.027-7.252
		C59.808,8.014,57.561,10.72,55.224,13.534z M59.603,5.954c-1.606-0.252-3.077,1.183-2.961,2.76c0.14,0.096,0.277,0.191,0.418,0.287
		C57.894,8.003,58.729,7.002,59.603,5.954z"/>
</g>
</svg>
