<?xml version="1.0" encoding="utf-8"?>
<!-- Generator: Adobe Illustrator 16.0.0, SVG Export Plug-In . SVG Version: 6.00 Build 0)  -->
<!DOCTYPE svg PUBLIC "-//W3C//DTD SVG 1.1//EN" "http://www.w3.org/Graphics/SVG/1.1/DTD/svg11.dtd">
<svg version="1.1" id="Layer_1" xmlns="http://www.w3.org/2000/svg" xmlns:xlink="http://www.w3.org/1999/xlink" x="0px" y="0px"
	 width="66.675px" height="41.367px" viewBox="0 0 66.675 41.367" enable-background="new 0 0 66.675 41.367" xml:space="preserve">
<text transform="matrix(1 0 0 1 0.9199 12.8555)"><tspan x="0" y="0" font-family="'SilentReaction'" font-size="12">Click here </tspan><tspan x="0" y="14.4" font-family="'SilentReaction'" font-size="12">for my </tspan><tspan x="30.521" y="14.4" font-family="'AlwaysInMyHeart'" font-size="12">CV </tspan><tspan x="46.049" y="14.4" font-family="'SilentReaction'" font-size="12">!</tspan></text>
<path fill-rule="evenodd" clip-rule="evenodd" d="M50.035,37.216c3.057-0.552,6.226-0.77,9.146-1.738
	c3.972-1.317,5.686-4.375,5.122-8.533c-0.998-7.371-5.593-11.9-12.104-14.865c-0.986-0.449-2.888-0.034-2.501-1.961
	c0.042-0.208,2.438-0.333,3.48,0.114c5.321,2.284,9.495,5.924,11.97,11.247c3.889,8.363,0.155,15.535-8.911,17.066
	c-2.234,0.377-4.541,0.326-6.614,0.458c-0.053,0.742-0.11,1.553-0.168,2.363c-0.733-0.318-1.605-0.479-2.178-0.981
	c-4.04-3.549-4.271-3.189,0.513-5.79c0.568-0.309,1.291-0.333,1.941-0.487c0.079,0.761,0.159,1.522,0.237,2.284
	C49.99,36.668,50.012,36.941,50.035,37.216z"/>
</svg>
