<svg xmlns="http://www.w3.org/2000/svg" xmlns:xlink="http://www.w3.org/1999/xlink" version="1.1" id="Layer_1" x="0" y="0" width="66.7" height="41.4" viewBox="0 0 66.7 41.4" enable-background="new 0 0 66.675 41.367" xml:space="preserve">
	<symbol viewBox="0 0 66.7 41.4" id="side">
		<path d="M9.4 0h0.2c0.7 0 1.2 0.3 1.4 0.8 0.1 0.3 0.1 0.4 0.1 0.5 0 0.9-0.8 2.1-2.4 3.7C8.4 5.2 8.2 5.3 8.2 5.3c-0.3 0-0.6-0.1-0.7-0.3V4.9c0-0.2 0.2-0.3 0.5-0.3 0.9-0.8 1.6-1.7 2-2.5 0.1-0.3 0.2-0.6 0.2-0.8 0-0.2-0.1-0.4-0.4-0.6C9.2 0.8 8.5 1.2 7.6 1.9 6.9 2.6 5.9 3.7 4.7 5.4c-2 3.2-3 5.7-3 7.6 0.1 0.3 0.3 0.5 0.5 0.5 0.7 0 1.8-0.8 3.4-2.4 1.1-1 1.9-1.8 2.3-2.2C8.1 8.8 8.2 8.7 8.2 8.7h0.1c0 0 0.1 0 0.1 0.1 0 0.4-0.3 0.9-1 1.5 0 0.1-0.9 0.9-2.5 2.5 -1 0.8-1.7 1.2-2.3 1.2H2.3c-0.7 0-1.2-0.3-1.4-0.9v-0.3c0-1.7 0.8-4.1 2.5-7.1C4.2 4.5 5.3 3.1 6.8 1.5 8 0.5 8.8 0 9.4 0z"/>
		<path d="M11.6 4.9c0.3 0 0.4 0.1 0.5 0.3V5.3c-0.3 0.7-0.8 1.6-1.5 2.8l-1 2c-0.2 0.5-0.5 1.1-0.7 1.7v0.3c0.3 0 1.3-0.5 2.7-1.6 0.6-0.4 0.9-0.5 1-0.5h0.1c0.1 0 0.1 0 0.1 0.1v0.1c0 0.3-0.3 0.7-1 1.1 -1.4 1.1-2.4 1.6-3 1.6 -0.6-0.1-0.9-0.4-0.9-0.8 0-0.4 0.4-1.3 1-2.8l1.4-2.6c0.6-1 0.9-1.6 0.9-1.7C11.5 4.9 11.5 4.9 11.6 4.9z"/>
		<path d="M13.3 9.3c0.4 0 0.6 0.1 0.6 0.4 0 0-0.1 0.3-0.5 0.7 -0.5 0.8-0.8 1.3-0.9 1.5h0c0.2 0 1-0.5 2.5-1.6 0.3-0.2 0.5-0.3 0.7-0.3 0.1 0.1 0.1 0.2 0.1 0.3v0c0 0.5-1 1.3-3 2.4 -0.2 0.1-0.5 0.1-0.6 0.1 -0.5-0.1-0.7-0.2-0.7-0.6v0c0-0.5 0.4-1.3 1.2-2.3C13 9.5 13.2 9.3 13.3 9.3zM15 5.6h0.1c0.2 0.2 0.3 0.3 0.3 0.5 0 0.3-0.1 0.7-0.4 1.1 -0.4 0.7-0.8 1-1.1 1h-0.1c-0.4 0-0.6-0.2-0.6-0.6 0.2-0.4 0.4-0.7 0.6-0.9 0-0.1 0.1-0.2 0.3-0.2h0.1l0.3 0c0.2-0.2 0.3-0.6 0.4-0.9L15 5.6z"/>
		<path d="M17.6 8.9c0.6 0 1 0.2 1.3 0.5v0.2c0 0.1-0.1 0.1-0.3 0.2 -0.1 0-0.3-0.1-0.7-0.2 -0.5 0-1.1 0.4-1.7 1.3 -0.1 0.3-0.2 0.6-0.2 0.8v0.1c0.1 0.5 0.4 0.7 0.9 0.7h0.5c0.5 0 1.4-0.6 2.8-1.6 0.2-0.1 0.4-0.1 0.5-0.1l0 0.1v0.1c0 0.2-0.2 0.5-0.6 0.9 -0.9 0.9-1.8 1.3-2.5 1.3h-0.2c-1 0-1.6-0.3-1.9-0.8 -0.1-0.1-0.1-0.4-0.2-0.7 0-0.8 0.5-1.5 1.5-2.3C17.1 9 17.3 8.9 17.6 8.9z"/>
		<path d="M22.3 3.5h0.1c0.2 0 0.4 0.1 0.6 0.3 0 0.8-0.3 2.1-0.9 3.7 0 0-0.1 0.4-0.3 1C22.6 7.9 23 7.6 23 7.6c0 0 0.1 0 0.2 0h0.1c0.1 0 0.1 0 0.1 0.1v0.4c-0.6 0.7-1.2 1.2-1.7 1.5H21.6c0.1 1.1 0.3 1.9 0.5 2.3 0.2 0.2 0.2 0.3 0.3 0.4 0.5 0 1.2-0.6 2.2-1.9 0 0 0.1-0.1 0.3-0.3 0.3-0.4 0.6-0.6 0.8-0.6h0.1c0.1 0 0.1 0.1 0.1 0.2 0 0.3-0.4 1-1.3 2.1 -0.5 0.7-1.1 1.1-1.8 1.1 -0.6 0-1.1-0.2-1.4-0.7 -0.1-0.3-0.3-0.8-0.4-1.5h0l-0.8 1.3c0 0.1-0.1 0.2-0.2 0.4 -0.5 0.9-1 1.3-1.5 1.3l0-0.1v-0.1c0.9-1.2 1.6-2.5 2.2-3.9 0 0 0-0.1 0-0.2 0-0.1 0.1-0.2 0.3-0.4 1-2.4 1.4-4.1 1.4-5.2V3.7C22.1 3.6 22.1 3.6 22.3 3.5z"/>
		<path d="M31.2 4.1h0.1c0.2 0 0.3 0.1 0.3 0.4 -0.5 1.1-1.3 2.6-2.4 4.6C29.3 9.2 29.3 9.2 29.3 9.3c0.7-0.7 1.4-1 1.9-1 0.3 0 0.5 0.2 0.7 0.5v0.3c0 0.3-0.2 0.7-0.7 1.4 -0.5 0.7-0.9 1.2-1.1 1.6v0c0 0.1 0.1 0.1 0.3 0.1 0.5 0 1.2-0.6 2.2-1.7l0.5-0.4 0.4-0.3h0.1c0 0 0.1 0.1 0.1 0.2 0 0.4-0.5 1.1-1.6 2.1 -0.6 0.5-1.1 0.7-1.4 0.7h0c-0.7 0-1.1-0.2-1.2-0.7v-0.1c0-0.4 0.4-1.1 1.2-2 0.4-0.6 0.6-1 0.6-1.2h0c-0.3 0-0.8 0.3-1.4 0.9 -1.1 1.1-1.7 1.8-1.8 2.1 -0.1 0-0.2 0.1-0.3 0.1 -0.2 0-0.3-0.1-0.5-0.3v-0.3c0.4-0.6 0.8-1.3 1.2-2.1 0.4-0.8 0.8-1.6 1.2-2.4 0.8-1.5 1.3-2.4 1.6-2.9C31.2 4.1 31.2 4.1 31.2 4.1z"/>
		<path d="M35.8 9c0.6 0.1 0.8 0.3 0.8 0.6 0 0.4-0.2 0.8-0.7 1.1 -0.4 0.4-0.9 0.6-1.4 0.6H34.4c-0.3-0.1-0.6-0.1-0.6-0.2h0l0 0.3v0.2c0 0.3 0.2 0.5 0.6 0.6 0.5 0 1.8-0.5 3.7-1.5 0.2-0.1 0.4-0.2 0.6-0.2 0.1 0 0.2 0.1 0.2 0.1v0.3c-0.3 0.4-0.7 0.7-1.1 0.9 -1.5 0.7-2.7 1.1-3.4 1.1 -0.6 0-1.1-0.3-1.3-0.9 -0.1-0.1-0.1-0.3-0.1-0.6 0-0.8 0.5-1.5 1.6-2.1C35.1 9.1 35.6 9 35.8 9zM34 10.7h0c0.7 0 1.2-0.3 1.7-0.9V9.7h0c-0.5 0-1.1 0.3-1.7 0.9V10.7z"/>
		<path d="M39.2 8.7c0.1 0.1 0.2 0.2 0.2 0.5 0.3-0.1 0.5-0.2 0.5-0.2h0.2c0.4 0 0.7 0.2 0.8 0.5 0.1 0.3 0.1 0.5 0.2 0.5 0.5-0.3 0.9-0.4 1-0.4h0c0.1 0 0.1 0 0.1 0.1v0.3c-0.3 0.4-0.6 0.7-1 0.8h-0.1c-0.6-0.1-1-0.3-1-0.9 0-0.1 0-0.2-0.1-0.2 -0.4 0.2-0.8 0.6-1.2 1.1 -0.5 0.8-0.9 1.3-1 1.6 -0.1 0.2-0.2 0.4-0.2 0.4h-0.4c-0.2-0.1-0.4-0.2-0.4-0.4v0c0.1-0.3 0.3-0.8 0.7-1.4l1.1-2.3H39.2z"/>
		<path d="M44.7 9c0.6 0.1 0.8 0.3 0.8 0.6 0 0.4-0.2 0.8-0.7 1.1 -0.4 0.4-0.9 0.6-1.4 0.6h-0.2c-0.3-0.1-0.6-0.1-0.6-0.2h0l0 0.3v0.2c0 0.3 0.2 0.5 0.6 0.6 0.5 0 1.8-0.5 3.7-1.5 0.2-0.1 0.4-0.2 0.6-0.2 0.1 0 0.2 0.1 0.2 0.1v0.3c-0.3 0.4-0.7 0.7-1.1 0.9 -1.5 0.7-2.7 1.1-3.4 1.1 -0.6 0-1.1-0.3-1.3-0.9 -0.1-0.1-0.1-0.3-0.1-0.6 0-0.8 0.5-1.5 1.6-2.1C44 9.1 44.4 9 44.7 9zM42.9 10.7h0c0.7 0 1.2-0.3 1.7-0.9V9.7h0c-0.5 0-1.1 0.3-1.7 0.9V10.7z"/>
		<path d="M6.6 18.9c0.6 0 1 0.2 1.3 0.7 0.1 0.3 0.1 0.5 0.1 0.6 -0.1 0.7-0.3 1-0.7 1H7.1c0 0-0.1-0.1-0.1-0.2 0.1-0.4 0.1-0.7 0.1-1v-0.1c0-0.1-0.1-0.3-0.2-0.4 -1.1 0-2.4 0.8-3.8 2.5 -0.6 0.8-0.9 1.4-1 1.7h0.2c0.1 0 0.2 0 0.4 0 0 0 0 0 0 0l1.1-0.2H4.5c0.2 0 0.3 0.1 0.3 0.4 0 0.3-0.7 0.4-2.1 0.6H1.9c-0.6 1.6-1 2.5-1.3 2.6 0 0-0.1 0-0.1 0 -0.3 0-0.4-0.1-0.4-0.3 0.6-1.7 1-2.6 1-2.6C0.6 24.2 0.3 23.9 0 23.6v-0.1c0-0.2 0.1-0.2 0.2-0.3h0.1c0.2 0 0.5 0.2 1 0.5 1-2.2 2.3-3.6 4.1-4.5C5.7 19 6.1 18.9 6.6 18.9z"/>
		<path d="M6.3 23.4h0.3c0.3 0.2 0.5 0.4 0.5 0.5 0.3 0.2 0.6 0.4 1.1 0.4 0.3 0 0.6 0 1-0.1 0.3 0 0.4 0.1 0.4 0.3 -0.2 0.3-0.6 0.5-1.3 0.5 -0.4 0-0.8-0.1-1-0.2 0 0.5-0.4 1.1-1.1 1.9 -0.4 0.4-0.8 0.6-1.4 0.6H4.7c-0.5-0.1-0.7-0.3-0.7-0.6 0 0 0-0.1 0-0.2v-0.1c0-0.5 0.4-1.2 1.2-2.1C5.7 23.7 6.1 23.4 6.3 23.4zM4.7 26.5l0.1 0.1c0.4-0.1 0.9-0.6 1.5-1.5 0.1-0.1 0.1-0.3 0.2-0.5 -0.1-0.2-0.2-0.4-0.2-0.4C5.2 25.1 4.7 25.8 4.7 26.5z"/>
		<path d="M9.8 23.1c0.1 0.1 0.2 0.2 0.2 0.5 0.3-0.1 0.5-0.2 0.5-0.2h0.2c0.4 0 0.7 0.2 0.8 0.5 0.1 0.3 0.1 0.5 0.2 0.5 0.5-0.3 0.9-0.4 1-0.4h0c0.1 0 0.1 0 0.1 0.1v0.3c-0.3 0.4-0.6 0.7-1 0.8h-0.1c-0.6-0.1-1-0.3-1-0.9 0-0.1 0-0.2-0.1-0.2 -0.4 0.2-0.8 0.6-1.2 1.1 -0.5 0.8-0.9 1.3-1 1.6 -0.1 0.2-0.2 0.4-0.2 0.4H7.8c-0.2-0.1-0.4-0.2-0.4-0.4v0c0.1-0.3 0.3-0.8 0.7-1.4l1.1-2.3H9.8z"/>
		<path d="M16.5 22.8h0.2c0.1 0.1 0.2 0.2 0.2 0.4 0 0.1-0.2 0.5-0.5 1.3l-0.2 0.5c0.8-0.7 1.4-1 1.8-1h0.3c0.3 0 0.4 0.2 0.5 0.7 0 0 0 0.1 0 0.1h0c0.6-0.5 1.1-0.7 1.6-0.7h0.1c0.3 0.1 0.5 0.2 0.5 0.4v0.2c0 0.3-0.3 1-0.8 2.1 -0.1 0.2-0.1 0.3-0.1 0.5 0 0.1 0.1 0.1 0.1 0.1 0.4 0 1.3-0.8 2.8-2.3 0 0 0-0.1 0.1-0.1h0.2c0 0 0.1 0 0.1 0.1 0 0.3-0.1 0.7-0.4 1 -0.9 1-1.6 1.6-2.1 1.8 -0.2 0.1-0.4 0.2-0.7 0.2 -0.3 0-0.6-0.2-0.8-0.6v-0.2c0-0.3 0.2-0.8 0.6-1.7l0.3-0.9c-0.5 0.1-1.1 0.5-1.7 1.2 -0.3 0.3-0.4 0.7-0.5 0.9l-0.2 0.1h-0.2c-0.1 0-0.2-0.1-0.4-0.3v-0.1c0-0.1 0.1-0.3 0.3-0.8 0.1-0.2 0.2-0.6 0.3-1.1v-0.1c-0.4 0.1-1.1 0.6-2 1.4 0 0-0.1 0.3-0.4 0.7 0 0.2-0.1 0.4-0.2 0.4h-0.4c-0.2-0.1-0.3-0.3-0.3-0.4 0.3-0.9 0.5-1.4 0.5-1.6 0.5-1.3 0.8-2 0.8-2.3C16.3 22.8 16.4 22.8 16.5 22.8z"/>
		<path d="M24.1 23.5c0.2 0 0.3 0.1 0.3 0.4v0c-0.7 0.9-1.1 1.6-1.2 2.1 0 0 0 0 0 0l0 0.1 0 0.2c0 0.1 0.1 0.2 0.2 0.2 0.7-0.2 1.7-1.1 2.9-2.6l0.2-0.1c0.4 0 0.6 0.1 0.7 0.3v0.2c-0.4 0.5-0.6 0.8-0.6 0.8h0c0.1 0 0.4-0.2 1.1-0.6 0.4-0.2 0.7-0.3 0.8-0.3h0c0.1 0.1 0.2 0.2 0.2 0.3v0c-0.1 0.3-0.4 0.6-1 0.8 -0.8 0.5-1.5 0.9-2.3 1.3 -0.2 0.1-0.4 0.4-0.8 0.8 -1 1-1.8 1.6-2.3 1.9 -0.2 0.2-0.9 0.5-2.1 1h-0.1c-0.3-0.1-0.4-0.2-0.5-0.3v-0.2c0-0.1 0.2-0.3 0.7-0.6 1.6-1.2 2.5-1.9 2.8-2.1 -0.6-0.2-0.9-0.5-0.9-0.9v-0.1c0-0.8 0.5-1.7 1.5-2.7H24.1z"/>
		<path d="M37.4 22.8c0.2-1.2 0.2-2.1 0-2.6 -0.1-0.2-0.2-0.3-0.3-0.3 -0.1 0-0.2 0-0.4 0 -0.4 0.2-0.8 0.5-1.3 1.2 -0.4 0.6-0.7 1.4-0.9 2.2 -0.2 0.9-0.2 1.7 0.1 2.2 0.2 0.6 0.6 0.9 1 1 0.5 0.1 1 0.1 1.5-0.3 0.6-0.3 1.1-0.8 1.6-1.6 0-0.1 0.1-0.1 0.2-0.1 0.1 0 0.2 0 0.2 0s0.1 0.1 0.1 0.2c0 0.1 0 0.2 0 0.2 -0.5 0.9-1.2 1.5-1.9 1.9 -0.7 0.4-1.4 0.5-2 0.3 -0.6-0.2-1.1-0.7-1.4-1.4 -0.3-0.7-0.3-1.6-0.1-2.6 0.2-0.9 0.5-1.7 1-2.5 0.5-0.7 1-1.2 1.5-1.4 0.3-0.1 0.6-0.1 0.8 0 0.3 0.1 0.5 0.3 0.6 0.6 0.3 0.6 0.3 1.6 0.1 2.9 0 0.1-0.1 0.2-0.1 0.2 -0.1 0.1-0.2 0.1-0.2 0.1s-0.2-0.1-0.2-0.1C37.5 23 37.4 22.9 37.4 22.8z"/>
		<path d="M39 22.1c0.2-0.5 0.4-1.1 0.7-1.5 0.2-0.4 0.4-0.6 0.7-0.7 0.4-0.2 0.7-0.1 1 0.2 0.2 0.2 0.3 0.5 0.5 0.9 0.1 0.3 0.2 0.8 0.3 1.3 0.1 0.6 0.3 1.4 0.4 2.3 0.1 0.4 0.1 0.8 0.1 1.1l0.2-0.5c0.1-0.2 0.1-0.3 0.2-0.4 0-0.1 0.1-0.2 0.1-0.2 0.4-1.1 0.9-2.1 1.4-2.9 0.5-0.8 1-1.7 1.7-2.6 0.1-0.1 0.1-0.1 0.2-0.1 0.1 0 0.2 0 0.2 0.1s0.1 0.1 0.1 0.2c0 0.1 0 0.2-0.1 0.2 -0.7 0.8-1.2 1.7-1.7 2.5 -0.4 0.8-0.9 1.8-1.3 2.9 0 0-0.1 0.2-0.2 0.4l-0.3 0.7 -0.3 0.7c0 0.1-0.1 0.2-0.1 0.3 0 0 0 0.1-0.1 0.1 0 0.1-0.1 0.1-0.1 0.1 -0.1 0.1-0.2 0.1-0.4 0 0 0-0.1-0.1-0.1-0.1 0 0 0-0.1 0-0.1 0-0.1 0-0.1 0-0.2 0-0.1 0-0.3 0-0.6 0-0.4-0.1-0.8-0.2-1.4 -0.2-1-0.3-1.8-0.4-2.3 -0.1-0.5-0.2-0.9-0.3-1.3 -0.1-0.4-0.2-0.6-0.3-0.7 -0.1-0.1-0.1-0.1-0.2-0.1 -0.1 0.1-0.3 0.3-0.4 0.5 -0.3 0.4-0.5 0.9-0.6 1.4 0 0.1-0.1 0.2-0.2 0.2 -0.1 0-0.2 0-0.3 0 -0.1 0-0.2-0.1-0.2-0.2C38.9 22.3 38.9 22.2 39 22.1z"/>
		<path d="M47.6 27.2c0.3 0.1 0.5 0.2 0.5 0.5v0.2c0 0.3-0.2 0.5-0.5 0.6h-0.2c-0.2 0-0.4-0.2-0.4-0.6 0-0.1 0-0.1 0-0.1l0-0.1C47 27.4 47.2 27.2 47.6 27.2zM50.4 14.4h0.5c0 0 0.1 0 0.1 0.1v0.4c0 0.5-0.5 2.5-1.5 6.1 -0.4 1.7-0.8 3.2-1 4.6 -0.1 0.1-0.1 0.2-0.2 0.2h-0.4c-0.1 0-0.1 0-0.1-0.1 0-1.4 0.8-4.9 2.4-10.6C50.3 14.6 50.3 14.4 50.4 14.4z"/>
		<path id="side-arrow" d="M50 37.2c3.1-0.6 6.2-0.8 9.1-1.7 4-1.3 5.7-4.4 5.1-8.5 -1-7.4-5.6-11.9-12.1-14.9 -1-0.4-2.9 0-2.5-2 0-0.2 2.4-0.3 3.5 0.1 5.3 2.3 9.5 5.9 12 11.2 3.9 8.4 0.2 15.5-8.9 17.1 -2.2 0.4-4.5 0.3-6.6 0.5 -0.1 0.7-0.1 1.6-0.2 2.4 -0.7-0.3-1.6-0.5-2.2-1 -4-3.5-4.3-3.2 0.5-5.8 0.6-0.3 1.3-0.3 1.9-0.5 0.1 0.8 0.2 1.5 0.2 2.3C50 36.7 50 36.9 50 37.2z"/>
	</symbol>

	<symbol viewBox="0 0 66.7 41.4" id="up">
		<path d="M9.4 0h0.2c0.7 0 1.2 0.3 1.4 0.8 0.1 0.3 0.1 0.4 0.1 0.5 0 0.9-0.8 2.1-2.4 3.7C8.4 5.2 8.2 5.3 8.2 5.3c-0.3 0-0.6-0.1-0.7-0.3V4.9c0-0.2 0.2-0.3 0.5-0.3 0.9-0.8 1.6-1.7 2-2.5 0.1-0.3 0.2-0.6 0.2-0.8 0-0.2-0.1-0.4-0.4-0.6C9.2 0.8 8.5 1.2 7.6 1.9 6.9 2.6 5.9 3.7 4.7 5.4c-2 3.2-3 5.7-3 7.6 0.1 0.3 0.3 0.5 0.5 0.5 0.7 0 1.8-0.8 3.4-2.4 1.1-1 1.9-1.8 2.3-2.2C8.1 8.8 8.2 8.7 8.2 8.7h0.1c0 0 0.1 0 0.1 0.1 0 0.4-0.3 0.9-1 1.5 0 0.1-0.9 0.9-2.5 2.5 -1 0.8-1.7 1.2-2.3 1.2H2.3c-0.7 0-1.2-0.3-1.4-0.9v-0.3c0-1.7 0.8-4.1 2.5-7.1C4.2 4.5 5.3 3.1 6.8 1.5 8 0.5 8.8 0 9.4 0z"/>
		<path d="M11.6 4.9c0.3 0 0.4 0.1 0.5 0.3V5.3c-0.3 0.7-0.8 1.6-1.5 2.8l-1 2c-0.2 0.5-0.5 1.1-0.7 1.7v0.3c0.3 0 1.3-0.5 2.7-1.6 0.6-0.4 0.9-0.5 1-0.5h0.1c0.1 0 0.1 0 0.1 0.1v0.1c0 0.3-0.3 0.7-1 1.1 -1.4 1.1-2.4 1.6-3 1.6 -0.6-0.1-0.9-0.4-0.9-0.8 0-0.4 0.4-1.3 1-2.8l1.4-2.6c0.6-1 0.9-1.6 0.9-1.7C11.5 4.9 11.5 4.9 11.6 4.9z"/>
		<path d="M13.3 9.3c0.4 0 0.6 0.1 0.6 0.4 0 0-0.1 0.3-0.5 0.7 -0.5 0.8-0.8 1.3-0.9 1.5h0c0.2 0 1-0.5 2.5-1.6 0.3-0.2 0.5-0.3 0.7-0.3 0.1 0.1 0.1 0.2 0.1 0.3v0c0 0.5-1 1.3-3 2.4 -0.2 0.1-0.5 0.1-0.6 0.1 -0.5-0.1-0.7-0.2-0.7-0.6v0c0-0.5 0.4-1.3 1.2-2.3C13 9.5 13.2 9.3 13.3 9.3zM15 5.6h0.1c0.2 0.2 0.3 0.3 0.3 0.5 0 0.3-0.1 0.7-0.4 1.1 -0.4 0.7-0.8 1-1.1 1h-0.1c-0.4 0-0.6-0.2-0.6-0.6 0.2-0.4 0.4-0.7 0.6-0.9 0-0.1 0.1-0.2 0.3-0.2h0.1l0.3 0c0.2-0.2 0.3-0.6 0.4-0.9L15 5.6z"/>
		<path d="M17.6 8.9c0.6 0 1 0.2 1.3 0.5v0.2c0 0.1-0.1 0.1-0.3 0.2 -0.1 0-0.3-0.1-0.7-0.2 -0.5 0-1.1 0.4-1.7 1.3 -0.1 0.3-0.2 0.6-0.2 0.8v0.1c0.1 0.5 0.4 0.7 0.9 0.7h0.5c0.5 0 1.4-0.6 2.8-1.6 0.2-0.1 0.4-0.1 0.5-0.1l0 0.1v0.1c0 0.2-0.2 0.5-0.6 0.9 -0.9 0.9-1.8 1.3-2.5 1.3h-0.2c-1 0-1.6-0.3-1.9-0.8 -0.1-0.1-0.1-0.4-0.2-0.7 0-0.8 0.5-1.5 1.5-2.3C17.1 9 17.3 8.9 17.6 8.9z"/>
		<path d="M22.3 3.5h0.1c0.2 0 0.4 0.1 0.6 0.3 0 0.8-0.3 2.1-0.9 3.7 0 0-0.1 0.4-0.3 1C22.6 7.9 23 7.6 23 7.6c0 0 0.1 0 0.2 0h0.1c0.1 0 0.1 0 0.1 0.1v0.4c-0.6 0.7-1.2 1.2-1.7 1.5H21.6c0.1 1.1 0.3 1.9 0.5 2.3 0.2 0.2 0.2 0.3 0.3 0.4 0.5 0 1.2-0.6 2.2-1.9 0 0 0.1-0.1 0.3-0.3 0.3-0.4 0.6-0.6 0.8-0.6h0.1c0.1 0 0.1 0.1 0.1 0.2 0 0.3-0.4 1-1.3 2.1 -0.5 0.7-1.1 1.1-1.8 1.1 -0.6 0-1.1-0.2-1.4-0.7 -0.1-0.3-0.3-0.8-0.4-1.5h0l-0.8 1.3c0 0.1-0.1 0.2-0.2 0.4 -0.5 0.9-1 1.3-1.5 1.3l0-0.1v-0.1c0.9-1.2 1.6-2.5 2.2-3.9 0 0 0-0.1 0-0.2 0-0.1 0.1-0.2 0.3-0.4 1-2.4 1.4-4.1 1.4-5.2V3.7C22.1 3.6 22.1 3.6 22.3 3.5z"/>
		<path d="M31.2 4.1h0.1c0.2 0 0.3 0.1 0.3 0.4 -0.5 1.1-1.3 2.6-2.4 4.6C29.3 9.2 29.3 9.2 29.3 9.3c0.7-0.7 1.4-1 1.9-1 0.3 0 0.5 0.2 0.7 0.5v0.3c0 0.3-0.2 0.7-0.7 1.4 -0.5 0.7-0.9 1.2-1.1 1.6v0c0 0.1 0.1 0.1 0.3 0.1 0.5 0 1.2-0.6 2.2-1.7l0.5-0.4 0.4-0.3h0.1c0 0 0.1 0.1 0.1 0.2 0 0.4-0.5 1.1-1.6 2.1 -0.6 0.5-1.1 0.7-1.4 0.7h0c-0.7 0-1.1-0.2-1.2-0.7v-0.1c0-0.4 0.4-1.1 1.2-2 0.4-0.6 0.6-1 0.6-1.2h0c-0.3 0-0.8 0.3-1.4 0.9 -1.1 1.1-1.7 1.8-1.8 2.1 -0.1 0-0.2 0.1-0.3 0.1 -0.2 0-0.3-0.1-0.5-0.3v-0.3c0.4-0.6 0.8-1.3 1.2-2.1 0.4-0.8 0.8-1.6 1.2-2.4 0.8-1.5 1.3-2.4 1.6-2.9C31.2 4.1 31.2 4.1 31.2 4.1z"/>
		<path d="M35.8 9c0.6 0.1 0.8 0.3 0.8 0.6 0 0.4-0.2 0.8-0.7 1.1 -0.4 0.4-0.9 0.6-1.4 0.6H34.4c-0.3-0.1-0.6-0.1-0.6-0.2h0l0 0.3v0.2c0 0.3 0.2 0.5 0.6 0.6 0.5 0 1.8-0.5 3.7-1.5 0.2-0.1 0.4-0.2 0.6-0.2 0.1 0 0.2 0.1 0.2 0.1v0.3c-0.3 0.4-0.7 0.7-1.1 0.9 -1.5 0.7-2.7 1.1-3.4 1.1 -0.6 0-1.1-0.3-1.3-0.9 -0.1-0.1-0.1-0.3-0.1-0.6 0-0.8 0.5-1.5 1.6-2.1C35.1 9.1 35.6 9 35.8 9zM34 10.7h0c0.7 0 1.2-0.3 1.7-0.9V9.7h0c-0.5 0-1.1 0.3-1.7 0.9V10.7z"/>
		<path d="M39.2 8.7c0.1 0.1 0.2 0.2 0.2 0.5 0.3-0.1 0.5-0.2 0.5-0.2h0.2c0.4 0 0.7 0.2 0.8 0.5 0.1 0.3 0.1 0.5 0.2 0.5 0.5-0.3 0.9-0.4 1-0.4h0c0.1 0 0.1 0 0.1 0.1v0.3c-0.3 0.4-0.6 0.7-1 0.8h-0.1c-0.6-0.1-1-0.3-1-0.9 0-0.1 0-0.2-0.1-0.2 -0.4 0.2-0.8 0.6-1.2 1.1 -0.5 0.8-0.9 1.3-1 1.6 -0.1 0.2-0.2 0.4-0.2 0.4h-0.4c-0.2-0.1-0.4-0.2-0.4-0.4v0c0.1-0.3 0.3-0.8 0.7-1.4l1.1-2.3H39.2z"/>
		<path d="M44.7 9c0.6 0.1 0.8 0.3 0.8 0.6 0 0.4-0.2 0.8-0.7 1.1 -0.4 0.4-0.9 0.6-1.4 0.6h-0.2c-0.3-0.1-0.6-0.1-0.6-0.2h0l0 0.3v0.2c0 0.3 0.2 0.5 0.6 0.6 0.5 0 1.8-0.5 3.7-1.5 0.2-0.1 0.4-0.2 0.6-0.2 0.1 0 0.2 0.1 0.2 0.1v0.3c-0.3 0.4-0.7 0.7-1.1 0.9 -1.5 0.7-2.7 1.1-3.4 1.1 -0.6 0-1.1-0.3-1.3-0.9 -0.1-0.1-0.1-0.3-0.1-0.6 0-0.8 0.5-1.5 1.6-2.1C44 9.1 44.4 9 44.7 9zM42.9 10.7h0c0.7 0 1.2-0.3 1.7-0.9V9.7h0c-0.5 0-1.1 0.3-1.7 0.9V10.7z"/>
		<path d="M6.6 18.9c0.6 0 1 0.2 1.3 0.7 0.1 0.3 0.1 0.5 0.1 0.6 -0.1 0.7-0.3 1-0.7 1H7.1c0 0-0.1-0.1-0.1-0.2 0.1-0.4 0.1-0.7 0.1-1v-0.1c0-0.1-0.1-0.3-0.2-0.4 -1.1 0-2.4 0.8-3.8 2.5 -0.6 0.8-0.9 1.4-1 1.7h0.2c0.1 0 0.2 0 0.4 0 0 0 0 0 0 0l1.1-0.2H4.5c0.2 0 0.3 0.1 0.3 0.4 0 0.3-0.7 0.4-2.1 0.6H1.9c-0.6 1.6-1 2.5-1.3 2.6 0 0-0.1 0-0.1 0 -0.3 0-0.4-0.1-0.4-0.3 0.6-1.7 1-2.6 1-2.6C0.6 24.2 0.3 23.9 0 23.6v-0.1c0-0.2 0.1-0.2 0.2-0.3h0.1c0.2 0 0.5 0.2 1 0.5 1-2.2 2.3-3.6 4.1-4.5C5.7 19 6.1 18.9 6.6 18.9z"/>
		<path d="M6.3 23.4h0.3c0.3 0.2 0.5 0.4 0.5 0.5 0.3 0.2 0.6 0.4 1.1 0.4 0.3 0 0.6 0 1-0.1 0.3 0 0.4 0.1 0.4 0.3 -0.2 0.3-0.6 0.5-1.3 0.5 -0.4 0-0.8-0.1-1-0.2 0 0.5-0.4 1.1-1.1 1.9 -0.4 0.4-0.8 0.6-1.4 0.6H4.7c-0.5-0.1-0.7-0.3-0.7-0.6 0 0 0-0.1 0-0.2v-0.1c0-0.5 0.4-1.2 1.2-2.1C5.7 23.7 6.1 23.4 6.3 23.4zM4.7 26.5l0.1 0.1c0.4-0.1 0.9-0.6 1.5-1.5 0.1-0.1 0.1-0.3 0.2-0.5 -0.1-0.2-0.2-0.4-0.2-0.4C5.2 25.1 4.7 25.8 4.7 26.5z"/>
		<path d="M9.8 23.1c0.1 0.1 0.2 0.2 0.2 0.5 0.3-0.1 0.5-0.2 0.5-0.2h0.2c0.4 0 0.7 0.2 0.8 0.5 0.1 0.3 0.1 0.5 0.2 0.5 0.5-0.3 0.9-0.4 1-0.4h0c0.1 0 0.1 0 0.1 0.1v0.3c-0.3 0.4-0.6 0.7-1 0.8h-0.1c-0.6-0.1-1-0.3-1-0.9 0-0.1 0-0.2-0.1-0.2 -0.4 0.2-0.8 0.6-1.2 1.1 -0.5 0.8-0.9 1.3-1 1.6 -0.1 0.2-0.2 0.4-0.2 0.4H7.8c-0.2-0.1-0.4-0.2-0.4-0.4v0c0.1-0.3 0.3-0.8 0.7-1.4l1.1-2.3H9.8z"/>
		<path d="M16.5 22.8h0.2c0.1 0.1 0.2 0.2 0.2 0.4 0 0.1-0.2 0.5-0.5 1.3l-0.2 0.5c0.8-0.7 1.4-1 1.8-1h0.3c0.3 0 0.4 0.2 0.5 0.7 0 0 0 0.1 0 0.1h0c0.6-0.5 1.1-0.7 1.6-0.7h0.1c0.3 0.1 0.5 0.2 0.5 0.4v0.2c0 0.3-0.3 1-0.8 2.1 -0.1 0.2-0.1 0.3-0.1 0.5 0 0.1 0.1 0.1 0.1 0.1 0.4 0 1.3-0.8 2.8-2.3 0 0 0-0.1 0.1-0.1h0.2c0 0 0.1 0 0.1 0.1 0 0.3-0.1 0.7-0.4 1 -0.9 1-1.6 1.6-2.1 1.8 -0.2 0.1-0.4 0.2-0.7 0.2 -0.3 0-0.6-0.2-0.8-0.6v-0.2c0-0.3 0.2-0.8 0.6-1.7l0.3-0.9c-0.5 0.1-1.1 0.5-1.7 1.2 -0.3 0.3-0.4 0.7-0.5 0.9l-0.2 0.1h-0.2c-0.1 0-0.2-0.1-0.4-0.3v-0.1c0-0.1 0.1-0.3 0.3-0.8 0.1-0.2 0.2-0.6 0.3-1.1v-0.1c-0.4 0.1-1.1 0.6-2 1.4 0 0-0.1 0.3-0.4 0.7 0 0.2-0.1 0.4-0.2 0.4h-0.4c-0.2-0.1-0.3-0.3-0.3-0.4 0.3-0.9 0.5-1.4 0.5-1.6 0.5-1.3 0.8-2 0.8-2.3C16.3 22.8 16.4 22.8 16.5 22.8z"/>
		<path d="M24.1 23.5c0.2 0 0.3 0.1 0.3 0.4v0c-0.7 0.9-1.1 1.6-1.2 2.1 0 0 0 0 0 0l0 0.1 0 0.2c0 0.1 0.1 0.2 0.2 0.2 0.7-0.2 1.7-1.1 2.9-2.6l0.2-0.1c0.4 0 0.6 0.1 0.7 0.3v0.2c-0.4 0.5-0.6 0.8-0.6 0.8h0c0.1 0 0.4-0.2 1.1-0.6 0.4-0.2 0.7-0.3 0.8-0.3h0c0.1 0.1 0.2 0.2 0.2 0.3v0c-0.1 0.3-0.4 0.6-1 0.8 -0.8 0.5-1.5 0.9-2.3 1.3 -0.2 0.1-0.4 0.4-0.8 0.8 -1 1-1.8 1.6-2.3 1.9 -0.2 0.2-0.9 0.5-2.1 1h-0.1c-0.3-0.1-0.4-0.2-0.5-0.3v-0.2c0-0.1 0.2-0.3 0.7-0.6 1.6-1.2 2.5-1.9 2.8-2.1 -0.6-0.2-0.9-0.5-0.9-0.9v-0.1c0-0.8 0.5-1.7 1.5-2.7H24.1z"/>
		<path d="M37.4 22.8c0.2-1.2 0.2-2.1 0-2.6 -0.1-0.2-0.2-0.3-0.3-0.3 -0.1 0-0.2 0-0.4 0 -0.4 0.2-0.8 0.5-1.3 1.2 -0.4 0.6-0.7 1.4-0.9 2.2 -0.2 0.9-0.2 1.7 0.1 2.2 0.2 0.6 0.6 0.9 1 1 0.5 0.1 1 0.1 1.5-0.3 0.6-0.3 1.1-0.8 1.6-1.6 0-0.1 0.1-0.1 0.2-0.1 0.1 0 0.2 0 0.2 0s0.1 0.1 0.1 0.2c0 0.1 0 0.2 0 0.2 -0.5 0.9-1.2 1.5-1.9 1.9 -0.7 0.4-1.4 0.5-2 0.3 -0.6-0.2-1.1-0.7-1.4-1.4 -0.3-0.7-0.3-1.6-0.1-2.6 0.2-0.9 0.5-1.7 1-2.5 0.5-0.7 1-1.2 1.5-1.4 0.3-0.1 0.6-0.1 0.8 0 0.3 0.1 0.5 0.3 0.6 0.6 0.3 0.6 0.3 1.6 0.1 2.9 0 0.1-0.1 0.2-0.1 0.2 -0.1 0.1-0.2 0.1-0.2 0.1s-0.2-0.1-0.2-0.1C37.5 23 37.4 22.9 37.4 22.8z"/>
		<path d="M39 22.1c0.2-0.5 0.4-1.1 0.7-1.5 0.2-0.4 0.4-0.6 0.7-0.7 0.4-0.2 0.7-0.1 1 0.2 0.2 0.2 0.3 0.5 0.5 0.9 0.1 0.3 0.2 0.8 0.3 1.3 0.1 0.6 0.3 1.4 0.4 2.3 0.1 0.4 0.1 0.8 0.1 1.1l0.2-0.5c0.1-0.2 0.1-0.3 0.2-0.4 0-0.1 0.1-0.2 0.1-0.2 0.4-1.1 0.9-2.1 1.4-2.9 0.5-0.8 1-1.7 1.7-2.6 0.1-0.1 0.1-0.1 0.2-0.1 0.1 0 0.2 0 0.2 0.1s0.1 0.1 0.1 0.2c0 0.1 0 0.2-0.1 0.2 -0.7 0.8-1.2 1.7-1.7 2.5 -0.4 0.8-0.9 1.8-1.3 2.9 0 0-0.1 0.2-0.2 0.4l-0.3 0.7 -0.3 0.7c0 0.1-0.1 0.2-0.1 0.3 0 0 0 0.1-0.1 0.1 0 0.1-0.1 0.1-0.1 0.1 -0.1 0.1-0.2 0.1-0.4 0 0 0-0.1-0.1-0.1-0.1 0 0 0-0.1 0-0.1 0-0.1 0-0.1 0-0.2 0-0.1 0-0.3 0-0.6 0-0.4-0.1-0.8-0.2-1.4 -0.2-1-0.3-1.8-0.4-2.3 -0.1-0.5-0.2-0.9-0.3-1.3 -0.1-0.4-0.2-0.6-0.3-0.7 -0.1-0.1-0.1-0.1-0.2-0.1 -0.1 0.1-0.3 0.3-0.4 0.5 -0.3 0.4-0.5 0.9-0.6 1.4 0 0.1-0.1 0.2-0.2 0.2 -0.1 0-0.2 0-0.3 0 -0.1 0-0.2-0.1-0.2-0.2C38.9 22.3 38.9 22.2 39 22.1z"/>
		<path d="M47.6 27.2c0.3 0.1 0.5 0.2 0.5 0.5v0.2c0 0.3-0.2 0.5-0.5 0.6h-0.2c-0.2 0-0.4-0.2-0.4-0.6 0-0.1 0-0.1 0-0.1l0-0.1C47 27.4 47.2 27.2 47.6 27.2zM50.4 14.4h0.5c0 0 0.1 0 0.1 0.1v0.4c0 0.5-0.5 2.5-1.5 6.1 -0.4 1.7-0.8 3.2-1 4.6 -0.1 0.1-0.1 0.2-0.2 0.2h-0.4c-0.1 0-0.1 0-0.1-0.1 0-1.4 0.8-4.9 2.4-10.6C50.3 14.6 50.3 14.4 50.4 14.4z"/>
		<path id="up-arrow" d="M56.5 23.6c-0.8-0.1-1.5-0.1-2.3-0.2 0.1-0.7 0.1-1.4 0.4-2 2.5-4.8 2.1-4.6 5.8-0.7 0.5 0.6 0.7 1.4 1 2.2 -0.8 0.1-1.6 0.2-2.4 0.2 -0.1 2.1 0 4.4-0.3 6.6 -1.3 9.1-8.4 13-16.8 9.3 -5.4-2.3-9.1-6.4-11.5-11.7 -0.5-1-0.4-3.4-0.2-3.5 1.9-0.4 1.5 1.5 2 2.5C35.4 32.9 40 37.4 47.4 38.2c4.2 0.5 7.2-1.3 8.4-5.3 0.9-2.9 1-6.1 1.5-9.2C57 23.7 56.8 23.6 56.5 23.6z"/>
	</symbol>
	
</svg>