<svg xmlns="http://www.w3.org/2000/svg" xmlns:xlink="http://www.w3.org/1999/xlink" version="1.1" id="Layer_1" x="0" y="0" width="448.2" height="448.2" viewBox="95.9 15.9 448.2 448.2" enable-background="new 95.9 15.9 448.2 448.2" xml:space="preserve"><path stroke="#000000" stroke-miterlimit="10" d="M320 16.4C196.5 16.4 96.4 116.5 96.4 240S196.5 463.6 320 463.6 543.6 363.5 543.6 240 443.5 16.4 320 16.4zM320 453.6c-118 0-213.6-95.6-213.6-213.6S202 26.4 320 26.4 533.6 122 533.6 240 438 453.6 320 453.6zM194.4 87.5h62V99h-49.2v42.2h40.6v11.5h-40.6v51.2h49.2v11.5h-62V87.5zM282.6 115.5h33.2c28.2 0 41 11.7 41 48.7 0 31.3-5.3 51.2-41 51.2h-33.2v-11.5h10.3V127h-10.3V115.5zM305.7 204h13.5c16.8 0 24.2-9.6 24.2-38.4 0-30.7-8.8-38.5-24.6-38.5h-13.1V204zM416.9 204.1c0 14.2 4.2 19.4 21.9 19.4h4.4v4.8h-6.3c-26.3 0-32.8-7.3-32.8-26.8v-25.3c0-17.5-6.1-14.6-20-19 13.7-4.8 20-2.3 20-19.2v-25.5c0-19.2 7.4-26.7 28.4-26.7h10.7v4.8H438.6c-18.5 0-21.7 5.4-21.7 19.2v26.8c0 8.6-0.2 15.7-8.8 20.5 8.6 4.6 8.8 11.5 8.8 20.1V204.1zM417 270.9c0-14.2-4.2-19.4-21.9-19.4H390.7v-4.8h6.3c26.3 0 32.8 7.3 32.8 26.8v25.3c0 17.5 6.1 14.6 20 19 -13.7 4.8-20 2.3-20 19.2v25.5c0 19.2-7.4 26.7-28.4 26.7h-10.7v-4.8h4.6c18.5 0 21.7-5.4 21.7-19.2v-26.8c0-8.6 0.2-15.7 8.8-20.5 -8.6-4.6-8.8-11.5-8.8-20.1V270.9z"/><rect x="201" y="257.5" fill="none" width="183" height="121"/><path d="M302.2 253.3h9.5v1.7h-7.6v6.4h6.4v1.7h-6.4v9.5h-1.9V253.3zM318.8 257.5h5.1c2.5 0 4.5 1.2 4.5 4.1 0 1.9-1.2 3.7-3.1 4.2l3.7 6.1 -1.7 1L323.4 266.1H320.6v6.5H318.7v-15.1H318.8zM323.3 264.4c1.9 0 3.1-1.1 3.1-2.8 0-1.4-0.8-2.4-2.6-2.4h-3.1v5.2H323.3L323.3 264.4zM345.9 265.1c0 1.2-0.1 7.8-5.4 7.8 -2.4 0-5.4-1.7-5.4-7.8 0-6 2.9-7.8 5.4-7.8C343 257.2 345.9 259 345.9 265.1zM337.2 265.1c0 2.2 0.4 6 3.3 6s3.3-3.8 3.3-6c0-2.2-0.4-6-3.3-6S337.2 262.8 337.2 265.1zM352.9 257.5h2.4l5.9 12.7 0.1-0.1 -0.2-3.9v-8.8h1.9v15.1h-2.4l-5.9-12.7L354.6 259.9l0.2 3.9v8.7H352.9V257.5zM374.4 259.2h-4.2v-1.7h10.2v1.7H376.3V272.6H374.4V259.2zM336.4 288.1h9.4v1.7h-7.5v6.4h6.2v1.7h-6.2v7.7h7.5v1.7H336.4V288.1zM352.9 292.3h2.4l5.9 12.7 0.1-0.1 -0.2-3.9v-8.8h1.9v15.1h-2.4l-5.9-12.7L354.6 294.7l0.2 3.9v8.7H352.9V292.3zM370.1 292.3h5c4.3 0 6.2 1.8 6.2 7.4 0 4.7-0.8 7.7-6.2 7.7h-5v-1.7h1.6V294.1H370.1V292.3zM373.6 305.7h2.1c2.6 0 3.7-1.4 3.7-5.8 0-4.6-1.3-5.8-3.7-5.8h-2V305.7H373.6zM346.6 322.9L344.7 342.6h-0.8l-3.2-11.7H340.6L337.4 342.6H336.6L334.7 322.9l1.9-0.4 0.9 14.5h0.1l2.8-10.2h0.6l2.8 10.2h0.1l0.9-14.5L346.6 322.9zM353.8 327.1h9.4v1.7h-7.5v4.5h6.2v1.7h-6.2v5.4h7.5v1.7h-9.4V327.1zM370.2 342.2v-1.7h1.6v-11.6h-1.6v-1.7h4.8c3.8 0 5.5 1.5 5.5 4 0 1.3-0.6 2.5-1.7 3.1 1.7 0.5 2.6 1.9 2.6 3.7 0 2.7-1.8 4.3-5 4.3h-6.2V342.2zM375.9 333.6c1.7 0 2.5-1.1 2.5-2.4 0-1.8-1.3-2.3-2.6-2.3h-2.1v4.7H375.9L375.9 333.6zM376 340.5c1.7 0 3.3-0.4 3.3-2.4 0-1.5-1-2.7-2.8-2.7h-2.7v5.2h2.2V340.5zM230.9 359.4v-1.7h5.1c3.9 0 6.2 1.7 6.2 9.7 0 4.3-0.2 9.7-6.1 9.7h-5.2V375.4h1.6v-16H230.9zM234.4 375.3h1.6c2.4 0 4.1-0.6 4.1-7.9 0-7.4-2-7.9-3.7-7.9h-2.1v15.8H234.4zM249.4 361.9h9.4v1.7h-7.5v4.5h6.2v1.7h-6.2v5.4h7.5v1.7h-9.4V361.9zM275.1 361.5l1.9 0.7 -5.8 15.2h-0.3l-5.8-15.2 1.9-0.7 4.1 11.1L275.1 361.5zM284.2 361.9h9.4v1.7h-7.5v4.5h6.2v1.7h-6.2v5.4h7.5v1.7h-9.4V361.9zM302 361.9h1.9V375.3h7.9v1.7h-9.9v-15.1H302zM328.5 369.5c0 1.2-0.1 7.8-5.4 7.8 -2.4 0-5.4-1.7-5.4-7.8 0-6 2.9-7.8 5.4-7.8C325.6 361.6 328.5 363.4 328.5 369.5zM319.8 369.5c0 2.2 0.4 6 3.3 6 2.9 0 3.3-3.8 3.3-6s-0.4-6-3.3-6C320.2 363.5 319.8 367.2 319.8 369.5zM338.5 377h-1.9v-15.1h4.7c3.5 0 4.9 1.9 4.9 4.1 0 3.2-2.3 4.5-4.4 4.5h-3.2v6.5H338.5zM341.2 368.8c1.9 0 2.9-0.9 2.9-2.6 0-2.1-1.3-2.5-2.9-2.5h-2.7v5.1H341.2zM353.8 361.9h9.4v1.7h-7.5v4.5h6.2v1.7h-6.2v5.4h7.5v1.7h-9.4V361.9zM371 361.9h5.1c2.5 0 4.5 1.2 4.5 4.1 0 1.9-1.2 3.7-3.1 4.2l3.7 6.1 -1.7 1 -3.9-6.8h-2.8v6.5H370.9v-15.1H371zM375.5 368.8c1.9 0 3.1-1.1 3.1-2.8 0-1.4-0.8-2.4-2.6-2.4h-3.1v5.2H375.5L375.5 368.8z"/></svg>