<?xml version="1.0" encoding="utf-8"?>
<!-- Generator: Adobe Illustrator 16.0.0, SVG Export Plug-In . SVG Version: 6.00 Build 0)  -->
<!DOCTYPE svg PUBLIC "-//W3C//DTD SVG 1.1//EN" "http://www.w3.org/Graphics/SVG/1.1/DTD/svg11.dtd">
<svg version="1.1" id="Layer_1" xmlns="http://www.w3.org/2000/svg" xmlns:xlink="http://www.w3.org/1999/xlink" x="0px" y="0px"
	 width="200px" height="200px" viewBox="0 0 200 200" enable-background="new 0 0 200 200" xml:space="preserve">
<path fill="#45619D" d="M100,0C44.8,0,0,44.8,0,100s44.8,100,100,100s100-44.8,100-100S155.2,0,100,0z M134,56.9
	c-5,0-9.1-0.1-13.5,0c-7,0.3-9.9,3.3-10.1,10.3c-0.101,4.8,0,9.7,0,14.6c0,0.5,0.199,1.2,0.5,2.2c7.5,0,14.8,0,22.699,0
	c-1,8-2,15-3,23c-6.8,0-13.6,0-19.6,0c0,20,0,40,0,60c-9,0-16,0-25,0c0-20,0-40,0-60c-7,0-13,0-20,0c0-8,0-15,0-23c6,0,13,0,20.2,0
	c0-6,0-11.6,0-17c0.1-21,11.1-32,32.1-31.9c5.2,0,10.7,0,15.7,1C134,42.8,134,49.5,134,56.9z"/>
</svg>
