<svg xmlns="http://www.w3.org/2000/svg" xmlns:xlink="http://www.w3.org/1999/xlink" version="1.1" id="Layer_1" x="0" y="0" width="200" height="200" viewBox="0 0 200 200" enable-background="new 0 0 200 200" xml:space="preserve"><path fill="#333333" d="M100 0C44.8 0 0 44.8 0 100s44.8 100 100 100 100-44.8 100-100S155.2 0 100 0zM152.7 100.8c-3 5.8-8.5 10.6-16.2 14.5 -5.2 2.5-12.2 4-20.8 4.5 3.9 1.9 6.4 3.9 8.2 6 1.8 2.1 3 5.3 3 9.7v13c0 0 0.6 4.2 0.9 12.6 0.8 1.4 2.3 2.5 3.4 3.5s2.1 1.7 2.9 2.1c0.8 0.4 1.1 1 0.9 1.9 -0.3 0.8-1.3 1.2-3.2 1.2 -4.7 0-8.2-1.7-11-5 -0.8-1.4-0.9-3-0.9-5v-19.8c0-2.2-1.1-3.8-2.2-4.8 -1.1-1-2.8-1.6-3.8-1.9v26c0 4.7 0.7 7.7 1.8 9.1 1.1 1.4 2 2.8 2.2 4.1 0.3 0.3 0.1 0.5-0.6 0.6 -0.7 0.1-1.8-0.1-3.4-0.6 -3.6-0.8-5.9-2.7-7.3-5.6 -1.4-2.9-1.8-6-1.8-9.3V132h-6v25.8c0 3.3-0.7 6.5-2.1 9.5 -1.9 3.9-5.5 5.9-10.7 6.2 -0.8-0.3-1.2-0.6-1.2-0.8 0.3-0.3 1.1-1.7 2.5-4.1 0.3-0.6 0.6-1.7 1-3.3 0.4-1.7 0.6-3.6 0.6-5.8v-26c-1 0.3-1.9 0.9-2.8 1.9C85.2 136.3 85 137.9 85 140.1v19.8c0 1.9-0.6 3.6-1.5 5 -2.5 3.3-6.4 5-11.4 5 -1.9 0-3-0.4-3.3-1.2 -0.3-0.5-0.2-1 0.2-1.4 0.4-0.4 1-0.9 1.9-1.4 0.8-0.6 1.4-1 1.7-1.2 1.1-0.8 1.9-1.9 2.5-3.3 0.8-1.1 1-4 0.6-8.7 -0.4-4.7-0.5-7.7-0.2-9.1 -7.2 2.5-14.5 1.2-21.9-3.7 -2.2-2.2-4.4-5.4-6.6-9.5 -1.7-3-5-6.6-9.9-10.7 -0.6-0.6-0.6-1.1 0-1.7 1.1-1.1 2.5-1.5 4.1-1.2 1.7 0.3 2.6 0.6 2.9 0.8 1.9 0.8 4.1 2.7 6.4 5.6 2.3 2.9 4.2 4.9 5.6 6 6.6 5.5 13.4 5.9 20.2 1.2 0.6-1.9 1.4-3.6 2.7-5 1.2-1.4 2.4-2.3 3.5-2.9s3-1.4 5.8-2.5c-9.1-0.8-16.5-2.4-22.1-4.8 -5.6-2.3-10.1-5.3-13.4-8.9 -4.4-5-7.1-11.4-8.1-19.4 -1-8-0.3-15.3 1.9-21.9 1.7-4.1 4-7.9 7-11.2 -2.2-6.9-1.8-14.7 1.2-23.6 8.8 0.6 16.8 3.6 24 9.1 13.8-3.6 28.1-3.7 43-0.4 1.9-1.4 4.9-3.1 8.9-5.2s9-3.2 15.1-3.5c1.1 3 1.9 6.6 2.3 10.7 0.4 4.1 0.2 8-0.6 11.6 6.3 6.6 9.6 15.4 9.9 26.4C157.3 87.7 155.7 95 152.7 100.8z"/></svg>