<svg xmlns="http://www.w3.org/2000/svg" xmlns:xlink="http://www.w3.org/1999/xlink" version="1.1" id="Layer_1" x="0" y="0" width="200" height="200" viewBox="0 0 200 200" enable-background="new 0 0 200 200" xml:space="preserve"><path d="M107.2 43.1c-9.1-7.7-23.1-2.7-25.3 9 -2 10.7 0.6 20.5 7 29.2 5.2 7 12.1 9.3 19.3 6.9 7.5-2.5 10.9-7.8 10.9-19C118.6 60.3 115.7 50.3 107.2 43.1z"/><path d="M84.4 121.2c-6.6 3-11.3 7.6-11.8 15.3 -0.5 8.3 3.4 14 10.3 18 6.1 3.6 12.8 4.4 20.6 4.6 4.1-0.2 9.1-0.4 13.7-2.4 7-3.1 11.3-8.1 11.5-16 0.2-8.3-12.6-23-20.9-23.5C99.8 116.8 91.8 117.8 84.4 121.2z"/><path d="M100 0C44.8 0 0 44.8 0 100s44.8 100 100 100 100-44.8 100-100S155.2 0 100 0zM126.3 43.6c11.6 12.3 10.9 29.5-1.7 40.7 -2.4 2.1-4.9 4-7 6.4 -3.9 4.3-3.8 8.3 0.5 12.2 4.1 3.7 8.5 7 12.6 10.6 13 11.8 13.2 28.8 0.2 40.6 -12.4 11.2-27.5 13.3-43.4 12 -6.4-0.5-12.5-2.2-18-5.4 -15.2-8.7-16.6-26.8-2.9-37.7 9-7.2 19.8-9.1 30.8-10.3 1.8-0.2 3.5-0.3 5.9-0.5 -5.2-9.3-5.3-9.5-3.7-18.1 -3.9-0.3-8 0-11.8-0.9 -11.2-2.6-18.7-9.4-21.1-20.8 -2.6-12.1 2-21.9 11.1-29.7 5.2-4.4 11.3-7 18.1-7.9 15.4-2.2 30.8-0.5 47.1-1.2 -6.1 5.3-12.2 7.5-19.3 6C123.7 42.1 125.4 42.6 126.3 43.6z"/></svg>