<svg xmlns="http://www.w3.org/2000/svg" xmlns:xlink="http://www.w3.org/1999/xlink" version="1.1" id="Layer_2" x="0" y="0" width="200" height="200" viewBox="0 0 200 200" enable-background="new 0 0 200 200" xml:space="preserve"><path d="M100 172.1v0.1l0 0 0 0V172.1l42.7-12L152.9 47H47.3l10.1 113.1L100 172.1zM140.5 64l-1.4 16h-0.1H77.1l1.5 16h59l-4.4 49.9 -33.2 9.1L100 155h0 0l-33.2-8.9L64.5 121H80.7l1.2 12.8 18 4.8 0 0 18.1-4.7L119.9 113H63.7l-4.4-49H140.5z"/><path d="M100 0C44.8 0 0 44.8 0 100s44.8 100 100 100 100-44.8 100-100S155.2 0 100 0zM152.9 168.9l-53 14.6 -52.9-14.5L35.3 37h129.4L152.9 168.9z"/></svg>