<?xml version="1.0" encoding="utf-8"?>
<!-- Generator: Adobe Illustrator 16.0.0, SVG Export Plug-In . SVG Version: 6.00 Build 0)  -->
<!DOCTYPE svg PUBLIC "-//W3C//DTD SVG 1.1//EN" "http://www.w3.org/Graphics/SVG/1.1/DTD/svg11.dtd">
<svg version="1.1" id="Layer_1" xmlns="http://www.w3.org/2000/svg" xmlns:xlink="http://www.w3.org/1999/xlink" x="0px" y="0px"
	 width="200px" height="200px" viewBox="0 0 200 200" enable-background="new 0 0 200 200" xml:space="preserve">
<path fill="#BB9F1B" d="M99.7,123.9c13.2,0.1,23.899-10.4,24.1-23.5C123.9,87,113.2,76.1,99.9,76.1C86.8,76.2,76.1,86.9,76,100
	C75.9,113,86.6,123.8,99.7,123.9z"/>
<path fill="#BB9F1B" d="M153.3,86.1c-5.1,0-10.6,0-16.1,0c-0.8,0-1.5,0.2-2.601,0.4c5.4,18.2,1.2,33.4-14.399,44.1
	c-12.7,8.7-26.6,8.801-39.5,0.5C64.3,120.5,59.6,105,65.2,86c-6.8,0-13.1,0-19.9,0c0,18,0,35.9,0,53.5c0,10,5,15,15.2,15
	c26.3,0,52.6,0.1,78.9,0c10,0,15-5.1,15.1-15.1c0-16.301,0-32.601-0.1-48.9C154.4,89.2,155,87.6,153.3,86.1z"/>
<path fill="#BB9F1B" d="M100,0C44.8,0,0,44.8,0,100s44.8,100,100,100s100-44.8,100-100S155.2,0,100,0z M167.6,139.3
	c-0.1,17.5-11.1,28.4-28.5,28.4c-26.199,0-52.3,0-78.5,0c-17.5,0-28.2-10.8-28.2-28.5c0-13.2,0-26.3,0-39.5c0,0,0,0-0.1,0
	c0-13.3-0.1-26.7,0-40c0.1-16.2,10.6-27.1,26.8-27.3c27-0.2,54-0.2,81,0c16.601,0.1,27.4,11.2,27.5,27.8
	C167.7,86.6,167.7,113,167.6,139.3z"/>
<path fill="#BB9F1B" d="M151,48c-7,0-14,0-22,0c0,8,0,15,0,23c8,0,15,0,22,0C151,63,151,56,151,48z"/>
</svg>
