<?xml version="1.0" encoding="utf-8"?>
<!-- Generator: Adobe Illustrator 16.0.0, SVG Export Plug-In . SVG Version: 6.00 Build 0)  -->
<!DOCTYPE svg PUBLIC "-//W3C//DTD SVG 1.1//EN" "http://www.w3.org/Graphics/SVG/1.1/DTD/svg11.dtd">
<svg version="1.1" id="Layer1" xmlns="http://www.w3.org/2000/svg" xmlns:xlink="http://www.w3.org/1999/xlink" x="0px" y="0px"
	 width="200px" height="200px" viewBox="0 0 200 200" enable-background="new 0 0 200 200" xml:space="preserve">
<g>
	<path d="M100.664,99.363c-0.803,0.846-1.506,1.788-1.528,2.744c-0.065,2.903,0.189,5.812,0.216,8.72
		c0.045,4.917,0.013,9.833,0.013,15.058c-6.547-1.297-9.917,0.943-11.028,7.015c-0.943,5.146-0.119,10.168,1.374,15.105
		c1.527,5.053,4.753,6.823,9.87,5.611c1.708-0.404,2.655-1.209,2.623-3.038c-0.08-4.49-0.167-8.98-0.175-13.471
		c-0.015-9.228,0.012-18.454,0.037-27.68C102.075,106.08,102.886,102.646,100.664,99.363z"/>
	<path d="M87.006,130.614c-0.204-1.914-0.285-3.59-0.579-5.227c-0.428-2.383-2.173-4.147-4.336-3.885
		c-2.937,0.355-5.782,1.649-8.58,2.76c-0.458,0.183-0.855,1.687-0.581,2.224c0.285,0.562,1.441,1.01,2.169,0.946
		c1.289-0.11,2.536-0.903,3.81-0.933c1.276-0.028,3.338,0.167,3.687,0.906c0.721,1.533,0.73,3.512,0.56,5.261
		c-0.037,0.376-2.072,0.596-3.202,0.809c-0.599,0.113-1.236,0.007-1.845,0.084c-4.563,0.581-6.7,3.118-6.466,7.711
		c0.09,1.759,0.291,3.512,0.409,5.27c0.32,4.769,5.598,8.863,10.316,7.921c1.909-0.38,3.191-1.246,2.762-3.63
		c-0.275-1.528-0.196-3.161-0.023-4.72C85.688,140.866,86.381,135.633,87.006,130.614z"/>
	<path d="M64.749,102.04c0.144,2.642,0.468,5.29,0.38,7.925c-0.307,9.255-0.724,18.506-1.172,27.756
		c-0.178,3.694-0.38,7.402-0.885,11.062c-0.266,1.929-0.768,4.333-3.494,4.198c-2.59-0.127-2.91-2.453-3.427-4.412
		c-0.11-0.42-0.125-0.878-0.112-1.316c0.113-4.053,0.306-8.104,0.339-12.157c0.018-2.114-0.237-4.231-0.403-6.903
		c-2.575,1.496-3.597,3.12-3.513,5.159c0.23,5.628,0.41,11.276,1.06,16.865c0.462,3.964,3.312,5.684,7.696,5.424
		c3.65-0.216,5.763-2.38,6.015-6.389c0.217-3.432,0.299-6.876,0.373-10.315c0.235-11.109,0.373-22.221,0.7-33.327
		c0.085-2.868,0.727-5.722,1.147-8.839C65.329,97.496,64.553,98.433,64.749,102.04z"/>
	<path d="M100,0C44.771,0,0,44.771,0,100s44.771,100,100,100s100-44.771,100-100S155.229,0,100,0z M167.389,136.325
		c-1.771,8.097-9.465,12.238-17.349,9.441c-7.266-2.577-6.706-2.829-11.703,3.949c-3.241,4.397-5.505,9.191-6.977,14.423
		c-0.376,1.336-1.046,2.622-1.763,3.822c-1.169,1.958-2.896,2.691-5.278,2.824c-11.411,0.633-22.217-1.85-32.853-5.671
		c-3.066-1.101-6.365-1.557-9.558-2.308c-0.145,0.37-0.29,0.738-0.434,1.108c1.167,1.1,2.334,2.199,3.785,3.566
		c-4.532,0.834-8.734,1.617-12.941,2.376c-6.46,1.167-12.94,1.594-19.489,0.741c-2.882-0.375-4.928-1.581-6.014-4.393
		c-4.57-11.825-9.299-23.591-13.717-35.473c-0.951-2.559-0.946-5.5-1.176-8.282c-0.064-0.777,0.455-1.735,0.981-2.392
		c0.508-0.635,1.369-0.987,2.075-1.464c0.409,0.62,0.86,1.217,1.217,1.866c0.407,0.741,0.73,1.527,1.397,2.951
		c1.578-4.975,2.846-9.305,4.323-13.563c4.6-13.255,12.344-23.711,26.005-28.812c8.9-3.324,18.093-3.562,27.396-2.598
		c2.366,0.245,4.72,0.607,7.078,0.941c4.601,0.652,8.479,2.755,11.966,5.778c3.673,3.185,7.744,5.285,12.833,3.746
		c0.421-0.127,0.844-0.25,1.252-0.406c4.456-1.693,5.099-3.71,2.397-7.596c-2.265-3.256-4.861-6.325-6.774-9.774
		c-6.114-11.016-12.029-22.145-17.891-33.299c-0.96-1.827-1.409-3.973-1.813-6.027c-0.355-1.801,0.618-2.947,2.523-2.841
		c6.415,0.356,12.196,1.534,15.937,7.889c5.181,8.798,8.645,18.293,12.61,27.611c2.052,4.823,4.701,9.495,7.752,13.754
		c1.929,2.693,5.034,4.581,7.749,6.651c0.727,0.555,1.951,0.46,2.948,0.663c0.106-0.991,0.465-2.033,0.277-2.965
		c-0.915-4.573-2.127-9.089-2.945-13.677c-1.099-6.156-1.945-12.357-2.871-18.544c-0.434-2.902,0.76-4.148,3.637-4.002
		c3.074,0.157,5.017,1.946,5.792,4.646c1.942,6.756,3.886,13.534,5.31,20.412c1.479,7.14,2.229,14.386,4.451,21.429
		c1.01,3.199,0.061,7.088-0.306,10.633c-0.796,7.677-0.736,15.271,0.557,22.924C168.327,129.597,168.09,133.121,167.389,136.325z"/>
	<path d="M114.359,151.46c-3.146,0.73-4.793,0.019-5.619-3.076c-0.562-2.104-0.748-4.323-0.956-6.505
		c-0.166-1.738,0.862-2.646,2.536-2.672c1.493-0.022,2.99,0.23,4.482,0.203c2.688-0.052,3.691-1.384,2.93-3.954
		c-0.524-1.767-0.985-3.668-2.006-5.14c-1.126-1.624-2.697-3.699-4.364-4.008c-2.464-0.455-3.806,2.054-4.885,4.127
		c-0.241,0.461-0.533,0.978-0.535,1.471c-0.018,6.23-0.243,12.478,0.143,18.686c0.187,3,2.428,4.394,5.508,3.933
		c2.542-0.381,4.988-1.407,7.477-2.148c-0.062-0.479-0.124-0.96-0.185-1.439C117.373,151.101,115.829,151.12,114.359,151.46z"/>
	<path d="M156.994,114.398c-5.533-2.195-11.24-3.579-17.224-3.087c-1.729,0.143-3.401,0.982-5.098,1.503
		c-0.005,0.336-0.01,0.672-0.014,1.01c1.758,1.549,3.276,3.634,5.319,4.545c5.478,2.447,11.396,2.853,17.312,2.159
		c1.142-0.134,2.666-1.302,3.022-2.334c0.244-0.712-1.172-2.053-1.953-3.026C158.056,114.788,157.479,114.591,156.994,114.398z"/>
</g>
</svg>
