<svg xmlns="http://www.w3.org/2000/svg" xmlns:xlink="http://www.w3.org/1999/xlink" version="1.1" id="Layer_2" x="0" y="0" width="200" height="200" viewBox="0 0 200 200" enable-background="new 0 0 200 200" xml:space="preserve"><path d="M100 0C44.8 0 0 44.8 0 100s44.8 100 100 100 100-44.8 100-100S155.2 0 100 0zM90 88c0 22.6 0 34.7-0.1 35.8 -1.3 10.6-6.3 17.8-14.9 21.3 -7.1 2.9-16.9 3.1-24.5 0.6 -7.2-2.4-13.1-7.6-16.6-14.5l-0.6-1.2 7.6-4.6c4.2-2.5 7.7-4.6 7.7-4.7 0.1 0 0.6 0.7 1.1 1.7 3.4 5.9 6.4 8 11.4 8 3.5 0 5.5-0.7 7.2-2.3 1.2-1.2 1.8-2.4 2.4-4.5l0.4-1.6 0.1-33.9L71.3 54h9.4H90V88zM159.4 138.9c-4.5 4.4-10.4 7-18.1 8.1 -3.1 0.4-9.2 0.4-12.4 0 -12.4-1.7-21.5-7.4-27.4-17.3 -0.8-1.2-0.9-1.6-0.7-1.8 0.3-0.3 15-8.7 15.1-8.7 0.1 0 0.6 0.7 1.3 1.6 4.5 6.7 10.1 9.7 17.6 9.7 4.4 0 8-1.2 10.3-3.5 0.7-0.7 1.4-1.7 1.7-2.3 1.5-3.1 0.8-7.1-1.5-9.6 -1.9-2-4.9-3.7-12.9-7.1 -5.9-2.5-9.3-4.2-11.8-5.7 -9.8-6-14.2-13.5-14.2-24.2 0-7.2 2.2-12.8 6.9-17.5 4.5-4.5 10.7-7.1 17.9-7.7 2.8-0.2 3.1-0.2 6.1 0 6 0.4 10.5 1.9 14.7 4.7 2.3 1.5 5.6 5 7.5 7.8 0.9 1.3 1.6 2.4 1.6 2.5 0 0.1-14 9.2-14.5 9.4 -0.2 0.1-0.6-0.5-1.2-1.4 -0.5-0.8-1.6-2.2-2.5-3 -2.4-2.5-4.9-3.4-8.6-3.4 -3.3 0-5.4 0.8-7.2 2.8 -1.3 1.4-1.8 2.8-2 4.9 -0.2 2.6 0.6 4.7 2.2 6.5 1.8 1.9 4.4 3.3 12.3 6.7 10.5 4.5 15.8 7.6 19.8 11.7 2.1 2.2 3.4 3.9 4.6 6.4 1.8 3.7 2.6 7.5 2.6 12.3C166.6 128.2 164.2 134.2 159.4 138.9z"/></svg>