<?xml version="1.0" encoding="utf-8"?>
<!-- Generator: Adobe Illustrator 16.0.0, SVG Export Plug-In . SVG Version: 6.00 Build 0)  -->
<!DOCTYPE svg PUBLIC "-//W3C//DTD SVG 1.1//EN" "http://www.w3.org/Graphics/SVG/1.1/DTD/svg11.dtd">
<svg version="1.1" id="Layer_1" xmlns="http://www.w3.org/2000/svg" xmlns:xlink="http://www.w3.org/1999/xlink" x="0px" y="0px"
	 width="200px" height="200px" viewBox="0 0 200 200" enable-background="new 0 0 200 200" xml:space="preserve">
<path fill="#1C86BC" d="M100,0C44.8,0,0,44.8,0,100s44.8,100,100,100s100-44.8,100-100S155.2,0,100,0z M65,161c-8,0-16,0-25,0
	c0-27,0-54,0-81c9,0,17,0,25,0C65,107,65,134,65,161z M52.5,67.8c-8.1-0.1-14.4-6.6-14.4-14.7c0.1-8.1,6.5-14.6,14.5-14.7
	c8.2,0,14.7,6.6,14.5,15C67.1,61.7,60.7,67.9,52.5,67.8z M161.7,162c-8.601,0-16.5,0-24.5,0c-1.3-2-0.7-4.2-0.7-6.1
	c-0.2-13.801,0-27.801-0.5-41.601c-0.4-9.6-4.7-14.2-12.6-14.5c-9-0.4-14.301,4.3-15.7,13.8c-1.4,9.601-0.5,19.101-0.7,28.7
	c-0.1,6.101,0,12.601,0,18.601c-8.3,0.1-16,0.1-25,0.1c0-27,0-54,0-81c8,0,15.7,0,23.7,0c1,3,0.1,6.7,0.7,11.1
	c5.199-7.1,11.1-11.6,19-12.8c17.8-2.7,32.399,4.1,35,23C163.2,121.3,161,141,161.7,162z"/>
</svg>
