<svg xmlns="http://www.w3.org/2000/svg" xmlns:xlink="http://www.w3.org/1999/xlink" version="1.1" x="0" y="0" width="440" height="444" viewBox="0 0 440 444" enable-background="new 0 0 440 444" xml:space="preserve">

<g id="Layer_1">
	<path d="M94.3 75h62v11.5h-49.2v42.2h40.6v11.5h-40.6v51.2h49.2v11.5H94.3V75z"/><path d="M182.4 103h33.2c28.2 0 41 11.7 41 48.7 0 31.3-5.3 51.2-41 51.2h-33.2v-11.5h10.3v-76.9h-10.3V103zM205.5 191.4h13.5c16.8 0 24.2-9.6 24.2-38.4 0-30.7-8.8-38.5-24.6-38.5h-13.2V191.4z"/><path d="M316.7 191.6c0 14.2 4.2 19.4 21.9 19.4h4.4v4.8h-6.3c-26.3 0-32.8-7.3-32.8-26.8v-25.3c0-17.5-6.1-14.6-20-19 13.7-4.8 20-2.3 20-19.2V99.9c0-19.2 7.4-26.7 28.4-26.7h10.7v4.8h-4.6c-18.5 0-21.7 5.4-21.7 19.2v26.8c0 8.6-0.2 15.7-8.8 20.5 8.6 4.6 8.8 11.5 8.8 20.1V191.6z"/><path d="M316.9 258.4c0-14.2-4.2-19.4-21.9-19.4h-4.4v-4.8h6.3c26.3 0 32.8 7.3 32.8 26.8v25.3c0 17.5 6.1 14.6 20 19 -13.7 4.8-20 2.3-20 19.2v25.5c0 19.2-7.4 26.7-28.4 26.7H290.6v-4.8h4.6c18.5 0 21.7-5.4 21.7-19.2v-26.8c0-8.6 0.2-15.7 8.8-20.5 -8.6-4.6-8.8-11.5-8.8-20.1V258.4z"/><rect x="100.9" y="245" fill="none" width="183" height="121"/><path d="M165.6 242.5v-1.7h5.1c3.9 0 6.2 1.7 6.2 9.7 0 4.3-0.2 9.7-6.1 9.7h-5.2v-1.7h1.6v-15.9H165.6zM169.1 258.3h1.6c2.4 0 4.1-0.6 4.1-7.9 0-7.4-2-7.9-3.7-7.9h-2.1V258.3z"/><path d="M185.1 258.3h2.1v-11.6h-2.1v-1.7h6.2v1.7h-2.1v11.6h2.1v1.7h-6.2V258.3z"/><path d="M210.7 258.7c-1.2 1-3.1 1.7-4.6 1.7 -4.4 0-5.7-4.1-5.7-7.8 0-3.7 1.3-7.8 5.7-7.8 2 0 3.8 1.2 4.8 2.9l-1.7 1.1c-0.7-1.2-1.8-2.1-3.3-2.1 -3 0-3.5 3.7-3.5 6 0 2.4 0.5 5.9 3.6 5.9 1 0 2-0.3 2.8-0.8v-4h-3.6v-1.7h5.6V258.7z"/><path d="M219.9 258.3h2.1v-11.6h-2.1v-1.7h6.2v1.7h-2.1v11.6h2.1v1.7h-6.2V258.3z"/><path d="M239.5 246.7h-4.2v-1.7h10.2v1.7h-4.1v13.4h-1.9V246.7z"/><path d="M255.2 256l-1.4 4.5 -1.9-0.7 4.8-14.8h2.5l4.8 14.8 -1.9 0.7 -1.4-4.5H255.2zM257.8 247.2l-2.1 7h4.3L257.8 247.2z"/><path d="M271.5 245h1.9v13.4h7.9v1.7h-9.9V245z"/><path d="M185.6 288.9l-1.5 6.4 -1.9-0.5 4.9-19.2h2.3l4.9 19.2 -1.9 0.5 -1.5-6.4H185.6zM188.3 278.1h-0.1l-2.1 9.1h4.4L188.3 278.1z"/><path d="M201.2 279.8h5.1c2.5 0 4.5 1.2 4.5 4.1 0 1.9-1.2 3.7-3.1 4.2l3.7 6.1 -1.7 1L206 288.4h-2.8v6.5h-1.9V279.8zM205.7 286.7c1.9 0 3.1-1.1 3.1-2.8 0-1.4-0.8-2.4-2.6-2.4h-3.1v5.2H205.7z"/><path d="M222.1 281.5h-4.2v-1.7h10.2v1.7h-4.1v13.4h-1.9V281.5z"/><path d="M237.3 293.1h2.1V281.5h-2.1v-1.7h6.2v1.7h-2.1v11.6h2.1v1.7h-6.2V293.1z"/><path d="M254.7 290.1c0.4 1.9 1.3 3.2 3.3 3.2 1.6 0 2.8-0.9 2.8-2.6 0-1.9-1.6-2.3-3-2.9 -2.2-0.9-4.3-1.5-4.3-4.3 0-2.6 2.1-4 4.4-4 2.5 0 4 1.5 4.6 3.8l-1.9 0.6c-0.3-1.5-1.1-2.5-2.8-2.5 -1.2 0-2.5 0.6-2.5 2 0 1.4 0.9 1.8 2 2.4l3.2 1.4c1.4 0.8 2.1 2 2.1 3.5 0 2.9-2 4.5-4.8 4.5 -2.8 0-4.6-1.8-5-4.5L254.7 290.1z"/><path d="M274.3 281.5h-4.2v-1.7h10.2v1.7h-4.1v13.4h-1.9V281.5z"/><path d="M156.2 314.7c-0.3-1.4-1-2.8-2.7-2.8 -1.8 0-2.6 1.5-2.6 3.1 0 1.6 0.3 2.1 3.4 3.9 2.4 1.4 4 2.6 4 5.6 0 3-1.6 5.5-4.9 5.5 -3.4 0-4.7-2.3-5-5.3l1.9-0.3c0.3 2.1 0.7 3.8 3.1 3.8 1.7 0 2.9-1.1 2.9-3.5 0-2.6-1.7-3.4-3.7-4.6 -2.2-1.3-3.7-2.2-3.7-5.1 0-2.6 1.7-4.9 4.5-4.9 2.7 0 4.1 1.9 4.6 4.4L156.2 314.7z"/><path d="M176.2 322.1c0 1.2-0.1 7.8-5.4 7.8 -2.4 0-5.4-1.7-5.4-7.8 0-6 2.9-7.8 5.4-7.8C173.2 314.3 176.2 316 176.2 322.1zM167.5 322.1c0 2.2 0.4 6 3.3 6s3.3-3.8 3.3-6c0-2.2-0.4-6-3.3-6S167.5 319.9 167.5 322.1z"/><path d="M184.6 314.6h9.5v1.7h-7.6v4.5h6.4v1.7h-6.4v7.1h-1.9V314.6z"/><path d="M204.7 316.3h-4.2v-1.7h10.2v1.7h-4.1v13.4h-1.9V316.3z"/><path d="M219 314.2l1.2 10.6h0.1l2.5-7.4h0.5l2.5 7.4h0.1l1.2-10.6 2 0.2 -2.2 15.6h-0.7l-3.2-9.3 -3.2 9.3h-0.7l-2.2-15.6L219 314.2z"/><path d="M237.8 325.6l-1.4 4.5 -1.9-0.7 4.8-14.8h2.5l4.8 14.8 -1.9 0.7 -1.4-4.5H237.8zM240.4 316.8l-2.1 7h4.3L240.4 316.8z"/><path d="M253.4 314.6h5.1c2.5 0 4.5 1.2 4.5 4.1 0 1.9-1.2 3.7-3.1 4.2l3.7 6.1 -1.7 1 -3.9-6.8h-2.8v6.5h-1.9V314.6zM257.9 321.5c1.9 0 3.1-1.1 3.1-2.8 0-1.4-0.8-2.4-2.6-2.4h-3.1v5.2H257.9z"/><path d="M271.1 314.6h9.4v1.7h-7.5v4.5h6.2v1.7h-6.2v5.4h7.5v1.7h-9.4V314.6z"/><path d="M130.8 346.9v-1.7h5.1c3.9 0 6.2 1.7 6.2 9.7 0 4.3-0.2 9.7-6.1 9.7h-5.2v-1.7h1.6v-15.9H130.8zM134.3 362.7h1.6c2.4 0 4.1-0.6 4.1-7.9 0-7.4-2-7.9-3.7-7.9h-2.1V362.7z"/><path d="M149.3 349.4h9.4v1.7h-7.5v4.5h6.2v1.7h-6.2v5.4h7.5v1.7h-9.4V349.4z"/><path d="M174.9 349l1.9 0.7 -5.8 15.2h-0.3l-5.8-15.2 1.9-0.7 4.1 11.1L174.9 349z"/><path d="M184.1 349.4h9.4v1.7h-7.5v4.5h6.2v1.7h-6.2v5.4h7.5v1.7h-9.4V349.4z"/><path d="M201.9 349.4h1.9v13.4h7.9v1.7h-9.9V349.4z"/><path d="M228.4 356.9c0 1.2-0.1 7.8-5.4 7.8 -2.4 0-5.4-1.7-5.4-7.8 0-6 2.9-7.8 5.4-7.8C225.4 349.1 228.4 350.8 228.4 356.9zM219.7 356.9c0 2.2 0.4 6 3.3 6 2.9 0 3.3-3.8 3.3-6 0-2.2-0.4-6-3.3-6C220.1 350.9 219.7 354.7 219.7 356.9z"/><path d="M238.4 364.5h-1.9v-15.1h4.7c3.5 0 4.9 1.9 4.9 4.1 0 3.2-2.3 4.5-4.4 4.5h-3.2V364.5zM241 356.2c1.9 0 2.9-0.9 2.9-2.6 0-2.1-1.3-2.5-2.9-2.5h-2.7v5.1H241z"/><path d="M253.7 349.4h9.4v1.7h-7.5v4.5h6.2v1.7h-6.2v5.4h7.5v1.7h-9.4V349.4z"/><path d="M270.8 349.4h5.1c2.5 0 4.5 1.2 4.5 4.1 0 1.9-1.2 3.7-3.1 4.2l3.7 6.1 -1.7 1 -3.9-6.8h-2.8v6.5h-1.9V349.4zM275.3 356.3c1.9 0 3.1-1.1 3.1-2.8 0-1.4-0.8-2.4-2.6-2.4h-3.1v5.2H275.3z"/>
</g>

<g id="Layer_2">
	<ellipse id="logoCircle" fill="none" stroke="#000000" stroke-width="10" stroke-miterlimit="10" cx="220" cy="222" rx="215" ry="217"/>
</g>
</svg>