<?xml version="1.0" encoding="utf-8"?>
<!-- Generator: Adobe Illustrator 16.0.0, SVG Export Plug-In . SVG Version: 6.00 Build 0)  -->
<!DOCTYPE svg PUBLIC "-//W3C//DTD SVG 1.1//EN" "http://www.w3.org/Graphics/SVG/1.1/DTD/svg11.dtd">
<svg version="1.1" id="Layer_1" xmlns="http://www.w3.org/2000/svg" xmlns:xlink="http://www.w3.org/1999/xlink" x="0px" y="0px"
	 width="448.156px" height="448.156px" viewBox="0 0 448.156 448.156" enable-background="new 0 0 448.156 448.156"
	 xml:space="preserve">
<path stroke="#000000" stroke-miterlimit="10" d="M224.078,0.5C100.599,0.5,0.5,100.599,0.5,224.078
	c0,123.479,100.099,223.578,223.578,223.578c123.479,0,223.578-100.1,223.578-223.578C447.656,100.599,347.557,0.5,224.078,0.5z
	 M224.078,437.704c-117.982,0-213.626-95.644-213.626-213.626c0-117.982,95.644-213.626,213.626-213.626
	c117.981,0,213.626,95.644,213.626,213.626C437.704,342.061,342.061,437.704,224.078,437.704z"/>
<g>
	<path d="M98.523,71.625h61.994v11.506h-49.213v42.19h40.63v11.506h-40.63v51.203h49.213v11.506H98.523V71.625z"/>
	<path d="M186.648,99.624h33.19c28.23,0,41.012,11.698,41.012,48.71c0,31.259-5.342,51.203-41.012,51.203h-33.19v-11.506h10.301
		V111.13h-10.301V99.624z M209.729,188.031h13.543c16.787,0,24.225-9.589,24.225-38.354c0-30.684-8.774-38.546-24.606-38.546
		h-13.162V188.031z"/>
	<path d="M320.935,188.223c0,14.191,4.196,19.369,21.938,19.369h4.387v4.794h-6.295c-26.323,0-32.809-7.287-32.809-26.848v-25.314
		c0-17.451-6.104-14.575-20.028-18.985c13.732-4.794,20.028-2.301,20.028-19.177V96.556c0-19.177,7.438-26.656,28.422-26.656h10.682
		v4.794h-4.578c-18.502,0-21.745,5.37-21.745,19.177v26.848c0,8.629-0.189,15.725-8.773,20.521
		c8.584,4.603,8.773,11.506,8.773,20.136L320.935,188.223L320.935,188.223z"/>
	<path d="M321.078,255.007c0-14.19-4.196-19.368-21.938-19.368h-4.387v-4.795h6.295c26.322,0,32.81,7.287,32.81,26.848v25.314
		c0,17.451,6.104,14.574,20.028,18.985c-13.733,4.794-20.028,2.301-20.028,19.177v25.506c0,19.178-7.439,26.656-28.423,26.656
		h-10.682v-4.794h4.578c18.502,0,21.745-5.37,21.745-19.179V322.51c0-8.63,0.189-15.726,8.773-20.52
		c-8.584-4.604-8.773-11.508-8.773-20.137L321.078,255.007L321.078,255.007z"/>
</g>
</svg>
