<svg xmlns="http://www.w3.org/2000/svg" xmlns:xlink="http://www.w3.org/1999/xlink" version="1.1" id="Layer_1" x="0" y="0" width="200" height="200" viewBox="0 0 200 200" enable-background="new 0 0 200 200" xml:space="preserve">
  <path d="M100 0C44.8 0 0 44.8 0 100s44.8 100 100 100 100-44.8 100-100S155.2 0 100 0zM170.5 147.4l-62.4 36c-2.1 1.2-4.4 1.7-6.7 1.7 -2.3 0-4.5-0.6-6.6-1.7l-20.8-12.3c-3.1-1.7-1.6-2.4-0.6-2.7 4.1-1.4 5-1.8 9.4-4.3 0.5-0.3 1.1-0.2 1.6 0.1l16 9.5c0.6 0.3 1.4 0.3 2 0l62.5-36c0.6-0.3 1.1-1 1.1-1.7V64c0-0.7-0.5-1.4-1.1-1.7l-62.4-35.9c-0.6-0.3-1.4-0.3-1.9 0L38.1 62.3C37.5 62.7 37 63.4 37 64.1v72c0 0.7 0.5 1.3 1.1 1.7l17 9.9C64.4 152.3 70 146.8 70 141.3V70.2C70 69.2 71 68 72.1 68h7.9C81 68 82 69.2 82 70.2v71.1c0 12.4-6.8 19.5-18.6 19.5 -3.6 0-6.5 0-14.4-3.9l-16.4-9.4C28.6 145 26 140.7 26 136V64c0-4.7 2.6-9 6.6-11.4l62.4-36.1c4-2.2 9.2-2.2 13.1 0l62.4 36.1c4 2.4 6.5 6.7 6.5 11.4v72C177 140.7 174.5 145 170.5 147.4zM117.3 105.6c-17.1-1.7-27.6-5.5-27.6-19.1 0-12.6 10.6-20.1 28.4-20.1 20 0 29.8 7 31.1 21.8 0.1 0.5-0.1 0.9-0.5 1.3 -0.3 0.3-0.8 0.5-1.3 0.5h-8.1c-0.9 0-1.6-0.5-1.7-1.3 -2-8.6-6.7-11.3-19.5-11.3 -14.3 0-16 5-16 8.8 0 4.5 2 5.9 21.3 8.4 19.1 2.5 28.3 6.1 28.3 19.6 0 13.6-11.3 21.3-31.1 21.3 -27.3 0-33-12.4-33-22.9 0-1 0.8-1.6 1.8-1.6h8.1c0.9 0 1.7 0.5 1.8 1.4 1.2 8.2 4.8 12.3 21.3 12.3 13.2 0 18.7-3 18.7-10C139.3 110.7 137.7 107.7 117.3 105.6z"/>
</svg>