<svg xmlns="http://www.w3.org/2000/svg" xmlns:xlink="http://www.w3.org/1999/xlink" version="1.1" x="0" y="0" width="426.7" height="297.7" viewBox="0 0 426.7 297.7" enable-background="new 0 0 426.667 297.667" xml:space="preserve"><g id="Responsive"><path stroke="#000000" stroke-miterlimit="10" d="M417.2 175.8h-15v-80c0-5-4-9-9-9h-68.3V9.5c0-5-4-9-9-9H9.5c-5 0-9 4-9 9v215.3c0 5 4 9 9 9h114.3c0 0-1.6 26.6-3.3 28.3s-14.7 14.6-14.7 16.7 0.9 3 3.7 3c2.5 0 45.3 0 52.2 0 0 0 0.3 0 1 0 7 0 49.7 0 52.2 0 2.8 0 3.7-0.9 3.7-3s-12.9-14.9-14.7-16.7 -3.3-28.3-3.3-28.3h44.3v46c0 5 4 9 9 9h113.4c0.3 4.7 4.2 8.3 9 8.3h41c5 0 9-4 9-9V184.8C426.2 179.9 422.1 175.8 417.2 175.8zM162.7 226.5c-5.6 0-10.2-4.6-10.2-10.2s4.6-10.2 10.2-10.2 10.2 4.6 10.2 10.2S168.3 226.5 162.7 226.5zM244.8 95.8v86.3H15.2V15.5h294.7v71.3h-56C248.9 86.8 244.8 90.9 244.8 95.8zM323.3 285.2c-2.7 0-4.8-2.2-4.8-4.8s2.2-4.8 4.8-4.8 4.8 2.2 4.8 4.8S326 285.2 323.3 285.2zM367.2 184.8v84.8H261.3v-35.8 -51.7 -79h48.6 15H386v72.7h-9.8C371.2 175.8 367.2 179.9 367.2 184.8zM396.5 291.8c-2.2 0-4-1.2-5-3 -0.1-0.2-0.2-0.4-0.3-0.6 0-0.1 0-0.1-0.1-0.2 -0.1-0.1-0.1-0.3-0.1-0.4 0-0.1 0-0.1-0.1-0.2 0-0.1-0.1-0.3-0.1-0.5 0-0.1 0-0.1 0-0.2 0-0.2 0-0.4 0-0.7 0-3.1 2.5-5.7 5.7-5.7 0.2 0 0.5 0 0.7 0 0.1 0 0.1 0 0.2 0 0.2 0 0.3 0.1 0.5 0.1 0.1 0 0.1 0 0.2 0 0.2 0.1 0.4 0.1 0.6 0.2 0 0 0 0 0 0 0.2 0.1 0.4 0.2 0.6 0.3 0 0 0.1 0.1 0.1 0.1 0.2 0.1 0.3 0.2 0.5 0.3 0 0 0 0 0.1 0.1 0.4 0.3 0.7 0.6 1 1 0 0 0 0 0.1 0.1 0.1 0.2 0.3 0.4 0.4 0.6 0.5 0.8 0.7 1.8 0.7 2.8C402.2 289.3 399.6 291.8 396.5 291.8zM423.3 276.3h-21.1H369.3v-6.6 -74.5H386h16.2 21.1V276.3z"/></g><g id="DesktopContent"><rect x="27.5" y="77.7" fill="#282828" width="57" height="96"/><rect x="27.5" y="27.7" fill="#282828" width="270.9" height="40.5"/><rect x="96.7" y="77.7" fill="#282828" width="57" height="96"/><path fill="#282828" d="M172.2 173.7h72.6V95.8c0-5 4-9 9-9h44.5v-9.2H172.2V173.7z"/></g><g id="TabletContent"><path fill="#282828" d="M330 256.2h37.2v-71.3c0-5 4-9 9-9H380v-26.7h-50V256.2z"/><rect x="268.5" y="112.7" fill="#282828" width="111.5" height="24.5"/><rect x="268.5" y="149.2" fill="#282828" width="50" height="77.3"/><rect x="268.5" y="233.8" fill="#282828" width="50" height="22.3"/></g><g id="PhoneContent"><rect x="374" y="200.8" fill="#282828" width="44.5" height="14.4"/><rect x="374" y="219.7" fill="#282828" width="44.5" height="38"/><rect x="374" y="261.3" fill="#282828" width="44.5" height="9.2"/></g><g id="TabletShadow"><g opacity="0.2"><path d="M312.8 74.5h-71.7c-5 0-9 4-9 9v102.7h16.4V90.8h64.3V74.5z"/></g></g><g id="PhoneShadow"><path opacity="0.2" d="M367.8 185.3c0-5 4-9 9-9H387v-11.5h-20.2c-5 0-9 4-9 9v95.8h9.9V185.3z"/></g></svg>