<svg xmlns="http://www.w3.org/2000/svg" xmlns:xlink="http://www.w3.org/1999/xlink" version="1.1" id="Layer" x="0" y="0" width="426.2" height="297.2" viewBox="0 0 426.2 297.2" enable-background="new 0 0 426.167 297.167" xml:space="preserve"><path d="M417.2 175.8h-15v-80c0-5-4-9-9-9h-68.3V9.5c0-5-4-9-9-9H9.5c-5 0-9 4-9 9v215.3c0 5 4 9 9 9h114.3c0 0-1.6 26.6-3.3 28.3s-14.7 14.6-14.7 16.7 0.9 3 3.7 3c2.5 0 45.3 0 52.2 0 0 0 0.3 0 1 0 7 0 49.7 0 52.2 0 2.8 0 3.7-0.9 3.7-3s-12.9-14.9-14.7-16.7 -3.3-28.3-3.3-28.3h44.3v46c0 5 4 9 9 9h113.4c0.3 4.7 4.2 8.3 9 8.3h41c5 0 9-4 9-9V184.8C426.2 179.9 422.1 175.8 417.2 175.8zM162.7 226.5c-5.6 0-10.2-4.6-10.2-10.2s4.6-10.2 10.2-10.2 10.2 4.6 10.2 10.2S168.3 226.5 162.7 226.5zM15.2 182.2V15.5h294.7v71.3h-56c-5 0-9 4-9 9v86.3H15.2zM323.3 285.2c-2.7 0-4.8-2.2-4.8-4.8s2.2-4.8 4.8-4.8 4.8 2.2 4.8 4.8S326 285.2 323.3 285.2zM367.2 184.8v84.8H261.3v-35.8 -51.7 -79h48.6 15H386v72.7h-9.8C371.2 175.8 367.2 179.9 367.2 184.8zM396.5 291.8c-2.2 0-4-1.2-5-3 -0.1-0.2-0.2-0.4-0.3-0.6 0-0.1 0-0.1-0.1-0.2 -0.1-0.1-0.1-0.3-0.1-0.4 0-0.1 0-0.1-0.1-0.2 0-0.1-0.1-0.3-0.1-0.5 0-0.1 0-0.1 0-0.2 0-0.2 0-0.4 0-0.7 0-3.1 2.5-5.7 5.7-5.7 0.2 0 0.5 0 0.7 0 0.1 0 0.1 0 0.2 0 0.2 0 0.3 0.1 0.5 0.1 0.1 0 0.1 0 0.2 0 0.2 0.1 0.4 0.1 0.6 0.2 0 0 0 0 0 0 0.2 0.1 0.4 0.2 0.6 0.3 0 0 0.1 0.1 0.1 0.1 0.2 0.1 0.3 0.2 0.5 0.3 0 0 0 0 0.1 0.1 0.4 0.3 0.7 0.6 1 1 0 0 0 0 0.1 0.1 0.1 0.2 0.3 0.4 0.4 0.6 0.5 0.8 0.7 1.8 0.7 2.8C402.2 289.3 399.6 291.8 396.5 291.8zM423.3 276.3h-21.1H369.3v-6.6 -74.5H386h16.2 21.1V276.3z"/></svg>