<svg xmlns="http://www.w3.org/2000/svg">

	<symbol viewBox="7.174 7.174 49.652 49.652" id="behance"><title>behance</title> <g> <path fill="#454545" d="M28.068,27.86c0-1.9-1.293-1.9-1.293-1.9H26.09h-4.634h-0.002v4.078h4.991
	C27.308,30.038,28.068,29.763,28.068,27.86z"/> <path fill="#454545" d="M40.395,30.038c-2.822,0-3.215,2.815-3.215,2.815h6.002C43.182,32.854,43.219,30.038,40.395,30.038z"/> <path fill="#454545" d="M26.775,32.854h-5.318v4.885h4.711c0.08,0,0.198,0.004,0.339,0c0.757-0.018,2.196-0.235,2.196-2.374
	C28.703,32.83,26.775,32.854,26.775,32.854z"/> <path fill="#454545" d="M32,7.174C18.311,7.174,7.174,18.311,7.174,32c0,13.689,11.137,24.826,24.826,24.826
	c13.689,0,24.826-11.137,24.826-24.826C56.826,18.311,45.689,7.174,32,7.174z M36.393,23.789h7.539v2.251h-7.539V23.789z
	 M32.581,35.593c0,5.577-5.806,5.394-5.806,5.394h-5.318h-0.156h-4.034V22.712h4.034h0.156h5.318c2.891,0,5.172,1.597,5.172,4.867
	c0,3.269-2.788,3.477-2.788,3.477C32.834,31.056,32.581,35.593,32.581,35.593z M46.686,35.293h-9.471
	c0,3.396,3.217,3.182,3.217,3.182c3.036,0,2.93-1.966,2.93-1.966h3.218c0,5.218-6.254,4.859-6.254,4.859
	c-7.503,0-7.021-6.985-7.021-6.985s-0.007-7.022,7.021-7.022C47.723,27.361,46.684,35.293,46.686,35.293z"/> </g> </symbol>

	<symbol viewBox="0 0 98.8 66" id="burger_button"><title>burger_button</title><path d="M4.8 38c29.7 0 59.4 0 89.1 0 6.4 0 6.4-10 0-10 -29.7 0-59.4 0-89.1 0C-1.6 28-1.6 38 4.8 38L4.8 38z"/><path d="M4.8 10c29.7 0 59.4 0 89.1 0 6.4 0 6.4-10 0-10C64.3 0 34.6 0 4.8 0 -1.6 0-1.6 10 4.8 10L4.8 10z"/><path d="M4.8 66c29.7 0 59.4 0 89.1 0 6.4 0 6.4-10 0-10 -29.7 0-59.4 0-89.1 0C-1.6 56-1.6 66 4.8 66L4.8 66z"/></symbol>

	<symbol viewBox="0 0 200 200" id="css3"><title>css3</title><path d="M100 0C44.8 0 0 44.8 0 100s44.8 100 100 100 100-44.8 100-100S155.2 0 100 0zM148 144.8l-60.8 20.2 -52.8-20.1L39.7 118h22.5l-2.2 11 31.9 12.1 36.8-12.3L133.9 103h-91.4l4.4-22h91.5l2.9-15h-91.4l4.5-22h113.9L148 144.8z"/></symbol>

	<symbol viewBox="0 0 200 200" id="facebook"><title>facebook</title> <path fill="#45619D" d="M100,0C44.8,0,0,44.8,0,100s44.8,100,100,100s100-44.8,100-100S155.2,0,100,0z M134,56.9
	c-5,0-9.1-0.1-13.5,0c-7,0.3-9.9,3.3-10.1,10.3c-0.101,4.8,0,9.7,0,14.6c0,0.5,0.199,1.2,0.5,2.2c7.5,0,14.8,0,22.699,0
	c-1,8-2,15-3,23c-6.8,0-13.6,0-19.6,0c0,20,0,40,0,60c-9,0-16,0-25,0c0-20,0-40,0-60c-7,0-13,0-20,0c0-8,0-15,0-23c6,0,13,0,20.2,0
	c0-6,0-11.6,0-17c0.1-21,11.1-32,32.1-31.9c5.2,0,10.7,0,15.7,1C134,42.8,134,49.5,134,56.9z"/> </symbol>

	<symbol viewBox="0 0 200 200" id="foundation"><title>foundation</title><g id="foundation-Layer_1"><path d="M112.3 160.3c-0.1 0.1-0.3 0.1-0.4 0.2C112 160.4 112.2 160.4 112.3 160.3L112.3 160.3z"/><path d="M100 0C44.8 0 0 44.8 0 100s44.8 100 100 100 100-44.8 100-100S155.2 0 100 0zM153.2 126.9c0 0 0.1 1.4 1.4 2 0 0-0.7 0.7-1.9 0.1 0 0 2.3 12.8 1.9 20.2 0 0-0.7-0.6-1.6-0.7 0 0 0.4 4.9-3.3 9.8 0 0 0-1.3-0.7-1.9 0 0-1.2 4.4-9.8 4.7 0.2 1.1 0.4 2.2 0.7 3.3 0 0.1 0.2 0.2 0.3 0.1 0.3-0.2 0.7-0.4 1-0.6 0.9-0.3 1.5 0.1 1.5 0.1 -0.9 0.2-2.1 2.1-2.3 2.8 0.8-0.1 1.3 0.1 2.1 0.6 -0.7 0.1-1.5 0.5-1.5 0.5 4.3 1.8 4.9 4.4 6.3 6.3 -0.4-0.2-1.8-0.8-1.8-0.8 1.3 1.2 1.9 4 2 5 0.1 1.2 0.1 1.2 0.2 2.2 -0.5-0.2-0.9-0.3-1.3-0.4 0 0 0 0 0 0 0 0-0.1 0-0.1 0 -0.4-0.1-0.7-0.1-1.2-0.2 -0.8-0.1-2.4-0.3-4-0.5 -0.4 0-1.4-0.1-1.5-0.1 0 0.9 0 1.8 0 3 -0.9-0.1-1.8-0.2-2.7-0.4 -0.2 0-0.3 0-0.5 0 0 0 0 0 0 0 -1.7-0.3-3.4-0.6-5.1-0.7 -0.8 0-1.4 0-2.4 0 0 0 0 0 0 0 -1 0-2.8 0.1-4.3 0.3 -0.1-0.2-0.3-1.4-0.3-1.9 0 0-4.3-0.4-7.3 0 0 0 0-0.5-0.1-1.3 0-0.6-0.1-1.4-0.2-2.3 -0.7-4.2-2.2-8.5-2.9-10 -0.4-0.9-1.8-4-2.6-5.3 -10.2 3.6-20.9 0.8-23.4 0 -0.2 0.3-5.5 9.3-6.2 18.8 0 0 0.1 0 0.1 0H82c0 0 0 0 0 0v0c0 0-3.1-0.3-5.4-0.3 -0.4 0-1.2 0.1-1.8 0.1 -0.4 0-1.8 0.2-1.8 0.2v0l0 0c0 0.2 0.1 0.3 0.1 0.4 -0.1 0.7-0.1 0.8-0.2 1.3 -0.7 0.4-1.4 0.5-2.1 0.6 -3.9 0.3-6.2-0.2-9.5 0 0 0.1 0 0.4 0 0.4C60.5 182.4 59.9 182 59.2 183c0 0-0.1 0-0.1 0L59 179.6v0c-1-0.2-5.2 0.2-6.6 0.4 -0.4 0.1-0.7 0.2-1.1 0.2 0 0-0.1 0-0.1 0 0 0 0 0 0 0 -0.4 0.1-0.8 0.2-1.3 0.4 0.1-1 0.1-0.9 0.2-2.2 0.1-0.9 0.8-3.8 2-5 0 0-1.4 0.6-1.8 0.8 1.4-1.8 2-4.5 6.3-6.3 0 0-0.8-0.4-1.5-0.5 0.7-0.5 1.3-0.6 2.1-0.6 -0.3-0.7-1.4-2.6-2.3-2.8 0 0 0.6-0.4 1.5-0.1 0.4 0.2 0.7 0.4 1 0.6 0.1 0.1 0.1 0 0.1-0.1 0.3-1 0.4-1.9 0.4-2.9 0 0 0 0 0 0 0 0-0.4 0-0.9 0 0 0 0.1 0 0.1 0 -2.9-0.4-7.1-2.6-9.1-5.3 -2.2-2.9-3.7-6.6-3.7-6.6 -1.1 0.4-2.6 1.9-2.6 1.9 0.4-4.4 2.3-12.2 2.3-12.2l-2.4-1.7 3.2-1.9c0.1-6.3 3-12.3 3-12.3 -1-0.6-3.3 0.6-3.3 0.6 1.6-9.5 6.3-15.2 6.3-15.2 -2.2-0.6-5.2 1.3-5.2 1.3 3.4-5.6 10.2-12.5 10.2-12.5 -0.4-1.1-2.7-2.4-2.7-2.4 1.4-0.4 4.2-0.6 4.2-0.6 1.7-2.2 4.9-4.3 4.9-4.3 -0.3-4.2-3-6.6-3-6.6 1.7-0.4 2.7 0.4 2.7 0.4 0-6.5-2.6-9.3-2.6-9.3 2.4 0.3 3.6 1.7 3.6 1.7s-0.8-8.1-1.3-16.5c-3.4-1-8-2.9-10.9-6.4 -5.1-6.3-4.4-13.4-4.4-13.4s6.1 6.4 15.1 8c0.1-1.5 0.2-2.9 0.3-4 1.3-8.3 8.5-20.3 8.5-20.3s0.1 6.2 1.3 8.9c0 0 4.6-16.2 22-23.5v0c0 0 0 0 0 0 0 0-1.6 5-0.9 10.8 0 0 0 0 0 0 0.6-0.8 10.7-13.3 28.1-13.3 0 0 0 0.2 0 0.2 0 0 0 0 0 0 0 0-1.1 1.2-2.1 3.3 0 0 0-0.1 0-0.1 -0.8 1.9-1.4 4.6-1.4 8.5 0 0 4.9-1.7 10.8-0.5 0 0-5.1 3.6-3.8 9.8 0 0 6.4-6.8 17.9-3.7 0 0-3.1 3-4.1 13.2 0 0 1.4-1 3.6-0.9 0 0-4.1 3.6-6 11.5 8.6-1.8 14.4-7.9 14.4-7.9s1 7.2-4.1 13.4c-2.9 3.6-7.8 5.5-10.8 6.4 0 10.3 0 10.4 0 10.4s1.4-2.6 4.2-2.6c0 0-4.2 5.2-4.2 11.8s0 9.8 0 9.8 -0.1 0.1 0 0.2c0-0.2-0.1-0.3-0.1-0.3 2 1.7 6 5.7 6 5.7 0 0 0 0.1 0 0.1 0.7 0.7 1.4 1.5 1.9 2.1 2.3 3 5.7 5.5 7.3 6.2 0 0-1.3 1-3.6 1 0 0 2.2 6.7 3.6 13.3 1.4 6.6 3.4 7.5 5.3 7.5C155.4 125.4 155.1 127.1 153.2 126.9z"/></g></symbol>

	<symbol viewBox="0 0 200 200" id="github"><title>github</title><path fill="#333333" d="M100 0C44.8 0 0 44.8 0 100s44.8 100 100 100 100-44.8 100-100S155.2 0 100 0zM152.7 100.8c-3 5.8-8.5 10.6-16.2 14.5 -5.2 2.5-12.2 4-20.8 4.5 3.9 1.9 6.4 3.9 8.2 6 1.8 2.1 3 5.3 3 9.7v13c0 0 0.6 4.2 0.9 12.6 0.8 1.4 2.3 2.5 3.4 3.5s2.1 1.7 2.9 2.1c0.8 0.4 1.1 1 0.9 1.9 -0.3 0.8-1.3 1.2-3.2 1.2 -4.7 0-8.2-1.7-11-5 -0.8-1.4-0.9-3-0.9-5v-19.8c0-2.2-1.1-3.8-2.2-4.8 -1.1-1-2.8-1.6-3.8-1.9v26c0 4.7 0.7 7.7 1.8 9.1 1.1 1.4 2 2.8 2.2 4.1 0.3 0.3 0.1 0.5-0.6 0.6 -0.7 0.1-1.8-0.1-3.4-0.6 -3.6-0.8-5.9-2.7-7.3-5.6 -1.4-2.9-1.8-6-1.8-9.3V132h-6v25.8c0 3.3-0.7 6.5-2.1 9.5 -1.9 3.9-5.5 5.9-10.7 6.2 -0.8-0.3-1.2-0.6-1.2-0.8 0.3-0.3 1.1-1.7 2.5-4.1 0.3-0.6 0.6-1.7 1-3.3 0.4-1.7 0.6-3.6 0.6-5.8v-26c-1 0.3-1.9 0.9-2.8 1.9C85.2 136.3 85 137.9 85 140.1v19.8c0 1.9-0.6 3.6-1.5 5 -2.5 3.3-6.4 5-11.4 5 -1.9 0-3-0.4-3.3-1.2 -0.3-0.5-0.2-1 0.2-1.4 0.4-0.4 1-0.9 1.9-1.4 0.8-0.6 1.4-1 1.7-1.2 1.1-0.8 1.9-1.9 2.5-3.3 0.8-1.1 1-4 0.6-8.7 -0.4-4.7-0.5-7.7-0.2-9.1 -7.2 2.5-14.5 1.2-21.9-3.7 -2.2-2.2-4.4-5.4-6.6-9.5 -1.7-3-5-6.6-9.9-10.7 -0.6-0.6-0.6-1.1 0-1.7 1.1-1.1 2.5-1.5 4.1-1.2 1.7 0.3 2.6 0.6 2.9 0.8 1.9 0.8 4.1 2.7 6.4 5.6 2.3 2.9 4.2 4.9 5.6 6 6.6 5.5 13.4 5.9 20.2 1.2 0.6-1.9 1.4-3.6 2.7-5 1.2-1.4 2.4-2.3 3.5-2.9s3-1.4 5.8-2.5c-9.1-0.8-16.5-2.4-22.1-4.8 -5.6-2.3-10.1-5.3-13.4-8.9 -4.4-5-7.1-11.4-8.1-19.4 -1-8-0.3-15.3 1.9-21.9 1.7-4.1 4-7.9 7-11.2 -2.2-6.9-1.8-14.7 1.2-23.6 8.8 0.6 16.8 3.6 24 9.1 13.8-3.6 28.1-3.7 43-0.4 1.9-1.4 4.9-3.1 8.9-5.2s9-3.2 15.1-3.5c1.1 3 1.9 6.6 2.3 10.7 0.4 4.1 0.2 8-0.6 11.6 6.3 6.6 9.6 15.4 9.9 26.4C157.3 87.7 155.7 95 152.7 100.8z"/></symbol>

	<symbol viewBox="0 0 200 200" id="grunt"><title>grunt</title><path d="M100 0C44.8 0 0 44.8 0 100s44.8 100 100 100 100-44.8 100-100S155.2 0 100 0zM155.5 126.5c0-0.1 0-0.2 0-0.2 0 0 0 0 0.1 0.1 0-0.2 0.1-0.4 0.1-0.6 0 0 10.2 7.8 7.2 24.6 -1.8 10.3-8.1 16-16.3 19 -3.1 6.6-10.2 15.9-23.4 17.3 -5 4.1-12.1 6.8-22.1 6.8v0c0 0 0 0 0 0 0 0 0 0 0 0v0c-10 0-17.1-2.7-22.2-6.8 -13.2-1.4-20.4-10.6-23.4-17.3 -8.3-3-14.5-8.8-16.3-19 -3-16.8 7.2-24.6 7.2-24.6 0 0.2 0.1 0.4 0.1 0.6 0 0 0 0 0-0.1 0 0 0 0.1 0 0.2 1 5.9 4.6 11.2 8.4 14.5 1.1-7.9 1.3-19.3 1.3-21.7 0-5.1-3.3-8.5-4.2-9.1 -0.9-0.5-1.9-1-2.9-1.6 -6.3-3.4-14.1-7.5-14.1-15.2 0-5.6 3.2-8.1 5.4-9.7 0.3-0.2 0.5-0.4 0.7-0.6 0.7-0.6 1.3-1 1.5-1.5 1.5-3.4 1.2-11.9 0.6-13.1 -0.2-0.2-5.8-7.3-4.1-13.6 0.7-2.6 2.4-4.6 4.9-5.9 1.8-0.9 4.1-1.4 6.8-1.5 0-0.7 0.2-1.4 0.3-2.1 0.2-0.9 0.4-1.8 0.3-2.8 -0.1-1.6-0.3-3.1-0.8-3.9 -2.9-4.6-10-6.1-10.1-6.1l-4.3-0.8 2.8-3.3c0.1-0.1 6-6.1 16.1-6.1 2.8 0 5.6 0.5 8.4 1.4 8.4 2.7 14.9 10.6 17.2 13.7 0.7-0.2 1.3-0.4 2-0.6 -0.3-9.2 7.2-16.5 9.8-16.8 0.1 1.6-0.1 7.7 2.5 9.6 0.8-5 3.4-10.5 13.6-14.2 -2.2 5.8-0.3 10.7 0.6 13 7-6.3 11.7-5.3 11.7-5.3s-4.6 7.9-3.1 13.4c1.1 0.3 2.2 0.6 3.3 0.9 2.2-3 8.7-11 17.2-13.7 2.8-0.9 5.6-1.4 8.4-1.4 10.1 0 16.1 6 16.1 6.1l2.8 3.3 -4.3 0.8c-0.1 0-7.2 1.5-10.1 6.1 -0.5 0.8-0.6 2.3-0.8 3.9 -0.1 1 0.1 1.9 0.3 2.8 0.1 0.7 0.3 1.4 0.3 2.1 2.7 0.1 4.9 0.6 6.8 1.5 2.5 1.3 4.2 3.3 4.9 5.9 1.7 6.3-3.9 13.4-4.1 13.6 -0.7 1.2-0.9 9.7 0.6 13.1 0.2 0.5 0.8 0.9 1.5 1.5 0.2 0.2 0.5 0.4 0.8 0.6 2.1 1.6 5.4 4.1 5.4 9.7 0 7.7-7.8 11.9-14.1 15.2 -1 0.6-2 1.1-2.9 1.6 -0.9 0.5-4.2 4-4.2 9.1 0 2.4 0.2 13.8 1.3 21.7C150.9 137.7 154.5 132.4 155.5 126.5z"/></symbol>

	<symbol viewBox="0 0 200 200" id="html5"><title>html5</title><path d="M100 172.1v0.1l0 0 0 0V172.1l42.7-12L152.9 47H47.3l10.1 113.1L100 172.1zM140.5 64l-1.4 16h-0.1H77.1l1.5 16h59l-4.4 49.9 -33.2 9.1L100 155h0 0l-33.2-8.9L64.5 121H80.7l1.2 12.8 18 4.8 0 0 18.1-4.7L119.9 113H63.7l-4.4-49H140.5z"/><path d="M100 0C44.8 0 0 44.8 0 100s44.8 100 100 100 100-44.8 100-100S155.2 0 100 0zM152.9 168.9l-53 14.6 -52.9-14.5L35.3 37h129.4L152.9 168.9z"/></symbol>

	<symbol viewBox="0 0 200 200" id="instagram"><title>instagram</title> <path fill="#BB9F1B" d="M99.7,123.9c13.2,0.1,23.899-10.4,24.1-23.5C123.9,87,113.2,76.1,99.9,76.1C86.8,76.2,76.1,86.9,76,100
	C75.9,113,86.6,123.8,99.7,123.9z"/> <path fill="#BB9F1B" d="M153.3,86.1c-5.1,0-10.6,0-16.1,0c-0.8,0-1.5,0.2-2.601,0.4c5.4,18.2,1.2,33.4-14.399,44.1
	c-12.7,8.7-26.6,8.801-39.5,0.5C64.3,120.5,59.6,105,65.2,86c-6.8,0-13.1,0-19.9,0c0,18,0,35.9,0,53.5c0,10,5,15,15.2,15
	c26.3,0,52.6,0.1,78.9,0c10,0,15-5.1,15.1-15.1c0-16.301,0-32.601-0.1-48.9C154.4,89.2,155,87.6,153.3,86.1z"/> <path fill="#BB9F1B" d="M100,0C44.8,0,0,44.8,0,100s44.8,100,100,100s100-44.8,100-100S155.2,0,100,0z M167.6,139.3
	c-0.1,17.5-11.1,28.4-28.5,28.4c-26.199,0-52.3,0-78.5,0c-17.5,0-28.2-10.8-28.2-28.5c0-13.2,0-26.3,0-39.5c0,0,0,0-0.1,0
	c0-13.3-0.1-26.7,0-40c0.1-16.2,10.6-27.1,26.8-27.3c27-0.2,54-0.2,81,0c16.601,0.1,27.4,11.2,27.5,27.8
	C167.7,86.6,167.7,113,167.6,139.3z"/> <path fill="#BB9F1B" d="M151,48c-7,0-14,0-22,0c0,8,0,15,0,23c8,0,15,0,22,0C151,63,151,56,151,48z"/> </symbol>

	<symbol viewBox="0 0 200 200" id="jade"><title>jade</title> <g> <path d="M100.664,99.363c-0.803,0.846-1.506,1.788-1.528,2.744c-0.065,2.903,0.189,5.812,0.216,8.72
	c0.045,4.917,0.013,9.833,0.013,15.058c-6.547-1.297-9.917,0.943-11.028,7.015c-0.943,5.146-0.119,10.168,1.374,15.105
	c1.527,5.053,4.753,6.823,9.87,5.611c1.708-0.404,2.655-1.209,2.623-3.038c-0.08-4.49-0.167-8.98-0.175-13.471
	c-0.015-9.228,0.012-18.454,0.037-27.68C102.075,106.08,102.886,102.646,100.664,99.363z"/> <path d="M87.006,130.614c-0.204-1.914-0.285-3.59-0.579-5.227c-0.428-2.383-2.173-4.147-4.336-3.885
	c-2.937,0.355-5.782,1.649-8.58,2.76c-0.458,0.183-0.855,1.687-0.581,2.224c0.285,0.562,1.441,1.01,2.169,0.946
	c1.289-0.11,2.536-0.903,3.81-0.933c1.276-0.028,3.338,0.167,3.687,0.906c0.721,1.533,0.73,3.512,0.56,5.261
	c-0.037,0.376-2.072,0.596-3.202,0.809c-0.599,0.113-1.236,0.007-1.845,0.084c-4.563,0.581-6.7,3.118-6.466,7.711
	c0.09,1.759,0.291,3.512,0.409,5.27c0.32,4.769,5.598,8.863,10.316,7.921c1.909-0.38,3.191-1.246,2.762-3.63
	c-0.275-1.528-0.196-3.161-0.023-4.72C85.688,140.866,86.381,135.633,87.006,130.614z"/> <path d="M64.749,102.04c0.144,2.642,0.468,5.29,0.38,7.925c-0.307,9.255-0.724,18.506-1.172,27.756
	c-0.178,3.694-0.38,7.402-0.885,11.062c-0.266,1.929-0.768,4.333-3.494,4.198c-2.59-0.127-2.91-2.453-3.427-4.412
	c-0.11-0.42-0.125-0.878-0.112-1.316c0.113-4.053,0.306-8.104,0.339-12.157c0.018-2.114-0.237-4.231-0.403-6.903
	c-2.575,1.496-3.597,3.12-3.513,5.159c0.23,5.628,0.41,11.276,1.06,16.865c0.462,3.964,3.312,5.684,7.696,5.424
	c3.65-0.216,5.763-2.38,6.015-6.389c0.217-3.432,0.299-6.876,0.373-10.315c0.235-11.109,0.373-22.221,0.7-33.327
	c0.085-2.868,0.727-5.722,1.147-8.839C65.329,97.496,64.553,98.433,64.749,102.04z"/> <path d="M100,0C44.771,0,0,44.771,0,100s44.771,100,100,100s100-44.771,100-100S155.229,0,100,0z M167.389,136.325
	c-1.771,8.097-9.465,12.238-17.349,9.441c-7.266-2.577-6.706-2.829-11.703,3.949c-3.241,4.397-5.505,9.191-6.977,14.423
	c-0.376,1.336-1.046,2.622-1.763,3.822c-1.169,1.958-2.896,2.691-5.278,2.824c-11.411,0.633-22.217-1.85-32.853-5.671
	c-3.066-1.101-6.365-1.557-9.558-2.308c-0.145,0.37-0.29,0.738-0.434,1.108c1.167,1.1,2.334,2.199,3.785,3.566
	c-4.532,0.834-8.734,1.617-12.941,2.376c-6.46,1.167-12.94,1.594-19.489,0.741c-2.882-0.375-4.928-1.581-6.014-4.393
	c-4.57-11.825-9.299-23.591-13.717-35.473c-0.951-2.559-0.946-5.5-1.176-8.282c-0.064-0.777,0.455-1.735,0.981-2.392
	c0.508-0.635,1.369-0.987,2.075-1.464c0.409,0.62,0.86,1.217,1.217,1.866c0.407,0.741,0.73,1.527,1.397,2.951
	c1.578-4.975,2.846-9.305,4.323-13.563c4.6-13.255,12.344-23.711,26.005-28.812c8.9-3.324,18.093-3.562,27.396-2.598
	c2.366,0.245,4.72,0.607,7.078,0.941c4.601,0.652,8.479,2.755,11.966,5.778c3.673,3.185,7.744,5.285,12.833,3.746
	c0.421-0.127,0.844-0.25,1.252-0.406c4.456-1.693,5.099-3.71,2.397-7.596c-2.265-3.256-4.861-6.325-6.774-9.774
	c-6.114-11.016-12.029-22.145-17.891-33.299c-0.96-1.827-1.409-3.973-1.813-6.027c-0.355-1.801,0.618-2.947,2.523-2.841
	c6.415,0.356,12.196,1.534,15.937,7.889c5.181,8.798,8.645,18.293,12.61,27.611c2.052,4.823,4.701,9.495,7.752,13.754
	c1.929,2.693,5.034,4.581,7.749,6.651c0.727,0.555,1.951,0.46,2.948,0.663c0.106-0.991,0.465-2.033,0.277-2.965
	c-0.915-4.573-2.127-9.089-2.945-13.677c-1.099-6.156-1.945-12.357-2.871-18.544c-0.434-2.902,0.76-4.148,3.637-4.002
	c3.074,0.157,5.017,1.946,5.792,4.646c1.942,6.756,3.886,13.534,5.31,20.412c1.479,7.14,2.229,14.386,4.451,21.429
	c1.01,3.199,0.061,7.088-0.306,10.633c-0.796,7.677-0.736,15.271,0.557,22.924C168.327,129.597,168.09,133.121,167.389,136.325z"/> <path d="M114.359,151.46c-3.146,0.73-4.793,0.019-5.619-3.076c-0.562-2.104-0.748-4.323-0.956-6.505
	c-0.166-1.738,0.862-2.646,2.536-2.672c1.493-0.022,2.99,0.23,4.482,0.203c2.688-0.052,3.691-1.384,2.93-3.954
	c-0.524-1.767-0.985-3.668-2.006-5.14c-1.126-1.624-2.697-3.699-4.364-4.008c-2.464-0.455-3.806,2.054-4.885,4.127
	c-0.241,0.461-0.533,0.978-0.535,1.471c-0.018,6.23-0.243,12.478,0.143,18.686c0.187,3,2.428,4.394,5.508,3.933
	c2.542-0.381,4.988-1.407,7.477-2.148c-0.062-0.479-0.124-0.96-0.185-1.439C117.373,151.101,115.829,151.12,114.359,151.46z"/> <path d="M156.994,114.398c-5.533-2.195-11.24-3.579-17.224-3.087c-1.729,0.143-3.401,0.982-5.098,1.503
	c-0.005,0.336-0.01,0.672-0.014,1.01c1.758,1.549,3.276,3.634,5.319,4.545c5.478,2.447,11.396,2.853,17.312,2.159
	c1.142-0.134,2.666-1.302,3.022-2.334c0.244-0.712-1.172-2.053-1.953-3.026C158.056,114.788,157.479,114.591,156.994,114.398z"/> </g> </symbol>

	<symbol viewBox="0 0 200 200" id="jquery"><title>jquery</title><g id="jquery-Layer_1"><path d="M100-1C44.8-1 0 43.8 0 99s44.8 100 100 100 100-44.8 100-100S155.2-1 100-1zM109.9 35.8l4-5.6c-7.4 13.5-0.4 30 11.1 38.6 2 1.5 4.2 2.8 6.4 3.9 1.2 0.6 2.4 1.1 3.7 1.5 1 0.3 2.1 0.7 3.1 1 12.8 3.1 23.2 1 29.3-8 -1.9 2.7-8.9 21.1-35 16.1 -0.6-0.1-1.1-0.3-1.7-0.5 -0.2-0.1-0.3-0.1-0.5-0.2 -0.4-0.1-0.8-0.3-1.2-0.4 -9.4-3.5-17.5-10.7-21.4-20C104 53.6 104.5 43.8 109.9 35.8zM89.1 166c-1-0.2-1.9-0.5-2.8-0.8 -0.2-0.1-0.4-0.1-0.7-0.2 -0.9-0.3-1.8-0.6-2.7-0.9 -0.1 0-0.2-0.1-0.3-0.1 -0.8-0.3-1.6-0.6-2.4-0.9 -0.2-0.1-0.4-0.2-0.6-0.2 -0.9-0.3-1.7-0.7-2.6-1.1 -0.2-0.1-0.3-0.1-0.5-0.2 -0.7-0.3-1.5-0.7-2.2-1 -0.2-0.1-0.4-0.2-0.6-0.3 -0.1-0.1-0.2-0.1-0.3-0.2 -0.5-0.2-0.9-0.5-1.4-0.7 -0.4-0.2-0.7-0.4-1.1-0.6 -0.7-0.4-1.3-0.7-2-1.1 -0.2-0.1-0.5-0.3-0.7-0.4 -0.9-0.5-1.8-1.1-2.6-1.6 -0.2-0.2-0.5-0.3-0.7-0.5 -0.6-0.4-1.1-0.7-1.7-1.1 -0.1 0-0.1-0.1-0.2-0.1 -0.2-0.1-0.4-0.3-0.6-0.4 -0.6-0.4-1.1-0.8-1.7-1.2 -0.3-0.2-0.5-0.4-0.8-0.6 -0.5-0.4-1-0.8-1.5-1.2 -0.3-0.2-0.5-0.4-0.8-0.6 -0.6-0.5-1.2-1-1.8-1.5 -0.1-0.1-0.2-0.2-0.4-0.3 0 0 0 0 0 0 -0.7-0.6-1.4-1.2-2-1.8 -0.2-0.2-0.4-0.4-0.6-0.6 -0.5-0.5-1-1-1.5-1.4 -0.2-0.2-0.4-0.4-0.6-0.6 -0.6-0.6-1.2-1.3-1.8-1.9 0 0 0 0-0.1-0.1 0 0 0 0 0 0 -0.6-0.7-1.2-1.4-1.8-2.1 -0.2-0.2-0.3-0.4-0.5-0.6 -0.4-0.5-0.9-1.1-1.3-1.6 -0.2-0.2-0.4-0.5-0.5-0.7 -0.5-0.6-1-1.2-1.4-1.9 -0.1-0.1-0.2-0.2-0.3-0.4 0 0 0 0 0-0.1 -0.5-0.7-1-1.5-1.5-2.2 -0.2-0.2-0.3-0.5-0.5-0.7 -0.4-0.6-0.7-1.1-1.1-1.7 -0.2-0.3-0.4-0.6-0.5-0.9 -0.3-0.5-0.6-1.1-0.9-1.6 -0.2-0.3-0.3-0.6-0.5-0.9 -0.1-0.2-0.2-0.3-0.3-0.5 -0.2-0.3-0.3-0.6-0.5-0.9 -0.2-0.5-0.5-0.9-0.7-1.4 -9.6-19.3-11.2-42.9 1.4-61.1l9.9-12.5c-11.1 21.5-6.1 47.7 7.8 66.7 0.5 0.7 1 1.4 1.5 2.1 0.2 0.2 0.3 0.4 0.5 0.6 0.4 0.6 0.9 1.1 1.3 1.7 0.2 0.2 0.3 0.4 0.5 0.6 0.6 0.7 1.2 1.4 1.9 2.1 0 0 0.1 0.1 0.1 0.1 0.6 0.7 1.2 1.3 1.8 1.9 0.2 0.2 0.4 0.4 0.6 0.6 0.5 0.5 1 1 1.5 1.5 0.2 0.2 0.4 0.4 0.6 0.6 0.7 0.6 1.4 1.3 2.1 1.9 0.1 0.1 0.1 0.1 0.2 0.2 0.7 0.6 1.3 1.1 2 1.7 0.2 0.2 0.5 0.4 0.7 0.6 0.5 0.4 1.1 0.8 1.6 1.2 0.3 0.2 0.5 0.4 0.8 0.6 0.6 0.4 1.2 0.9 1.8 1.3 0.2 0.1 0.4 0.3 0.6 0.4 0.6 0.4 1.2 0.8 1.9 1.2 0.2 0.2 0.5 0.3 0.7 0.5 0.9 0.5 1.7 1.1 2.6 1.6 0.2 0.1 0.5 0.3 0.7 0.4 0.7 0.4 1.3 0.8 2 1.1 0.4 0.2 0.7 0.4 1.1 0.6 0.6 0.3 1.1 0.6 1.7 0.9 0.2 0.1 0.4 0.2 0.6 0.3 0.7 0.3 1.4 0.7 2.2 1 0.2 0.1 0.3 0.2 0.5 0.2 0.8 0.4 1.7 0.7 2.6 1.1 0.2 0.1 0.4 0.2 0.7 0.3 0.8 0.3 1.6 0.6 2.4 0.9 0.1 0 0.2 0.1 0.4 0.1 0.9 0.3 1.8 0.6 2.7 0.9 0.2 0.1 0.5 0.1 0.7 0.2 0.9 0.3 1.8 0.6 2.8 0.8 25.1 5.7 51.5 0.6 66.4-18.8C167.9 129.3 150.1 177.2 89.1 166zM113.3 122.2c-0.9-0.2-1.8-0.5-2.7-0.8 -0.3-0.1-0.6-0.2-0.8-0.3 -0.6-0.2-1.2-0.4-1.8-0.6 -0.3-0.1-0.6-0.2-0.9-0.3 -0.7-0.3-1.3-0.5-2-0.8 -0.2-0.1-0.4-0.1-0.5-0.2 -0.8-0.4-1.6-0.7-2.4-1.1 -0.1 0-0.1-0.1-0.2-0.1 -0.4-0.2-0.8-0.4-1.2-0.6 -0.2-0.1-0.4-0.2-0.6-0.3 -0.6-0.3-1.1-0.6-1.7-0.9 -0.1-0.1-0.2-0.1-0.3-0.2 -0.6-0.4-1.3-0.8-1.9-1.2 -0.2-0.1-0.4-0.2-0.6-0.4 -0.4-0.3-0.8-0.5-1.2-0.8 0 0 0 0-0.1-0.1 -0.9-0.6-1.7-1.2-2.6-1.9 -0.2-0.1-0.4-0.3-0.6-0.4 -0.8-0.7-1.7-1.3-2.4-2 0 0 0 0 0 0 0 0-0.1-0.1-0.1-0.1 -0.7-0.6-1.4-1.3-2.1-1.9 -0.2-0.2-0.4-0.4-0.5-0.5 -0.7-0.7-1.4-1.4-2-2.1 -1.8-1.6-3.3-3.9-4.7-5.9 -1.5-2.2-2.8-4.4-4-6.7 -7.1-13.9-7.6-31.5 1.5-44.6L84.4 36.7c-6.1 10.3-6.8 22.9-3.3 34.2 3.3 10.9 10.4 20.4 19.3 27.5 0.2 0.2 0.4 0.3 0.6 0.5 0.8 0.6 1.7 1.3 2.5 1.9 0.4 0.3 0.8 0.5 1.2 0.8 0.2 0.1 0.4 0.3 0.6 0.4 0.6 0.4 1.3 0.8 1.9 1.2 0.1 0.1 0.3 0.1 0.4 0.2 0.5 0.3 1 0.6 1.6 0.9 0.2 0.1 0.5 0.2 0.7 0.4 0.4 0.2 0.8 0.4 1.2 0.6 0.8 0.4 1.6 0.8 2.5 1.1 0.2 0.1 0.4 0.2 0.5 0.2 0.7 0.3 1.3 0.6 2 0.8 0.3 0.1 0.6 0.2 0.8 0.3 0.6 0.2 1.2 0.4 1.9 0.6 0.3 0.1 0.5 0.2 0.8 0.3 0.9 0.3 1.8 0.5 2.7 0.8 20.3 5.3 39.3-1.5 49.1-15.6C171.3 93.7 160.4 130 113.3 122.2z"/></g></symbol>

	<symbol viewBox="0 0 200 200" id="js"><title>js</title><path d="M100 0C44.8 0 0 44.8 0 100s44.8 100 100 100 100-44.8 100-100S155.2 0 100 0zM90 88c0 22.6 0 34.7-0.1 35.8 -1.3 10.6-6.3 17.8-14.9 21.3 -7.1 2.9-16.9 3.1-24.5 0.6 -7.2-2.4-13.1-7.6-16.6-14.5l-0.6-1.2 7.6-4.6c4.2-2.5 7.7-4.6 7.7-4.7 0.1 0 0.6 0.7 1.1 1.7 3.4 5.9 6.4 8 11.4 8 3.5 0 5.5-0.7 7.2-2.3 1.2-1.2 1.8-2.4 2.4-4.5l0.4-1.6 0.1-33.9L71.3 54h9.4H90V88zM159.4 138.9c-4.5 4.4-10.4 7-18.1 8.1 -3.1 0.4-9.2 0.4-12.4 0 -12.4-1.7-21.5-7.4-27.4-17.3 -0.8-1.2-0.9-1.6-0.7-1.8 0.3-0.3 15-8.7 15.1-8.7 0.1 0 0.6 0.7 1.3 1.6 4.5 6.7 10.1 9.7 17.6 9.7 4.4 0 8-1.2 10.3-3.5 0.7-0.7 1.4-1.7 1.7-2.3 1.5-3.1 0.8-7.1-1.5-9.6 -1.9-2-4.9-3.7-12.9-7.1 -5.9-2.5-9.3-4.2-11.8-5.7 -9.8-6-14.2-13.5-14.2-24.2 0-7.2 2.2-12.8 6.9-17.5 4.5-4.5 10.7-7.1 17.9-7.7 2.8-0.2 3.1-0.2 6.1 0 6 0.4 10.5 1.9 14.7 4.7 2.3 1.5 5.6 5 7.5 7.8 0.9 1.3 1.6 2.4 1.6 2.5 0 0.1-14 9.2-14.5 9.4 -0.2 0.1-0.6-0.5-1.2-1.4 -0.5-0.8-1.6-2.2-2.5-3 -2.4-2.5-4.9-3.4-8.6-3.4 -3.3 0-5.4 0.8-7.2 2.8 -1.3 1.4-1.8 2.8-2 4.9 -0.2 2.6 0.6 4.7 2.2 6.5 1.8 1.9 4.4 3.3 12.3 6.7 10.5 4.5 15.8 7.6 19.8 11.7 2.1 2.2 3.4 3.9 4.6 6.4 1.8 3.7 2.6 7.5 2.6 12.3C166.6 128.2 164.2 134.2 159.4 138.9z"/></symbol>

	<symbol viewBox="0 0 200 200" id="linkedin"><title>linkedin</title> <path fill="#1C86BC" d="M100,0C44.8,0,0,44.8,0,100s44.8,100,100,100s100-44.8,100-100S155.2,0,100,0z M65,161c-8,0-16,0-25,0
	c0-27,0-54,0-81c9,0,17,0,25,0C65,107,65,134,65,161z M52.5,67.8c-8.1-0.1-14.4-6.6-14.4-14.7c0.1-8.1,6.5-14.6,14.5-14.7
	c8.2,0,14.7,6.6,14.5,15C67.1,61.7,60.7,67.9,52.5,67.8z M161.7,162c-8.601,0-16.5,0-24.5,0c-1.3-2-0.7-4.2-0.7-6.1
	c-0.2-13.801,0-27.801-0.5-41.601c-0.4-9.6-4.7-14.2-12.6-14.5c-9-0.4-14.301,4.3-15.7,13.8c-1.4,9.601-0.5,19.101-0.7,28.7
	c-0.1,6.101,0,12.601,0,18.601c-8.3,0.1-16,0.1-25,0.1c0-27,0-54,0-81c8,0,15.7,0,23.7,0c1,3,0.1,6.7,0.7,11.1
	c5.199-7.1,11.1-11.6,19-12.8c17.8-2.7,32.399,4.1,35,23C163.2,121.3,161,141,161.7,162z"/> </symbol>

	<symbol viewBox="0 0 200 200" id="php"><title>php</title><path d="M153.3 88h-8.8l-4.8 24h7.8c5.2 0 9-0.8 11.6-2.8 2.5-1.9 4.2-5.1 5.1-9.7 0.8-4.4 0.5-7.3-1.2-9.1C161.4 88.7 158.2 88 153.3 88z"/><path d="M53.2 88h-8.8l-4.8 24h7.8c5.2 0 9-0.8 11.6-2.8 2.5-1.9 4.2-5.1 5.1-9.7 0.8-4.4 0.5-7.3-1.2-9.1C61.3 88.7 58.1 88 53.2 88z"/><path d="M100 0C44.8 0 0 44.8 0 100s44.8 100 100 100 100-44.8 100-100S155.2 0 100 0zM69.3 115c-2.6 2.4-5.4 4.3-8.5 5.3C57.6 121.3 53.6 122 48.8 122H37.8l-3 15H21.9l11.4-59h24.7c7.4 0 12.8 2.1 16.2 6 3.4 3.9 4.4 9.4 3.1 16.4 -0.6 2.9-1.5 5.6-2.8 7.9C73.2 110.8 71.5 113 69.3 115zM106.7 122l5.1-26.2c0.6-3 0.4-5-0.6-6.1 -1-1.1-3.1-1.7-6.4-1.7H94.6l-6.6 34H75.3l11.4-59h12.7l-3 15h11.3c7.1 0 12.1 1.4 14.8 3.9 2.7 2.5 3.5 6.8 2.4 12.4L119.7 122H106.7zM174.6 108.4c-1.3 2.4-3.1 4.6-5.2 6.5 -2.6 2.4-5.4 4.3-8.5 5.3 -3.1 1-7.1 1.7-12 1.7h-11l-3 15h-12.8l11.4-59h24.7c7.4 0 12.8 2.1 16.2 6 3.4 3.9 4.4 9.4 3.1 16.4C176.9 103.3 176 106 174.6 108.4z"/></symbol>

	<symbol viewBox="0 0 200 200" id="rails"><title>rails</title><g id="rails-Layer_2"><path d="M82 158c2 0 4 0 6 0 0-3 0-5 0-7 -2 0-4 0-6 0C82 153 82 156 82 158z"/><path d="M58 156c1 0 3 0 5 0 0-2 0-3 0-4 -2 0-4 0-5 0C58 153 58 154 58 156z"/><path d="M100 0C44.8 0 0 44.8 0 100s44.8 100 100 100 100-44.8 100-100S155.2 0 100 0zM142.1 35.3c2.3 1.7 4.4 3.2 6.6 4.8 -0.4 0.6-0.7 1.2-1.2 1.9 -1.8-0.9-3.5-1.8-5.1-2.8 -0.4-0.2-0.5-1-0.5-1.6C141.9 36.9 142 36.3 142.1 35.3zM121.9 29.4c0.3 0 0.7 0.6 0.8 0.9 0.3 1.3 0.4 2.7 0.7 4.5 -2.6 0-5 0-7.4 0 -0.4 0-1-0.5-1-0.8 -0.4-1.6-0.7-3.2-1-5C116.7 29.1 119.3 29.2 121.9 29.4zM96.8 32.2c1.7 1.9 3.2 3.6 4.9 5.5 -2.2 1.3-4.4 2.6-6.7 3.9 -1.6-1.9-3.2-3.9-4.9-5.9C92.4 34.5 94.6 33.4 96.8 32.2zM74.2 49.7c2.4 1.6 4.7 3.1 7.1 4.7 -1.9 2.2-3.6 4.3-5.5 6.5 -2.4-1.6-4.8-3.2-7.3-4.9C70.4 53.9 72.2 51.9 74.2 49.7zM56.1 76.7c3.1 1.2 6.1 2.4 9.3 3.7 -0.9 2.6-1.8 5.2-2.8 7.9 -0.4-0.1-0.7-0.1-0.9-0.2 -2.8-0.9-5.6-1.8-8.6-2.8C54.1 82.4 55.1 79.6 56.1 76.7zM46 110.8c3.5 0.3 6.9 0.5 10.5 0.8 -0.6 3.5-1.2 7-1.8 10.6 -3.3-0.4-6.5-0.8-9.9-1.2C45.2 117.6 45.6 114.3 46 110.8zM71.6 168.4c-1.5 0-3.1-0.2-4.6 0 -3.1 0.4-5.5-0.5-7.3-3.1 -0.6-0.8-1.5-1.5-2.2-2.3 -0.1 0.1-0.4 0.1-0.4 0.2 0 1.9 0 3.7 0 5.7 -2 0-4 0-6 0 0-8 0-15.9 0-24.1 5 0.2 9.5-0.5 14.1 0.7 4.1 1.1 6 4.5 5.1 9.2 -0.6 3-2 5.4-5.8 6.2 1.5 1.3 2.7 2.4 3.9 3.5 1.2 1.1 2.3 2.2 3.5 3.3C71.7 168.1 71.7 168.2 71.6 168.4zM94.5 166.8c0 0.4-0.1 1.2-0.1 1.2 -2 0-4.4 0-6.4 0 0-1 0-2 0-4 -2 0-4 0-6 0 0 2 0 3 0 4 -2 0-3.9 0-6 0 -0.1 0-0.1-0.4-0.1-0.7 0-5.2-0.1-10.4 0-15.6 0.1-4.5 2.1-6.5 6.6-6.6 2.4 0 4.8 0 7.2 0.4 3.4 0.6 4.8 2.4 4.9 5.8C94.6 156.5 94.5 161.6 94.5 166.8zM107 168c-2 0-4 0-6 0 0-8 0-15 0-23 2 0 4 0 6 0C107 153 107 160 107 168zM112.4 81.1c0.2 0.2 0.3 0.8 0.2 1.1 -0.4 1.9-0.9 3.7-1.4 5.9 -2.4-2.1-4.6-4-6.9-5.9 0.9-1.8 1.7-3.4 2.6-5.3C108.9 78.3 110.7 79.7 112.4 81.1zM110.8 63.8c1.4-1.3 2.7-2.5 4.2-3.9 1.3 2 2.5 3.8 3.7 5.7 0.2 0.2 0.1 0.7 0 1 -0.6 1.2-1.3 2.3-2.1 3.7C114.7 68.1 112.8 66.1 110.8 63.8zM111.4 99.3c0.3 0.2 0.5 0.7 0.5 1 0.1 1.9 0.2 3.7 0.3 5.9 -2.8-1.2-5.4-2.3-8-3.5 -0.2-0.1-0.5-0.5-0.5-0.7 0.1-2.1 0.2-4.2 0.4-6.6C106.7 96.8 109.1 98.1 111.4 99.3zM114.7 120.8c0.4 0 0.9 0.3 1.1 0.6 1.2 2.3 2.3 4.7 3.5 7.3 -2.7-0.2-5.2-0.3-7.6-0.4 -3.1-0.2-3.1-0.3-3.9-3.3 -0.4-1.3-0.7-2.7-1.2-4.2C109.5 120.8 112.1 120.8 114.7 120.8zM130 168c-6 0-11 0-16 0 0-7 0-15 0-23 2 0 4 0 6 0 0 6 0 12 0 17 4 0 7 0 10 0C130 164 130 166 130 168zM126 58.4c-0.9-1.6-1.7-3.1-2.6-4.7 1.9-0.5 3.6-0.9 5.4-1.4C130.4 55 130 55.8 126 58.4zM151.2 164.3c-0.3 2.2-1.9 3.7-4.1 3.9 -3 0.3-6.2 0.3-9.2 0.4 -1.5 0-2.8 0-4.8 0 0-1.9 0-3.7 0-5.6 3 0 6 0 8.9 0 0.8 0 1.7 0 2.4-0.3 0.5-0.2 0.9-0.8 1.3-1.2 -0.4-0.4-0.7-1-1.2-1.2 -0.7-0.2-1.6-0.2-2.4-0.3 -0.9-0.1-1.8-0.1-2.7-0.2 -5.7-0.9-8.4-6.7-5.4-11.7 1.2-2.1 3.2-2.9 5.4-3 3.6-0.1 7.7 0 10.7 0 0 2.1 0 3.8 0 5.8 -3 0-7 0-10 0 0 1 0 1.8 0 2.7 1 0 2.1 0 3.1 0 1.1 0 2.1 0 3.2 0.1 2.8 0.3 4.5 1.7 4.9 4.4C151.5 160.2 151.4 162.3 151.2 164.3zM141 54c0-1 0-1.8 0-3 2 0.4 3 0.8 5 1.2 0 0.9 0 1.6 0 2.4C144 54.4 143 54.2 141 54zM152.8 53.6c-2.8-2.6-5.9-4.3-9.5-5.2 -5.5-1.3-10.7-0.5-15.8 1.8 -13.8 6.2-22 16.9-25.1 31.5 -2.3 11-1.2 22 1.1 32.9 1.6 7.7 3.8 15.2 6.7 22.5 0.1 0.2 0.2 0.9 0.3 0.9 -18 0-35.8 0-53.9 0 0-4-0.2-7.5 0-11.2 1.5-20.5 8.2-39.3 18-57.3 4.4-8.1 9.4-15.8 16.4-21.9 8.6-7.5 18.5-11.7 29.9-12.2 5.7-0.3 11.3 1 16.6 3.1 6 2.5 11.5 5.9 16.4 10.2 0.4 0.4 0.8 0.8 1.3 1.2C154.4 51.2 153.6 52.3 152.8 53.6z"/></g></symbol>



	<symbol viewBox="0 0 200 200" id="sass"><title>sass</title><g id="sass-Layer_2"><path d="M85.1 108c-1.5 1.7-4.1 6-5.3 9.6 -2.4 7.2-1.4 14.5 0.3 15 2 0.5 5.2-9.1 6.7-12.9 1-2.3 4.7-12.8 3.9-14.2C90.2 104.4 87.5 105.3 85.1 108z"/><path d="M58.5 123.2c0 0-0.1 0.1-0.3 0.2 -1.1 0.7-2.1 1.3-2.7 1.7 -2.8 1.8-7.1 4.7-10.4 7.8 -5.4 5.1-6.5 12.3-3.7 13.9 2.6 1.6 8.9-0.3 13.3-5.1 4.7-5.1 6.6-11.5 4.6-18.8C58.9 123 58.7 123.1 58.5 123.2z"/><path d="M112.3 132.3c0 0-0.5 0.5-0.3 0.6 0.3 0.2 1.1-0.1 1.8-0.4 1.9-1.2 6.2-4.1 6.2-8.4v-0.4c-1 1.3-2.1 2.4-2.8 3.3C115.8 128.7 112.3 132.3 112.3 132.3z"/><path d="M135.3 122.8c-1.6 3.5-1.7 4.6-1.2 5 2.3-0.8 6.2-2.9 6.2-8.3 0-0.8-0.2-1.7-0.4-2.6C137.4 119.1 135.9 121.4 135.3 122.8z"/><path d="M100 0C44.8 0 0 44.8 0 100s44.8 100 100 100 100-44.8 100-100S155.2 0 100 0zM171.8 133.4c-0.8 0.1-1.2 0.1-1.4-0.5 -0.1-0.4 0.2-0.6 1.1-1.2 0.9-0.6 3.7-2.5 4.2-6 0.5-3.5-2.1-11.8-15.5-13.4 -6.2-0.8-11.1 0.1-14.9 1.7 0.7 1.8 1.2 3.7 1.3 5.6 0.1 4.2-2.7 7.3-5.7 9.5 -1.7 1.3-3.6 2.2-5.2 2.7 -1.3 0.5-2.9 1.1-4.1 0.8 -2.6-0.5-4-2.9-2.2-8 1-2.8 3.8-7 8.2-10.6 -1-2.1-2.2-4.2-2.7-6.2 -1.1-3.8-1.5-6.2-1.5-6.2s-3.7 7.6-8.4 14.6c-0.3 0.4-0.5 0.8-0.8 1.2 0.9 2.2 1.7 4.4 1.8 6.8 0.2 4.2-1.7 7.4-4.7 9.6 -1.7 1.2-3.4 2-4.9 2.6 -1 0.4-2.9 1.1-5.6 1.3 -1.5 0.1-3 0-3.8-0.6 -1.1-0.8-1.2-1.9-0.7-3.3 0.5-1.2 4.1-5.4 7.2-9 0.8-1 1.7-2 2.4-3l0 0c0 0 0.5-0.7 1.4-2 -1.1-2.4-2.6-4.9-3.2-7.2 -1.1-3.8-1.5-6.2-1.5-6.2s-3.8 9.6-7.7 17.2c-3 5.9-5 9.5-6 11.1v0.1c0 0 0.1 0.2-0.1 0.6 -0.1 0.2 0.1 0.3 0.1 0.3v0c-1 1.5-3.5 4.4-5.7 4.4 -6.2 0-4-12.5-4-12.5s-1.8 4.6-3.9 8.6c-1.7 3.3-3.2 6-6.5 6 -0.9 0-2.4 0-3.7-1.2 -2.9-2.7-5-9.5-4.6-14.8 0.4-4.5 1-7.6 2-10.2 -1.7 0.9-3.7 2-5.6 3.2l-3.1 1.8 0.1 0.2c2.6 4.9 3.2 15.6-2.3 23.9 -5.6 8.3-15.8 13.3-25.9 10.5 -3.2-0.9-8.1-7.6-3.9-16.9 3.7-8.2 18.6-16 22.5-17.9 0.3-0.2 0.7-0.4 1.1-0.6 -7.8-6.8-27.3-16-30-30.2 -0.8-4 1.1-13.5 12.8-24.4 9.9-9.2 23.5-16.2 36.2-20.8 21.2-7.5 43.7-3.1 47.2 10.5 3.4 13.3-8.2 29.2-23 35 -13.2 5.1-24.1 4.3-28.6 2.8 -5.1-1.7-8.1-5-8.8-6.9 -0.3-0.8-0.8-2 0-2.4 0.5-0.3 0.7-0.2 2 1.2 1.2 1.4 6.1 5 15.4 3.9 24.4-2.7 39.2-21.7 34.5-31.9 -3.3-7.1-22.1-10.4-45.6 1.4C38.8 72.1 37.2 83.9 36.9 88.3c-0.7 12.3 15.2 18.8 23.8 28l0.3 0.4c1.6-0.9 3.3-1.8 5-2.7 4.3-2.4 8.4-4.6 10.3-5.6 3-4.4 9.2-9.3 13.6-9.3 7.1 0 4.7 10.2 4.7 10.2s0.2-0.5 0.3-0.5c0.2 0 1-1.4 3.2-0.5 2.3 0.8 1.7 2.4 1.7 2.6 0 0.3-2.7 9.4-3.8 15.2 -0.5 2.8-0.3 4.8-0.1 4.8 0.2 0 1-0.7 1-1.5v0c0 0 0.4-0.6 0.9-1.6 0.1-0.1-0.5 1 0.1-0.2s1.5-3 2.5-5.2c2-4.4 9.5-21.1 10.1-22.9 0.7-1.9 1-3.8 1.3-4.6 0.3-0.8 3-1.4 6.1-1.4s3.4 1.4 3.4 1.6c0 0.3-1.5 4-1.8 6.5 -0.3 2.6 0 3.9 0.3 6.1 0.2 1.4 1.1 3.2 2.1 5.3 3.2-5.3 8.9-15.3 9.4-18.1 0.4-1.9 1-3.8 1.3-4.6 0.3-0.8 3-1.4 6.1-1.4 3.1 0 3.4 1.4 3.4 1.6 0 0.3-1.5 4-1.8 6.5 -0.3 2.6 0 3.9 0.3 6.1 0.2 1.9 1.7 4.4 3.1 7.2 3.9-1.9 8.6-3.2 13.9-3.2h0c13.9-0.1 21.7 8.9 21.4 17.2C178.8 130.5 172.9 133.2 171.8 133.4z"/></g></symbol>

	<symbol viewBox="0 0 200 200" id="twitter"><title>twitter</title> <path fill="#63CCF0" d="M100,0C44.771,0,0,44.771,0,100c0,55.229,44.771,100,100,100c55.229,0,100-44.771,100-100
	C200,44.771,155.229,0,100,0z M159.706,68.491c-2.299,1.847-3.302,3.74-3.269,6.723c0.406,36.597-26.342,77.269-72.77,82.379
	c-18.914,2.08-36.752-1.358-53.164-11.899c14.434,0.158,27.801-2.866,40.517-12.418c-12.663-2.192-21.4-8.028-26.241-19.896
	c3.761-0.248,6.79-0.446,9.819-0.647C42.4,106.693,35.181,97.649,34.17,83.737c4.191,0.367,7.331,3.048,11.627,2.079
	C34.459,74.989,31.16,62.746,38.35,47.548c16.064,18.649,35.497,28.603,58.982,30.45c1.688-2.227,0.713-4.449,0.757-6.514
	c0.251-11.695,5.388-20.599,15.665-25.991c10.479-5.498,21.158-4.873,30.578,2.318c4.109,3.138,7.502,3.369,11.758,1.526
	c3.166-1.372,6.395-2.612,10.148-4.136c-1.113,6.554-5.906,10.094-9.891,14.68c4.705,0.046,8.475-2.017,13.146-2.679
	C167.059,62.359,163.409,65.517,159.706,68.491z"/> </symbol>

	<symbol viewBox="0 0 200 200" id="react"><title>react</title> <path d="M100,200 C44.771525,200 0,155.228475 0,100 C0,44.771525 44.771525,0 100,0 C155.228475,0 200,44.771525 200,100 C200,155.228475 155.228475,200 100,200 Z M171.109848,85.758241 C166.13403,81.6871171 159.235737,78.011797 151.036946,75.1846276 C149.37834,74.6191937 147.66319,74.0820315 145.891498,73.5731411 C146.193062,72.3857299 146.456932,71.2265905 146.683105,70.0957227 C150.641142,50.9557862 147.813973,36.0566036 139.389008,31.1938723 C135.204798,28.8190501 129.607003,28.8190501 123.04797,31.1938723 C117.110914,33.3990644 110.467067,37.5832751 103.823219,43.2941572 C102.503873,44.4250249 101.184528,45.6312839 99.8651819,46.912934 C99.0170311,46.083631 98.1500325,45.2731757 97.2641861,44.4815683 C82.6759927,31.4765893 68.3705162,26.5007712 59.9455517,31.3917742 C55.7896129,33.9362266 52.9624436,38.7424145 51.7467608,45.527621 C50.7007082,52.0301105 51.0116968,59.6634678 52.6797267,68.4276928 L54.0933113,73.7993146 C52.2085318,74.3647485 50.3237523,75.0244213 48.4389728,75.7783332 C30.9105233,81.4326719 20.4499969,90.7623308 20.4499969,100.09199 C20.4499969,104.898178 23.5598832,109.987082 28.9315048,114.79327 C34.0204095,119.316741 41.3145062,122.992062 49.7677423,126.017133 L54.0084962,127.148 C53.4430624,129.108171 52.9718675,130.992951 52.5949116,132.802339 C49.2023085,150.811408 52.0294777,164.325278 60.0869102,168.990107 C62.3486456,170.262333 64.8930979,170.856039 67.7202672,170.856039 C70.5474365,170.856039 73.6573227,170.290605 76.9651107,169.04665 C83.1848832,166.784915 90.2528063,162.544161 96.8683824,156.607105 C97.9992501,155.664715 99.1301179,154.665782 100.260986,153.610306 L104.501739,157.426984 C114.679549,166.191209 124.574641,170.799495 132.207998,170.799495 C135.035168,170.799495 137.57962,170.234062 139.728269,168.87702 C143.969023,166.332568 146.909279,161.441565 148.209776,154.401913 C149.425459,147.899424 149.171014,139.700632 147.418169,130.936407 C147.1543,129.579366 146.843311,128.165781 146.485203,126.695653 L149.482003,125.847503 C168.028233,119.712545 179.449997,109.817452 179.449997,100.120261 C179.449997,95.3140735 176.622828,90.4230705 171.251206,85.9844146 L171.109848,85.758241 Z M108.34669,48.4396054 C114.283745,43.2376138 120.164257,39.4774786 125.39452,37.5832751 C129.917991,35.8869735 133.678126,35.6890716 135.996405,37.0178412 C138.456042,38.4314259 140.237159,42.021931 141.08531,47.0825641 C142.103091,53.0196198 141.735559,60.4550752 140.039257,68.6821381 L139.473823,71.8768394 C132.488397,70.279883 125.405024,69.1465434 118.270054,68.4842362 C114.215657,62.6355972 109.776621,57.063191 104.982358,51.803937 L108.657678,48.4678771 L108.34669,48.4396054 Z M67.3527352,108.092879 C68.7474721,110.806962 70.2364479,113.539892 71.8196627,116.29167 C73.4405731,119.062296 75.099179,121.776379 76.7954806,124.433918 C71.8854984,123.895882 67.0067726,123.103207 62.1790154,122.059096 C63.5926001,117.535625 65.2889016,112.842524 67.3244635,108.064607 L67.3527352,108.092879 Z M67.2961918,92.0911004 C65.3171733,87.4262709 63.6208718,82.8179849 62.2638305,78.3510573 C66.7873014,77.3332763 71.5934891,76.5133972 76.6823938,75.8914199 C74.9860923,78.4924158 73.355758,81.149955 71.791391,83.8640375 C70.227024,86.5969679 68.7192004,89.3298983 67.2679201,92.0628287 L67.2961918,92.0911004 Z M70.9149685,100.063718 C72.9788021,95.7664206 75.2405375,91.4691231 77.7001748,87.2566408 C80.1315403,83.0158867 82.7042644,78.9164912 85.3335318,74.9867257 C90.1397196,74.6474654 94.9459073,74.4212919 99.8369102,74.4212919 C104.727913,74.4212919 109.449286,74.6191937 114.255473,74.9867257 C116.799926,78.8599478 119.344378,82.9028 121.888831,87.2000974 C124.339044,91.5350904 126.600779,95.7758445 128.674037,99.9223595 C126.695018,104.163114 124.150566,108.488683 121.888831,112.78598 C119.627095,117.083278 116.799926,121.267488 114.255473,125.112439 C109.449286,125.451699 104.643098,125.621329 99.5541932,125.621329 C94.4652886,125.621329 89.6591008,125.479971 85.1356299,125.168982 C82.3084607,121.210945 79.7640083,117.083278 77.219556,112.870795 C74.6751036,108.630041 72.4133682,104.332744 70.4343497,100.063718 L70.9149685,100.063718 Z M99.8651819,114.086478 C107.699723,114.070871 114.039687,107.709828 114.029287,99.8752776 C114.018888,92.0407275 107.66206,85.696537 99.827505,85.7017289 C91.99295,85.7069208 85.644536,92.0595308 85.6445204,99.8940878 C85.6445204,103.658144 87.1397858,107.268034 89.8013751,109.929623 C92.4629645,112.591213 96.0728544,114.086478 99.8369102,114.086478 L99.8651819,114.086478 Z M127.854158,116.178583 C129.493916,113.38911 131.039435,110.590212 132.490715,107.78189 C134.525019,112.33984 136.318039,117.001693 137.862337,121.748107 C132.96239,122.853719 128.008115,123.703023 123.019698,124.292559 L127.825886,116.206855 L127.854158,116.178583 Z M132.434172,92.0628287 C130.982892,89.3487461 129.45622,86.5969679 127.854158,83.8074942 C126.289791,81.0934116 124.687728,78.4547202 123.04797,75.8914199 C128.080331,76.5133972 132.943062,77.361548 137.466533,78.4358724 C135.999672,83.0698584 134.301235,87.6273302 132.377629,92.0911004 L132.434172,92.0628287 Z M99.9217253,56.6101249 C103.219755,60.2204366 106.333597,63.9947902 109.251384,67.9188023 C106.141498,67.7303244 103.00334,67.6360854 99.8369102,67.6360854 C96.6704806,67.6360854 93.4663554,67.7303244 90.2245346,67.9188023 C93.3344208,63.8194068 96.444307,60.0027281 99.5541932,56.6101249 L99.9217253,56.6101249 Z M58.4754237,46.7150321 C59.3235745,41.9088442 61.019876,38.601056 63.3381548,37.2440148 C65.7977921,35.8304301 69.7841008,36.0283319 74.6468319,37.8094486 C80.2163554,39.9298256 86.5209429,43.9726778 92.7407153,49.5704732 C93.5888661,50.2489938 94.3522018,50.9840579 95.1438092,51.7473936 C90.2666056,57.0946045 85.7519379,62.7615516 81.62994,68.7104098 C74.495554,69.3773381 67.4124837,70.5106294 60.4261705,72.103013 C60.011519,70.5951893 59.6534109,68.9931267 59.3518462,67.2968251 C57.8251748,59.6634678 57.5141861,52.5955444 58.5036954,47.2239226 L58.4754237,46.7150321 Z M55.5634393,120.419337 C54.2440937,120.042381 52.9435958,119.637154 51.6619457,119.203655 C44.0285887,116.574387 37.5826428,113.153512 33.143987,109.308562 C29.3273085,106.057317 27.2069315,102.721257 27.2069315,99.8940878 C27.2069315,92.8827078 38.7983255,85.758241 50.2200894,81.7153888 C51.916391,81.149955 53.7823227,80.5845211 55.6765261,80.0190872 C57.8125664,86.8737795 60.4003809,93.5794303 63.4229699,100.09199 C60.4302649,106.700551 57.8801903,113.50075 55.7896129,120.447609 L55.5634393,120.419337 Z M92.3166399,151.34857 C78.9724009,163.02478 68.0029841,165.484417 63.4229699,162.939965 C57.4859144,159.406003 56.9204806,145.807318 59.182216,133.904935 L60.5958006,128.618129 C67.6784134,130.14492 74.857432,131.183989 82.0822871,131.728015 C86.3198111,137.646735 90.9478152,143.275899 95.9354166,148.577944 L93.0517039,151.34857 L92.3166399,151.34857 Z M100.119627,143.715213 C96.727024,140.209523 93.6171378,136.364573 90.5072516,132.236905 C93.5228988,132.349992 96.632785,132.415959 99.8369102,132.434807 C103.041035,132.434807 106.245161,132.359416 109.449286,132.208634 C106.539272,136.183908 103.425211,140.005712 100.119627,143.65867 L100.119627,143.715213 Z M136.024677,162.939965 C129.804904,166.502198 117.930794,160.112795 108.601135,152.196721 C107.281789,151.065853 105.962444,149.840747 104.643098,148.521401 C109.450361,143.19356 113.88983,137.545044 117.930794,131.614928 C125.159919,131.002863 132.338791,129.897695 139.41728,128.30714 L140.265431,131.98246 C143.658034,149.228193 140.265431,159.971437 135.74196,162.798606 L136.024677,162.939965 Z M147.078909,119.28847 L144.393098,120.13662 C142.181844,113.241311 139.499131,106.506191 136.363937,99.9789029 C139.439149,93.5652721 142.083695,86.9539064 144.280011,80.1887174 C145.976313,80.6410645 147.578375,81.1311072 149.086199,81.6588454 C156.719556,84.2032979 162.939328,87.3131842 167.180082,90.9885043 C170.855402,94.0983906 173.117138,97.2082769 173.117138,99.7527294 C173.117138,104.841634 165.201064,113.323142 147.672614,118.977481 L147.078909,119.28847 Z"></path> </symbol>

	<symbol viewBox="0 0 200 200" id="gulp"><title>gulp</title>
            <path d="M133.274513,15.1724978 L133.218697,15.125 L113.02943,36.481328 L109.031118,52.7289548 C106.021904,52.6282144 103.011205,52.5781694 100.000302,52.578841 C78.7372403,52.578841 61.5,54.999992 61.5,57.9859575 C61.5,60.972225 78.7372403,63.3930739 100.000302,63.3930739 C121.263062,63.3930739 138.5,60.972225 138.5,57.9859575 C138.5,55.7871077 129.15146,53.8945264 115.731449,53.0497211 L119.175028,39.4503792 L138.244853,19.4021856 L137.784463,19.0104007 C138.030979,19.0061601 138.227627,18.9347024 138.353358,18.7887256 C138.829932,18.2353674 138.106658,16.8199543 136.737935,15.6277572 C135.368612,14.4361642 133.872183,13.918448 133.394707,14.4718063 C133.25177,14.6376683 133.216685,14.8809794 133.274513,15.1724978 Z M100,200 C44.771525,200 0,155.228475 0,100 C0,44.771525 44.771525,0 100,0 C155.228475,0 200,44.771525 200,100 C200,155.228475 155.228475,200 100,200 Z M120.906642,180.599617 L122.547262,153.286158 L127.077332,145.55998 C127.077332,145.55998 116.766851,149.77404 99.5054258,149.77404 C82.2436987,149.77404 72.0895103,145.637907 72.0895103,145.637907 L77.1664534,154.066025 L78.962459,180.599617 C78.962459,183.444228 88.3518107,185.75 99.9347017,185.75 C111.516988,185.75 120.906642,183.444228 120.906642,180.599617 Z M120.245058,113.234476 C119.795828,108.889768 129.699007,102.597432 127.157481,102.395963 C121.686197,102.710399 118.963176,108.841137 116.210407,115.262147 C115.201669,117.61543 111.749965,127.650183 109.486089,126.414793 C107.222815,125.180007 112.420353,116.928263 113.877119,112.02778 C112.19619,113.266795 106.031681,118.081193 104.443001,113.572471 C101.888855,115.752981 96.4310934,116.934304 97.046793,111.206502 C95.6879869,113.625934 92.6383355,117.003776 88.9777922,115.600143 C84.1705873,113.757327 91.7633148,98.3644827 93.6512801,99.141057 C95.5395459,99.9173293 93.2702615,103.423845 92.6758965,104.785493 C91.3687742,107.782145 89.8588227,111.549331 90.8675604,112.320468 C92.5956662,113.641641 97.2983014,107.322423 97.4028712,107.183479 C98.2823992,106.015446 100.788168,98.3738463 102.807746,99.2513058 C104.827325,100.128765 97.7703678,110.21819 100.408952,112.220489 C100.941116,112.624634 103.118451,111.971297 104.443001,110.530813 C105.299993,109.598984 105.005214,107.535067 107.861952,100.686956 C110.718691,93.8391479 113.264724,85.3110272 115.223905,85.9607399 C117.183086,86.6101505 115.568264,90.9871781 114.865423,92.61886 C111.567268,100.277073 105.864009,112.929102 108.553676,111.971297 C111.243343,111.013793 112.643916,110.957612 115.277693,107.85947 C117.911469,104.761328 117.790072,99.6581691 119.545522,99.7666056 C121.301573,99.8753441 121.006794,101.511557 120.581003,102.757519 C122.308808,100.770021 128.771101,96.5841915 130.331234,100.729848 C132.179234,105.637882 121.085522,112.727331 123.851513,112.365776 C126.548392,112.013282 130.917485,109.23169 132.782914,106.702613 L137.917651,60.2996567 C137.917651,60.2996567 132.750762,64.5978489 99.8791917,64.5978489 C67.007321,64.5978489 62.375,60.3890639 62.375,60.3890639 L66.7464976,102.743927 C69.0668649,96.1148035 74.576911,82.7061355 83.2622124,83.1561921 C87.213027,83.360983 92.4871901,91.0080196 87.9693549,91.2671798 C86.0570501,91.3765224 85.8629349,87.4501556 83.5984583,86.8735394 C81.9644053,86.4573125 79.6894116,87.7926819 78.2191245,89.2395084 C75.2869638,92.1240997 68.9806249,103.505096 69.8138777,109.179133 C70.8755014,116.412963 79.7444009,106.665461 81.2450373,103.771506 C82.3018532,101.732961 83.0158124,95.6931397 85.3271651,96.3268436 C87.6388183,96.9605476 85.1255377,103.193681 83.4500173,108.70461 C81.5677613,114.892738 80.5782548,121.420372 78.2191245,120.669472 C75.8596937,119.919176 79.7029336,111.93052 79.5638077,110.530813 C77.3462072,112.587482 73.2607741,117.794244 68.0340881,115.217141 L70.748996,141.519178 C70.748996,141.519178 77.9646113,147.25 99.7010024,147.25 C121.437394,147.25 128.920143,141.608585 128.920143,141.608585 L132.291316,111.144582 C129.533138,113.844318 120.803965,118.638478 120.245058,113.234476 Z"></path>
	</symbol>

	<symbol viewBox="0 0 200 200" id="redux"><title>redux</title>
		<path d="M100,200 C44.771525,200 0,155.228475 0,100 C0,44.771525 44.771525,0 100,0 C155.228475,0 200,44.771525 200,100 C200,155.228475 155.228475,200 100,200 Z M128.162588,119.800845 C133.55033,119.243079 137.637759,114.598455 137.451837,109.024221 C137.266486,103.450557 132.621291,98.9912839 127.047627,98.9912839 L126.676354,98.9912839 C120.916198,99.1772057 116.457495,104.007752 116.643417,109.767338 C116.829339,112.554455 117.943729,114.969728 119.615885,116.641884 C113.299105,129.090665 103.638012,138.194562 89.1463719,145.812226 C79.2993569,151.014616 69.0810686,152.872694 58.8627802,151.572382 C50.5019995,150.457421 43.9992968,146.741835 39.9112971,140.609836 C33.96636,131.505938 33.4091648,121.658353 38.4256332,111.811338 C41.9558673,104.750869 47.5289607,99.5484791 51.0591948,96.947284 C50.3160777,94.5320107 49.2011168,90.4445813 48.6439215,87.4721128 C21.7040718,106.980791 24.4911888,133.364016 32.6660476,145.812226 C38.7969066,155.102616 51.2451167,160.862201 64.9936392,160.862201 C68.7092248,160.862201 72.4248105,160.490358 76.1409665,159.561889 C99.9224258,154.916694 117.9443,140.795758 128.162588,119.800845 Z M160.862023,96.7619324 C146.741657,80.2257226 125.933237,71.1218248 102.151777,71.1218248 L99.1793087,71.1218248 C97.5071525,67.7775126 93.9769184,65.5475908 90.0754109,65.5475908 L89.7035671,65.5475908 C83.9445519,65.7335127 79.4858491,70.5640592 79.6712006,76.3242151 C79.8571225,81.8978788 84.5017472,86.3571519 90.0754109,86.3571519 L90.4466843,86.3571519 C94.5341137,86.17123 98.0643478,83.5700349 99.5505821,80.0398008 L102.894894,80.0398008 C117.015261,80.0398008 130.391939,84.1272302 142.468876,92.1167375 C151.758125,98.2481667 158.44675,106.237674 162.162336,115.898767 C165.320726,123.702352 165.134804,131.320016 161.790492,137.823289 C156.588672,147.670304 147.856618,153.058616 136.337447,153.058616 C128.905705,153.058616 121.845807,150.828694 118.129651,149.156538 C116.086222,151.014616 112.370066,153.987085 109.76887,155.845733 C117.758378,159.561319 125.933237,161.605319 133.736252,161.605319 C151.572204,161.605319 164.763531,151.757733 169.779999,141.910718 C175.167741,131.134094 174.795897,112.554455 160.862023,96.7619324 Z M66.4798734,122.958665 C66.6657953,128.532899 71.31042,132.991602 76.8840836,132.991602 L77.2559274,132.991602 C83.0155129,132.80625 87.4742157,127.975133 87.2882939,122.215548 C87.1029423,116.641314 82.4577473,112.182611 76.8840836,112.182611 L76.5128102,112.182611 C76.1409665,112.182611 75.5832009,112.182611 75.2124978,112.367963 C67.5948343,99.7338307 64.4364439,85.9853082 65.5514047,71.1212545 C66.2939516,59.9733568 70.0101076,50.3116934 76.5128102,42.3221862 C81.9005521,35.4476398 92.3047623,32.1033275 99.3652305,31.917976 C119.05869,31.5461322 127.418901,56.071279 127.976666,65.9188642 C130.391939,66.4760595 134.479369,67.7769422 137.266486,68.7059812 C135.036564,38.6071708 116.457495,23 98.6221134,23 C81.9005521,23 66.4798734,35.0769367 60.3484442,52.9134589 C51.8023119,76.6954885 57.3759756,99.5484791 67.7801858,117.570923 C66.8517171,118.871236 66.2939516,120.915235 66.4798734,122.959235 L66.4798734,122.958665 Z"></path>
	</symbol>

	<symbol viewBox="0 0 200 200" id="es6"><title>es6</title>
		<path d="M100,200 C44.771525,200 0,155.228475 0,100 C0,44.771525 44.771525,0 100,0 C155.228475,0 200,44.771525 200,100 C200,155.228475 155.228475,200 100,200 Z M82,124.256357 L112.724615,124.256357 L112.724615,116.004238 L91.4887957,116.004238 L91.4887957,103.217443 L111.068215,103.217443 L111.068215,94.965324 L91.4887957,94.965324 L91.4887957,82.9957623 L112.724615,82.9957623 L112.724615,74.7436435 L82,74.7436435 L82,124.256357 Z M153.765834,110.800283 C153.765834,100.912148 153.087895,98.7563565 139.60836,95.5594641 C130.948156,93.478037 130.797503,93.3293083 130.797503,87.679167 C130.797503,83.3675841 131.927402,82.0290258 138.328592,82.0290258 C142.695965,82.0290258 147.590624,82.6239406 151.732801,83.5163128 L152.787373,75.6360157 C147.816604,74.5205504 142.545312,74 138.177155,74 C125.450885,74 121.309492,78.4610863 121.309492,87.456074 C121.309492,97.9391233 122.965892,100.243643 135.090334,102.919985 C144.12717,104.852684 144.277823,105.298095 144.277823,110.800283 C144.277823,115.558052 143.147925,116.970974 136.294775,116.970974 C131.324789,116.970974 126.806764,116.078602 122.138085,114.665679 L120.4809,122.026201 C123.794485,123.587077 130.421655,125 136.144906,125 C150.979535,125 153.765834,120.167092 153.765834,110.800283 Z M171.236894,92.3633464 C171.236894,84.7797321 174.927112,83.2924451 183.812511,83.2924451 C185.394369,83.2924451 188.707954,83.5163128 190.89164,83.9624989 L191.494253,76.3788845 C189.234455,75.8591087 185.620349,75.487287 182.83405,75.487287 C169.128534,75.487287 162.049405,79.6501413 162.049405,92.7343935 L162.049405,110.800283 C162.049405,119.349859 164.609724,124.999225 177.561973,124.999225 C189.385109,124.999225 193,119.20113 193,111.469562 L193,107.900848 C193,99.3512713 189.309782,95.6338285 180.198404,95.6338285 C176.960145,95.6338285 173.87254,96.0800146 171.236894,96.9723868 L171.236894,92.3633464 Z M178.767199,103.440536 C182.080784,103.440536 183.812511,104.556001 183.812511,108.123941 L183.812511,111.767019 C183.812511,115.558052 182.305979,117.194067 177.562758,117.194067 C172.817968,117.194067 171.236894,115.855509 171.236894,111.767019 L171.236894,105.001413 C173.345254,104.10904 176.056226,103.440536 178.767199,103.440536 Z"></path>
	</symbol>

	
		<symbol viewBox="0 0 200 200" id="webpack"><title>webpack</title>
			<path d="M100,200 C44.771525,200 0,155.228475 0,100 C0,44.771525 44.771525,0 100,0 C155.228475,0 200,44.771525 200,100 C200,155.228475 155.228475,200 100,200 Z M166.058798,142.117751 L142.293107,128.395175 L103.010349,150.004462 L103.010349,177.781368 L166.058798,142.117751 Z M170.371607,138.212095 L170.371607,63.627635 L147.299585,76.9430572 L147.299585,124.881593 L170.371607,138.212095 Z M34.4276311,142.117751 L97.4760797,177.781368 L97.4760797,150.004462 L58.1933223,128.395175 L34.4276311,142.117751 Z M30.1148216,138.212095 L53.1868442,124.881593 L53.1868442,76.9430572 L30.1148216,63.627635 L30.1148216,138.212095 Z M32.8140975,58.8021139 L55.7353225,72.0421374 L56.0519973,71.8611803 L97.4760797,49.0756731 L97.4760797,22.2186324 L32.8140975,58.8021139 Z M167.672331,58.8021139 L103.010349,22.2186324 L103.010349,49.0756731 L144.434432,71.8611803 L144.751106,72.0421374 L167.672331,58.8021139 Z M97.4760797,143.686045 L97.4760797,102.533399 L58.7211137,80.1550446 L58.7211137,122.378354 L97.4760797,143.686045 Z M103.010349,143.686045 L141.765315,122.378354 L141.765315,80.1550446 L103.010349,102.533399 L103.010349,143.686045 Z M61.3449908,75.2692046 L100.250754,97.738037 L139.156518,75.2692046 L100.250754,53.8710346 L61.3449908,75.2692046 Z"></path>
        </symbol>
</svg>