<svg xmlns="http://www.w3.org/2000/svg" xmlns:xlink="http://www.w3.org/1999/xlink" version="1.1" id="logo" x="0" y="0" width="440" height="444" viewBox="0 0 440 444" enable-background="new 0 0 440 444" xml:space="preserve">

	<style>
		@media all and (max-width: 90px) {
			#sub-text,
			#alternate-text {
				-webkit-display: none;
				-moz-display: none;
				-ms-display: none;
				-o-display: none;
				display: none;
			}
		}
	</style>

  <g id="alternate-text" display="none">
    <rect x="100.9" y="245" fill="none" width="183" height="121"/>
    <path d="M165.6 242.5v-1.7h5.1c3.9 0 6.2 1.7 6.2 9.7 0 4.3-0.2 9.7-6.1 9.7h-5.2v-1.7h1.6v-15.9h-1.6V242.5zM169.1 258.3h1.6c2.4 0 4.1-0.6 4.1-7.9 0-7.4-2-7.9-3.7-7.9H169v15.8H169.1z"/>
    <path d="M185.1 258.3h2.1v-11.6h-2.1V245h6.2v1.7h-2.1v11.6h2.1v1.7h-6.2V258.3z"/>
    <path d="M210.7 258.7c-1.2 1-3.1 1.7-4.6 1.7 -4.4 0-5.7-4.1-5.7-7.8 0-3.7 1.3-7.8 5.7-7.8 2 0 3.8 1.2 4.8 2.9l-1.7 1.1c-0.7-1.2-1.8-2.1-3.3-2.1 -3 0-3.5 3.7-3.5 6 0 2.4 0.5 5.9 3.6 5.9 1 0 2-0.3 2.8-0.8v-4h-3.6v-1.7h5.6v6.6H210.7z"/>
    <path d="M219.9 258.3h2.1v-11.6h-2.1V245h6.2v1.7H224v11.6h2.1v1.7h-6.2V258.3L219.9 258.3z"/>
    <path d="M239.5 246.7h-4.2V245h10.2v1.7h-4.1V260.1h-1.9V246.7z"/>
    <path d="M255.2 256l-1.4 4.5 -1.9-0.7 4.8-14.8h2.5l4.8 14.8 -1.9 0.7L260.7 256H255.2zM257.8 247.2l-2.1 7h4.3L257.8 247.2z"/>
    <path d="M271.5 245h1.9v13.4h7.9v1.7H271.4V245H271.5z"/>
    <path d="M185.6 288.9l-1.5 6.4 -1.9-0.5 4.9-19.2h2.3l4.9 19.2 -1.9 0.5 -1.5-6.4H185.6zM188.3 278.1h-0.1l-2.1 9.1h4.4L188.3 278.1z"/>
    <path d="M201.2 279.8h5.1c2.5 0 4.5 1.2 4.5 4.1 0 1.9-1.2 3.7-3.1 4.2l3.7 6.1 -1.7 1 -3.7-6.8h-2.8v6.5h-1.9V279.8H201.2zM205.7 286.7c1.9 0 3.1-1.1 3.1-2.8 0-1.4-0.8-2.4-2.6-2.4h-3.1v5.2H205.7L205.7 286.7z"/>
    <path d="M222.1 281.5h-4.2v-1.7h10.2v1.7H224v13.4h-1.9V281.5z"/>
    <path d="M237.3 293.1h2.1v-11.6H237.3v-1.7h6.2v1.7h-2.1v11.6h2.1v1.7h-6.2V293.1z"/>
    <path d="M254.7 290.1c0.4 1.9 1.3 3.2 3.3 3.2 1.6 0 2.8-0.9 2.8-2.6 0-1.9-1.6-2.3-3-2.9 -2.2-0.9-4.3-1.5-4.3-4.3 0-2.6 2.1-4 4.4-4 2.5 0 4 1.5 4.6 3.8l-1.9 0.6c-0.3-1.5-1.1-2.5-2.8-2.5 -1.2 0-2.5 0.6-2.5 2 0 1.4 0.9 1.8 2 2.4l3.2 1.4c1.4 0.8 2.1 2 2.1 3.5 0 2.9-2 4.5-4.8 4.5s-4.6-1.8-5-4.5L254.7 290.1z"/>
    <path d="M274.3 281.5h-4.2v-1.7h10.2v1.7h-4.1v13.4h-1.9V281.5z"/>
    <path d="M156.2 314.7c-0.3-1.4-1-2.8-2.7-2.8 -1.8 0-2.6 1.5-2.6 3.1s0.3 2.1 3.4 3.9c2.4 1.4 4 2.6 4 5.6s-1.6 5.5-4.9 5.5c-3.4 0-4.7-2.3-5-5.3l1.9-0.3c0.3 2.1 0.7 3.8 3.1 3.8 1.7 0 2.9-1.1 2.9-3.5 0-2.6-1.7-3.4-3.7-4.6 -2.2-1.3-3.7-2.2-3.7-5.1 0-2.6 1.7-4.9 4.5-4.9 2.7 0 4.1 1.9 4.6 4.4L156.2 314.7z"/>
    <path d="M176.2 322.1c0 1.2-0.1 7.8-5.4 7.8 -2.4 0-5.4-1.7-5.4-7.8 0-6 2.9-7.8 5.4-7.8C173.2 314.3 176.2 316 176.2 322.1zM167.5 322.1c0 2.2 0.4 6 3.3 6 2.9 0 3.3-3.8 3.3-6 0-2.2-0.4-6-3.3-6C167.9 316.1 167.5 319.9 167.5 322.1z"/>
    <path d="M184.6 314.6h9.5v1.7h-7.6v4.5h6.4v1.7h-6.4v7.1h-1.9V314.6z"/>
    <path d="M204.7 316.3h-4.2v-1.7h10.2v1.7h-4.1v13.4h-1.9V316.3z"/>
    <path d="M219 314.2l1.2 10.6h0.1l2.5-7.4h0.5l2.5 7.4h0.1l1.2-10.6 2 0.2L226.9 330h-0.7l-3.2-9.3 -3.2 9.3h-0.7l-2.2-15.6L219 314.2z"/>
    <path d="M237.8 325.6l-1.4 4.5 -1.9-0.7 4.8-14.8h2.5l4.8 14.8L244.7 330.1l-1.4-4.5H237.8zM240.4 316.8l-2.1 7h4.3L240.4 316.8z"/>
    <path d="M253.4 314.6h5.1c2.5 0 4.5 1.2 4.5 4.1 0 1.9-1.2 3.7-3.1 4.2l3.7 6.1 -1.7 1 -3.9-6.8h-2.8v6.5h-1.9V314.6H253.4zM257.9 321.5c1.9 0 3.1-1.1 3.1-2.8 0-1.4-0.8-2.4-2.6-2.4H255.3v5.2H257.9L257.9 321.5z"/>
    <path d="M271.1 314.6h9.4v1.7H273v4.5h6.2v1.7H273v5.4h7.5v1.7h-9.4V314.6z"/>
    <path d="M130.8 346.9v-1.7h5.1c3.9 0 6.2 1.7 6.2 9.7 0 4.3-0.2 9.7-6.1 9.7h-5.2V362.9h1.6V347h-1.6V346.9zM134.3 362.7h1.6c2.4 0 4.1-0.6 4.1-7.9 0-7.4-2-7.9-3.7-7.9h-2.1v15.8H134.3z"/>
    <path d="M149.3 349.4h9.4v1.7h-7.5v4.5h6.2v1.7h-6.2v5.4h7.5v1.7h-9.4V349.4z"/>
    <path d="M174.9 349l1.9 0.7 -5.8 15.2h-0.3l-5.8-15.2 1.9-0.7 4.1 11.1L174.9 349z"/>
    <path d="M184.1 349.4h9.4v1.7H186v4.5h6.2v1.7H186v5.4h7.5v1.7h-9.4V349.4z"/>
    <path d="M201.9 349.4h1.9V362.8h7.9v1.7h-9.9v-15.1H201.9z"/>
    <path d="M228.4 356.9c0 1.2-0.1 7.8-5.4 7.8 -2.4 0-5.4-1.7-5.4-7.8 0-6 2.9-7.8 5.4-7.8C225.4 349.1 228.4 350.8 228.4 356.9zM219.7 356.9c0 2.2 0.4 6 3.3 6 2.9 0 3.3-3.8 3.3-6 0-2.2-0.4-6-3.3-6C220.1 350.9 219.7 354.7 219.7 356.9z"/>
    <path d="M238.4 364.5h-1.9v-15.1h4.7c3.5 0 4.9 1.9 4.9 4.1 0 3.2-2.3 4.5-4.4 4.5h-3.2v6.5H238.4zM241 356.2c1.9 0 2.9-0.9 2.9-2.6 0-2.1-1.3-2.5-2.9-2.5h-2.7v5.1H241z"/>
    <path d="M253.7 349.4h9.4v1.7h-7.5v4.5h6.2v1.7h-6.2v5.4h7.5v1.7H253.7V349.4L253.7 349.4z"/>
    <path d="M270.8 349.4h5.1c2.5 0 4.5 1.2 4.5 4.1 0 1.9-1.2 3.7-3.1 4.2l3.7 6.1 -1.7 1L275.4 358H272.6v6.5H270.7v-15.1H270.8zM275.3 356.3c1.9 0 3.1-1.1 3.1-2.8 0-1.4-0.8-2.4-2.6-2.4h-3.1v5.2H275.3L275.3 356.3z"/>
  </g>
  <g id="sub-text">
    <path id="sub-text_1_" display="inline" d="M202.3 240.4h9.5v1.7h-7.6v6.4h6.4v1.7h-6.4v9.5h-1.9V240.4zM218.9 244.6h5.1c2.5 0 4.5 1.2 4.5 4.1 0 1.9-1.2 3.7-3.1 4.2l3.7 6.1 -1.7 1 -3.9-6.8h-2.8v6.5h-1.9V244.6H218.9zM223.4 251.5c1.9 0 3.1-1.1 3.1-2.8 0-1.4-0.8-2.4-2.6-2.4H220.8v5.2H223.4L223.4 251.5zM246 252.2c0 1.2-0.1 7.8-5.4 7.8 -2.4 0-5.4-1.7-5.4-7.8 0-6 2.9-7.8 5.4-7.8C243.1 244.3 246 246.1 246 252.2zM237.3 252.2c0 2.2 0.4 6 3.3 6 2.9 0 3.3-3.8 3.3-6s-0.4-6-3.3-6C237.7 246.2 237.3 249.9 237.3 252.2zM253 244.6h2.4l5.9 12.7 0.1-0.1 -0.2-3.9v-8.8h1.9v15.1H260.7l-5.9-12.7 -0.1 0.1 0.2 3.9v8.7H253V244.6zM274.5 246.3h-4.2v-1.7h10.2v1.7h-4.1v13.4h-1.9V246.3zM236.5 275.2h9.4v1.7h-7.5v6.4h6.2v1.7H238.4v7.7h7.5v1.7h-9.4V275.2zM253 279.4h2.4L261.3 292.1l0.1-0.1 -0.2-3.9v-8.8h1.9V294.4H260.7l-5.9-12.7 -0.1 0.1 0.2 3.9v8.7H253V279.4L253 279.4zM270.2 279.4h5c4.3 0 6.2 1.8 6.2 7.4 0 4.7-0.8 7.7-6.2 7.7h-5v-1.7h1.6v-11.6h-1.6V279.4zM273.7 292.8h2.1c2.6 0 3.7-1.4 3.7-5.8 0-4.6-1.3-5.8-3.7-5.8h-2v11.6H273.7L273.7 292.8zM246.7 310l-1.9 19.7H244l-3.2-11.7h-0.1l-3.2 11.7h-0.8l-1.9-19.7 1.9-0.4 0.9 14.5h0.1l2.8-10.2h0.6L243.9 324.1h0.1l0.9-14.5L246.7 310zM253.9 314.2h9.4v1.7h-7.5v4.5h6.2v1.7h-6.2v5.4h7.5v1.7H253.9V314.2zM270.3 329.3v-1.7h1.6V316H270.3v-1.7h4.8c3.8 0 5.5 1.5 5.5 4 0 1.3-0.6 2.5-1.7 3.1 1.7 0.5 2.6 1.9 2.6 3.7 0 2.7-1.8 4.3-5 4.3h-6.2V329.3L270.3 329.3zM276 320.7c1.7 0 2.5-1.1 2.5-2.4 0-1.8-1.3-2.3-2.6-2.3H273.8v4.7H276L276 320.7zM276.1 327.6c1.7 0 3.3-0.4 3.3-2.4 0-1.5-1-2.7-2.8-2.7H273.9v5.2h2.2V327.6zM131 346.5v-1.7h5.1c3.9 0 6.2 1.7 6.2 9.7 0 4.3-0.2 9.7-6.1 9.7H131v-1.7h1.6v-16H131zM134.5 362.4h1.6c2.4 0 4.1-0.6 4.1-7.9 0-7.4-2-7.9-3.7-7.9h-2.1V362.4H134.5zM149.5 349h9.4v1.7h-7.5v4.5h6.2v1.7h-6.2v5.4h7.5v1.7h-9.4V349zM175.2 348.6l1.9 0.7 -5.8 15.2H171l-5.8-15.2 1.9-0.7 4.1 11.1L175.2 348.6zM184.3 349h9.4v1.7h-7.5v4.5h6.2v1.7h-6.2v5.4h7.5v1.7h-9.4V349zM202.1 349h1.9v13.4h7.9v1.7H202V349H202.1zM228.6 356.6c0 1.2-0.1 7.8-5.4 7.8 -2.4 0-5.4-1.7-5.4-7.8 0-6 2.9-7.8 5.4-7.8C225.7 348.7 228.6 350.5 228.6 356.6zM219.9 356.6c0 2.2 0.4 6 3.3 6 2.9 0 3.3-3.8 3.3-6 0-2.2-0.4-6-3.3-6C220.3 350.6 219.9 354.3 219.9 356.6zM238.6 364.1H236.7V349h4.7c3.5 0 4.9 1.9 4.9 4.1 0 3.2-2.3 4.5-4.4 4.5h-3.2v6.5H238.6zM241.3 355.9c1.9 0 2.9-0.9 2.9-2.6 0-2.1-1.3-2.5-2.9-2.5h-2.7v5.1H241.3zM253.9 349h9.4v1.7h-7.5v4.5h6.2v1.7h-6.2v5.4h7.5v1.7H253.9V349zM271.1 349h5.1c2.5 0 4.5 1.2 4.5 4.1 0 1.9-1.2 3.7-3.1 4.2l3.7 6.1 -1.7 1L275.7 357.6h-2.8v6.5H271V349H271.1zM275.6 355.9c1.9 0 3.1-1.1 3.1-2.8 0-1.4-0.8-2.4-2.6-2.4H273v5.2H275.6L275.6 355.9z"/>
  </g>
  <g id="bracket">
    <path d="M316.9 258.4c0-14.2-4.2-19.4-21.9-19.4h-4.4v-4.8h6.3c26.3 0 32.8 7.3 32.8 26.8v25.3c0 17.5 6.1 14.6 20 19 -13.7 4.8-20 2.3-20 19.2V350c0 19.2-7.4 26.7-28.4 26.7h-10.7v-4.8h4.6c18.5 0 21.7-5.4 21.7-19.2v-26.8c0-8.6 0.2-15.7 8.8-20.5 -8.6-4.6-8.8-11.5-8.8-20.1V258.4L316.9 258.4z"/>
  </g>
  <g id="main-text">
    <path d="M94.3 75h62v11.5h-49.2v42.2h40.6v11.5h-40.6v51.2h49.2v11.5h-62V75L94.3 75z"/>
    <path d="M182.4 103h33.2c28.2 0 41 11.7 41 48.7 0 31.3-5.3 51.2-41 51.2h-33.2v-11.5h10.3v-76.9h-10.3V103L182.4 103zM205.5 191.4H219c16.8 0 24.2-9.6 24.2-38.4 0-30.7-8.8-38.5-24.6-38.5h-13.2v76.9H205.5z"/>
    <path d="M316.7 191.6c0 14.2 4.2 19.4 21.9 19.4h4.4v4.8h-6.3c-26.3 0-32.8-7.3-32.8-26.8v-25.3c0-17.5-6.1-14.6-20-19 13.7-4.8 20-2.3 20-19.2V99.9c0-19.2 7.4-26.7 28.4-26.7H343V78h-4.6c-18.5 0-21.7 5.4-21.7 19.2V124c0 8.6-0.2 15.7-8.8 20.5 8.6 4.6 8.8 11.5 8.8 20.1V191.6L316.7 191.6z"/>
  </g>
  <g id="circle">
    <ellipse id="logoCircle" fill="none" stroke="#000000" stroke-width="10" stroke-miterlimit="10" cx="220" cy="222" rx="215" ry="217"/>
  </g>
</svg>