<?xml version="1.0" encoding="utf-8"?>
<!-- Generator: Adobe Illustrator 16.0.0, SVG Export Plug-In . SVG Version: 6.00 Build 0)  -->
<!DOCTYPE svg PUBLIC "-//W3C//DTD SVG 1.1//EN" "http://www.w3.org/Graphics/SVG/1.1/DTD/svg11.dtd">
<svg version="1.1" id="_x31__1_" xmlns="http://www.w3.org/2000/svg" xmlns:xlink="http://www.w3.org/1999/xlink" x="0px" y="0px"
	 width="394.71px" height="394.528px" viewBox="0 0 394.71 394.528" enable-background="new 0 0 394.71 394.528"
	 xml:space="preserve">
<g id="Layer_1_xA0_Image_1_">
	<g>
		<path d="M211.534,394.528c-9,0-18,0-27,0c-2.129-0.34-4.25-0.746-6.387-1.011c-74.539-9.233-128.99-47.53-160.311-115.525
			C-22.912,189.533,8.335,85.87,89.391,32.37C167.243-19.016,274.24-9.022,340.404,61.604
			c44.43,47.426,61.479,103.896,51.583,167.92c-11.926,77.161-70.617,140.354-146.607,158.982
			C234.273,391.228,222.825,392.556,211.534,394.528z M192.01,91.961c0,55.692,0,110.796,0,166.046c17.502,0,34.725,0,51.96,0
			c0-55.545,0-110.766,0-166.046C226.498,91.961,209.393,91.961,192.01,91.961z M301.06,258.097c0-40.692,0-80.796,0-121.048
			c-17.503,0-34.725,0-51.962,0c0,40.546,0,80.767,0,121.048C266.569,258.097,283.674,258.097,301.06,258.097z M188.059,258.097
			c0-33.026,0-65.463,0-98.048c-17.835,0-35.391,0-52.96,0c0,32.88,0,65.434,0,98.048
			C152.903,258.097,170.341,258.097,188.059,258.097z M78.01,185.961c0,24.36,0,48.131,0,72.047c17.836,0,35.392,0,52.959,0
			c0-24.215,0-48.103,0-72.047C113.164,185.961,95.726,185.961,78.01,185.961z"/>
	</g>
</g>
</svg>
