<?xml version="1.0" encoding="utf-8"?>
<!-- Generator: Adobe Illustrator 16.0.0, SVG Export Plug-In . SVG Version: 6.00 Build 0)  -->
<!DOCTYPE svg PUBLIC "-//W3C//DTD SVG 1.1//EN" "http://www.w3.org/Graphics/SVG/1.1/DTD/svg11.dtd">
<svg version="1.1" id="_x34__1_" xmlns="http://www.w3.org/2000/svg" xmlns:xlink="http://www.w3.org/1999/xlink" x="0px" y="0px"
	 width="394.71px" height="394.528px" viewBox="0 0 394.71 394.528" enable-background="new 0 0 394.71 394.528"
	 xml:space="preserve">
<g id="Layer_4_xA0_Image_1_">
	<g>
		<path d="M209.578,394.528c-8,0-16,0-24,0c-6.891-0.97-13.793-1.86-20.67-2.92C75.671,377.855,4.582,298.743,0.748,208.428
			C-1.877,146.622,19.247,94.047,64.66,51.973c35.15-32.567,77.193-49.808,125.182-51.488
			c57.449-2.013,107.192,17.205,147.428,58.04c45.366,46.042,63.6,102.061,55.411,166.294
			c-10.165,79.743-72.874,147.779-151.653,164.686C230.662,391.729,220.066,392.88,209.578,394.528z M209.655,31.905
			c0,2.449,0,4.091,0,5.731c0,49.459-0.003,98.918,0.003,148.377c0.001,6.314,0.123,6.434,6.492,6.435
			c43.797,0.006,87.594,0.003,131.391,0.003c1.601,0,3.201,0,5.205,0c-1.623-40.981-14.93-76.589-42.954-105.846
			C282.457,58.066,248.512,41.106,209.655,31.905z M107.816,327.564c28.748-40.701,57.298-81.119,86.51-122.476
			c-51.328,0-101.349,0-151.371,0C42.691,248.549,65.404,297.117,107.816,327.564z M205.635,210.212
			c-0.375-0.183-0.752-0.364-1.127-0.546c-26.904,41.501-53.809,83.002-80.996,124.94c25.264,17.948,53.35,17.375,82.123,15.306
			C205.635,302.783,205.635,256.497,205.635,210.212z"/>
	</g>
</g>
</svg>
