<?xml version="1.0" encoding="utf-8"?>
<!-- Generator: Adobe Illustrator 16.0.0, SVG Export Plug-In . SVG Version: 6.00 Build 0)  -->
<!DOCTYPE svg PUBLIC "-//W3C//DTD SVG 1.1//EN" "http://www.w3.org/Graphics/SVG/1.1/DTD/svg11.dtd">
<svg version="1.1" id="_x33__1_" xmlns="http://www.w3.org/2000/svg" xmlns:xlink="http://www.w3.org/1999/xlink" x="0px" y="0px"
	 width="394.71px" height="394.528px" viewBox="0 0 394.71 394.528" enable-background="new 0 0 394.71 394.528"
	 xml:space="preserve">
<g id="Layer_3_xA0_Image_1_">
	<g>
		<path d="M209.534,394.528c-8,0-16,0-24,0c-6.727-0.939-13.473-1.757-20.176-2.837C75.02,377.143,5.041,300.058,0.83,208.932
			C-2.348,140.175,23.348,83.653,77.672,41.109c77.547-60.731,190.247-53.36,259.317,16.975
			c42.933,43.718,61.926,96.634,56.672,157.812c-7.254,84.48-70.545,155.96-153.666,173.771
			C229.955,391.817,219.693,392.933,209.534,394.528z M167.336,140.532c-16.676,16.339-32.321,31.667-48.076,47.104
			c0-7.865,0-15.923,0-23.54c-18.53,18.522-37.059,37.043-55.801,55.778c0.921,0.85,2.202,2.03,4.498,4.148
			c15.368-15.392,30.458-30.506,45.707-45.777c0,7.971,0,16.033,0,24.352c16.077-15.64,31.812-30.946,48.021-46.714
			c0,22.983,0,45.521,0,68.06c0.483,0.33,0.966,0.66,1.448,0.99c5.758-6.218,11.516-12.435,17.273-18.652
			c0.45,0.247,0.899,0.494,1.348,0.741c0,5.483,0,10.968,0,16.451c0.548,0.327,1.096,0.655,1.645,0.982
			c24.03-24.033,48.06-48.067,72.336-72.346c0,16.806,0,33.529,0,50.253c0.452,0.315,0.905,0.632,1.357,0.947
			c15.326-15.462,30.653-30.924,46.632-47.043c0,23.542,0,46.143,0,68.791c2.1,0,3.79,0,5.383,0c0-27.59,0-54.803,0-83.331
			c-16.143,16.201-31.462,31.578-47.777,47.953c0-18.121,0-34.924,0-51.726c-0.552-0.323-1.104-0.646-1.656-0.969
			c-23.71,24.189-47.419,48.38-71.129,72.569c-0.411-0.189-0.821-0.38-1.232-0.569c0-5.478,0-10.955,0-16.433
			c-0.702-0.475-1.403-0.949-2.105-1.423c-5.615,6.399-11.23,12.799-16.845,19.198c-0.342-0.194-0.684-0.389-1.025-0.583
			C167.336,187.198,167.336,164.65,167.336,140.532z"/>
	</g>
</g>
</svg>
