<?xml version="1.0" encoding="utf-8"?>
<!-- Generator: Adobe Illustrator 16.0.0, SVG Export Plug-In . SVG Version: 6.00 Build 0)  -->
<!DOCTYPE svg PUBLIC "-//W3C//DTD SVG 1.1//EN" "http://www.w3.org/Graphics/SVG/1.1/DTD/svg11.dtd">
<svg version="1.1" id="_x32__1_" xmlns="http://www.w3.org/2000/svg" xmlns:xlink="http://www.w3.org/1999/xlink" x="0px" y="0px"
	 width="394.71px" height="394.528px" viewBox="0 0 394.71 394.528" enable-background="new 0 0 394.71 394.528"
	 xml:space="preserve">
<g id="Layer_2_xA0_Image_1_">
	<g>
		<path d="M210.542,394.528c-8.666,0-17.334,0-26,0c-1.467-0.269-2.924-0.649-4.403-0.79c-41.866-3.958-79.06-19.195-110.83-46.814
			C25.213,308.592,1.62,259.933,0.583,201.591c-1.178-66.278,25.288-120.41,77.537-161.124
			c78.719-61.34,194.386-51.824,262.19,20.926c41.605,44.639,59.229,97.475,53.12,158.075
			c-7.87,78.079-65.613,146.503-141.261,167.165C238.588,390.343,224.432,391.95,210.542,394.528z M288.065,262.095
			c0-43.694,0-86.798,0-130.044c-14.172,0-28.061,0-41.958,0c0,43.548,0,86.769,0,130.044
			C260.248,262.095,274.019,262.095,288.065,262.095z M237.079,262.109c0-30.351,0-60.118,0-90.073c-14.156,0-28.045,0-41.986,0
			c0,30.2,0,60.088,0,90.073C209.217,262.109,222.988,262.109,237.079,262.109z M186.065,262.096c0-19.694,0-38.798,0-58.047
			c-14.17,0-28.058,0-41.959,0c0,19.549,0,38.771,0,58.047C158.246,262.096,172.016,262.096,186.065,262.096z M135.098,220.016
			c-14.376,0-28.146,0-42.025,0c0,14.182,0,28.069,0,41.937c14.228,0,28.117,0,42.025,0
			C135.098,247.802,135.098,234.031,135.098,220.016z M288.359,125.169c0.32-0.366,0.642-0.732,0.963-1.098
			c-7.375-6.726-14.75-13.45-22.048-20.104c-6.436,6.623-13.5,13.893-20.602,21.202
			C260.517,125.169,274.438,125.169,288.359,125.169z M217.799,144.39c-6.441,6.509-13.637,13.779-20.365,20.579
			c13.281,0,27.275,0,42.945,0C231.977,157.311,224.643,150.627,217.799,144.39z M165.971,176.2
			c-6.807,6.802-13.971,13.961-20.803,20.789c13.496,0,27.504,0,41.512,0c0.245-0.358,0.49-0.716,0.734-1.074
			C180.139,189.227,172.864,182.537,165.971,176.2z M114.7,192.304c-6.561,6.67-13.66,13.89-20.355,20.696
			c13.315,0,27.318,0,41.321,0c0.309-0.419,0.618-0.838,0.927-1.257C129.194,205.174,121.795,198.604,114.7,192.304z"/>
	</g>
</g>
</svg>
