
<svg width="200px" height="200px" viewBox="0 0 200 200" version="1.1" xmlns="http://www.w3.org/2000/svg" xmlns:xlink="http://www.w3.org/1999/xlink">
    <!-- Generator: Sketch 48.2 (47327) - http://www.bohemiancoding.com/sketch -->
    <desc>Created with Sketch.</desc>
    <defs></defs>
    <g id="Page-1" stroke="none" stroke-width="1" fill="none" fill-rule="evenodd">
        <g id="icons">
            <g id="behance" transform="translate(7.000000, 0.000000)" fill="#454545" fill-rule="nonzero">
                <g id="Group">
                    <path d="M21.068,20.86 C21.068,18.96 19.775,18.96 19.775,18.96 L19.09,18.96 L14.456,18.96 L14.454,18.96 L14.454,23.038 L19.445,23.038 C20.308,23.038 21.068,22.763 21.068,20.86 Z" id="Shape"></path>
                    <path d="M33.395012,23.038 C30.5730015,23.038 30.18,25.8530005 30.18,25.8530005 L36.1820465,25.8530005 C36.1820223,25.8540003 36.2190225,23.038 33.395012,23.038 Z" id="Shape"></path>
                    <path d="M19.775,25.854 L14.457,25.8539958 L14.457,30.739 L19.168,30.739 C19.248,30.739 19.366,30.743 19.507,30.739 C20.264,30.721 21.703,30.504 21.703,28.365 C21.703,25.83 19.775,25.854 19.775,25.854 Z" id="Shape"></path>
                    <path d="M25,0.174 C11.311,0.174 0.174,11.311 0.174,25 C0.174,38.689 11.311,49.826 25,49.826 C38.689,49.826 49.826,38.689 49.826,25 C49.826,11.311 38.689,0.174 25,0.174 Z M29.393,16.789 L36.932,16.789 L36.932,19.04 L29.393,19.04 L29.393,16.789 Z M25.581,28.593 C25.581,34.17 19.775,33.987 19.775,33.987 L14.457,33.987 L14.301,33.987 L10.267,33.987 L10.267,15.712 L14.301,15.712 L14.457,15.712 L19.775,15.712 C22.666,15.712 24.947,17.309 24.947,20.579 C24.947,23.848 22.159,24.056 22.159,24.056 C25.834,24.056 25.581,28.593 25.581,28.593 Z M39.686,28.293 L30.215,28.293 C30.215,31.689 33.432,31.475 33.432,31.475 C36.468,31.475 36.362,29.509 36.362,29.509 L39.58,29.509 C39.58,34.727 33.326,34.368 33.326,34.368 C25.823,34.368 26.305,27.383 26.305,27.383 C26.305,27.383 26.298,20.361 33.326,20.361 C40.723,20.361 39.684,28.293 39.686,28.293 Z" id="Shape"></path>
                </g>
            </g>
            <g id="burger_button" fill="#000000" fill-rule="nonzero">
                <path d="M4.8,38 C34.5,38 64.2,38 93.9,38 C100.3,38 100.3,28 93.9,28 C64.2,28 34.5,28 4.8,28 C-1.6,28 -1.6,38 4.8,38 Z" id="Shape"></path>
                <path d="M4.8,10 C34.5,10 64.2,10 93.9,10 C100.3,10 100.3,0 93.9,0 C64.3,0 34.6,0 4.8,0 C-1.6,0 -1.6,10 4.8,10 Z" id="Shape"></path>
                <path d="M4.8,66 C34.5,66 64.2,66 93.9,66 C100.3,66 100.3,56 93.9,56 C64.2,56 34.5,56 4.8,56 C-1.6,56 -1.6,66 4.8,66 Z" id="Shape"></path>
            </g>
            <g id="css3" fill="#000000" fill-rule="nonzero">
                <path d="M100,0 C44.8,0 0,44.8 0,100 C0,155.2 44.8,200 100,200 C155.2,200 200,155.2 200,100 C200,44.8 155.2,0 100,0 Z M148,144.8 L87.2,165 L34.4,144.9 L39.7,118 L62.2,118 L60,129 L91.9,141.1 L128.7,128.8 L133.9,103 L42.5,103 L46.9,81 L138.4,81 L141.3,66 L49.9,66 L54.4,44 L168.3,44 L148,144.8 Z" id="Shape"></path>
            </g>
            <g id="facebook" fill="#45619D" fill-rule="nonzero">
                <path d="M100,0 C44.8,0 0,44.8 0,100 C0,155.2 44.8,200 100,200 C155.2,200 200,155.2 200,100 C200,44.8 155.2,0 100,0 Z M134,56.9 C129,56.9 124.9,56.8 120.5,56.9 C113.5,57.2 110.6,60.2 110.4,67.2 C110.299,72 110.4,76.9 110.4,81.8 C110.4,82.3 110.599,83 110.9,84 C118.4,84 125.7,84 133.599,84 C132.599,92 131.599,99 130.599,107 C123.799,107 116.999,107 110.999,107 C110.999,127 110.999,147 110.999,167 C101.999,167 94.999,167 85.999,167 C85.999,147 85.999,127 85.999,107 C78.999,107 72.999,107 65.999,107 C65.999,99 65.999,92 65.999,84 C71.999,84 78.999,84 86.199,84 C86.199,78 86.199,72.4 86.199,67 C86.299,46 97.299,35 118.299,35.1 C123.499,35.1 128.999,35.1 133.999,36.1 C134,42.8 134,49.5 134,56.9 Z" id="Shape"></path>
            </g>
            <g id="foundation" fill="#000000" fill-rule="nonzero">
                <g id="foundation-Layer_1">
                    <path d="M112.3,160.3 C112.2,160.4 112,160.4 111.9,160.5 C112,160.4 112.2,160.4 112.3,160.3 Z" id="Shape"></path>
                    <path d="M100,0 C44.8,0 0,44.8 0,100 C0,155.2 44.8,200 100,200 C155.2,200 200,155.2 200,100 C200,44.8 155.2,0 100,0 Z M153.2,126.9 C153.2,126.9 153.3,128.3 154.6,128.9 C154.6,128.9 153.9,129.6 152.7,129 C152.7,129 155,141.8 154.6,149.2 C154.6,149.2 153.9,148.6 153,148.5 C153,148.5 153.4,153.4 149.7,158.3 C149.7,158.3 149.7,157 149,156.4 C149,156.4 147.8,160.8 139.2,161.1 C139.4,162.2 139.6,163.3 139.9,164.4 C139.9,164.5 140.1,164.6 140.2,164.5 C140.5,164.3 140.9,164.1 141.2,163.9 C142.1,163.6 142.7,164 142.7,164 C141.8,164.2 140.6,166.1 140.4,166.8 C141.2,166.7 141.7,166.9 142.5,167.4 C141.8,167.5 141,167.9 141,167.9 C145.3,169.7 145.9,172.3 147.3,174.2 C146.9,174 145.5,173.4 145.5,173.4 C146.8,174.6 147.4,177.4 147.5,178.4 C147.6,179.6 147.6,179.6 147.7,180.6 C147.2,180.4 146.8,180.3 146.4,180.2 C146.4,180.2 146.4,180.2 146.4,180.2 C146.4,180.2 146.3,180.2 146.3,180.2 C145.9,180.1 145.6,180.1 145.1,180 C144.3,179.9 142.7,179.7 141.1,179.5 C140.7,179.5 139.7,179.4 139.6,179.4 C139.6,180.3 139.6,181.2 139.6,182.4 C138.7,182.3 137.8,182.2 136.9,182 C136.7,182 136.6,182 136.4,182 C136.4,182 136.4,182 136.4,182 C134.7,181.7 133,181.4 131.3,181.3 C130.5,181.3 129.9,181.3 128.9,181.3 C128.9,181.3 128.9,181.3 128.9,181.3 C127.9,181.3 126.1,181.4 124.6,181.6 C124.5,181.4 124.3,180.2 124.3,179.7 C124.3,179.7 120,179.3 117,179.7 C117,179.7 117,179.2 116.9,178.4 C116.9,177.8 116.8,177 116.7,176.1 C116,171.9 114.5,167.6 113.8,166.1 C113.4,165.2 112,162.1 111.2,160.8 C101,164.4 90.3,161.6 87.8,160.8 C87.6,161.1 82.3,170.1 81.6,179.6 C81.6,179.6 81.7,179.6 81.7,179.6 L82,179.6 C82,179.6 82,179.6 82,179.6 C82,179.6 78.9,179.3 76.6,179.3 C76.2,179.3 75.4,179.4 74.8,179.4 C74.4,179.4 73,179.6 73,179.6 C73,179.8 73.1,179.9 73.1,180 C73,180.7 73,180.8 72.9,181.3 C72.2,181.7 71.5,181.8 70.8,181.9 C66.9,182.2 64.6,181.7 61.3,181.9 C61.3,182 61.3,182.3 61.3,182.3 C60.5,182.4 59.9,182 59.2,183 C59.2,183 59.1,183 59.1,183 L59,179.6 C58,179.4 53.8,179.8 52.4,180 C52,180.1 51.7,180.2 51.3,180.2 C51.3,180.2 51.2,180.2 51.2,180.2 C51.2,180.2 51.2,180.2 51.2,180.2 C50.8,180.3 50.4,180.4 49.9,180.6 C50,179.6 50,179.7 50.1,178.4 C50.2,177.5 50.9,174.6 52.1,173.4 C52.1,173.4 50.7,174 50.3,174.2 C51.7,172.4 52.3,169.7 56.6,167.9 C56.6,167.9 55.8,167.5 55.1,167.4 C55.8,166.9 56.4,166.8 57.2,166.8 C56.9,166.1 55.8,164.2 54.9,164 C54.9,164 55.5,163.6 56.4,163.9 C56.8,164.1 57.1,164.3 57.4,164.5 C57.5,164.6 57.5,164.5 57.5,164.4 C57.8,163.4 57.9,162.5 57.9,161.5 C57.9,161.5 57.9,161.5 57.9,161.5 C57.9,161.5 57.5,161.5 57,161.5 C57,161.5 57.1,161.5 57.1,161.5 C54.2,161.1 50,158.9 48,156.2 C45.8,153.3 44.3,149.6 44.3,149.6 C43.2,150 41.7,151.5 41.7,151.5 C42.1,147.1 44,139.3 44,139.3 L41.6,137.6 L44.8,135.7 C44.9,129.4 47.8,123.4 47.8,123.4 C46.8,122.8 44.5,124 44.5,124 C46.1,114.5 50.8,108.8 50.8,108.8 C48.6,108.2 45.6,110.1 45.6,110.1 C49,104.5 55.8,97.6 55.8,97.6 C55.4,96.5 53.1,95.2 53.1,95.2 C54.5,94.8 57.3,94.6 57.3,94.6 C59,92.4 62.2,90.3 62.2,90.3 C61.9,86.1 59.2,83.7 59.2,83.7 C60.9,83.3 61.9,84.1 61.9,84.1 C61.9,77.6 59.3,74.8 59.3,74.8 C61.7,75.1 62.9,76.5 62.9,76.5 C62.9,76.5 62.1,68.4 61.6,60 C58.2,59 53.6,57.1 50.7,53.6 C45.6,47.3 46.3,40.2 46.3,40.2 C46.3,40.2 52.4,46.6 61.4,48.2 C61.5,46.7 61.6,45.3 61.7,44.2 C63,35.9 70.2,23.9 70.2,23.9 C70.2,23.9 70.3,30.1 71.5,32.8 C71.5,32.8 76.1,16.6 93.5,9.3 C93.5,9.3 93.5,9.3 93.5,9.3 C93.5,9.3 91.9,14.3 92.6,20.1 C92.6,20.1 92.6,20.1 92.6,20.1 C93.2,19.3 103.3,6.8 120.7,6.8 C120.7,6.8 120.7,7 120.7,7 C120.7,7 120.7,7 120.7,7 C120.7,7 119.6,8.2 118.6,10.3 C118.6,10.3 118.6,10.2 118.6,10.2 C117.8,12.1 117.2,14.8 117.2,18.7 C117.2,18.7 122.1,17 128,18.2 C128,18.2 122.9,21.8 124.2,28 C124.2,28 130.6,21.2 142.1,24.3 C142.1,24.3 139,27.3 138,37.5 C138,37.5 139.4,36.5 141.6,36.6 C141.6,36.6 137.5,40.2 135.6,48.1 C144.2,46.3 150,40.2 150,40.2 C150,40.2 151,47.4 145.9,53.6 C143,57.2 138.1,59.1 135.1,60 C135.1,70.3 135.1,70.4 135.1,70.4 C135.1,70.4 136.5,67.8 139.3,67.8 C139.3,67.8 135.1,73 135.1,79.6 C135.1,86.2 135.1,89.4 135.1,89.4 C135.1,89.4 135,89.5 135.1,89.6 C135.1,89.4 135,89.3 135,89.3 C137,91 141,95 141,95 C141,95 141,95.1 141,95.1 C141.7,95.8 142.4,96.6 142.9,97.2 C145.2,100.2 148.6,102.7 150.2,103.4 C150.2,103.4 148.9,104.4 146.6,104.4 C146.6,104.4 148.8,111.1 150.2,117.7 C151.6,124.3 153.6,125.2 155.5,125.2 C155.4,125.4 155.1,127.1 153.2,126.9 Z" id="Shape"></path>
                </g>
            </g>
            <g id="github" fill="#333333" fill-rule="nonzero">
                <path d="M100,0 C44.8,0 0,44.8 0,100 C0,155.2 44.8,200 100,200 C155.2,200 200,155.2 200,100 C200,44.8 155.2,0 100,0 Z M152.7,100.8 C149.7,106.6 144.2,111.4 136.5,115.3 C131.3,117.8 124.3,119.3 115.7,119.8 C119.6,121.7 122.1,123.7 123.9,125.8 C125.7,127.9 126.9,131.1 126.9,135.5 L126.9,148.5 C126.9,148.5 127.5,152.7 127.8,161.1 C128.6,162.5 130.1,163.6 131.2,164.6 C132.3,165.6 133.3,166.3 134.1,166.7 C134.9,167.1 135.2,167.7 135,168.6 C134.7,169.4 133.7,169.8 131.8,169.8 C127.1,169.8 123.6,168.1 120.8,164.8 C120,163.4 119.9,161.8 119.9,159.8 L119.9,140 C119.9,137.8 118.8,136.2 117.7,135.2 C116.6,134.2 114.9,133.6 113.9,133.3 L113.9,159.3 C113.9,164 114.6,167 115.7,168.4 C116.8,169.8 117.7,171.2 117.9,172.5 C118.2,172.8 118,173 117.3,173.1 C116.6,173.2 115.5,173 113.9,172.5 C110.3,171.7 108,169.8 106.6,166.9 C105.2,164 104.8,160.9 104.8,157.6 L104.8,132 L98.8,132 L98.8,157.8 C98.8,161.1 98.1,164.3 96.7,167.3 C94.8,171.2 91.2,173.2 86,173.5 C85.2,173.2 84.8,172.9 84.8,172.7 C85.1,172.4 85.9,171 87.3,168.6 C87.6,168 87.9,166.9 88.3,165.3 C88.7,163.6 88.9,161.7 88.9,159.5 L88.9,133.5 C87.9,133.8 87,134.4 86.1,135.4 C85.2,136.3 85,137.9 85,140.1 L85,159.9 C85,161.8 84.4,163.5 83.5,164.9 C81,168.2 77.1,169.9 72.1,169.9 C70.2,169.9 69.1,169.5 68.8,168.7 C68.5,168.2 68.6,167.7 69,167.3 C69.4,166.9 70,166.4 70.9,165.9 C71.7,165.3 72.3,164.9 72.6,164.7 C73.7,163.9 74.5,162.8 75.1,161.4 C75.9,160.3 76.1,157.4 75.7,152.7 C75.3,148 75.2,145 75.5,143.6 C68.3,146.1 61,144.8 53.6,139.9 C51.4,137.7 49.2,134.5 47,130.4 C45.3,127.4 42,123.8 37.1,119.7 C36.5,119.1 36.5,118.6 37.1,118 C38.2,116.9 39.6,116.5 41.2,116.8 C42.9,117.1 43.8,117.4 44.1,117.6 C46,118.4 48.2,120.3 50.5,123.2 C52.8,126.1 54.7,128.1 56.1,129.2 C62.7,134.7 69.5,135.1 76.3,130.4 C76.9,128.5 77.7,126.8 79,125.4 C80.2,124 81.4,123.1 82.5,122.5 C83.6,121.9 85.5,121.1 88.3,120 C79.2,119.2 71.8,117.6 66.2,115.2 C60.6,112.9 56.1,109.9 52.8,106.3 C48.4,101.3 45.7,94.9 44.7,86.9 C43.7,78.9 44.4,71.6 46.6,65 C48.3,60.9 50.6,57.1 53.6,53.8 C51.4,46.9 51.8,39.1 54.8,30.2 C63.6,30.8 71.6,33.8 78.8,39.3 C92.6,35.7 106.9,35.6 121.8,38.9 C123.7,37.5 126.7,35.8 130.7,33.7 C134.7,31.6 139.7,30.5 145.8,30.2 C146.9,33.2 147.7,36.8 148.1,40.9 C148.5,45 148.3,48.9 147.5,52.5 C153.8,59.1 157.1,67.9 157.4,78.9 C157.3,87.7 155.7,95 152.7,100.8 Z" id="Shape"></path>
            </g>
            <g id="grunt" fill="#000000" fill-rule="nonzero">
                <path d="M100,0 C44.8,0 0,44.8 0,100 C0,155.2 44.8,200 100,200 C155.2,200 200,155.2 200,100 C200,44.8 155.2,0 100,0 Z M155.5,126.5 C155.5,126.4 155.5,126.3 155.5,126.3 C155.5,126.3 155.5,126.3 155.6,126.4 C155.6,126.2 155.7,126 155.7,125.8 C155.7,125.8 165.9,133.6 162.9,150.4 C161.1,160.7 154.8,166.4 146.6,169.4 C143.5,176 136.4,185.3 123.2,186.7 C118.2,190.8 111.1,193.5 101.1,193.5 C101.1,193.5 101.1,193.5 101.1,193.5 C101.1,193.5 101.1,193.5 101.1,193.5 C91.1,193.5 84,190.8 78.9,186.7 C65.7,185.3 58.5,176.1 55.5,169.4 C47.2,166.4 41,160.6 39.2,150.4 C36.2,133.6 46.4,125.8 46.4,125.8 C46.4,126 46.5,126.2 46.5,126.4 C46.5,126.4 46.5,126.4 46.5,126.3 C46.5,126.3 46.5,126.4 46.5,126.5 C47.5,132.4 51.1,137.7 54.9,141 C56,133.1 56.2,121.7 56.2,119.3 C56.2,114.2 52.9,110.8 52,110.2 C51.1,109.7 50.1,109.2 49.1,108.6 C42.8,105.2 35,101.1 35,93.4 C35,87.8 38.2,85.3 40.4,83.7 C40.7,83.5 40.9,83.3 41.1,83.1 C41.8,82.5 42.4,82.1 42.6,81.6 C44.1,78.2 43.8,69.7 43.2,68.5 C43,68.3 37.4,61.2 39.1,54.9 C39.8,52.3 41.5,50.3 44,49 C45.8,48.1 48.1,47.6 50.8,47.5 C50.8,46.8 51,46.1 51.1,45.4 C51.3,44.5 51.5,43.6 51.4,42.6 C51.3,41 51.1,39.5 50.6,38.7 C47.7,34.1 40.6,32.6 40.5,32.6 L36.2,31.8 L39,28.5 C39.1,28.4 45,22.4 55.1,22.4 C57.9,22.4 60.7,22.9 63.5,23.8 C71.9,26.5 78.4,34.4 80.7,37.5 C81.4,37.3 82,37.1 82.7,36.9 C82.4,27.7 89.9,20.4 92.5,20.1 C92.6,21.7 92.4,27.8 95,29.7 C95.8,24.7 98.4,19.2 108.6,15.5 C106.4,21.3 108.3,26.2 109.2,28.5 C116.2,22.2 120.9,23.2 120.9,23.2 C120.9,23.2 116.3,31.1 117.8,36.6 C118.9,36.9 120,37.2 121.1,37.5 C123.3,34.5 129.8,26.5 138.3,23.8 C141.1,22.9 143.9,22.4 146.7,22.4 C156.8,22.4 162.8,28.4 162.8,28.5 L165.6,31.8 L161.3,32.6 C161.2,32.6 154.1,34.1 151.2,38.7 C150.7,39.5 150.6,41 150.4,42.6 C150.3,43.6 150.5,44.5 150.7,45.4 C150.8,46.1 151,46.8 151,47.5 C153.7,47.6 155.9,48.1 157.8,49 C160.3,50.3 162,52.3 162.7,54.9 C164.4,61.2 158.8,68.3 158.6,68.5 C157.9,69.7 157.7,78.2 159.2,81.6 C159.4,82.1 160,82.5 160.7,83.1 C160.9,83.3 161.2,83.5 161.5,83.7 C163.6,85.3 166.9,87.8 166.9,93.4 C166.9,101.1 159.1,105.3 152.8,108.6 C151.8,109.2 150.8,109.7 149.9,110.2 C149,110.7 145.7,114.2 145.7,119.3 C145.7,121.7 145.9,133.1 147,141 C150.9,137.7 154.5,132.4 155.5,126.5 Z" id="Shape"></path>
            </g>
            <g id="html5" fill="#000000" fill-rule="nonzero">
                <path d="M100,172.1 L100,172.2 L100,172.1 L142.7,160.1 L152.9,47 L47.3,47 L57.4,160.1 L100,172.1 Z M140.5,64 L139.1,80 L139,80 L77.1,80 L78.6,96 L137.6,96 L133.2,145.9 L100,155 L66.8,146.1 L64.5,121 L80.7,121 L81.9,133.8 L99.9,138.6 L118,133.9 L119.9,113 L63.7,113 L59.3,64 L140.5,64 Z" id="Shape"></path>
                <path d="M100,0 C44.8,0 0,44.8 0,100 C0,155.2 44.8,200 100,200 C155.2,200 200,155.2 200,100 C200,44.8 155.2,0 100,0 Z M152.9,168.9 L99.9,183.5 L47,169 L35.3,37 L164.7,37 L152.9,168.9 Z" id="Shape"></path>
            </g>
            <g id="instagram" fill="#BB9F1B" fill-rule="nonzero">
                <path d="M99.7,123.9 C112.9,124 123.599,113.5 123.8,100.4 C123.9,87 113.2,76.1 99.9,76.1 C86.8,76.2 76.1,86.9 76,100 C75.9,113 86.6,123.8 99.7,123.9 Z" id="Shape"></path>
                <path d="M153.3,86.1 C148.2,86.1 142.7,86.1 137.2,86.1 C136.4,86.1 135.7,86.3 134.599,86.5 C139.999,104.7 135.799,119.9 120.2,130.6 C107.5,139.3 93.6,139.401 80.7,131.1 C64.3,120.5 59.6,105 65.2,86 C58.4,86 52.1,86 45.3,86 C45.3,104 45.3,121.9 45.3,139.5 C45.3,149.5 50.3,154.5 60.5,154.5 C86.8,154.5 113.1,154.6 139.4,154.5 C149.4,154.5 154.4,149.4 154.5,139.4 C154.5,123.099 154.5,106.799 154.4,90.5 C154.4,89.2 155,87.6 153.3,86.1 Z" id="Shape"></path>
                <path d="M100,0 C44.8,0 0,44.8 0,100 C0,155.2 44.8,200 100,200 C155.2,200 200,155.2 200,100 C200,44.8 155.2,0 100,0 Z M167.6,139.3 C167.5,156.8 156.5,167.7 139.1,167.7 C112.901,167.7 86.8,167.7 60.6,167.7 C43.1,167.7 32.4,156.9 32.4,139.2 C32.4,126 32.4,112.9 32.4,99.7 C32.4,99.7 32.4,99.7 32.3,99.7 C32.3,86.4 32.2,73 32.3,59.7 C32.4,43.5 42.9,32.6 59.1,32.4 C86.1,32.2 113.1,32.2 140.1,32.4 C156.701,32.5 167.5,43.6 167.6,60.2 C167.7,86.6 167.7,113 167.6,139.3 Z" id="Shape"></path>
                <path d="M151,48 C144,48 137,48 129,48 C129,56 129,63 129,71 C137,71 144,71 151,71 C151,63 151,56 151,48 Z" id="Shape"></path>
            </g>
            <g id="jade" fill="#000000" fill-rule="nonzero">
                <g id="Group">
                    <path d="M100.664,99.363 C99.861,100.209 99.158,101.151 99.136,102.107 C99.071,105.01 99.325,107.919 99.352,110.827 C99.397,115.744 99.365,120.66 99.365,125.885 C92.818,124.588 89.448,126.828 88.337,132.9 C87.394,138.046 88.218,143.068 89.711,148.005 C91.238,153.058 94.464,154.828 99.581,153.616 C101.289,153.212 102.236,152.407 102.204,150.578 C102.124,146.088 102.037,141.598 102.029,137.107 C102.014,127.879 102.041,118.653 102.066,109.427 C102.075,106.08 102.886,102.646 100.664,99.363 Z" id="Shape"></path>
                    <path d="M87.006,130.614 C86.802,128.7 86.721,127.024 86.427,125.387 C85.999,123.004 84.254,121.24 82.091,121.502 C79.154,121.857 76.309,123.151 73.511,124.262 C73.053,124.445 72.656,125.949 72.93,126.486 C73.215,127.048 74.371,127.496 75.099,127.432 C76.388,127.322 77.635,126.529 78.909,126.499 C80.185,126.471 82.247,126.666 82.596,127.405 C83.317,128.938 83.326,130.917 83.156,132.666 C83.119,133.042 81.084,133.262 79.954,133.475 C79.355,133.588 78.718,133.482 78.109,133.559 C73.546,134.14 71.409,136.677 71.643,141.27 C71.733,143.029 71.934,144.782 72.052,146.54 C72.372,151.309 77.65,155.403 82.368,154.461 C84.277,154.081 85.559,153.215 85.13,150.831 C84.855,149.303 84.934,147.67 85.107,146.111 C85.688,140.866 86.381,135.633 87.006,130.614 Z" id="Shape"></path>
                    <path d="M64.749,102.04 C64.893,104.682 65.217,107.33 65.129,109.965 C64.822,119.22 64.405,128.471 63.957,137.721 C63.779,141.415 63.577,145.123 63.072,148.783 C62.806,150.712 62.304,153.116 59.578,152.981 C56.988,152.854 56.668,150.528 56.151,148.569 C56.041,148.149 56.026,147.691 56.039,147.253 C56.152,143.2 56.345,139.149 56.378,135.096 C56.396,132.982 56.141,130.865 55.975,128.193 C53.4,129.689 52.378,131.313 52.462,133.352 C52.692,138.98 52.872,144.628 53.522,150.217 C53.984,154.181 56.834,155.901 61.218,155.641 C64.868,155.425 66.981,153.261 67.233,149.252 C67.45,145.82 67.532,142.376 67.606,138.937 C67.841,127.828 67.979,116.716 68.306,105.61 C68.391,102.742 69.033,99.888 69.453,96.771 C65.329,97.496 64.553,98.433 64.749,102.04 Z" id="Shape"></path>
                    <path d="M100,0 C44.771,0 0,44.771 0,100 C0,155.229 44.771,200 100,200 C155.229,200 200,155.229 200,100 C200,44.771 155.229,0 100,0 Z M167.389,136.325 C165.618,144.422 157.924,148.563 150.04,145.766 C142.774,143.189 143.334,142.937 138.337,149.715 C135.096,154.112 132.832,158.906 131.36,164.138 C130.984,165.474 130.314,166.76 129.597,167.96 C128.428,169.918 126.701,170.651 124.319,170.784 C112.908,171.417 102.102,168.934 91.466,165.113 C88.4,164.012 85.101,163.556 81.908,162.805 C81.763,163.175 81.618,163.543 81.474,163.913 C82.641,165.013 83.808,166.112 85.259,167.479 C80.727,168.313 76.525,169.096 72.318,169.855 C65.858,171.022 59.378,171.449 52.829,170.596 C49.947,170.221 47.901,169.015 46.815,166.203 C42.245,154.378 37.516,142.612 33.098,130.73 C32.147,128.171 32.152,125.23 31.922,122.448 C31.858,121.671 32.377,120.713 32.903,120.056 C33.411,119.421 34.272,119.069 34.978,118.592 C35.387,119.212 35.838,119.809 36.195,120.458 C36.602,121.199 36.925,121.985 37.592,123.409 C39.17,118.434 40.438,114.104 41.915,109.846 C46.515,96.591 54.259,86.135 67.92,81.034 C76.82,77.71 86.013,77.472 95.316,78.436 C97.682,78.681 100.036,79.043 102.394,79.377 C106.995,80.029 110.873,82.132 114.36,85.155 C118.033,88.34 122.104,90.44 127.193,88.901 C127.614,88.774 128.037,88.651 128.445,88.495 C132.901,86.802 133.544,84.785 130.842,80.899 C128.577,77.643 125.981,74.574 124.068,71.125 C117.954,60.109 112.039,48.98 106.177,37.826 C105.217,35.999 104.768,33.853 104.364,31.799 C104.009,29.998 104.982,28.852 106.887,28.958 C113.302,29.314 119.083,30.492 122.824,36.847 C128.005,45.645 131.469,55.14 135.434,64.458 C137.486,69.281 140.135,73.953 143.186,78.212 C145.115,80.905 148.22,82.793 150.935,84.863 C151.662,85.418 152.886,85.323 153.883,85.526 C153.989,84.535 154.348,83.493 154.16,82.561 C153.245,77.988 152.033,73.472 151.215,68.884 C150.116,62.728 149.27,56.527 148.344,50.34 C147.91,47.438 149.104,46.192 151.981,46.338 C155.055,46.495 156.998,48.284 157.773,50.984 C159.715,57.74 161.659,64.518 163.083,71.396 C164.562,78.536 165.312,85.782 167.534,92.825 C168.544,96.024 167.595,99.913 167.228,103.458 C166.432,111.135 166.492,118.729 167.785,126.382 C168.327,129.597 168.09,133.121 167.389,136.325 Z" id="Shape"></path>
                    <path d="M114.359,151.46 C111.213,152.19 109.566,151.479 108.74,148.384 C108.178,146.28 107.992,144.061 107.784,141.879 C107.618,140.141 108.646,139.233 110.32,139.207 C111.813,139.185 113.31,139.437 114.802,139.41 C117.49,139.358 118.493,138.026 117.732,135.456 C117.208,133.689 116.747,131.788 115.726,130.316 C114.6,128.692 113.029,126.617 111.362,126.308 C108.898,125.853 107.556,128.362 106.477,130.435 C106.236,130.896 105.944,131.413 105.942,131.906 C105.924,138.136 105.699,144.384 106.085,150.592 C106.272,153.592 108.513,154.986 111.593,154.525 C114.135,154.144 116.581,153.118 119.07,152.377 C119.008,151.898 118.946,151.417 118.885,150.938 C117.373,151.101 115.829,151.12 114.359,151.46 Z" id="Shape"></path>
                    <path d="M156.994,114.398 C151.461,112.203 145.754,110.819 139.77,111.311 C138.041,111.454 136.369,112.293 134.672,112.814 C134.667,113.15 134.662,113.486 134.658,113.824 C136.416,115.373 137.934,117.458 139.977,118.369 C145.455,120.816 151.373,121.222 157.289,120.528 C158.431,120.394 159.955,119.226 160.311,118.194 C160.555,117.482 159.139,116.141 158.358,115.168 C158.056,114.788 157.479,114.591 156.994,114.398 Z" id="Shape"></path>
                </g>
            </g>
            <g id="jquery" fill="#000000" fill-rule="nonzero">
                <g id="jquery-Layer_1">
                    <path d="M100,0 C44.8,0 0,44.8 0,100 C0,155.2 44.8,200 100,200 C155.2,200 200,155.2 200,100 C200,44.8 155.2,0 100,0 Z M109.9,36.8 L113.9,31.2 C106.5,44.7 113.5,61.2 125,69.8 C127,71.3 129.2,72.6 131.4,73.7 C132.6,74.3 133.8,74.8 135.1,75.2 C136.1,75.5 137.2,75.9 138.2,76.2 C151,79.3 161.4,77.2 167.5,68.2 C165.6,70.9 158.6,89.3 132.5,84.3 C131.9,84.2 131.4,84 130.8,83.8 C130.6,83.7 130.5,83.7 130.3,83.6 C129.9,83.5 129.5,83.3 129.1,83.2 C119.7,79.7 111.6,72.5 107.7,63.2 C104,54.6 104.5,44.8 109.9,36.8 Z M89.1,167 C88.1,166.8 87.2,166.5 86.3,166.2 C86.1,166.1 85.9,166.1 85.6,166 C84.7,165.7 83.8,165.4 82.9,165.1 C82.8,165.1 82.7,165 82.6,165 C81.8,164.7 81,164.4 80.2,164.1 C80,164 79.8,163.9 79.6,163.9 C78.7,163.6 77.9,163.2 77,162.8 C76.8,162.7 76.7,162.7 76.5,162.6 C75.8,162.3 75,161.9 74.3,161.6 C74.1,161.5 73.9,161.4 73.7,161.3 C73.6,161.2 73.5,161.2 73.4,161.1 C72.9,160.9 72.5,160.6 72,160.4 C71.6,160.2 71.3,160 70.9,159.8 C70.2,159.4 69.6,159.1 68.9,158.7 C68.7,158.6 68.4,158.4 68.2,158.3 C67.3,157.8 66.4,157.2 65.6,156.7 C65.4,156.5 65.1,156.4 64.9,156.2 C64.3,155.8 63.8,155.5 63.2,155.1 C63.1,155.1 63.1,155 63,155 C62.8,154.9 62.6,154.7 62.4,154.6 C61.8,154.2 61.3,153.8 60.7,153.4 C60.4,153.2 60.2,153 59.9,152.8 C59.4,152.4 58.9,152 58.4,151.6 C58.1,151.4 57.9,151.2 57.6,151 C57,150.5 56.4,150 55.8,149.5 C55.7,149.4 55.6,149.3 55.4,149.2 C55.4,149.2 55.4,149.2 55.4,149.2 C54.7,148.6 54,148 53.4,147.4 C53.2,147.2 53,147 52.8,146.8 C52.3,146.3 51.8,145.8 51.3,145.4 C51.1,145.2 50.9,145 50.7,144.8 C50.1,144.2 49.5,143.5 48.9,142.9 C48.9,142.9 48.9,142.9 48.8,142.8 C48.8,142.8 48.8,142.8 48.8,142.8 C48.2,142.1 47.6,141.4 47,140.7 C46.8,140.5 46.7,140.3 46.5,140.1 C46.1,139.6 45.6,139 45.2,138.5 C45,138.3 44.8,138 44.7,137.8 C44.2,137.2 43.7,136.6 43.3,135.9 C43.2,135.8 43.1,135.7 43,135.5 C43,135.5 43,135.5 43,135.4 C42.5,134.7 42,133.9 41.5,133.2 C41.3,133 41.2,132.7 41,132.5 C40.6,131.9 40.3,131.4 39.9,130.8 C39.7,130.5 39.5,130.2 39.4,129.9 C39.1,129.4 38.8,128.8 38.5,128.3 C38.3,128 38.2,127.7 38,127.4 C37.9,127.2 37.8,127.1 37.7,126.9 C37.5,126.6 37.4,126.3 37.2,126 C37,125.5 36.7,125.1 36.5,124.6 C26.9,105.3 25.3,81.7 37.9,63.5 L47.8,51 C36.7,72.5 41.7,98.7 55.6,117.7 C56.1,118.4 56.6,119.1 57.1,119.8 C57.3,120 57.4,120.2 57.6,120.4 C58,121 58.5,121.5 58.9,122.1 C59.1,122.3 59.2,122.5 59.4,122.7 C60,123.4 60.6,124.1 61.3,124.8 C61.3,124.8 61.4,124.9 61.4,124.9 C62,125.6 62.6,126.2 63.2,126.8 C63.4,127 63.6,127.2 63.8,127.4 C64.3,127.9 64.8,128.4 65.3,128.9 C65.5,129.1 65.7,129.3 65.9,129.5 C66.6,130.1 67.3,130.8 68,131.4 C68.1,131.5 68.1,131.5 68.2,131.6 C68.9,132.2 69.5,132.7 70.2,133.3 C70.4,133.5 70.7,133.7 70.9,133.9 C71.4,134.3 72,134.7 72.5,135.1 C72.8,135.3 73,135.5 73.3,135.7 C73.9,136.1 74.5,136.6 75.1,137 C75.3,137.1 75.5,137.3 75.7,137.4 C76.3,137.8 76.9,138.2 77.6,138.6 C77.8,138.8 78.1,138.9 78.3,139.1 C79.2,139.6 80,140.2 80.9,140.7 C81.1,140.8 81.4,141 81.6,141.1 C82.3,141.5 82.9,141.9 83.6,142.2 C84,142.4 84.3,142.6 84.7,142.8 C85.3,143.1 85.8,143.4 86.4,143.7 C86.6,143.8 86.8,143.9 87,144 C87.7,144.3 88.4,144.7 89.2,145 C89.4,145.1 89.5,145.2 89.7,145.2 C90.5,145.6 91.4,145.9 92.3,146.3 C92.5,146.4 92.7,146.5 93,146.6 C93.8,146.9 94.6,147.2 95.4,147.5 C95.5,147.5 95.6,147.6 95.8,147.6 C96.7,147.9 97.6,148.2 98.5,148.5 C98.7,148.6 99,148.6 99.2,148.7 C100.1,149 101,149.3 102,149.5 C127.1,155.2 153.5,150.1 168.4,130.7 C167.9,130.3 150.1,178.2 89.1,167 Z M113.3,123.2 C112.4,123 111.5,122.7 110.6,122.4 C110.3,122.3 110,122.2 109.8,122.1 C109.2,121.9 108.6,121.7 108,121.5 C107.7,121.4 107.4,121.3 107.1,121.2 C106.4,120.9 105.8,120.7 105.1,120.4 C104.9,120.3 104.7,120.3 104.6,120.2 C103.8,119.8 103,119.5 102.2,119.1 C102.1,119.1 102.1,119 102,119 C101.6,118.8 101.2,118.6 100.8,118.4 C100.6,118.3 100.4,118.2 100.2,118.1 C99.6,117.8 99.1,117.5 98.5,117.2 C98.4,117.1 98.3,117.1 98.2,117 C97.6,116.6 96.9,116.2 96.3,115.8 C96.1,115.7 95.9,115.6 95.7,115.4 C95.3,115.1 94.9,114.9 94.5,114.6 C94.5,114.6 94.5,114.6 94.4,114.5 C93.5,113.9 92.7,113.3 91.8,112.6 C91.6,112.5 91.4,112.3 91.2,112.2 C90.4,111.5 89.5,110.9 88.8,110.2 C88.8,110.2 88.8,110.2 88.8,110.2 C88.8,110.2 88.7,110.1 88.7,110.1 C88,109.5 87.3,108.8 86.6,108.2 C86.4,108 86.2,107.8 86.1,107.7 C85.4,107 84.7,106.3 84.1,105.6 C82.3,104 80.8,101.7 79.4,99.7 C77.9,97.5 76.6,95.3 75.4,93 C68.3,79.1 67.8,61.5 76.9,48.4 L84.4,37.7 C78.3,48 77.6,60.6 81.1,71.9 C84.4,82.8 91.5,92.3 100.4,99.4 C100.6,99.6 100.8,99.7 101,99.9 C101.8,100.5 102.7,101.2 103.5,101.8 C103.9,102.1 104.3,102.3 104.7,102.6 C104.9,102.7 105.1,102.9 105.3,103 C105.9,103.4 106.6,103.8 107.2,104.2 C107.3,104.3 107.5,104.3 107.6,104.4 C108.1,104.7 108.6,105 109.2,105.3 C109.4,105.4 109.7,105.5 109.9,105.7 C110.3,105.9 110.7,106.1 111.1,106.3 C111.9,106.7 112.7,107.1 113.6,107.4 C113.8,107.5 114,107.6 114.1,107.6 C114.8,107.9 115.4,108.2 116.1,108.4 C116.4,108.5 116.7,108.6 116.9,108.7 C117.5,108.9 118.1,109.1 118.8,109.3 C119.1,109.4 119.3,109.5 119.6,109.6 C120.5,109.9 121.4,110.1 122.3,110.4 C142.6,115.7 161.6,108.9 171.4,94.8 C171.3,94.7 160.4,131 113.3,123.2 Z" id="Shape"></path>
                </g>
            </g>
            <g id="js" fill="#000000" fill-rule="nonzero">
                <path d="M100,0 C44.8,0 0,44.8 0,100 C0,155.2 44.8,200 100,200 C155.2,200 200,155.2 200,100 C200,44.8 155.2,0 100,0 Z M90,88 C90,110.6 90,122.7 89.9,123.8 C88.6,134.4 83.6,141.6 75,145.1 C67.9,148 58.1,148.2 50.5,145.7 C43.3,143.3 37.4,138.1 33.9,131.2 L33.3,130 L40.9,125.4 C45.1,122.9 48.6,120.8 48.6,120.7 C48.7,120.7 49.2,121.4 49.7,122.4 C53.1,128.3 56.1,130.4 61.1,130.4 C64.6,130.4 66.6,129.7 68.3,128.1 C69.5,126.9 70.1,125.7 70.7,123.6 L71.1,122 L71.2,88.1 L71.3,54 L80.7,54 L90,54 L90,88 Z M159.4,138.9 C154.9,143.3 149,145.9 141.3,147 C138.2,147.4 132.1,147.4 128.9,147 C116.5,145.3 107.4,139.6 101.5,129.7 C100.7,128.5 100.6,128.1 100.8,127.9 C101.1,127.6 115.8,119.2 115.9,119.2 C116,119.2 116.5,119.9 117.2,120.8 C121.7,127.5 127.3,130.5 134.8,130.5 C139.2,130.5 142.8,129.3 145.1,127 C145.8,126.3 146.5,125.3 146.8,124.7 C148.3,121.6 147.6,117.6 145.3,115.1 C143.4,113.1 140.4,111.4 132.4,108 C126.5,105.5 123.1,103.8 120.6,102.3 C110.8,96.3 106.4,88.8 106.4,78.1 C106.4,70.9 108.6,65.3 113.3,60.6 C117.8,56.1 124,53.5 131.2,52.9 C134,52.7 134.3,52.7 137.3,52.9 C143.3,53.3 147.8,54.8 152,57.6 C154.3,59.1 157.6,62.6 159.5,65.4 C160.4,66.7 161.1,67.8 161.1,67.9 C161.1,68 147.1,77.1 146.6,77.3 C146.4,77.4 146,76.8 145.4,75.9 C144.9,75.1 143.8,73.7 142.9,72.9 C140.5,70.4 138,69.5 134.3,69.5 C131,69.5 128.9,70.3 127.1,72.3 C125.8,73.7 125.3,75.1 125.1,77.2 C124.9,79.8 125.7,81.9 127.3,83.7 C129.1,85.6 131.7,87 139.6,90.4 C150.1,94.9 155.4,98 159.4,102.1 C161.5,104.3 162.8,106 164,108.5 C165.8,112.2 166.6,116 166.6,120.8 C166.6,128.2 164.2,134.2 159.4,138.9 Z" id="Shape"></path>
            </g>
            <g id="linkedin" fill="#1C86BC" fill-rule="nonzero">
                <path d="M100,0 C44.8,0 0,44.8 0,100 C0,155.2 44.8,200 100,200 C155.2,200 200,155.2 200,100 C200,44.8 155.2,0 100,0 Z M65,161 C57,161 49,161 40,161 C40,134 40,107 40,80 C49,80 57,80 65,80 C65,107 65,134 65,161 Z M52.5,67.8 C44.4,67.7 38.1,61.2 38.1,53.1 C38.2,45 44.6,38.5 52.6,38.4 C60.8,38.4 67.3,45 67.1,53.4 C67.1,61.7 60.7,67.9 52.5,67.8 Z M161.7,162 C153.099,162 145.2,162 137.2,162 C135.9,160 136.5,157.8 136.5,155.9 C136.3,142.099 136.5,128.099 136,114.299 C135.6,104.699 131.3,100.099 123.4,99.799 C114.4,99.399 109.099,104.099 107.7,113.599 C106.3,123.2 107.2,132.7 107,142.299 C106.9,148.4 107,154.9 107,160.9 C98.7,161 91,161 82,161 C82,134 82,107 82,80 C90,80 97.7,80 105.7,80 C106.7,83 105.8,86.7 106.4,91.1 C111.599,84 117.5,79.5 125.4,78.3 C143.2,75.6 157.799,82.4 160.4,101.3 C163.2,121.3 161,141 161.7,162 Z" id="Shape"></path>
            </g>
            <g id="php" fill="#000000" fill-rule="nonzero">
                <path d="M153.3,88 L144.5,88 L139.7,112 L147.5,112 C152.7,112 156.5,111.2 159.1,109.2 C161.6,107.3 163.3,104.1 164.2,99.5 C165,95.1 164.7,92.2 163,90.4 C161.4,88.7 158.2,88 153.3,88 Z" id="Shape"></path>
                <path d="M53.2,88 L44.4,88 L39.6,112 L47.4,112 C52.6,112 56.4,111.2 59,109.2 C61.5,107.3 63.2,104.1 64.1,99.5 C64.9,95.1 64.6,92.2 62.9,90.4 C61.3,88.7 58.1,88 53.2,88 Z" id="Shape"></path>
                <path d="M100,0 C44.8,0 0,44.8 0,100 C0,155.2 44.8,200 100,200 C155.2,200 200,155.2 200,100 C200,44.8 155.2,0 100,0 Z M69.3,115 C66.7,117.4 63.9,119.3 60.8,120.3 C57.6,121.3 53.6,122 48.8,122 L37.8,122 L34.8,137 L21.9,137 L33.3,78 L58,78 C65.4,78 70.8,80.1 74.2,84 C77.6,87.9 78.6,93.4 77.3,100.4 C76.7,103.3 75.8,106 74.5,108.3 C73.2,110.8 71.5,113 69.3,115 Z M106.7,122 L111.8,95.8 C112.4,92.8 112.2,90.8 111.2,89.7 C110.2,88.6 108.1,88 104.8,88 L94.6,88 L88,122 L75.3,122 L86.7,63 L99.4,63 L96.4,78 L107.7,78 C114.8,78 119.8,79.4 122.5,81.9 C125.2,84.4 126,88.7 124.9,94.3 L119.7,122 L106.7,122 Z M174.6,108.4 C173.3,110.8 171.5,113 169.4,114.9 C166.8,117.3 164,119.2 160.9,120.2 C157.8,121.2 153.8,121.9 148.9,121.9 L137.9,121.9 L134.9,136.9 L122.1,136.9 L133.5,77.9 L158.2,77.9 C165.6,77.9 171,80 174.4,83.9 C177.8,87.8 178.8,93.3 177.5,100.3 C176.9,103.3 176,106 174.6,108.4 Z" id="Shape"></path>
            </g>
            <g id="rails" fill="#000000" fill-rule="nonzero">
                <g id="rails-Layer_2">
                    <path d="M82,158 C84,158 86,158 88,158 C88,155 88,153 88,151 C86,151 84,151 82,151 C82,153 82,156 82,158 Z" id="Shape"></path>
                    <path d="M58,156 C59,156 61,156 63,156 C63,154 63,153 63,152 C61,152 59,152 58,152 C58,153 58,154 58,156 Z" id="Shape"></path>
                    <path d="M100,0 C44.8,0 0,44.8 0,100 C0,155.2 44.8,200 100,200 C155.2,200 200,155.2 200,100 C200,44.8 155.2,0 100,0 Z M142.1,35.3 C144.4,37 146.5,38.5 148.7,40.1 C148.3,40.7 148,41.3 147.5,42 C145.7,41.1 144,40.2 142.4,39.2 C142,39 141.9,38.2 141.9,37.6 C141.9,36.9 142,36.3 142.1,35.3 Z M121.9,29.4 C122.2,29.4 122.6,30 122.7,30.3 C123,31.6 123.1,33 123.4,34.8 C120.8,34.8 118.4,34.8 116,34.8 C115.6,34.8 115,34.3 115,34 C114.6,32.4 114.3,30.8 114,29 C116.7,29.1 119.3,29.2 121.9,29.4 Z M96.8,32.2 C98.5,34.1 100,35.8 101.7,37.7 C99.5,39 97.3,40.3 95,41.6 C93.4,39.7 91.8,37.7 90.1,35.7 C92.4,34.5 94.6,33.4 96.8,32.2 Z M74.2,49.7 C76.6,51.3 78.9,52.8 81.3,54.4 C79.4,56.6 77.7,58.7 75.8,60.9 C73.4,59.3 71,57.7 68.5,56 C70.4,53.9 72.2,51.9 74.2,49.7 Z M56.1,76.7 C59.2,77.9 62.2,79.1 65.4,80.4 C64.5,83 63.6,85.6 62.6,88.3 C62.2,88.2 61.9,88.2 61.7,88.1 C58.9,87.2 56.1,86.3 53.1,85.3 C54.1,82.4 55.1,79.6 56.1,76.7 Z M46,110.8 C49.5,111.1 52.9,111.3 56.5,111.6 C55.9,115.1 55.3,118.6 54.7,122.2 C51.4,121.8 48.2,121.4 44.8,121 C45.2,117.6 45.6,114.3 46,110.8 Z M71.6,168.4 C70.1,168.4 68.5,168.2 67,168.4 C63.9,168.8 61.5,167.9 59.7,165.3 C59.1,164.5 58.2,163.8 57.5,163 C57.4,163.1 57.1,163.1 57.1,163.2 C57.1,165.1 57.1,166.9 57.1,168.9 C55.1,168.9 53.1,168.9 51.1,168.9 C51.1,160.9 51.1,153 51.1,144.8 C56.1,145 60.6,144.3 65.2,145.5 C69.3,146.6 71.2,150 70.3,154.7 C69.7,157.7 68.3,160.1 64.5,160.9 C66,162.2 67.2,163.3 68.4,164.4 C69.6,165.5 70.7,166.6 71.9,167.7 C71.7,168.1 71.7,168.2 71.6,168.4 Z M94.5,166.8 C94.5,167.2 94.4,168 94.4,168 C92.4,168 90,168 88,168 C88,167 88,166 88,164 C86,164 84,164 82,164 C82,166 82,167 82,168 C80,168 78.1,168 76,168 C75.9,168 75.9,167.6 75.9,167.3 C75.9,162.1 75.8,156.9 75.9,151.7 C76,147.2 78,145.2 82.5,145.1 C84.9,145.1 87.3,145.1 89.7,145.5 C93.1,146.1 94.5,147.9 94.6,151.3 C94.6,156.5 94.5,161.6 94.5,166.8 Z M107,168 C105,168 103,168 101,168 C101,160 101,153 101,145 C103,145 105,145 107,145 C107,153 107,160 107,168 Z M112.4,81.1 C112.6,81.3 112.7,81.9 112.6,82.2 C112.2,84.1 111.7,85.9 111.2,88.1 C108.8,86 106.6,84.1 104.3,82.2 C105.2,80.4 106,78.8 106.9,76.9 C108.9,78.3 110.7,79.7 112.4,81.1 Z M110.8,63.8 C112.2,62.5 113.5,61.3 115,59.9 C116.3,61.9 117.5,63.7 118.7,65.6 C118.9,65.8 118.8,66.3 118.7,66.6 C118.1,67.8 117.4,68.9 116.6,70.3 C114.7,68.1 112.8,66.1 110.8,63.8 Z M111.4,99.3 C111.7,99.5 111.9,100 111.9,100.3 C112,102.2 112.1,104 112.2,106.2 C109.4,105 106.8,103.9 104.2,102.7 C104,102.6 103.7,102.2 103.7,102 C103.8,99.9 103.9,97.8 104.1,95.4 C106.7,96.8 109.1,98.1 111.4,99.3 Z M114.7,120.8 C115.1,120.8 115.6,121.1 115.8,121.4 C117,123.7 118.1,126.1 119.3,128.7 C116.6,128.5 114.1,128.4 111.7,128.3 C108.6,128.1 108.6,128 107.8,125 C107.4,123.7 107.1,122.3 106.6,120.8 C109.5,120.8 112.1,120.8 114.7,120.8 Z M130,168 C124,168 119,168 114,168 C114,161 114,153 114,145 C116,145 118,145 120,145 C120,151 120,157 120,162 C124,162 127,162 130,162 C130,164 130,166 130,168 Z M126,58.4 C125.1,56.8 124.3,55.3 123.4,53.7 C125.3,53.2 127,52.8 128.8,52.3 C130.4,55 130,55.8 126,58.4 Z M151.2,164.3 C150.9,166.5 149.3,168 147.1,168.2 C144.1,168.5 140.9,168.5 137.9,168.6 C136.4,168.6 135.1,168.6 133.1,168.6 C133.1,166.7 133.1,164.9 133.1,163 C136.1,163 139.1,163 142,163 C142.8,163 143.7,163 144.4,162.7 C144.9,162.5 145.3,161.9 145.7,161.5 C145.3,161.1 145,160.5 144.5,160.3 C143.8,160.1 142.9,160.1 142.1,160 C141.2,159.9 140.3,159.9 139.4,159.8 C133.7,158.9 131,153.1 134,148.1 C135.2,146 137.2,145.2 139.4,145.1 C143,145 147.1,145.1 150.1,145.1 C150.1,147.2 150.1,148.9 150.1,150.9 C147.1,150.9 143.1,150.9 140.1,150.9 C140.1,151.9 140.1,152.7 140.1,153.6 C141.1,153.6 142.2,153.6 143.2,153.6 C144.3,153.6 145.3,153.6 146.4,153.7 C149.2,154 150.9,155.4 151.3,158.1 C151.5,160.2 151.4,162.3 151.2,164.3 Z M141,54 C141,53 141,52.2 141,51 C143,51.4 144,51.8 146,52.2 C146,53.1 146,53.8 146,54.6 C144,54.4 143,54.2 141,54 Z M152.8,53.6 C150,51 146.9,49.3 143.3,48.4 C137.8,47.1 132.6,47.9 127.5,50.2 C113.7,56.4 105.5,67.1 102.4,81.7 C100.1,92.7 101.2,103.7 103.5,114.6 C105.1,122.3 107.3,129.8 110.2,137.1 C110.3,137.3 110.4,138 110.5,138 C92.5,138 74.7,138 56.6,138 C56.6,134 56.4,130.5 56.6,126.8 C58.1,106.3 64.8,87.5 74.6,69.5 C79,61.4 84,53.7 91,47.6 C99.6,40.1 109.5,35.9 120.9,35.4 C126.6,35.1 132.2,36.4 137.5,38.5 C143.5,41 149,44.4 153.9,48.7 C154.3,49.1 154.7,49.5 155.2,49.9 C154.4,51.2 153.6,52.3 152.8,53.6 Z" id="Shape"></path>
                </g>
            </g>
            <g id="sass" fill="#000000" fill-rule="nonzero">
                <g id="sass-Layer_2">
                    <path d="M85.1,108 C83.6,109.7 81,114 79.8,117.6 C77.4,124.8 78.4,132.1 80.1,132.6 C82.1,133.1 85.3,123.5 86.8,119.7 C87.8,117.4 91.5,106.9 90.7,105.5 C90.2,104.4 87.5,105.3 85.1,108 Z" id="Shape"></path>
                    <path d="M58.5,123.2 C58.5,123.2 58.4,123.3 58.2,123.4 C57.1,124.1 56.1,124.7 55.5,125.1 C52.7,126.9 48.4,129.8 45.1,132.9 C39.7,138 38.6,145.2 41.4,146.8 C44,148.4 50.3,146.5 54.7,141.7 C59.4,136.6 61.3,130.2 59.3,122.9 C58.9,123 58.7,123.1 58.5,123.2 Z" id="Shape"></path>
                    <path d="M112.3,132.3 C112.3,132.3 111.8,132.8 112,132.9 C112.3,133.1 113.1,132.8 113.8,132.5 C115.7,131.3 120,128.4 120,124.1 L120,123.7 C119,125 117.9,126.1 117.2,127 C115.8,128.7 112.3,132.3 112.3,132.3 Z" id="Shape"></path>
                    <path d="M135.3,122.8 C133.7,126.3 133.6,127.4 134.1,127.8 C136.4,127 140.3,124.9 140.3,119.5 C140.3,118.7 140.1,117.8 139.9,116.9 C137.4,119.1 135.9,121.4 135.3,122.8 Z" id="Shape"></path>
                    <path d="M100,0 C44.8,0 0,44.8 0,100 C0,155.2 44.8,200 100,200 C155.2,200 200,155.2 200,100 C200,44.8 155.2,0 100,0 Z M171.8,133.4 C171,133.5 170.6,133.5 170.4,132.9 C170.3,132.5 170.6,132.3 171.5,131.7 C172.4,131.1 175.2,129.2 175.7,125.7 C176.2,122.2 173.6,113.9 160.2,112.3 C154,111.5 149.1,112.4 145.3,114 C146,115.8 146.5,117.7 146.6,119.6 C146.7,123.8 143.9,126.9 140.9,129.1 C139.2,130.4 137.3,131.3 135.7,131.8 C134.4,132.3 132.8,132.9 131.6,132.6 C129,132.1 127.6,129.7 129.4,124.6 C130.4,121.8 133.2,117.6 137.6,114 C136.6,111.9 135.4,109.8 134.9,107.8 C133.8,104 133.4,101.6 133.4,101.6 C133.4,101.6 129.7,109.2 125,116.2 C124.7,116.6 124.5,117 124.2,117.4 C125.1,119.6 125.9,121.8 126,124.2 C126.2,128.4 124.3,131.6 121.3,133.8 C119.6,135 117.9,135.8 116.4,136.4 C115.4,136.8 113.5,137.5 110.8,137.7 C109.3,137.8 107.8,137.7 107,137.1 C105.9,136.3 105.8,135.2 106.3,133.8 C106.8,132.6 110.4,128.4 113.5,124.8 C114.3,123.8 115.2,122.8 115.9,121.8 C115.9,121.8 116.4,121.1 117.3,119.8 C116.2,117.4 114.7,114.9 114.1,112.6 C113,108.8 112.6,106.4 112.6,106.4 C112.6,106.4 108.8,116 104.9,123.6 C101.9,129.5 99.9,133.1 98.9,134.7 L98.9,134.8 C98.9,134.8 99,135 98.8,135.4 C98.7,135.6 98.9,135.7 98.9,135.7 C97.9,137.2 95.4,140.1 93.2,140.1 C87,140.1 89.2,127.6 89.2,127.6 C89.2,127.6 87.4,132.2 85.3,136.2 C83.6,139.5 82.1,142.2 78.8,142.2 C77.9,142.2 76.4,142.2 75.1,141 C72.2,138.3 70.1,131.5 70.5,126.2 C70.9,121.7 71.5,118.6 72.5,116 C70.8,116.9 68.8,118 66.9,119.2 L63.8,121 L63.9,121.2 C66.5,126.1 67.1,136.8 61.6,145.1 C56,153.4 45.8,158.4 35.7,155.6 C32.5,154.7 27.6,148 31.8,138.7 C35.5,130.5 50.4,122.7 54.3,120.8 C54.6,120.6 55,120.4 55.4,120.2 C47.6,113.4 28.1,104.2 25.4,90 C24.6,86 26.5,76.5 38.2,65.6 C48.1,56.4 61.7,49.4 74.4,44.8 C95.6,37.3 118.1,41.7 121.6,55.3 C125,68.6 113.4,84.5 98.6,90.3 C85.4,95.4 74.5,94.6 70,93.1 C64.9,91.4 61.9,88.1 61.2,86.2 C60.9,85.4 60.4,84.2 61.2,83.8 C61.7,83.5 61.9,83.6 63.2,85 C64.4,86.4 69.3,90 78.6,88.9 C103,86.2 117.8,67.2 113.1,57 C109.8,49.9 91,46.6 67.5,58.4 C38.8,72.1 37.2,83.9 36.9,88.3 C36.2,100.6 52.1,107.1 60.7,116.3 L61,116.7 C62.6,115.8 64.3,114.9 66,114 C70.3,111.6 74.4,109.4 76.3,108.4 C79.3,104 85.5,99.1 89.9,99.1 C97,99.1 94.6,109.3 94.6,109.3 C94.6,109.3 94.8,108.8 94.9,108.8 C95.1,108.8 95.9,107.4 98.1,108.3 C100.4,109.1 99.8,110.7 99.8,110.9 C99.8,111.2 97.1,120.3 96,126.1 C95.5,128.9 95.7,130.9 95.9,130.9 C96.1,130.9 96.9,130.2 96.9,129.4 C96.9,129.4 97.3,128.8 97.8,127.8 C97.9,127.7 97.3,128.8 97.9,127.6 C98.5,126.4 99.4,124.6 100.4,122.4 C102.4,118 109.9,101.3 110.5,99.5 C111.2,97.6 111.5,95.7 111.8,94.9 C112.1,94.1 114.8,93.5 117.9,93.5 C121,93.5 121.3,94.9 121.3,95.1 C121.3,95.4 119.8,99.1 119.5,101.6 C119.2,104.2 119.5,105.5 119.8,107.7 C120,109.1 120.9,110.9 121.9,113 C125.1,107.7 130.8,97.7 131.3,94.9 C131.7,93 132.3,91.1 132.6,90.3 C132.9,89.5 135.6,88.9 138.7,88.9 C141.8,88.9 142.1,90.3 142.1,90.5 C142.1,90.8 140.6,94.5 140.3,97 C140,99.6 140.3,100.9 140.6,103.1 C140.8,105 142.3,107.5 143.7,110.3 C147.6,108.4 152.3,107.1 157.6,107.1 C171.5,107 179.3,116 179,124.3 C178.8,130.5 172.9,133.2 171.8,133.4 Z" id="Shape"></path>
                </g>
            </g>
            <g id="twitter" fill="#63CCF0" fill-rule="nonzero">
                <path d="M100,0 C44.771,0 0,44.771 0,100 C0,155.229 44.771,200 100,200 C155.229,200 200,155.229 200,100 C200,44.771 155.229,0 100,0 Z M159.706,68.491 C157.407,70.338 156.404,72.231 156.437,75.214 C156.843,111.811 130.095,152.483 83.667,157.593 C64.753,159.673 46.915,156.235 30.503,145.694 C44.937,145.852 58.304,142.828 71.02,133.276 C58.357,131.084 49.62,125.248 44.779,113.38 C48.54,113.132 51.569,112.934 54.598,112.733 C42.4,106.693 35.181,97.649 34.17,83.737 C38.361,84.104 41.501,86.785 45.797,85.816 C34.459,74.989 31.16,62.746 38.35,47.548 C54.414,66.197 73.847,76.151 97.332,77.998 C99.02,75.771 98.045,73.549 98.089,71.484 C98.34,59.789 103.477,50.885 113.754,45.493 C124.233,39.995 134.912,40.62 144.332,47.811 C148.441,50.949 151.834,51.18 156.09,49.337 C159.256,47.965 162.485,46.725 166.238,45.201 C165.125,51.755 160.332,55.295 156.347,59.881 C161.052,59.927 164.822,57.864 169.493,57.202 C167.059,62.359 163.409,65.517 159.706,68.491 Z" id="Shape"></path>
            </g>
            <g id="redux" fill="#000000">
                <path d="M100,200 C44.771525,200 0,155.228475 0,100 C0,44.771525 44.771525,0 100,0 C155.228475,0 200,44.771525 200,100 C200,155.228475 155.228475,200 100,200 Z M128.162588,119.800845 C133.55033,119.243079 137.637759,114.598455 137.451837,109.024221 C137.266486,103.450557 132.621291,98.9912839 127.047627,98.9912839 L126.676354,98.9912839 C120.916198,99.1772057 116.457495,104.007752 116.643417,109.767338 C116.829339,112.554455 117.943729,114.969728 119.615885,116.641884 C113.299105,129.090665 103.638012,138.194562 89.1463719,145.812226 C79.2993569,151.014616 69.0810686,152.872694 58.8627802,151.572382 C50.5019995,150.457421 43.9992968,146.741835 39.9112971,140.609836 C33.96636,131.505938 33.4091648,121.658353 38.4256332,111.811338 C41.9558673,104.750869 47.5289607,99.5484791 51.0591948,96.947284 C50.3160777,94.5320107 49.2011168,90.4445813 48.6439215,87.4721128 C21.7040718,106.980791 24.4911888,133.364016 32.6660476,145.812226 C38.7969066,155.102616 51.2451167,160.862201 64.9936392,160.862201 C68.7092248,160.862201 72.4248105,160.490358 76.1409665,159.561889 C99.9224258,154.916694 117.9443,140.795758 128.162588,119.800845 Z M160.862023,96.7619324 C146.741657,80.2257226 125.933237,71.1218248 102.151777,71.1218248 L99.1793087,71.1218248 C97.5071525,67.7775126 93.9769184,65.5475908 90.0754109,65.5475908 L89.7035671,65.5475908 C83.9445519,65.7335127 79.4858491,70.5640592 79.6712006,76.3242151 C79.8571225,81.8978788 84.5017472,86.3571519 90.0754109,86.3571519 L90.4466843,86.3571519 C94.5341137,86.17123 98.0643478,83.5700349 99.5505821,80.0398008 L102.894894,80.0398008 C117.015261,80.0398008 130.391939,84.1272302 142.468876,92.1167375 C151.758125,98.2481667 158.44675,106.237674 162.162336,115.898767 C165.320726,123.702352 165.134804,131.320016 161.790492,137.823289 C156.588672,147.670304 147.856618,153.058616 136.337447,153.058616 C128.905705,153.058616 121.845807,150.828694 118.129651,149.156538 C116.086222,151.014616 112.370066,153.987085 109.76887,155.845733 C117.758378,159.561319 125.933237,161.605319 133.736252,161.605319 C151.572204,161.605319 164.763531,151.757733 169.779999,141.910718 C175.167741,131.134094 174.795897,112.554455 160.862023,96.7619324 Z M66.4798734,122.958665 C66.6657953,128.532899 71.31042,132.991602 76.8840836,132.991602 L77.2559274,132.991602 C83.0155129,132.80625 87.4742157,127.975133 87.2882939,122.215548 C87.1029423,116.641314 82.4577473,112.182611 76.8840836,112.182611 L76.5128102,112.182611 C76.1409665,112.182611 75.5832009,112.182611 75.2124978,112.367963 C67.5948343,99.7338307 64.4364439,85.9853082 65.5514047,71.1212545 C66.2939516,59.9733568 70.0101076,50.3116934 76.5128102,42.3221862 C81.9005521,35.4476398 92.3047623,32.1033275 99.3652305,31.917976 C119.05869,31.5461322 127.418901,56.071279 127.976666,65.9188642 C130.391939,66.4760595 134.479369,67.7769422 137.266486,68.7059812 C135.036564,38.6071708 116.457495,23 98.6221134,23 C81.9005521,23 66.4798734,35.0769367 60.3484442,52.9134589 C51.8023119,76.6954885 57.3759756,99.5484791 67.7801858,117.570923 C66.8517171,118.871236 66.2939516,120.915235 66.4798734,122.959235 L66.4798734,122.958665 Z" id="Combined-Shape"></path>
            </g>
            <g id="gulp" fill="#000000">
                <path d="M133.274513,15.1724978 L133.218697,15.125 L113.02943,36.481328 L109.031118,52.7289548 C106.021904,52.6282144 103.011205,52.5781694 100.000302,52.578841 C78.7372403,52.578841 61.5,54.999992 61.5,57.9859575 C61.5,60.972225 78.7372403,63.3930739 100.000302,63.3930739 C121.263062,63.3930739 138.5,60.972225 138.5,57.9859575 C138.5,55.7871077 129.15146,53.8945264 115.731449,53.0497211 L119.175028,39.4503792 L138.244853,19.4021856 L137.784463,19.0104007 C138.030979,19.0061601 138.227627,18.9347024 138.353358,18.7887256 C138.829932,18.2353674 138.106658,16.8199543 136.737935,15.6277572 C135.368612,14.4361642 133.872183,13.918448 133.394707,14.4718063 C133.25177,14.6376683 133.216685,14.8809794 133.274513,15.1724978 Z M100,200 C44.771525,200 0,155.228475 0,100 C0,44.771525 44.771525,0 100,0 C155.228475,0 200,44.771525 200,100 C200,155.228475 155.228475,200 100,200 Z M120.906642,180.599617 L122.547262,153.286158 L127.077332,145.55998 C127.077332,145.55998 116.766851,149.77404 99.5054258,149.77404 C82.2436987,149.77404 72.0895103,145.637907 72.0895103,145.637907 L77.1664534,154.066025 L78.962459,180.599617 C78.962459,183.444228 88.3518107,185.75 99.9347017,185.75 C111.516988,185.75 120.906642,183.444228 120.906642,180.599617 Z M120.245058,113.234476 C119.795828,108.889768 129.699007,102.597432 127.157481,102.395963 C121.686197,102.710399 118.963176,108.841137 116.210407,115.262147 C115.201669,117.61543 111.749965,127.650183 109.486089,126.414793 C107.222815,125.180007 112.420353,116.928263 113.877119,112.02778 C112.19619,113.266795 106.031681,118.081193 104.443001,113.572471 C101.888855,115.752981 96.4310934,116.934304 97.046793,111.206502 C95.6879869,113.625934 92.6383355,117.003776 88.9777922,115.600143 C84.1705873,113.757327 91.7633148,98.3644827 93.6512801,99.141057 C95.5395459,99.9173293 93.2702615,103.423845 92.6758965,104.785493 C91.3687742,107.782145 89.8588227,111.549331 90.8675604,112.320468 C92.5956662,113.641641 97.2983014,107.322423 97.4028712,107.183479 C98.2823992,106.015446 100.788168,98.3738463 102.807746,99.2513058 C104.827325,100.128765 97.7703678,110.21819 100.408952,112.220489 C100.941116,112.624634 103.118451,111.971297 104.443001,110.530813 C105.299993,109.598984 105.005214,107.535067 107.861952,100.686956 C110.718691,93.8391479 113.264724,85.3110272 115.223905,85.9607399 C117.183086,86.6101505 115.568264,90.9871781 114.865423,92.61886 C111.567268,100.277073 105.864009,112.929102 108.553676,111.971297 C111.243343,111.013793 112.643916,110.957612 115.277693,107.85947 C117.911469,104.761328 117.790072,99.6581691 119.545522,99.7666056 C121.301573,99.8753441 121.006794,101.511557 120.581003,102.757519 C122.308808,100.770021 128.771101,96.5841915 130.331234,100.729848 C132.179234,105.637882 121.085522,112.727331 123.851513,112.365776 C126.548392,112.013282 130.917485,109.23169 132.782914,106.702613 L137.917651,60.2996567 C137.917651,60.2996567 132.750762,64.5978489 99.8791917,64.5978489 C67.007321,64.5978489 62.375,60.3890639 62.375,60.3890639 L66.7464976,102.743927 C69.0668649,96.1148035 74.576911,82.7061355 83.2622124,83.1561921 C87.213027,83.360983 92.4871901,91.0080196 87.9693549,91.2671798 C86.0570501,91.3765224 85.8629349,87.4501556 83.5984583,86.8735394 C81.9644053,86.4573125 79.6894116,87.7926819 78.2191245,89.2395084 C75.2869638,92.1240997 68.9806249,103.505096 69.8138777,109.179133 C70.8755014,116.412963 79.7444009,106.665461 81.2450373,103.771506 C82.3018532,101.732961 83.0158124,95.6931397 85.3271651,96.3268436 C87.6388183,96.9605476 85.1255377,103.193681 83.4500173,108.70461 C81.5677613,114.892738 80.5782548,121.420372 78.2191245,120.669472 C75.8596937,119.919176 79.7029336,111.93052 79.5638077,110.530813 C77.3462072,112.587482 73.2607741,117.794244 68.0340881,115.217141 L70.748996,141.519178 C70.748996,141.519178 77.9646113,147.25 99.7010024,147.25 C121.437394,147.25 128.920143,141.608585 128.920143,141.608585 L132.291316,111.144582 C129.533138,113.844318 120.803965,118.638478 120.245058,113.234476 Z" id="Combined-Shape"></path>
            </g>
            <g id="es6" fill="#000000">
                <path d="M100,200 C44.771525,200 0,155.228475 0,100 C0,44.771525 44.771525,0 100,0 C155.228475,0 200,44.771525 200,100 C200,155.228475 155.228475,200 100,200 Z M82,124.256357 L112.724615,124.256357 L112.724615,116.004238 L91.4887957,116.004238 L91.4887957,103.217443 L111.068215,103.217443 L111.068215,94.965324 L91.4887957,94.965324 L91.4887957,82.9957623 L112.724615,82.9957623 L112.724615,74.7436435 L82,74.7436435 L82,124.256357 Z M153.765834,110.800283 C153.765834,100.912148 153.087895,98.7563565 139.60836,95.5594641 C130.948156,93.478037 130.797503,93.3293083 130.797503,87.679167 C130.797503,83.3675841 131.927402,82.0290258 138.328592,82.0290258 C142.695965,82.0290258 147.590624,82.6239406 151.732801,83.5163128 L152.787373,75.6360157 C147.816604,74.5205504 142.545312,74 138.177155,74 C125.450885,74 121.309492,78.4610863 121.309492,87.456074 C121.309492,97.9391233 122.965892,100.243643 135.090334,102.919985 C144.12717,104.852684 144.277823,105.298095 144.277823,110.800283 C144.277823,115.558052 143.147925,116.970974 136.294775,116.970974 C131.324789,116.970974 126.806764,116.078602 122.138085,114.665679 L120.4809,122.026201 C123.794485,123.587077 130.421655,125 136.144906,125 C150.979535,125 153.765834,120.167092 153.765834,110.800283 Z M171.236894,92.3633464 C171.236894,84.7797321 174.927112,83.2924451 183.812511,83.2924451 C185.394369,83.2924451 188.707954,83.5163128 190.89164,83.9624989 L191.494253,76.3788845 C189.234455,75.8591087 185.620349,75.487287 182.83405,75.487287 C169.128534,75.487287 162.049405,79.6501413 162.049405,92.7343935 L162.049405,110.800283 C162.049405,119.349859 164.609724,124.999225 177.561973,124.999225 C189.385109,124.999225 193,119.20113 193,111.469562 L193,107.900848 C193,99.3512713 189.309782,95.6338285 180.198404,95.6338285 C176.960145,95.6338285 173.87254,96.0800146 171.236894,96.9723868 L171.236894,92.3633464 Z M178.767199,103.440536 C182.080784,103.440536 183.812511,104.556001 183.812511,108.123941 L183.812511,111.767019 C183.812511,115.558052 182.305979,117.194067 177.562758,117.194067 C172.817968,117.194067 171.236894,115.855509 171.236894,111.767019 L171.236894,105.001413 C173.345254,104.10904 176.056226,103.440536 178.767199,103.440536 Z" id="Combined-Shape"></path>
            </g>
            <g id="react" fill="#000000">
                <path d="M100,200 C44.771525,200 0,155.228475 0,100 C0,44.771525 44.771525,0 100,0 C155.228475,0 200,44.771525 200,100 C200,155.228475 155.228475,200 100,200 Z M171.109848,85.758241 C166.13403,81.6871171 159.235737,78.011797 151.036946,75.1846276 C149.37834,74.6191937 147.66319,74.0820315 145.891498,73.5731411 C146.193062,72.3857299 146.456932,71.2265905 146.683105,70.0957227 C150.641142,50.9557862 147.813973,36.0566036 139.389008,31.1938723 C135.204798,28.8190501 129.607003,28.8190501 123.04797,31.1938723 C117.110914,33.3990644 110.467067,37.5832751 103.823219,43.2941572 C102.503873,44.4250249 101.184528,45.6312839 99.8651819,46.912934 C99.0170311,46.083631 98.1500325,45.2731757 97.2641861,44.4815683 C82.6759927,31.4765893 68.3705162,26.5007712 59.9455517,31.3917742 C55.7896129,33.9362266 52.9624436,38.7424145 51.7467608,45.527621 C50.7007082,52.0301105 51.0116968,59.6634678 52.6797267,68.4276928 L54.0933113,73.7993146 C52.2085318,74.3647485 50.3237523,75.0244213 48.4389728,75.7783332 C30.9105233,81.4326719 20.4499969,90.7623308 20.4499969,100.09199 C20.4499969,104.898178 23.5598832,109.987082 28.9315048,114.79327 C34.0204095,119.316741 41.3145062,122.992062 49.7677423,126.017133 L54.0084962,127.148 C53.4430624,129.108171 52.9718675,130.992951 52.5949116,132.802339 C49.2023085,150.811408 52.0294777,164.325278 60.0869102,168.990107 C62.3486456,170.262333 64.8930979,170.856039 67.7202672,170.856039 C70.5474365,170.856039 73.6573227,170.290605 76.9651107,169.04665 C83.1848832,166.784915 90.2528063,162.544161 96.8683824,156.607105 C97.9992501,155.664715 99.1301179,154.665782 100.260986,153.610306 L104.501739,157.426984 C114.679549,166.191209 124.574641,170.799495 132.207998,170.799495 C135.035168,170.799495 137.57962,170.234062 139.728269,168.87702 C143.969023,166.332568 146.909279,161.441565 148.209776,154.401913 C149.425459,147.899424 149.171014,139.700632 147.418169,130.936407 C147.1543,129.579366 146.843311,128.165781 146.485203,126.695653 L149.482003,125.847503 C168.028233,119.712545 179.449997,109.817452 179.449997,100.120261 C179.449997,95.3140735 176.622828,90.4230705 171.251206,85.9844146 L171.109848,85.758241 Z M108.34669,48.4396054 C114.283745,43.2376138 120.164257,39.4774786 125.39452,37.5832751 C129.917991,35.8869735 133.678126,35.6890716 135.996405,37.0178412 C138.456042,38.4314259 140.237159,42.021931 141.08531,47.0825641 C142.103091,53.0196198 141.735559,60.4550752 140.039257,68.6821381 L139.473823,71.8768394 C132.488397,70.279883 125.405024,69.1465434 118.270054,68.4842362 C114.215657,62.6355972 109.776621,57.063191 104.982358,51.803937 L108.657678,48.4678771 L108.34669,48.4396054 Z M67.3527352,108.092879 C68.7474721,110.806962 70.2364479,113.539892 71.8196627,116.29167 C73.4405731,119.062296 75.099179,121.776379 76.7954806,124.433918 C71.8854984,123.895882 67.0067726,123.103207 62.1790154,122.059096 C63.5926001,117.535625 65.2889016,112.842524 67.3244635,108.064607 L67.3527352,108.092879 Z M67.2961918,92.0911004 C65.3171733,87.4262709 63.6208718,82.8179849 62.2638305,78.3510573 C66.7873014,77.3332763 71.5934891,76.5133972 76.6823938,75.8914199 C74.9860923,78.4924158 73.355758,81.149955 71.791391,83.8640375 C70.227024,86.5969679 68.7192004,89.3298983 67.2679201,92.0628287 L67.2961918,92.0911004 Z M70.9149685,100.063718 C72.9788021,95.7664206 75.2405375,91.4691231 77.7001748,87.2566408 C80.1315403,83.0158867 82.7042644,78.9164912 85.3335318,74.9867257 C90.1397196,74.6474654 94.9459073,74.4212919 99.8369102,74.4212919 C104.727913,74.4212919 109.449286,74.6191937 114.255473,74.9867257 C116.799926,78.8599478 119.344378,82.9028 121.888831,87.2000974 C124.339044,91.5350904 126.600779,95.7758445 128.674037,99.9223595 C126.695018,104.163114 124.150566,108.488683 121.888831,112.78598 C119.627095,117.083278 116.799926,121.267488 114.255473,125.112439 C109.449286,125.451699 104.643098,125.621329 99.5541932,125.621329 C94.4652886,125.621329 89.6591008,125.479971 85.1356299,125.168982 C82.3084607,121.210945 79.7640083,117.083278 77.219556,112.870795 C74.6751036,108.630041 72.4133682,104.332744 70.4343497,100.063718 L70.9149685,100.063718 Z M99.8651819,114.086478 C107.699723,114.070871 114.039687,107.709828 114.029287,99.8752776 C114.018888,92.0407275 107.66206,85.696537 99.827505,85.7017289 C91.99295,85.7069208 85.644536,92.0595308 85.6445204,99.8940878 C85.6445204,103.658144 87.1397858,107.268034 89.8013751,109.929623 C92.4629645,112.591213 96.0728544,114.086478 99.8369102,114.086478 L99.8651819,114.086478 Z M127.854158,116.178583 C129.493916,113.38911 131.039435,110.590212 132.490715,107.78189 C134.525019,112.33984 136.318039,117.001693 137.862337,121.748107 C132.96239,122.853719 128.008115,123.703023 123.019698,124.292559 L127.825886,116.206855 L127.854158,116.178583 Z M132.434172,92.0628287 C130.982892,89.3487461 129.45622,86.5969679 127.854158,83.8074942 C126.289791,81.0934116 124.687728,78.4547202 123.04797,75.8914199 C128.080331,76.5133972 132.943062,77.361548 137.466533,78.4358724 C135.999672,83.0698584 134.301235,87.6273302 132.377629,92.0911004 L132.434172,92.0628287 Z M99.9217253,56.6101249 C103.219755,60.2204366 106.333597,63.9947902 109.251384,67.9188023 C106.141498,67.7303244 103.00334,67.6360854 99.8369102,67.6360854 C96.6704806,67.6360854 93.4663554,67.7303244 90.2245346,67.9188023 C93.3344208,63.8194068 96.444307,60.0027281 99.5541932,56.6101249 L99.9217253,56.6101249 Z M58.4754237,46.7150321 C59.3235745,41.9088442 61.019876,38.601056 63.3381548,37.2440148 C65.7977921,35.8304301 69.7841008,36.0283319 74.6468319,37.8094486 C80.2163554,39.9298256 86.5209429,43.9726778 92.7407153,49.5704732 C93.5888661,50.2489938 94.3522018,50.9840579 95.1438092,51.7473936 C90.2666056,57.0946045 85.7519379,62.7615516 81.62994,68.7104098 C74.495554,69.3773381 67.4124837,70.5106294 60.4261705,72.103013 C60.011519,70.5951893 59.6534109,68.9931267 59.3518462,67.2968251 C57.8251748,59.6634678 57.5141861,52.5955444 58.5036954,47.2239226 L58.4754237,46.7150321 Z M55.5634393,120.419337 C54.2440937,120.042381 52.9435958,119.637154 51.6619457,119.203655 C44.0285887,116.574387 37.5826428,113.153512 33.143987,109.308562 C29.3273085,106.057317 27.2069315,102.721257 27.2069315,99.8940878 C27.2069315,92.8827078 38.7983255,85.758241 50.2200894,81.7153888 C51.916391,81.149955 53.7823227,80.5845211 55.6765261,80.0190872 C57.8125664,86.8737795 60.4003809,93.5794303 63.4229699,100.09199 C60.4302649,106.700551 57.8801903,113.50075 55.7896129,120.447609 L55.5634393,120.419337 Z M92.3166399,151.34857 C78.9724009,163.02478 68.0029841,165.484417 63.4229699,162.939965 C57.4859144,159.406003 56.9204806,145.807318 59.182216,133.904935 L60.5958006,128.618129 C67.6784134,130.14492 74.857432,131.183989 82.0822871,131.728015 C86.3198111,137.646735 90.9478152,143.275899 95.9354166,148.577944 L93.0517039,151.34857 L92.3166399,151.34857 Z M100.119627,143.715213 C96.727024,140.209523 93.6171378,136.364573 90.5072516,132.236905 C93.5228988,132.349992 96.632785,132.415959 99.8369102,132.434807 C103.041035,132.434807 106.245161,132.359416 109.449286,132.208634 C106.539272,136.183908 103.425211,140.005712 100.119627,143.65867 L100.119627,143.715213 Z M136.024677,162.939965 C129.804904,166.502198 117.930794,160.112795 108.601135,152.196721 C107.281789,151.065853 105.962444,149.840747 104.643098,148.521401 C109.450361,143.19356 113.88983,137.545044 117.930794,131.614928 C125.159919,131.002863 132.338791,129.897695 139.41728,128.30714 L140.265431,131.98246 C143.658034,149.228193 140.265431,159.971437 135.74196,162.798606 L136.024677,162.939965 Z M147.078909,119.28847 L144.393098,120.13662 C142.181844,113.241311 139.499131,106.506191 136.363937,99.9789029 C139.439149,93.5652721 142.083695,86.9539064 144.280011,80.1887174 C145.976313,80.6410645 147.578375,81.1311072 149.086199,81.6588454 C156.719556,84.2032979 162.939328,87.3131842 167.180082,90.9885043 C170.855402,94.0983906 173.117138,97.2082769 173.117138,99.7527294 C173.117138,104.841634 165.201064,113.323142 147.672614,118.977481 L147.078909,119.28847 Z" id="Combined-Shape"></path>
            </g>
            <g id="webpack" fill="#000000">
                <path d="M100,200 C44.771525,200 0,155.228475 0,100 C0,44.771525 44.771525,0 100,0 C155.228475,0 200,44.771525 200,100 C200,155.228475 155.228475,200 100,200 Z M166.058798,142.117751 L142.293107,128.395175 L103.010349,150.004462 L103.010349,177.781368 L166.058798,142.117751 Z M170.371607,138.212095 L170.371607,63.627635 L147.299585,76.9430572 L147.299585,124.881593 L170.371607,138.212095 Z M34.4276311,142.117751 L97.4760797,177.781368 L97.4760797,150.004462 L58.1933223,128.395175 L34.4276311,142.117751 Z M30.1148216,138.212095 L53.1868442,124.881593 L53.1868442,76.9430572 L30.1148216,63.627635 L30.1148216,138.212095 Z M32.8140975,58.8021139 L55.7353225,72.0421374 L56.0519973,71.8611803 L97.4760797,49.0756731 L97.4760797,22.2186324 L32.8140975,58.8021139 Z M167.672331,58.8021139 L103.010349,22.2186324 L103.010349,49.0756731 L144.434432,71.8611803 L144.751106,72.0421374 L167.672331,58.8021139 Z M97.4760797,143.686045 L97.4760797,102.533399 L58.7211137,80.1550446 L58.7211137,122.378354 L97.4760797,143.686045 Z M103.010349,143.686045 L141.765315,122.378354 L141.765315,80.1550446 L103.010349,102.533399 L103.010349,143.686045 Z M61.3449908,75.2692046 L100.250754,97.738037 L139.156518,75.2692046 L100.250754,53.8710346 L61.3449908,75.2692046 Z" id="Combined-Shape"></path>
            </g>
        </g>
    </g>
</svg>