
<svg width="440px" height="444px" viewBox="0 0 440 444" version="1.1" xmlns="http://www.w3.org/2000/svg" xmlns:xlink="http://www.w3.org/1999/xlink">
	<style>
		@media all and (max-width: 90px) {
			#text,
			#alternate-text {
				-webkit-display: none;
				-moz-display: none;
				-ms-display: none;
				-o-display: none;
				display: none;
			}
		}
	</style>
    <g id="Page-1" stroke="none" stroke-width="1" fill="none" fill-rule="evenodd">
        <g id="logo" transform="translate(5.000000, 5.000000)">
            <g id="inner" transform="translate(89.000000, 70.000000)" fill="#000000" fill-rule="nonzero">
                <polygon id="e" points="0.3 2 62.3 2 62.3 13.5 13.1 13.5 13.1 55.7 53.7 55.7 53.7 67.2 13.1 67.2 13.1 118.4 62.3 118.4 62.3 129.9 0.3 129.9 0.3 2"></polygon>
                <path d="M88.4,30 L121.6,30 C149.8,30 162.6,41.7 162.6,78.7 C162.6,110 157.3,129.9 121.6,129.9 L88.4,129.9 L88.4,118.4 L98.7,118.4 L98.7,41.5 L88.4,41.5 L88.4,30 Z M111.5,118.4 L125,118.4 C141.8,118.4 149.2,108.8 149.2,80 C149.2,49.3 140.4,41.5 124.6,41.5 L111.4,41.5 L111.4,118.4 L111.5,118.4 Z" id="d"></path>
                <path d="M222.9,185.4 C222.9,171.2 218.7,166 201,166 L196.6,166 L196.6,161.2 L202.9,161.2 C229.2,161.2 235.7,168.5 235.7,188 L235.7,213.3 C235.7,230.8 241.8,227.9 255.7,232.3 C242,237.1 235.7,234.6 235.7,251.5 L235.7,277 C235.7,296.2 228.3,303.7 207.3,303.7 L196.6,303.7 L196.6,298.9 L201.2,298.9 C219.7,298.9 222.9,293.5 222.9,279.7 L222.9,252.9 C222.9,244.3 223.1,237.2 231.7,232.4 C223.1,227.8 222.9,220.9 222.9,212.3 L222.9,185.4 Z" id="bracket_close"></path>
                <g id="text" transform="translate(36.000000, 167.000000)">
                    <polygon id="Shape" points="89.631 0.349 99.146 0.349 99.146 2.089 91.575 2.089 91.575 8.471 97.928 8.471 97.928 10.211 91.575 10.211 91.575 19.696 89.632 19.696 89.632 0.349"></polygon>
                    <path d="M107.843,4.584 L107.843,14.881 C107.843,17.086 108.482,18.13 110.483,18.13 C112.92,18.13 113.442,17.057 113.442,14.881 L113.442,4.584 L115.385,4.584 L115.385,15.81 C115.385,17.811 113.964,19.957 110.628,19.957 C107.35,19.957 105.899,17.897 105.899,15.693 L105.899,4.584 L107.843,4.584 Z" id="Shape"></path>
                    <polygon id="Shape" points="124.257 4.584 126.2 4.584 126.2 17.956 134.119 17.956 134.119 19.696 124.257 19.696 124.257 4.584"></polygon>
                    <polygon id="Shape" points="141.656 4.584 143.599 4.584 143.599 17.956 151.518 17.956 151.518 19.696 141.656 19.696 141.656 4.584"></polygon>
                    <path d="M78.613,39.558 C78.294,38.136 77.598,36.715 75.944,36.715 C74.117,36.715 73.392,38.194 73.392,39.819 C73.392,41.385 73.711,41.879 76.757,43.706 C79.135,45.128 80.76,46.317 80.76,49.305 C80.76,52.351 79.135,54.758 75.887,54.758 C72.464,54.758 71.217,52.495 70.927,49.421 L72.87,49.16 C73.131,51.306 73.596,52.931 75.945,52.931 C77.628,52.931 78.817,51.8 78.817,49.479 C78.817,46.926 77.164,46.056 75.162,44.896 C72.928,43.591 71.449,42.663 71.449,39.82 C71.449,37.21 73.189,34.889 75.945,34.889 C78.672,34.889 80.006,36.832 80.499,39.269 L78.613,39.558 Z" id="Shape"></path>
                    <polygon id="Shape" points="92.301 41.124 88.123 41.124 88.123 39.384 98.334 39.384 98.334 41.124 94.244 41.124 94.244 54.496 92.301 54.496"></polygon>
                    <path d="M107.959,50.377 L106.538,54.873 L104.623,54.177 L109.381,39.384 L111.875,39.384 L116.632,54.177 L114.718,54.873 L113.325,50.377 L107.959,50.377 Z M110.628,41.646 L108.482,48.636 L112.775,48.636 L110.628,41.646 Z" id="Shape"></path>
                    <path d="M133.451,51.596 C132.233,53.51 130.783,54.757 128.433,54.757 C124.024,54.757 122.631,50.696 122.631,46.954 C122.631,40.921 125.821,39.122 128.259,39.122 C130.609,39.122 131.972,40.341 133.045,42.342 L131.275,43.241 C130.636,42.023 129.766,40.95 128.287,40.95 C125.27,40.95 124.661,44.604 124.661,46.925 C124.661,49.275 125.213,52.93 128.287,52.93 C130.057,52.93 130.956,51.857 131.855,50.493 L133.451,51.596 Z" id="Shape"></path>
                    <polygon id="Shape" points="143.367 45.823 144.093 45.823 149.284 39.007 150.763 40.167 145.745 46.52 151.633 53.626 150.154 54.873 144.033 47.418 143.366 47.418 143.366 54.496 141.423 54.496 141.423 39.384 143.366 39.384 143.366 45.823"></polygon>
                    <polygon id="Shape" points="116.661 69.948 114.718 89.673 113.877 89.673 110.657 77.984 110.598 77.984 107.378 89.673 106.537 89.673 104.594 69.948 106.537 69.571 107.465 84.103 107.524 84.103 110.337 73.921 110.917 73.921 113.73 84.103 113.789 84.103 114.717 69.571"></polygon>
                    <polygon id="Shape" points="123.879 74.184 133.307 74.184 133.307 75.924 125.823 75.924 125.823 80.449 132.002 80.449 132.002 82.189 125.823 82.189 125.823 87.555 133.307 87.555 133.307 89.295 123.879 89.295"></polygon>
                    <path d="M140.264,89.296 L140.264,87.556 L141.83,87.556 L141.83,75.924 L140.264,75.924 L140.264,74.184 L145.021,74.184 C148.85,74.184 150.503,75.634 150.503,78.215 C150.503,79.521 149.952,80.681 148.791,81.319 C150.445,81.84 151.373,83.262 151.373,84.973 C151.373,87.7 149.574,89.295 146.413,89.295 L140.264,89.295 L140.264,89.296 Z M145.949,80.651 C147.631,80.651 148.472,79.578 148.472,78.214 C148.472,76.416 147.196,75.923 145.832,75.923 L143.772,75.923 L143.772,80.651 L145.949,80.651 Z M146.036,87.556 C147.747,87.556 149.343,87.179 149.343,85.119 C149.343,83.61 148.357,82.392 146.5,82.392 L143.773,82.392 L143.773,87.555 L146.036,87.555 L146.036,87.556 Z" id="Shape"></path>
                    <path d="M0.979,106.488 L0.979,104.748 L6.084,104.748 C9.971,104.748 12.262,106.46 12.262,114.436 C12.262,118.7 12.03,124.095 6.142,124.095 L0.978,124.095 L0.978,122.355 L2.544,122.355 L2.544,106.488 L0.979,106.488 Z M4.489,122.355 L6.084,122.355 C8.434,122.355 10.232,121.746 10.232,114.436 C10.232,107.068 8.259,106.488 6.548,106.488 L4.489,106.488 L4.489,122.355 Z" id="Shape"></path>
                    <polygon id="Shape" points="19.481 108.983 28.908 108.983 28.908 110.723 21.424 110.723 21.424 115.248 27.603 115.248 27.603 116.988 21.424 116.988 21.424 122.354 28.908 122.354 28.908 124.094 19.481 124.094"></polygon>
                    <polygon id="Shape" points="45.148 108.606 47.004 109.301 41.202 124.472 40.854 124.472 35.053 109.301 36.909 108.606 41.028 119.686"></polygon>
                    <polygon id="Shape" points="54.281 108.983 63.708 108.983 63.708 110.723 56.224 110.723 56.224 115.248 62.403 115.248 62.403 116.988 56.224 116.988 56.224 122.354 63.708 122.354 63.708 124.094 54.281 124.094"></polygon>
                    <polygon id="Shape" points="72.058 108.983 74.001 108.983 74.001 122.355 81.92 122.355 81.92 124.095 72.058 124.095 72.058 108.983"></polygon>
                    <path d="M98.596,116.554 C98.596,117.773 98.508,124.357 93.229,124.357 C90.793,124.357 87.863,122.617 87.863,116.554 C87.863,110.521 90.735,108.722 93.229,108.722 C95.637,108.722 98.596,110.463 98.596,116.554 Z M89.893,116.554 C89.893,118.759 90.299,122.53 93.228,122.53 C96.158,122.53 96.564,118.759 96.564,116.554 C96.564,114.321 96.158,110.55 93.228,110.55 C90.299,110.55 89.893,114.32 89.893,116.554 Z" id="Shape"></path>
                    <path d="M108.569,124.096 L106.626,124.096 L106.626,108.984 L111.325,108.984 C114.835,108.984 116.198,110.898 116.198,113.103 C116.198,116.293 113.935,117.599 111.818,117.599 L108.569,117.599 L108.569,124.096 Z M111.238,115.857 C113.152,115.857 114.168,114.987 114.168,113.247 C114.168,111.187 112.833,110.724 111.238,110.724 L108.569,110.724 L108.569,115.858 L111.238,115.858 L111.238,115.857 Z" id="Shape"></path>
                    <polygon id="Shape" points="123.88 108.983 133.308 108.983 133.308 110.723 125.825 110.723 125.825 115.248 132.003 115.248 132.003 116.988 125.825 116.988 125.825 122.354 133.308 122.354 133.308 124.094 123.88 124.094"></polygon>
                    <path d="M141.048,108.983 L146.182,108.983 C148.705,108.983 150.707,110.172 150.707,113.102 C150.707,114.958 149.46,116.786 147.632,117.336 L151.345,123.457 L149.663,124.472 L145.805,117.626 L142.992,117.626 L142.992,124.095 L141.049,124.095 L141.049,108.983 L141.048,108.983 Z M145.544,115.887 C147.429,115.887 148.677,114.814 148.677,113.103 C148.677,111.739 147.865,110.724 146.124,110.724 L142.991,110.724 L142.991,115.887 L145.544,115.887 Z" id="Shape"></path>
                </g>
                <path d="M222.7,118.6 C222.7,132.8 226.9,138 244.6,138 L249,138 L249,142.8 L242.7,142.8 C216.4,142.8 209.9,135.5 209.9,116 L209.9,90.7 C209.9,73.2 203.8,76.1 189.9,71.7 C203.6,66.9 209.9,69.4 209.9,52.5 L209.9,26.9 C209.9,7.7 217.3,0.2 238.3,0.2 L249,0.2 L249,5 L244.4,5 C225.9,5 222.7,10.4 222.7,24.2 L222.7,51 C222.7,59.6 222.5,66.7 213.9,71.5 C222.5,76.1 222.7,83 222.7,91.6 L222.7,118.6 Z" id="bracket_open"></path>
            </g>
            <ellipse id="logoCircle" stroke="#000000" stroke-width="10" cx="215" cy="217" rx="215" ry="217"></ellipse>
        </g>
    </g>
</svg>